<?xml version="1.0" encoding="UTF-8"?>
<svg id="Capa_1" data-name="Capa 1" xmlns="http://www.w3.org/2000/svg" viewBox="0 0 22 22">
  <defs>
    <style>
      .cls-1 {
        stroke: #fff;
        stroke-miterlimit: 10;
        stroke-width: .04px;
      }

      .cls-1, .cls-2 {
        fill: none;
      }

      .cls-3 {
        fill: #fff;
      }

      .cls-4 {
        fill: #b3291d;
      }

      .cls-5 {
        fill: #0e4727;
      }

      .cls-6 {
        fill: #81bb4a;
      }

      .cls-7 {
        fill: #9a1915;
      }

      .cls-8 {
        fill: #db675e;
      }
    </style>
  </defs>
  <g>
    <g>
      <path class="cls-6" d="m12.685478,15.053733c-.27.04-.54.06-.8.11-.24.05-.49.03-.73.09-.26.07-.54.04-.8.11-.12.03-.25.02-.38.04-.36.06-.73.09-1.09.14-.53.07-1.05.15-1.58.22-.15.02-.31,0-.46.03-.26.05-.52.07-.79.11-.44.06-.87.15-1.31.18-.3.02-.59.09-.88.11-.09,0-.19.04-.28.06-.15.03-.23-.02-.24-.17-.03-.51-.15-1.01-.19-1.52-.04-.49-.13-.97-.17-1.46-.04-.44-.13-.88-.18-1.33-.02-.2-.04-.4-.06-.6-.02-.2-.09-.39-.1-.59-.02-.36-.12-.71-.12-1.08,0-.09.02-.13.12-.14.31-.03.62-.08.93-.13.1-.01.13-.09.14-.17.11-.61.26-1.21.47-1.79.03-.09,0-.18.04-.27.16-.42.25-.86.36-1.3.14-.55.28-1.11.42-1.66.04-.14.1-.14.2-.11.43.12.85.24,1.28.35.81.21,1.62.39,2.42.62.28.08.57.14.86.23.46.14.93.26,1.41.35.4.08.78.22,1.17.32.6.16,1.190001.33,1.8.45.25.05.5.12.74.21.27.09.54.13.81.21.28.08.58.09.84.2.54.21,1.12.27,1.66.46.1.03.2.05.31.06.19.02.22.05.160001.24-.120001.43-.25.86-.35,1.3-.08.36-.21.71-.28,1.07-.07.37-.19.72-.29,1.08-.07.26-.14.52-.19.78-.08.41-.25.8-.33,1.21-.03.14,0,.26.02.38.04.27.04.55.12.82.03.09.02.16-.11.19-.35.08-.7.1-1.06.15-.28.04-.57.08-.85.11-.3.04-.59.08-.89.12-.36.05-.73.1-1.09.14-.23.03-.47.06-.7.09h0l.019999-.019999Zm-2.55-2.650001c-.1-.03-.2-.07-.31-.07-.13-.1-.29-.1-.43-.14-.63-.16-1.25-.32-1.88-.49-.12-.03-.16,0-.16.12,0,.17.01.35.04.51.17.85.63,1.48,1.41,1.88.05.02.12.03.14.11-.26.04-.51.08-.77.11-.48.06-.95.11-1.43.17-.53.07-1.05.15-1.58.22-.05,0-.12.02-.16-.04-.14-.22-.36-.34-.6-.43-.05-.02-.12-.02-.11-.09.01-.1-.03-.2-.04-.3-.03-.31-.08-.61-.12-.92-.04-.28-.07-.56-.11-.84-.04-.29-.06-.57-.11-.85-.04-.21-.06-.39.17-.5,0,0,.01-.02.02-.03-.18-.1-.39-.1-.58-.17-.05-.02-.08-.01-.07.07.06.39.1.78.15,1.17.04.37.08.74.13,1.1.05.37.11.73.16,1.1.06.43.11.85.16,1.28.01.08.04.09.12.08.19-.04.38-.07.57-.09.38-.05.77-.07,1.15-.14.6-.11,1.21-.15,1.81-.25.47-.07.95-.1,1.43-.17.48-.08.96-.12,1.44-.19.29-.04.58-.05.87-.11.5-.09,1-.13,1.5-.21.41-.07.83-.08,1.24-.14.39-.06.79-.1,1.19-.16.2-.03.39-.06.59-.08-.18-.07-.35-.13-.53-.18-.41-.11-.82-.21-1.26-.1-.33.08-.69.09-1.03.14-.24.03-.48.07-.73.09-.3.03-.59.1-.92.11.33-.25.56-.54.75-.87.08-.13.06-.19-.1-.21-.08,0-.15-.05-.23-.07-.22-.05-.44-.14-.67-.15-.22-.09-.44-.15-.68-.17-.13-.09-.28-.1-.43-.13v.030001Zm6.230001.9c.06-.01.06-.09.08-.15.16-.65.32-1.3.49-1.95.13-.52.28-1.03.42-1.55.14-.53.25-1.07.42-1.59.03-.1,0-.13-.09-.15-.4-.1-.79-.2-1.190001-.3-.49-.13-.98-.27-1.47-.4-.51-.13-1.02-.26-1.53-.39-.99-.26-1.98-.52-2.97-.78-.58-.15-1.16-.31-1.75-.45-.4-.09-.8-.23-1.2-.31-.23-.05-.47-.1-.69-.17-.36-.12-.74-.19-1.11-.3-.13-.04-.18.02-.2.14,0,.03-.01.06-.02.09-.21.79-.42,1.58-.62,2.37-.23.88-.45,1.77-.69,2.65-.02.09.02.1.06.11.52.13,1.03.25,1.55.4.39.11.79.2,1.19.31.74.2,1.48.41,2.23.59.81.2,1.61.42,2.42.62.57.14,1.15.3,1.72.45.8.2,1.61.41,2.400001.63.18.05.36.09.56.14l-.009999-.010001Zm-10.4-1.38c-.33,0-.52.18-.52.51,0,.31.22.53.51.53.3,0,.53-.2.53-.47,0-.4-.15-.57-.52-.57Z"/>
      <path class="cls-5" d="m16.365478,13.303733c-.2-.05-.38-.09-.56-.14-.8-.23-1.6-.43-2.400001-.63-.57-.15-1.14-.31-1.72-.45-.81-.2-1.61-.43-2.42-.62-.75-.18-1.48-.4-2.23-.59-.39-.1-.79-.19-1.19-.31-.51-.15-1.03-.27-1.55-.4-.04-.01-.08-.02-.06-.11.24-.88.46-1.77.69-2.65.21-.79.42-1.58.62-2.37,0-.03.02-.06.02-.09.02-.12.07-.18.2-.14.36.12.74.18,1.11.3.22.08.46.13.69.17.41.08.8.21,1.2.31.59.14,1.17.3,1.75.45.99.26,1.98.52,2.97.78.51.13,1.02.26,1.53.39.49.13.98.27,1.47.4.39.1.79.2,1.190001.3.08.02.12.05.09.15-.17.52-.28,1.06-.42,1.59-.14.52-.29,1.03-.42,1.55-.17.65-.33,1.3-.49,1.95-.02.06-.02.14-.08.15l.01.010001Zm-7.12-2.37c-.71-.75-.98-1.59-.72-2.55.26-.94.88-1.56,1.84-1.84-.31-.09-.59-.17-.87-.24-.57-.14-1.14-.27-1.7-.43-.39-.11-.78-.2-1.17-.31-.05-.02-.12-.05-.19.02-.17.17-.38.28-.62.33-.09.02-.13.06-.15.14-.16.64-.33,1.27-.5,1.91-.1.37-.19.75-.28,1.13-.02.08,0,.11.05.15.2.14.33.34.39.57.02.06.04.12.12.14.34.09.67.17,1.01.26.45.12.9.23,1.35.34.46.12.93.25,1.43.38h.01Zm2.41.61s.06.04.08.04c.73.19,1.46.37,2.18.56.45.12.91.21,1.35.37.1.04.23.06.33-.04.17-.18.39-.26.62-.3.07,0,.08-.04.1-.09.12-.37.2-.75.3-1.12.17-.63.32-1.26.49-1.88.03-.12.04-.22-.09-.3-.11-.07-.21-.18-.23-.3-.07-.32-.31-.4-.58-.44h-.03c-.62-.16-1.23-.32-1.85-.48-.5-.13-.99-.25-1.52-.39.69.74.94,1.58.69,2.53-.26.95-.91,1.55-1.85,1.84h.01Zm-.46-1.02c.1.02.21,0,.31-.04.51-.14.86-.83.44-1.32-.15-.17-.35-.27-.53-.4-.07-.05-.13-.09-.09-.21.03-.1.08-.21.08-.32,0-.05.02-.11.05-.12.05-.01.1.02.14.06s.08.09.07.14c-.04.21.09.26.25.29.09.02.18.04.27.08.15.07.18-.03.19-.14.03-.45-.26-.75-.63-.89-.12-.04-.17-.06-.12-.2.06-.16-.11-.12-.18-.15-.05-.03-.14-.03-.14.09,0,.08-.04.16-.14.13-.21-.05-.42-.05-.63,0-.52.15-.74.81-.4,1.21.16.19.35.32.55.44.06.03.11.05.07.14-.05.12-.06.25-.1.38-.02.06,0,.15-.07.15-.07,0-.13-.05-.16-.12-.04-.07-.08-.15-.06-.22.05-.14-.03-.16-.13-.19-.14-.04-.28-.08-.42-.11-.07-.02-.15,0-.15.09,0,.13-.03.27.01.4.1.33.35.52.65.64.1.04.21.08.11.22-.01.01,0,.04,0,.06-.02.06-.06.13.05.13.08,0,.2.13.24-.06.03-.16.09-.25.28-.17.05.02.12,0,.19,0l.000002.01Z"/>
      <path class="cls-5" d="m11.245478,12.693733c.23.01.45.1.67.15.08.02.15.06.23.07.16.01.18.07.1.21-.19.33-.42.62-.75.87.33,0,.62-.07.92-.11.24-.03.48-.06.73-.09.34-.04.69-.06,1.03-.14.44-.1.84,0,1.26.1.18.05.35.1.53.18-.2.03-.39.06-.59.08-.4.05-.79.09-1.190001.16-.41.06-.83.08-1.24.14-.5.08-1.01.12-1.5.21-.29.05-.58.07-.87.11-.48.07-.96.11-1.44.19-.47.07-.95.1-1.43.17-.6.09-1.21.14-1.81.25-.38.07-.77.09-1.15.14-.19.02-.38.05-.57.09-.07.01-.11,0-.12-.08-.05-.43-.11-.86-.16-1.28-.05-.37-.11-.73-.16-1.1-.05-.37-.09-.74-.13-1.1-.05-.39-.09-.78-.15-1.17-.01-.09.02-.09.07-.07.19.07.4.07.58.17,0,.01,0,.02-.02.03-.24.1-.21.29-.17.5.05.28.07.57.11.85s.07.56.11.84c.04.31.09.61.12.92,0,.1.05.2.04.3,0,.07.06.07.11.09.24.09.46.21.6.43.04.06.11.05.16.04.53-.07,1.05-.15,1.58-.22.48-.06.95-.11,1.43-.17.26-.03.51-.07.77-.11-.02-.08-.09-.08-.14-.11-.77-.4-1.24-1.04-1.41-1.88-.03-.16-.05-.34-.04-.51,0-.13.04-.16.16-.12.62.17,1.25.33,1.88.49.15.04.31.04.43.14.05.1.02.21.03.32,0,.06.08.12,0,.17-.08.04-.16-.01-.21-.07-.05-.06-.11-.12-.11-.2,0-.06-.05-.07-.1-.08-.18-.01-.35.01-.52.04-.08.01-.13.05-.1.17.1.4.49.73.98.69.17-.01.23.06.23.2,0,.13.06.14.15.13.14-.01.19-.08.13-.27-.03-.11,0-.11.09-.12.37-.08.7-.23.86-.61l-.010001-.030001Z"/>
      <path class="cls-3" d="m11.245478,12.693733c-.16.38-.49.53-.86.61-.08.02-.12.01-.09.12.05.19,0,.25-.13.27-.1,0-.16,0-.15-.13,0-.15-.06-.22-.23-.2-.48.04-.88-.29-.98-.69-.03-.13.02-.16.1-.17.17-.03.35-.06.52-.04.05,0,.09.02.1.08,0,.08.07.15.11.2.05.06.13.11.21.07s.01-.11,0-.17c-.01-.1.02-.21-.03-.32.11,0,.21.04.31.07,0,.11.05.2.04.31,0,.05.03.09.09.06.12-.06.26-.09.3-.25.24.02.46.08.68.17l.01.009999Z"/>
      <path class="cls-5" d="m5.965478,11.913732c.36,0,.52.17.52.57,0,.27-.23.47-.53.47s-.51-.22-.51-.53c0-.32.19-.51.52-.51Z"/>
      <path class="cls-5" d="m10.565478,12.533732c-.04.15-.18.19-.3.25-.07.03-.1-.01-.09-.06.01-.11-.05-.21-.04-.31.15.03.3.03.43.13v-.009999Z"/>
      <path class="cls-6" d="m9.245478,10.933733c-.51-.14-.97-.26-1.43-.38-.45-.12-.9-.23-1.35-.34-.34-.09-.68-.17-1.01-.26-.07-.02-.1-.08-.12-.14-.06-.24-.19-.43-.39-.57-.06-.04-.07-.07-.05-.15.09-.38.18-.76.28-1.13.18-.63.34-1.27.5-1.91.02-.08.06-.13.15-.14.24-.05.45-.15.62-.33.07-.07.13-.04.19-.02.39.11.78.2,1.17.31.56.16,1.13.29,1.7.43.28.07.56.16.87.24-.96.29-1.58.9-1.84,1.84-.26.96.01,1.8.72,2.55h-.01Zm-1.59-2.899999c.07-.28-.24-.55-.51-.54-.3,0-.56.25-.56.55,0,.25.27.52.51.52.34,0,.55-.2.56-.53Z"/>
      <path class="cls-6" d="m11.655478,11.543732c.94-.29,1.59-.89,1.85-1.84.26-.95,0-1.8-.69-2.53.52.13,1.02.26,1.52.39.62.16,1.23.32,1.85.48h.03c.27.05.51.12.58.44.03.12.13.23.23.3.13.08.12.18.09.3-.18.62-.32,1.26-.49,1.88-.1.37-.18.75-.3,1.12-.02.06-.03.08-.1.09-.24.03-.45.12-.62.3-.1.1-.24.08-.33.04-.44-.17-.9-.25-1.35-.37-.73-.19-1.46-.37-2.18-.56-.02,0-.05-.02-.08-.04h-.01Zm3.76-1.480001c0-.33-.2-.52-.51-.54-.31-.01-.54.27-.53.5.01.32.24.58.53.57.24,0,.56-.2.52-.53h-.009999Z"/>
      <path class="cls-3" d="m11.195478,10.523732c-.08,0-.14.02-.19,0-.18-.08-.24.01-.28.17-.04.18-.16.06-.24.06-.11,0-.08-.07-.05-.13v-.06c.1-.14,0-.18-.11-.22-.31-.12-.55-.31-.65-.64-.04-.13-.02-.27-.01-.4,0-.09.08-.1.15-.09.14.03.28.08.42.11.1.03.18.05.13.19-.03.07.02.15.06.22.03.06.1.12.16.12.06,0,.06-.1.07-.15.04-.12.05-.26.1-.38.04-.1-.01-.11-.07-.14-.21-.12-.4-.25-.55-.44-.33-.39-.12-1.06.4-1.21.2-.06.42-.06.63,0,.1.03.14-.05.14-.13,0-.12.08-.11.14-.09.07.04.24,0,.18.15-.05.14,0,.16.12.2.37.14.66.44.63.89,0,.11-.03.21-.19.14-.09-.04-.18-.06-.27-.08-.17-.03-.3-.08-.25-.29,0-.05-.03-.1-.07-.14s-.09-.08-.14-.06c-.03,0-.06.07-.05.12,0,.11-.04.22-.08.32-.04.12.02.16.09.21.18.13.38.23.53.4.42.49.07,1.18-.44,1.32-.11.03-.22.06-.31.04v-.01Zm-.150001-.58c.19,0,.3-.07.32-.21.02-.12-.11-.3-.25-.34-.06-.02-.11.01-.11.06,0,.12-.05.22-.08.32-.05.14-.02.18.11.16l.01.01Zm.1-1.87s0-.06-.03-.06c-.09,0-.19-.04-.26.02-.08.06-.16.14-.12.25.04.12.15.19.26.24.02,0,.05,0,.05-.02.04-.14.07-.28.1-.42v-.01Z"/>
      <path class="cls-5" d="m7.645478,8.023732c0,.32-.22.53-.56.53-.25,0-.51-.28-.51-.52,0-.3.26-.55.56-.55.26,0,.57.26.51.54Z"/>
      <path class="cls-5" d="m15.415478,10.063732c.05.34-.28.52-.52.53-.29.01-.51-.26-.53-.57,0-.23.22-.51.53-.5.32.01.51.21.51.54h.009999Z"/>
      <path class="cls-5" d="m11.045478,9.943733c-.12.02-.15-.02-.11-.16.03-.1.08-.2.08-.32,0-.05.05-.08.11-.06.13.04.26.22.25.34-.02.14-.13.21-.32.21l-.01-.01Z"/>
      <path class="cls-5" d="m11.145478,8.073733c-.03.14-.07.28-.1.42,0,.03-.03.03-.05.02-.11-.05-.22-.12-.26-.24s.04-.2.12-.25c.08-.06.18-.02.26-.02.03,0,.03.04.03.06v.01Z"/>
    </g>
    <g>
      <circle class="cls-4" cx="15.953576" cy="14.561302" r="3.52"/>
      <circle class="cls-8" cx="15.949786" cy="14.567259" r="3.18"/>
      <path class="cls-7" d="m15.955478,17.743732c1.76,0,3.18-1.42,3.18-3.18,0-.52-.120001-1-.34-1.43-1.25-.17-2.98-.11-4.21,1.1-.66.65-1.14,1.22-1.49,1.72.51,1.07,1.6,1.8,2.87,1.8l-.01-.01Z"/>
      <circle class="cls-1" cx="15.949786" cy="14.567259" r="3.18"/>
      <rect class="cls-3" x="13.845479" y="13.963733" width="4.03" height="1.16" rx=".17" ry=".17"/>
      <rect class="cls-3" x="15.285478" y="12.513733" width="1.16" height="4.03" rx=".17" ry=".17"/>
    </g>
  </g>
  <rect class="cls-2" width="22" height="22"/>
</svg>