<?xml version="1.0" encoding="UTF-8"?>
<svg id="Capa_1" data-name="Capa 1" xmlns="http://www.w3.org/2000/svg" viewBox="0 0 22 22">
  <defs>
    <style>
      .cls-1 {
        fill: #cf8927;
      }

      .cls-2 {
        fill: #55b793;
      }

      .cls-3 {
        fill: #aeaeae;
      }

      .cls-4 {
        fill: #97ceb8;
      }

      .cls-5 {
        fill: #026838;
      }

      .cls-6 {
        fill: #ee7e35;
      }

      .cls-7 {
        fill: #ebebeb;
      }

      .cls-8 {
        fill: #b5c0cd;
      }

      .cls-9 {
        fill: none;
      }

      .cls-10 {
        fill: #588673;
      }

      .cls-11 {
        fill: #f9dfa4;
      }

      .cls-12 {
        fill: #1a1a1a;
      }

      .cls-13 {
        fill: #f6a533;
      }

      .cls-14 {
        fill: #454545;
      }

      .cls-15 {
        fill: #f7f6f6;
      }

      .cls-16 {
        fill: #595959;
      }

      .cls-17 {
        fill: #010101;
      }

      .cls-18 {
        fill: #979796;
      }
    </style>
  </defs>
  <g>
    <path class="cls-5" d="m16.11,12.49s-.02-.03-.01-.04c.02,0,0,.03.01.04Z"/>
    <path class="cls-5" d="m5.89,9.53v-.02h.01-.01v.02Z"/>
  </g>
  <g>
    <path class="cls-17" d="m6.5942,18.059999c-.06,0-.12-.04-.16.04-.09.07-.04.16-.04.24v1.080001h-3.6c-.12,0-.19,0-.19-.16.01-.84.01-1.68.01-2.52.02-.01.03-.03.05-.04.16,0,.32-.02.47,0,.24.04.23-.12.21-.26-.06-.5-.13-.99-.2-1.49.07-.05.06-.11,0-.16v-2.41c.05-.04.04-.08,0-.11.03-.31.04-.62.1-.92.07-.32.08-.64.13-.96.06-.33.27-.54.45-.79.27-.37.57-.71.85-1.07.05-.07.09-.15.09-.26,0-.61,0-1.23-.01-1.84-.06-.11-.15-.05-.23-.05h-1.92v-2.6c-.01-.500001.46-1.020001.96-1.150001.17-.04.34-.05.51-.05h10.12c.66,0,1.190001.34,1.38,1,.03.09,0,.17.02.26.01.02.02.04.03.06v2.6c0,.19,0,.24.25.21.92-.12,1.79.04,2.51.7.42.39.74.84.9,1.41.200001.72.16,1.39-.17,2.06-.059999.13-.120001.26-.190001.4-.08-.04-.15-.08-.23-.12-.07-.08-.19-.1-.23-.21.370001-.61.48-1.24.290001-1.94-.120001-.43-.32-.81-.63-1.1-.51-.47-1.12-.77-1.84-.69-.42.05-.86.07-1.2.37-.09.07-.16.17-.25.23-.47.34-.72.84-.81,1.38-.08.49-.09,1.02.2,1.48,0,.04-.02.1,0,.13.45.64.99,1.14,1.83,1.25.72.09,1.33-.09,1.88-.51.18-.13.29-.17.44,0,0,.11.12.14.15.23-.83.74-1.77,1.03-2.88.77v2.77c.06.1.16.05.24.05h1.91v1.47s-.03.04-.05.06c-.01.55-.52,1.02-1.09,1.15-.17.04-.35.09-.53.05-.07-.1-.18-.05-.27-.05H6.594199v.010001Zm-1.209999-10.43v-.04c.02,0,.03,0,.05-.02.03,0,.05-.02.06-.04.02,0,.03,0,.05-.01.04,0,.09.02.11-.04.38-.03.72.07.9.41.18.33.18.69-.06,1.02-.24.33-.47.67-.72.99-.29.38-.52.77-.46,1.28.04.32.02.65,0,.97-.02.34.08.64.23.93.07.13.11.15.21.04.25-.27.52-.52.78-.78.26-.26.72-.32,1.02-.14.39.23.55.62.42,1.02-.07.22-.23.38-.38.53-.53.54-1.07,1.08-1.62,1.61-.09.09-.15.19-.14.32-.14.16-.14.53,0,.69,0,.12.01.24.02.34.19-.02.36-.08.52.03v.51c0,.05-.03.13.03.16.08.04.14-.02.18-.09.17-.12.29-.26.3-.48v-.05h0c.1-.36.04-.73.03-1.09,0-.26.05-.35.34-.35,2.5.01,4.99,0,7.49,0,.1,0,.21.05.29-.05v-.05h.02s.03-.06.03-.09v-2.099999c0-.04,0-.09-.04-.12,0-.02-.01-.03-.02-.05,0-.07,0-.14.01-.21.05-.28-.06-.46-.31-.58-.12-.06-.23-.15-.33-.24-.48-.42-.75-.96-.94-1.55v-.21c-.16-.75.09-1.43.43-2.07.25-.47.68-.77,1.11-1.07.02,0,.03,0,.05-.01,0,0,.02-.01.02-.02.05-1.01.06-2.03,0-3.04-.14-.51-.37-.72-.8-.74-.08-.09-.18-.04-.27-.04H5.624199c-.09,0-.17.01-.26.02h-.29c-.02.03,0,.03.03.04,0,.21.17.37.17.58-.01.01-.01.03,0,.05,0,.04-.01.08.03.11v.5c0,1.05,0,2.11.01,3.16v.09s.02.02.02.03l.03-.04.02-.019999Zm-2.25-2.259999c0,.07,0,.14-.02.21-.04.22.05.28.27.27.3-.02.59,0,.89,0,.333333,0,.49-.173333.47-.52,0-.43.01-.86,0-1.29,0-.63-.42-.98-1.04-.87-.3.06-.57.39-.54.68-.05.05-.04.11-.04.17v1.36l.01-.01Zm0,12.95v.52c.01.059999.05.049999.1.030001h2.09c.373333,0,.553334-.190001.54-.57,0-.3,0-.6.01-.89,0-.13-.03-.17-.16-.16-.84,0-1.68,0-2.52.01-.12.35-.04.71-.04,1.06l-.02-.000002Zm14.03-2.42s-.03-.01-.05-.01H7.6742c-.18,0-.19.08-.19.22,0,.46.06.94-.22,1.36,0,0-.01.01-.01.02v.02c.09,0,.17.02.26.02h8.65c.09,0,.17.01.26,0,.41-.01.76-.34.79-.73.09-.28.03-.57.03-.86,0-.01-.06-.02-.09-.03l.01-.010002Zm-13.46-2.23c-.09.88.07,1.84.16,2.8.01.14.06.24.24.23.33-.01.67-.02,1,0,.19,0,.22-.06.21-.23v-1.05c0-.15.04-.26.15-.37.3-.28.59-.57.9-.85.33-.31.61-.67.95-.98.17-.15.17-.29.09-.44-.09-.15-.32-.13-.47.02-.3.3-.61.58-.89.9-.2.23-.42.32-.73.31-.23,0-.31-.07-.29-.3.01-.19.12-.38-.04-.59-.13-.17-.22-.38-.22-.62v-1.5c0-.16-.02-.32.02-.49.11-.46.44-.77.68-1.14.18-.28.4-.54.59-.81.11-.16.12-.36-.04-.47-.15-.1-.3-.04-.43.14-.38.53-.81,1.03-1.21,1.55-.17.22-.41.4-.46.67-.09.56-.17,1.12-.21,1.690001-.03.48,0,.96,0,1.529999Z"/>
    <path class="cls-6" d="m18.3842,11.54c-.15-.16-.26-.13-.44,0-.55.42-1.16.6-1.88.51-.84-.11-1.37-.61-1.83-1.25-.02-.03,0-.08,0-.13.01,0,.03.02.04.03.76,1.09,2.309999,1.37,3.45.78.28-.15.47-.41.75-.55.04.11.160001.14.23.21-.110001.13-.22.26-.33.39l.009999.01Z"/>
    <path class="cls-3" d="m6.5942,18.059999h9.26c.09,0,.19-.05.27.05H6.7942c-.07,0-.14.02-.2-.04v-.01Z"/>
    <path class="cls-3" d="m2.5942,6.36h1.92c.08,0,.18-.06.23.05h-1.89c-.09,0-.19.05-.26-.06v.01Z"/>
    <path class="cls-18" d="m17.8042,15.37h-1.91c-.08,0-.18.05-.24-.05h1.89c.09,0,.19-.05.26.06v-.01Z"/>
    <path class="cls-3" d="m6.3842,19.41v-1.08c0-.08-.05-.18.04-.24v1.139999c0,.059999.03.139999-.06.18h.02Z"/>
    <path class="cls-16" d="m3.1442,14.78c.05.06.06.11,0,.16v-.16Z"/>
    <path class="cls-16" d="m3.1342,12.26c.05.03.06.07,0,.11v-.11Z"/>
    <path class="cls-16" d="m2.6542,16.7l-.05.04s0-.06.05-.04Z"/>
    <path class="cls-12" d="m17.754199,16.9s.03-.04.04-.06c.01.04-.01.05-.04.06Z"/>
    <path class="cls-14" d="m15.6342,3.9s-.02-.04-.03-.06c.03.01.05.02.03.06Z"/>
    <path class="cls-7" d="m15.0242,6.96c-.42.3-.86.6-1.11,1.07-.34.65-.59,1.32-.43,2.07.01.07,0,.14,0,.21-.1.08-.06.2-.05.3.07.48.18.94.47,1.34.3.42.64.78,1.15.94,0,.02.01.03.02.05l-.01-.01h-.01s-.02.02-.01.03c0,.01.01.02.02.04v.31c0,.65.01,1.3.02,1.96h-.02c-.02.01-.04.03-.05.04h-7.82c-.1,0-.21-.05-.29.05l-.02.01c0,.01.01.02.02.03,0,.46,0,.92.01,1.37h0s-.02,0-.02.01,0,.03.01.04c-.02.21-.14.36-.3.48-.17-.04-.09-.18-.11-.27-.03-.1.07-.25-.1-.31-.17-.11-.34-.05-.52-.03,0-.1-.01-.22-.02-.34v-.69c0-.13.04-.23.14-.32.54-.53,1.08-1.07,1.62-1.61.15-.16.31-.31.38-.53.12-.4-.04-.79-.42-1.02-.3-.18-.76-.12-1.02.14-.26.26-.52.52-.78.78-.11.11-.15.09-.21-.04-.15-.29-.26-.59-.23-.93.02-.32.04-.65,0-.97-.06-.51.16-.9.46-1.28.25-.32.48-.66.72-.99.24-.33.23-.69.06-1.02-.18-.34-.52-.44-.9-.41-.07-.08-.09-.03-.11.04-.01.01-.03.01-.05.01-.02.01-.04.03-.06.04-.01,0-.03.01-.05.02-.02,0-.04-.02-.06-.03,0-1.05,0-2.11-.01-3.16v-.5c0-.03.01-.06.02-.1-.01-.02-.02-.04-.04-.06,0-.21-.17-.37-.17-.58l.02-.01v-.02h.25c.02.01.04.03.06.04.02.03.03.02.05,0h8.79c.44.02.66.22.8.74,0,.1-.01.19-.01.29,0,.91,0,1.81-.01,2.72-.01.02-.03.04-.04.06h-.03Zm-5.38,2.949999v-.02s-.03-.03-.05,0c-.51,0-1.01.01-1.52.02-.03-.01-.05,0-.05.04v.47c0,.03.01.05.05.04h1.57c.04.02.05,0,.05-.04v-.47c0-.04,0-.06-.05-.04Zm4.42-6.28c-.08-.08-.18-.04-.28-.04h-7.23c-.09,0-.19-.03-.28.04-.05.02-.13-.02-.16.07v3.46c0,.04,0,.05.05.04h7.99c.04.02.05,0,.06-.04.07-.03.04-.09.04-.13v-3.21c0-.05.02-.11-.05-.13-.04-.06-.11-.04-.16-.05l.02-.01Zm-4.15,11.15c.04.07.1.06.16.06h1.3c.06,0,.12.02.16-.05,0-.1-.01-.19,0-.29.03-.19-.04-.26-.24-.24-.3.02-.59,0-.89,0-.34,0-.506667.173333-.5.52h.01Zm2.99-.530001c-.1.06-.28-.08-.3.09-.02.15-.07.32.04.46.51.09,1.02.03,1.52.03.02,0,.04-.03.05-.05v-.3c.03-.18-.05-.24-.21-.23-.01-.04-.03-.09-.08-.09h-.94c-.05,0-.07.04-.08.09Zm-.63-5.42c-.51-.05-1.02-.07-1.53,0-.1.12-.03.27-.05.4-.02.12.05.14.15.14h1.34c.05,0,.14.03.13-.07-.02-.16.07-.33-.04-.48v.01Zm-4.26.02v.36c-.01.13.04.16.16.16h1.36c.07,0,.18.03.17-.1-.01-.14.05-.3-.05-.43-.03-.07-.1-.06-.16-.06h-1.3c-.06,0-.12-.01-.16.06l-.02.01Zm2.74,1.06s-.05,0-.05.04v.47c0,.04,0,.06.05.04h1.57c.03.01.05,0,.05-.04-.06-.16-.06-.31,0-.47,0-.03-.01-.05-.05-.04h-1.57Zm3.41,3.809999s.05,0,.05-.04v-.47c.01-.04,0-.05-.04-.04h-4.2c-.04-.01-.05,0-.05.04v.47c0,.04,0,.06.05.04h4.2-.01Zm-1.26-2.2v-.18c0-.226666-.116667-.34-.35-.34h-4.97c-.06,0-.16-.03-.15.08.01.15-.06.31.04.45.06.06.13.04.2.04h5.01c.07,0,.16.04.21-.05h.01Z"/>
    <path class="cls-13" d="m17.2242,16.79c-.03.4-.38.72-.79.73h-.26c-.09-.08-.2-.04-.3-.04H7.274199c.28-.42.22-.9.22-1.36,0-.14.01-.22.19-.22h9.44c.02,0,.03,0,.05.01.11.29.02.59.06.89l-.009999-.010001Z"/>
    <path class="cls-13" d="m18.4742,10.94c-.28.14-.47.4-.75.55-1.13.6-2.69.31-3.45-.78,0-.01-.03-.02-.04-.03-.29-.46-.28-.99-.2-1.48.09-.54.34-1.04.81-1.38.09-.07.16-.16.25-.23.34-.3.78-.33,1.2-.37.72-.08,1.33.22,1.84.69.31.29.51.66.629999,1.1.190001.71.08,1.34-.29,1.940001v-.010001Zm-2.87-.72c.11.38.12.49.31.58.26.13.28.33.26.57-.02.27.18.18.33.2.16.02.23-.04.2-.2-.06-.31.07-.5.35-.66.26-.14.28-.6.14-.87-.17-.34-.46-.44-.79-.49-.12-.02-.2-.1-.22-.22-.02-.11.03-.2.12-.23.1-.04.22-.13.31.02.11.19.3.17.48.17.21,0,.23-.16.16-.26-.09-.14-.15-.32-.34-.39-.2-.07-.26-.23-.22-.44.04-.2-.02-.29-.26-.28-.22,0-.31.05-.27.27.03.21-.02.35-.24.44-.19.07-.37.54-.33.72.1.5.35.72.88.78.11.01.19.06.22.16.03.1.02.21-.09.28-.1.06-.21.08-.29,0-.21-.23-.46-.16-.71-.15Zm2.43-.84c-.23-.05-.3.04-.29.27,0,.22.05.3.29.31.26,0,.29-.1.3-.32.01-.26-.1-.29-.31-.26h.01Zm-3.49.27c-.02.18-.03.31.23.31.23,0,.3-.08.29-.3,0-.19,0-.3-.26-.29-.24,0-.32.07-.27.29l.010001-.01Z"/>
    <path class="cls-11" d="m3.7042,13.67c0-.57-.03-1.05,0-1.53.04-.56.12-1.13.21-1.69.05-.28.29-.46.46-.67.4-.52.82-1.02,1.21-1.55.13-.18.28-.24.43-.14.16.11.15.31.04.47-.19.28-.4.54-.59.81-.24.37-.58.68-.68,1.14-.04.17-.02.33-.02.49-.01.5,0,1,0,1.5,0,.24.09.45.22.62.16.21.05.4.04.59-.02.23.06.29.29.3.31.01.53-.08.73-.31.28-.31.59-.6.89-.9.15-.15.38-.17.47-.02.08.15.08.29-.09.44-.34.3-.62.67-.95.98-.3.28-.6.57-.9.85-.11.1-.16.22-.15.37v1.05c0,.16-.03.24-.21.23-.33-.02-.67-.01-1,0-.18,0-.23-.09-.24-.23-.09-.96-.25-1.92-.16-2.799999Z"/>
    <path class="cls-13" d="m3.1742,3.84c-.02-.29.24-.62.54-.68.62-.11,1.04.24,1.04.87v1.29h-1.56c0-.49,0-.98-.01-1.47l-.01-.01Z"/>
    <path class="cls-4" d="m3.1742,17.26c.84,0,1.68,0,2.52-.01.13,0,.17.04.16.16-.01.3,0,.6-.01.89h-2.67v-1.05.01Z"/>
    <path class="cls-2" d="m3.1742,18.309999h2.67c.02.379999-.16.57-.54.57h-2.09c-.03-.01-.06-.02-.1-.030001v-.52h.04l.02-.019999Z"/>
    <path class="cls-8" d="m15.0542,12.9c-.5-.17-.85-.52-1.15-.94-.29-.4-.4-.87-.47-1.34-.01-.09-.05-.21.05-.3.2.59.47,1.13.94,1.55.1.09.21.18.33.24.25.12.36.3.31.58-.01.07,0,.14-.01.21Z"/>
    <path class="cls-6" d="m3.1842,5.31h1.56c.02.346667-.136667.52-.47.52-.3,0-.59-.01-.89,0-.22.01-.31-.05-.27-.27.01-.07.01-.14.02-.21.02-.02.03-.04.05-.06v.02Z"/>
    <path class="cls-18" d="m6.9042,15.37c.08-.1.2-.05.29-.05h7.87c-.08.1-.2.05-.29.05h-7.49c-.28,0-.34.08-.34.35,0,.36.06.73-.03,1.09,0-.46,0-.92-.01-1.37v-.070001Z"/>
    <path class="cls-1" d="m7.274199,17.47h8.600001c.1,0,.21-.03.3.04H7.5242c-.09,0-.17,0-.26-.02v-.02s0-.02.01-.02v.020001Z"/>
    <path class="cls-18" d="m5.4442,3.17s-.04-.03-.06-.04c.09,0,.17-.02.26-.02h8.37c.09,0,.19-.04.27.04H5.444201v.02Z"/>
    <path class="cls-16" d="m15.0642,6.9c0-.91,0-1.81.01-2.72,0-.1,0-.19.01-.29.07,1.01.05,2.03,0,3.04,0,0-.01.01-.02.02v-.05Z"/>
    <path class="cls-16" d="m15.0942,15.26c0-.65-.01-1.3-.02-1.96v-.360001h0l.01.01c.04.03.04.07.04.12v2.1c0,.03-.02.07-.03.1v-.01Z"/>
    <path class="cls-15" d="m6.3942,16.73c.17.06.07.2.1.31.02.1-.06.24.11.27-.04.07-.1.13-.18.09-.06-.03-.03-.11-.03-.16,0-.17,0-.34,0-.510001Z"/>
    <path class="cls-1" d="m3.1842,5.31s-.03.04-.05.06v-1.36c0-.06-.01-.12.04-.17,0,.49,0,.98.01,1.47Z"/>
    <path class="cls-12" d="m5.8542,15.68v.69c-.14-.16-.14-.53,0-.69Z"/>
    <path class="cls-10" d="m3.1742,18.309999h-.04c0-.35-.08-.71.04-1.059999v1.059999Z"/>
    <path class="cls-1" d="m17.2242,16.79c-.04-.29.06-.6-.06-.89.03,0,.09.02.09.03,0,.29.06.57-.03.860001Z"/>
    <path class="cls-15" d="m5.5442,7.51c.02-.07.04-.12.11-.04-.02.05-.06.04-.11.04Z"/>
    <path class="cls-10" d="m3.1342,18.84s.06.02.1.030001c-.04.02-.08.030001-.1-.030001Z"/>
    <path class="cls-16" d="m5.3342,3.8s-.01.06-.02.1c-.04-.03-.04-.07-.03-.11.01,0,.03.01.05.02v-.01Z"/>
    <path class="cls-16" d="m5.3842,7.63l-.03.04s-.02-.02-.02-.03c.02,0,.04,0,.05-.01Z"/>
    <path class="cls-15" d="m5.3842,7.63s-.04,0-.05.01v-.09c.02,0,.04.02.06.03v.04l-.01.01Z"/>
    <path class="cls-15" d="m5.4442,7.57s.04-.03.06-.04c-.01.02-.02.05-.06.04Z"/>
    <path class="cls-18" d="m5.1342,3.13v.02l-.01.01c-.02,0-.04-.01-.03-.04h.04v.01Z"/>
    <path class="cls-15" d="m15.0642,15.309999h-.05c.02-.01.04-.03.05-.04v.05-.01Z"/>
    <path class="cls-15" d="m15.0642,6.9v.05c-.02,0-.03,0-.05.01.01-.02.03-.04.04-.06h.01Z"/>
    <path class="cls-15" d="m6.9042,16.84s-.01-.03-.01-.04c0,0,.01,0,.02-.01v.05h-.01Z"/>
    <path class="cls-15" d="m5.3342,3.8s-.03-.01-.05-.02v-.05c.01.02.02.04.04.06l.01.01Z"/>
    <path class="cls-17" d="m14.1742,7.2h-7.99c-.02-.01-.03-.03-.05-.04v-3.46h8.099999c.07.03.05.09.05.13v3.21c0,.05.02.11-.04.13-.02.01-.04.02-.06.04l-.009999-.01Zm-7.47-2.98c-.06.02-.05.08-.05.13v2.24c0,.03,0,.07.05.06h6.69c.1,0,.21-.01.31-.02.07-.03.05-.08.05-.13v-2.12c0-.06.02-.13-.06-.16h-.16c-2.28,0-4.55,0-6.83,0Z"/>
    <path class="cls-17" d="m7.4842,11.53c-.1-.14-.03-.3-.04-.45-.01-.12.09-.08.15-.08h4.969999c.233334,0,.35.113334.35.34v.18h-5.42l-.01.009999Z"/>
    <path class="cls-17" d="m14.2142,13.21v.47c-.02.01-.03.03-.05.04h-4.2c-.02-.01-.03-.03-.05-.04v-.47c.02-.01.03-.03.05-.04h4.2l.04.04h.01Z"/>
    <path class="cls-17" d="m8.0742,9.91c.51,0,1.01-.01,1.52-.02h.05v.02c.02.01.03.03.05.04v.47c-.02.01-.03.03-.05.04h-1.57c-.02-.01-.03-.03-.05-.04v-.47c.02-.01.03-.02.05-.04Z"/>
    <path class="cls-17" d="m12.374199,9.95c-.06.16-.06.31,0,.47-.02.01-.03.02-.05.04h-1.57c-.02-.01-.03-.03-.05-.04v-.47c.02-.01.03-.03.05-.04h1.57c.02.01.03.02.05.04Z"/>
    <path class="cls-17" d="m9.6442,8.85c.1.13.04.28.05.43.01.13-.1.1-.17.1h-1.36c-.12,0-.17-.03-.16-.16.01-.12,0-.24,0-.36h1.62l.02-.01Z"/>
    <path class="cls-17" d="m12.284199,8.82c.11.15.03.32.04.48.01.1-.08.07-.13.07h-1.34c-.11,0-.17-.02-.15-.14.02-.13-.05-.28.05-.4.51.01,1.02.02,1.53,0v-.01Z"/>
    <path class="cls-17" d="m12.6442,14.8c-.11-.15-.06-.32-.04-.46.03-.16.21-.03.3-.09h1.1c.16-.01.25.05.21.23-.02.1,0,.2,0,.3-.53,0-1.05,0-1.58.01l.009999.01Z"/>
    <path class="cls-17" d="m9.9142,14.78c-.013333-.346666.153333-.52.5-.52.3,0,.6.01.89,0,.2-.01.27.05.24.24-.01.09,0,.19,0,.29h-1.62l-.01-.01Z"/>
    <path class="cls-18" d="m14.2342,3.68H6.1342c.02-.09.1-.05.16-.07h7.77c.06.01.12-.01.16.05l.01.02Z"/>
    <path class="cls-15" d="m14.0642,3.63h-7.77c.08-.08.18-.04.28-.04h7.23c.09,0,.19-.03.28.04h-.02Z"/>
    <path class="cls-18" d="m7.4842,11.53h5.420001c-.05.09-.14.05-.21.05h-5.01c-.07,0-.14.02-.2-.04v-.01Z"/>
    <path class="cls-15" d="m14.0142,14.25h-1.1s.03-.09.08-.09h.94c.05,0,.07.04.080001.09Z"/>
    <path class="cls-3" d="m9.9142,14.78h1.62c-.04.07-.1.05-.16.05h-1.3c-.06,0-.12,0-.16-.06v.01Z"/>
    <path class="cls-3" d="m9.6442,8.85h-1.62c.04-.07.1-.06.16-.06h1.3c.06,0,.12-.02.16.06Z"/>
    <path class="cls-3" d="m12.6442,14.8c.53,0,1.05,0,1.58-.01-.02.02-.04.05-.05.05-.51,0-1.02.06-1.52-.03l-.009999-.01Z"/>
    <path class="cls-3" d="m12.284199,8.82c-.51.03-1.02.02-1.53,0,.51-.07,1.02-.06,1.53,0Z"/>
    <path class="cls-15" d="m15.0542,12.94v.05s0-.02-.01-.04c0,0,0-.01.01-.02v.01Z"/>
    <path class="cls-15" d="m9.6442,9.89h-.05c.02-.03.03-.03.05,0Z"/>
    <path class="cls-14" d="m9.9642,13.17s-.03.03-.05.04c0-.04,0-.05.05-.04Z"/>
    <path class="cls-14" d="m14.2142,13.21l-.04-.04c.04-.01.05,0,.04.04Z"/>
    <path class="cls-16" d="m9.9242,13.68s.03.03.05.04c-.04.02-.05,0-.05-.04Z"/>
    <path class="cls-16" d="m14.164199,13.72s.03-.03.05-.04c0,.04,0,.05-.05.04Z"/>
    <path class="cls-14" d="m14.1742,7.2s.04-.02.06-.04c-.01.03-.02.05-.06.04Z"/>
    <path class="cls-14" d="m6.1342,7.16s.03.03.05.04c-.04.01-.05,0-.05-.04Z"/>
    <path class="cls-15" d="m6.9042,15.37v.05c0-.01-.01-.02-.02-.03l.02-.01v-.01Z"/>
    <path class="cls-16" d="m8.024199,10.42s.03.03.05.04c-.04.01-.05,0-.05-.04Z"/>
    <path class="cls-16" d="m9.6442,10.46s.03-.03.05-.04c0,.04,0,.06-.05.04Z"/>
    <path class="cls-16" d="m10.704199,10.42s.03.03.05.04c-.04.02-.05,0-.05-.04Z"/>
    <path class="cls-16" d="m12.324199,10.45s.03-.02.05-.04c0,.03-.01.05-.05.04Z"/>
    <path class="cls-16" d="m12.374199,9.95s-.03-.02-.05-.04c.03-.01.05,0,.05.04Z"/>
    <path class="cls-16" d="m10.754199,9.91s-.03.03-.05.04c0-.04.01-.05.05-.04Z"/>
    <path class="cls-16" d="m9.6942,9.95s-.03-.03-.05-.04c.04-.02.05,0,.05.04Z"/>
    <path class="cls-16" d="m8.0742,9.91s-.03.02-.05.04c0-.03.01-.05.05-.04Z"/>
    <path class="cls-15" d="m5.4442,3.17h.05c-.01.03-.03.03-.05,0Z"/>
    <path class="cls-17" d="m15.6042,10.22c.25,0,.51-.08.71.15.07.08.19.07.29,0s.11-.18.09-.28c-.03-.1-.11-.14-.22-.16-.53-.06-.78-.28-.88-.78-.04-.18.15-.64.33-.72.23-.09.28-.23.24-.44-.04-.22.05-.27.27-.27.24,0,.29.08.26.28-.04.2.02.37.22.44.19.07.25.25.34.39.07.11.05.26-.16.26-.18,0-.37.02-.48-.17-.09-.15-.21-.06-.31-.02-.09.04-.15.12-.12.23.03.12.1.2.22.22.33.05.62.15.79.49.14.27.12.72-.14.87-.28.16-.4.35-.35.66.03.16-.04.22-.2.2-.14-.02-.35.07-.33-.2.02-.24,0-.44-.26-.57-.19-.1-.2-.2-.31-.579999Z"/>
    <path class="cls-17" d="m18.034199,9.38c.21-.04.32,0,.31.26-.01.23-.05.33-.3.32-.24,0-.28-.09-.29-.31,0-.24.06-.32.29-.27h-.01Z"/>
    <path class="cls-17" d="m14.544199,9.65c-.05-.22.03-.29.27-.29.25,0,.25.1.26.29,0,.23-.06.3-.29.3-.26,0-.26-.12-.23-.31l-.010001.01Z"/>
    <path class="cls-4" d="m13.704199,6.63c-.1,0-.21.02-.31.02h-6.69v-2.43h6.989999v2.41h.010001Z"/>
    <path class="cls-10" d="m6.7042,4.22v2.43c-.06.02-.05-.03-.05-.06v-2.24c0-.05,0-.11.05-.13Z"/>
    <path class="cls-10" d="m13.704199,6.63v-2.41c.08.03.06.1.06.16v2.12c0,.05.01.11-.05.13h-.01Z"/>
  </g>
  <rect class="cls-9" width="22" height="22"/>
</svg>