<?xml version="1.0" encoding="UTF-8"?>
<svg id="Capa_1" data-name="Capa 1" xmlns="http://www.w3.org/2000/svg" viewBox="0 0 22 22">
  <defs>
    <style>
      .cls-1 {
        fill: #a7a7a7;
      }

      .cls-2, .cls-3 {
        fill: #fff;
      }

      .cls-4 {
        fill: #fffffd;
      }

      .cls-5 {
        fill: #f6f6f6;
      }

      .cls-3 {
        stroke: #000;
        stroke-miterlimit: 10;
        stroke-width: .5px;
      }

      .cls-6 {
        fill: #026838;
      }

      .cls-7 {
        fill: #0e4727;
      }

      .cls-8 {
        fill: #026594;
      }

      .cls-9 {
        fill: #343741;
      }

      .cls-10 {
        fill: none;
      }

      .cls-11 {
        fill: #81bb4a;
      }

      .cls-12 {
        fill: #fbce9d;
      }
    </style>
  </defs>
  <g>
    <path class="cls-6" d="m16.11,12.49s-.02-.03-.01-.04c.02,0,0,.03.01.04Z"/>
    <path class="cls-6" d="m5.89,9.53v-.02h.01-.01v.02Z"/>
  </g>
  <g>
    <path class="cls-3" d="m10.119433,13.133805c-.1-.01-.2-.02-.3-.04-.16-.02-.31-.04-.47-.06-.13-.02-.25-.03-.38-.05-.12-.02-.24-.03-.37-.05-.15-.02-.3-.03-.45-.06-.06-.01-.06-.04-.05-.08.03-.11.03-.23.05-.35,0-.05.02-.1,0-.16-.04-.18-.11-.34-.14-.52-.02-.11-.05-.22-.08-.33-.04-.16-.09-.31-.12-.47s-.08-.31-.12-.46c-.04-.19-.1-.37-.15-.56-.02-.08-.01-.09.07-.1.04,0,.09,0,.13-.02.23-.08.48-.11.71-.2.11-.05.24-.05.36-.09.11-.03.23-.05.35-.09.1-.04.21-.07.32-.09.26-.05.51-.13.77-.19.17-.05.33-.11.5-.14.21-.04.41-.09.61-.15.12-.04.25-.06.37-.1.34-.1.69-.18,1.04-.27.18-.05.37-.1.55-.15.04-.01.07-.01.09.05.06.24.12.48.18.71.05.19.09.38.15.56.01.04,0,.08.02.12.09.25.15.51.2.77,0,.03.02.07.06.07.13.02.27.04.4.06.04,0,.05.02.05.06,0,.16-.04.31-.05.46,0,.09-.03.17-.04.25,0,.09-.02.17-.02.26-.02.19-.06.38-.08.57-.02.21-.06.42-.07.63-.02.22-.07.43-.08.65,0,.07-.04.09-.1.07-.04,0-.08-.02-.12-.02-.13,0-.25-.04-.38-.05-.19-.01-.37-.05-.56-.08-.11-.02-.23-.02-.34-.05-.07-.01-.13,0-.2-.01-.23-.03-.45-.06-.68-.1-.16-.02-.31-.03-.47-.06-.05,0-.11,0-.16-.02-.11-.03-.23-.02-.34-.05-.1-.03-.21-.02-.31-.04-.11-.02-.23-.03-.34-.05h0l-.009997.020004Zm.91-1.09c-.1,0-.2.03-.29.07-.1,0-.19.04-.29.06-.03,0-.06.03-.1.03-.07,0-.08.03-.04.09.08.14.18.26.32.37-.14,0-.27-.03-.4-.05-.1-.01-.21-.03-.31-.04-.15-.02-.3-.02-.44-.06-.19-.04-.36,0-.54.04-.08.02-.15.04-.23.08.08.01.17.03.25.04.17.02.34.04.51.07.18.03.36.03.53.06.21.04.43.05.65.09.12.02.25.03.37.05.21.03.41.05.62.08.2.03.41.04.61.07.26.04.52.06.78.11.16.03.33.04.5.06.08,0,.16.02.24.04.03,0,.05,0,.05-.03.02-.18.05-.37.07-.55.02-.16.05-.31.07-.47.02-.16.04-.32.06-.47.02-.17.04-.34.06-.5q0-.04-.03-.03c-.08.03-.17.03-.25.07v.01c.1.04.09.12.07.21-.02.12-.03.24-.05.37-.02.12-.03.24-.05.36-.02.13-.04.26-.05.39,0,.04-.02.08-.02.13,0,.03-.03.03-.05.04-.1.04-.2.09-.26.18-.02.03-.05.02-.07.02-.23-.03-.45-.06-.68-.09-.2-.03-.41-.05-.61-.07-.11-.01-.22-.03-.33-.05,0-.03.04-.04.06-.05.33-.17.53-.44.6-.81.01-.07.02-.14.02-.22,0-.06-.02-.07-.07-.05-.27.07-.54.14-.81.21-.06.02-.13.02-.19.06-.05,0-.09.02-.13.03-.06.01-.13.01-.18.05h.030001Zm-2.25.27c.34-.1.69-.18,1.03-.27.25-.06.49-.13.74-.19.35-.09.69-.18,1.04-.27.32-.08.64-.17.96-.26.17-.05.34-.08.51-.13.22-.06.44-.11.66-.17.02,0,.04-.01.03-.05-.1-.38-.2-.76-.3-1.14-.09-.34-.18-.68-.27-1.02v-.04c0-.05-.03-.08-.09-.06-.16.05-.32.08-.48.13-.1.03-.2.05-.3.07-.17.04-.34.09-.52.13-.25.06-.5.13-.75.19-.42.11-.85.23-1.27.34-.22.06-.44.11-.66.17-.21.06-.42.12-.63.17-.17.04-.34.09-.51.13-.04,0-.05.02-.04.07.07.22.12.45.18.68.06.22.12.44.18.66.07.28.14.56.21.83,0,.03,0,.06.03.07.09-.02.16-.04.24-.06l.010002.02Zm4-.29c0,.11.1.2.23.2.13,0,.22-.1.22-.23,0-.14-.08-.22-.22-.22-.16,0-.22.07-.22.24l-.009999.009999Z"/>
    <path class="cls-3" d="m8.509434,12.303804c-.07-.28-.14-.56-.21-.83-.06-.22-.12-.44-.18-.66-.06-.23-.11-.46-.18-.68-.01-.04,0-.06.04-.07.17-.04.34-.08.51-.13.21-.06.42-.12.63-.17.22-.06.44-.11.66-.17.42-.11.85-.22,1.27-.34.25-.07.5-.13.75-.19.17-.04.34-.1.52-.13.1-.02.2-.04.3-.07.16-.05.32-.08.48-.13.06-.02.08,0,.09.06v.04c.09.34.18.68.27,1.02.1.38.2.76.3,1.14q0,.04-.03.05c-.22.06-.44.11-.66.17-.17.05-.34.09-.51.13-.32.08-.64.18-.96.26-.35.08-.69.18-1.04.27-.25.06-.49.13-.74.19-.34.09-.69.17-1.03.27-.08.02-.15.04-.24.06-.03,0-.03-.04-.03-.07l-.010002-.02Zm3.71-1.12c.19-.05.39-.1.58-.15.14-.04.29-.07.43-.11.03,0,.04-.03.05-.06.03-.1.08-.18.17-.25.02-.02.03-.03.02-.07-.04-.16-.08-.33-.12-.48-.08-.27-.15-.54-.22-.82,0-.03-.03-.05-.06-.06-.1-.02-.19-.07-.27-.14-.03-.03-.06-.02-.08,0-.17.05-.34.08-.5.13-.24.07-.49.12-.73.18-.12.03-.24.07-.37.1.41.12.68.39.79.79.11.41,0,.77-.31,1.1.22-.06.42-.11.61-.16h.01Zm-2.440001-.36c-.11-.41,0-.77.29-1.09-.22.06-.44.11-.65.17-.27.07-.53.14-.79.21h-.01c-.12.02-.22.05-.25.19-.01.05-.05.1-.1.13s-.05.08-.04.13c.08.27.14.54.21.81.04.16.08.32.13.48,0,.03.01.04.04.04.1.01.19.05.27.13.04.04.1.03.14.02.19-.07.39-.11.58-.16.31-.08.63-.16.94-.24.01,0,.02-.01.03-.02-.4-.13-.68-.38-.79-.79v-.010001Zm1.08.35c.08-.03.1,0,.12.07.02.08.07.02.1.02.05,0,.03-.03.02-.06v-.03c-.04-.06,0-.08.05-.1.13-.05.24-.13.28-.28.02-.06,0-.11,0-.17,0-.04-.03-.04-.07-.04-.06.01-.12.03-.18.05-.04.01-.08.02-.06.08.01.03,0,.07-.02.1-.01.03-.04.05-.07.05s-.02-.04-.03-.07c-.02-.05-.02-.11-.04-.16-.02-.04,0-.05.03-.06.09-.05.17-.11.24-.19.14-.17.05-.45-.17-.52-.09-.02-.18-.03-.27,0-.04.01-.06-.02-.06-.06,0-.05-.04-.05-.06-.04-.03.02-.1,0-.08.07.02.06,0,.07-.05.09-.16.06-.28.19-.27.38,0,.05.01.09.08.06.04-.02.08-.03.12-.03.07-.01.13-.03.11-.12,0-.02.01-.04.03-.06.02-.02.04-.03.06-.03.01,0,.02.03.02.05,0,.05.02.09.03.14.02.05,0,.07-.04.09-.08.06-.16.1-.23.17-.18.21-.03.51.19.56.05.01.09.02.13.02h.08l.010002.02Z"/>
    <path class="cls-3" d="m10.739434,12.113804c-.1,0-.19.04-.29.06-.03,0-.06.03-.1.03-.07,0-.08.03-.04.09.08.14.18.26.32.37-.14,0-.27-.03-.4-.05-.1-.01-.21-.03-.31-.04-.15-.02-.3-.02-.44-.06-.19-.04-.36,0-.54.04-.08.02-.15.04-.23.08.08.01.17.03.25.04.17.02.34.04.51.07.18.03.36.03.53.06.21.04.43.05.65.09.12.02.25.03.37.05.21.03.41.05.62.08.2.03.41.04.61.07.26.04.52.06.78.11.16.03.33.04.5.06.08,0,.16.02.24.04.03,0,.05,0,.05-.03.02-.18.05-.37.07-.55.02-.16.05-.31.07-.47.02-.16.04-.32.06-.47.02-.17.04-.34.06-.5q0-.04-.03-.03c-.08.03-.17.03-.25.07v.01c.1.04.09.12.07.21-.02.12-.03.24-.05.37-.02.12-.03.24-.05.36-.02.13-.04.26-.05.39,0,.04-.02.08-.02.13,0,.03-.03.03-.05.04-.1.04-.2.09-.26.18-.02.03-.05.02-.07.02-.23-.03-.45-.06-.68-.09-.2-.03-.41-.05-.61-.07-.11-.01-.22-.03-.33-.05,0-.03.04-.04.06-.05.33-.17.53-.44.6-.81.01-.07.02-.14.02-.22,0-.06-.02-.07-.07-.05-.27.07-.54.14-.81.21-.06.02-.13.02-.19.06-.02.04,0,.09-.01.14,0,.02-.03.05,0,.07.03.02.07,0,.09-.03.02-.02.05-.05.05-.09,0-.03.02-.03.04-.03.08,0,.15,0,.22.02.04,0,.06.02.04.07-.04.17-.21.31-.42.3-.07,0-.1.02-.1.09,0,.06-.02.06-.07.05-.06,0-.08-.03-.06-.11.01-.05,0-.05-.04-.05-.16-.03-.3-.1-.37-.26l.06-.020001Z"/>
    <path class="cls-3" d="m10.739434,12.113804c.07.16.21.23.37.26.03,0,.05,0,.04.05-.02.08,0,.11.06.11.04,0,.07,0,.07-.05,0-.06.03-.09.1-.09.21.02.38-.13.42-.3.01-.05,0-.07-.04-.07-.07-.01-.15-.02-.22-.02-.02,0-.04,0-.04.03,0,.04-.03.06-.05.09-.02.02-.06.05-.09.03-.04-.02,0-.05,0-.07,0-.05,0-.09.01-.14-.05,0-.09.02-.13.03,0,.05-.02.09-.02.13,0,.02-.01.04-.04.03-.05-.02-.11-.04-.13-.11-.1,0-.2.03-.29.07l-.02.020001Z"/>
    <path class="cls-3" d="m13.009434,11.783804c-.16,0-.22.07-.22.24,0,.11.1.2.23.2.13,0,.22-.1.22-.23,0-.14-.08-.22-.22-.22l-.009999.01Z"/>
    <path class="cls-3" d="m11.029434,12.043805c.02.07.08.08.13.11.03.01.04,0,.04-.03,0-.05.02-.09.02-.13-.06.01-.13.01-.18.05h-.01Z"/>
    <path class="cls-3" d="m11.909433,10.263804c-.11-.4-.38-.67-.79-.79.13-.04.25-.07.37-.1.24-.06.49-.11.73-.18.17-.05.34-.09.5-.13.02,0,.05-.02.08,0,.07.07.16.12.27.14.04,0,.05.03.06.06.07.27.14.55.22.82.04.16.08.32.12.48,0,.04,0,.05-.02.07-.08.06-.14.14-.17.25,0,.03-.02.05-.05.06-.14.04-.29.08-.43.11-.19.05-.39.1-.58.15-.2.05-.4.11-.61.16.3-.32.42-.68.31-1.1h-.010001Zm.62.079999c.11,0,.22-.12.22-.22,0-.13-.11-.23-.24-.24-.11,0-.25.11-.22.23,0,.14.09.23.24.23Z"/>
    <path class="cls-3" d="m10.529434,11.633804c-.31.08-.63.16-.94.24-.19.05-.39.09-.58.16-.04.02-.1.03-.14-.02-.07-.08-.17-.11-.27-.13-.03,0-.03-.02-.04-.04-.05-.16-.09-.32-.13-.48-.07-.27-.14-.54-.21-.81-.01-.05-.02-.09.04-.13.05-.03.09-.08.1-.13.03-.14.13-.17.25-.19h.01c.26-.07.53-.14.79-.21.21-.06.43-.11.65-.17-.3.32-.4.68-.29,1.09.11.41.39.67.79.79-.01,0-.02.02-.03.02v.010001Zm-1.36-.43c.12,0,.22-.11.23-.25,0-.1-.1-.22-.23-.21-.14,0-.22.09-.22.23-.02.14.12.22.22.23Z"/>
    <path class="cls-3" d="m10.629434,11.163805c-.22-.06-.37-.36-.19-.56.06-.07.15-.12.23-.17.03-.02.06-.04.04-.09-.01-.04-.04-.09-.03-.14,0-.02,0-.05-.02-.05s-.04.01-.06.03-.03.04-.03.06c.02.09-.04.11-.11.12-.04,0-.08.02-.12.03-.07.03-.08-.01-.08-.06-.01-.19.11-.32.27-.38.05-.02.07-.03.05-.09-.02-.07.05-.05.08-.07.02-.01.06-.01.06.04,0,.03.02.07.06.06.09-.02.18-.02.27,0,.22.06.32.35.17.52-.07.08-.15.14-.24.19-.03.01-.05.02-.03.06.02.05.03.11.04.16,0,.02,0,.06.03.07.03,0,.05-.02.07-.05.02-.03.04-.06.02-.1-.02-.06.01-.07.06-.08.06-.02.12-.03.18-.05.03,0,.06,0,.07.04,0,.06.01.11,0,.17-.04.14-.15.22-.28.28-.04.02-.09.03-.05.1v.03c.01.03.02.06-.02.06-.04,0-.09.05-.1-.02s-.04-.11-.12-.07h-.08c-.04,0-.09,0-.13-.02l-.010002-.02Zm.24-.3s-.04-.09-.03-.14c0-.02-.02-.03-.05-.03-.06.02-.11.09-.11.15s.06.09.14.09c.05,0,.06,0,.049999-.07Zm-.04-.55l.02.01c.05-.02.09-.05.11-.1.02-.05-.02-.08-.05-.11-.03-.02-.08,0-.11,0-.01,0-.01.02-.01.03.01.06.03.12.04.18v-.01Z"/>
    <path class="cls-3" d="m12.289433,10.113804c0,.14.09.23.24.23.11,0,.22-.12.22-.22,0-.13-.11-.23-.24-.24-.11,0-.25.11-.22.23Z"/>
    <path class="cls-3" d="m8.949433,10.983804c-.02.14.12.22.22.23.12,0,.22-.11.23-.25,0-.1-.1-.22-.23-.21-.14,0-.22.09-.22.23Z"/>
    <path class="cls-3" d="m10.829433,10.933805c.05,0,.06,0,.05-.07-.01-.04-.04-.09-.03-.14,0-.02-.02-.03-.05-.03-.06.02-.11.09-.11.15s.06.09.139999.09Z"/>
    <path class="cls-3" d="m10.789433,10.133804c.01.06.03.12.04.18,0,.01.02.01.02.01.05-.02.09-.05.11-.1.02-.05-.02-.08-.05-.11-.03-.02-.08,0-.11,0-.01,0-.01.02-.01.03v-.01Z"/>
  </g>
  <g>
    <g>
      <path class="cls-3" d="m3.145,8.359048h.09c-.07-.17,0-.3.07-.47.21-.46.4-.92.58-1.39.2-.5.42-1,.68-1.48,0-.01.06,0,.09,0-.04-.07-.07-.16-.02-.22.17-.22.03-.29-.15-.37-1.36-.63-2.71-1.26-4.07-1.88v5.17c.67.27,1.35.55,2.02.82.27.11.58.33.7-.18h.01Z"/>
      <path class="cls-3" d="m19.435,13.839049c-.27-.12-.42-.14-.530001.14-.540001,1.23-1.08,2.46-1.620001,3.69-.17.29-.120001.48.219999.610001.41.16.799999.370001,1.200001.57.1.049999.24.059999.200001.23.889999.15,1.789999.299999,2.68.450001v-4.8c-.719999-.29-1.440001-.59-2.15-.89Z"/>
    </g>
    <path class="cls-3" d="m10.835,10.089048c-.48.43-1.07.46-1.66.39-.78-.1-1.49-.47-2.2-.77-.82-.35-1.64-.72-2.45-1.08.02-.06.04-.12.07-.18.35-.84.71-1.68,1.06-2.52,0,0,.02.01.03.02.56.3.57.29.81-.3.14-.35.33-.67.49-1.01.3-.62.61-1.24.91-1.87.11-.22.28-.33.55-.29.53.07.59.18.41.76-.07.22-.19.43-.29.64-.03.07-.09.14,0,.19.07.04.12-.02.17-.05.37-.3.73-.6,1.1-.9.2-.16.39-.33.6-.48.29-.2.7-.09.87.21.12.21-.05.62-.28.78-.41.28-.81.58-1.21.87-.09.06-.19.16-.17.26.03.11.18.13.3.15.64.1,1.21.36,1.68.82-.02.53.16.97.59,1.29-.07.18-.23.25-.39.31-.18-.01-.37,0-.51-.15-.33-.56-.74-1.03-1.4-1.22-1.14-.32-2.05.94-2.07,1.9-.03,1.03,1.22,1.91,2.24,1.42.37-.18.64-.06.83.3-.02.16.05.34-.08.49l-.000002.02Z"/>
    <path class="cls-3" d="m16.245,16.449048c-.57-.51-1.24-.71-2-.75-.53-.03-1,.08-1.49.26-.47.18-.95.2-1.45.13-1.67-.23-3.23-.82-4.78-1.440001-.17-.07-.34-.14-.51-.18-.24-.06-.3-.22-.3-.43,0-.22.05-.41.32-.46.2-.04.4-.05.61-.02,1.94.33,3.89.66,5.83.98.11.02.23.04.34.06v-.05c-.93-.16-1.86-.33-2.8-.46-.42-.06-.7-.34-.46-.88.11-.26.32-.34.58-.3.67.11,1.36.12,2.03.27.46.1.91.06,1.36-.11.72-.27,1.43-.14,2.12.16.559999.24,1.1.54,1.690001.7-.309999.86-.700001,1.69-1.09,2.52Z"/>
    <path class="cls-3" d="m16.245,16.449048c.389999-.83.780001-1.66,1.09-2.52.16-.34.42-.433333.780001-.28.26.11.52.23.780001.34-.540001,1.23-1.08,2.46-1.620001,3.69-.43-.08-.790001-.35-1.21-.48-.09-.03-.11-.12-.06-.23.09-.17.16-.35.23-.52h.01Zm.629999.439999c-.129999,0-.200001.06-.219999.19-.01.11.049999.18.16.2.129999.02.209999-.03.23-.16s-.049999-.2-.17-.23Z"/>
    <path class="cls-3" d="m5.645,5.919048c-.35.84-.71,1.68-1.06,2.52-.02.06-.04.12-.07.18-.05.29-.21.24-.41.14-.29-.15-.59-.28-.88-.41-.07-.17,0-.3.07-.47.21-.46.4-.92.58-1.39.2-.5.42-1,.68-1.48,0-.01.06,0,.09,0,.26.11.51.23.77.34.37.16.39.2.21.57h.02Zm-1.6,2.22c0-.1-.04-.18-.15-.21-.14-.03-.24.03-.27.16-.02.1.07.18.17.2.12.03.2-.03.25-.16v.01Z"/>
    <path class="cls-3" d="m16.874999,16.889048c.120001.03.190001.1.17.23-.02.13-.1.18-.23.16-.110001-.02-.17-.09-.16-.2.01-.12.09-.19.219999-.19Z"/>
    <path class="cls-3" d="m4.045,8.139048c-.05.13-.13.19-.25.16-.1-.03-.19-.1-.17-.2.03-.13.13-.19.27-.16.11.03.15.11.15.21v-.01Z"/>
  </g>
  <g>
    <path class="cls-11" d="m10.119433,13.133805c-.1-.01-.2-.02-.3-.04-.16-.02-.31-.04-.47-.06-.13-.02-.25-.03-.38-.05-.12-.02-.24-.03-.37-.05-.15-.02-.3-.03-.45-.06-.06-.01-.06-.04-.05-.08.03-.11.03-.23.05-.35,0-.05.02-.1,0-.16-.04-.18-.11-.34-.14-.52-.02-.11-.05-.22-.08-.33-.04-.16-.09-.31-.12-.47s-.08-.31-.12-.46c-.04-.19-.1-.37-.15-.56-.02-.08-.01-.09.07-.1.04,0,.09,0,.13-.02.23-.08.48-.11.71-.2.11-.05.24-.05.36-.09.11-.03.23-.05.35-.09.1-.04.21-.07.32-.09.26-.05.51-.13.77-.19.17-.05.33-.11.5-.14.21-.04.41-.09.61-.15.12-.04.25-.06.37-.1.34-.1.69-.18,1.04-.27.18-.05.37-.1.55-.15.04-.01.07-.01.09.05.06.24.12.48.18.71.05.19.09.38.15.56.01.04,0,.08.02.12.09.25.15.51.2.77,0,.03.02.07.06.07.13.02.27.04.4.06.04,0,.05.02.05.06,0,.16-.04.31-.05.46,0,.09-.03.17-.04.25,0,.09-.02.17-.02.26-.02.19-.06.38-.08.57-.02.21-.06.42-.07.63-.02.22-.07.43-.08.65,0,.07-.04.09-.1.07-.04,0-.08-.02-.12-.02-.13,0-.25-.04-.38-.05-.19-.01-.37-.05-.56-.08-.11-.02-.23-.02-.34-.05-.07-.01-.13,0-.2-.01-.23-.03-.45-.06-.68-.1-.16-.02-.31-.03-.47-.06-.05,0-.11,0-.16-.02-.11-.03-.23-.02-.34-.05-.1-.03-.21-.02-.31-.04-.11-.02-.23-.03-.34-.05h0l-.009997.020004Zm.91-1.09c-.1,0-.2.03-.29.07-.1,0-.19.04-.29.06-.03,0-.06.03-.1.03-.07,0-.08.03-.04.09.08.14.18.26.32.37-.14,0-.27-.03-.4-.05-.1-.01-.21-.03-.31-.04-.15-.02-.3-.02-.44-.06-.19-.04-.36,0-.54.04-.08.02-.15.04-.23.08.08.01.17.03.25.04.17.02.34.04.51.07.18.03.36.03.53.06.21.04.43.05.65.09.12.02.25.03.37.05.21.03.41.05.62.08.2.03.41.04.61.07.26.04.52.06.78.11.16.03.33.04.5.06.08,0,.16.02.24.04.03,0,.05,0,.05-.03.02-.18.05-.37.07-.55.02-.16.05-.31.07-.47.02-.16.04-.32.06-.47.02-.17.04-.34.06-.5q0-.04-.03-.03c-.08.03-.17.03-.25.07v.01c.1.04.09.12.07.21-.02.12-.03.24-.05.37-.02.12-.03.24-.05.36-.02.13-.04.26-.05.39,0,.04-.02.08-.02.13,0,.03-.03.03-.05.04-.1.04-.2.09-.26.18-.02.03-.05.02-.07.02-.23-.03-.45-.06-.68-.09-.2-.03-.41-.05-.61-.07-.11-.01-.22-.03-.33-.05,0-.03.04-.04.06-.05.33-.17.53-.44.6-.81.01-.07.02-.14.02-.22,0-.06-.02-.07-.07-.05-.27.07-.54.14-.81.21-.06.02-.13.02-.19.06-.05,0-.09.02-.13.03-.06.01-.13.01-.18.05h.030001Zm-2.25.27c.34-.1.69-.18,1.03-.27.25-.06.49-.13.74-.19.35-.09.69-.18,1.04-.27.32-.08.64-.17.96-.26.17-.05.34-.08.51-.13.22-.06.44-.11.66-.17.02,0,.04-.01.03-.05-.1-.38-.2-.76-.3-1.14-.09-.34-.18-.68-.27-1.02v-.04c0-.05-.03-.08-.09-.06-.16.05-.32.08-.48.13-.1.03-.2.05-.3.07-.17.04-.34.09-.52.13-.25.06-.5.13-.75.19-.42.11-.85.23-1.27.34-.22.06-.44.11-.66.17-.21.06-.42.12-.63.17-.17.04-.34.09-.51.13-.04,0-.05.02-.04.07.07.22.12.45.18.68.06.22.12.44.18.66.07.28.14.56.21.83,0,.03,0,.06.03.07.09-.02.16-.04.24-.06l.010002.02Zm4-.29c0,.11.1.2.23.2.13,0,.22-.1.22-.23,0-.14-.08-.22-.22-.22-.16,0-.22.07-.22.24l-.009999.009999Z"/>
    <path class="cls-7" d="m8.509434,12.303804c-.07-.28-.14-.56-.21-.83-.06-.22-.12-.44-.18-.66-.06-.23-.11-.46-.18-.68-.01-.04,0-.06.04-.07.17-.04.34-.08.51-.13.21-.06.42-.12.63-.17.22-.06.44-.11.66-.17.42-.11.85-.22,1.27-.34.25-.07.5-.13.75-.19.17-.04.34-.1.52-.13.1-.02.2-.04.3-.07.16-.05.32-.08.48-.13.06-.02.08,0,.09.06v.04c.09.34.18.68.27,1.02.1.38.2.76.3,1.14q0,.04-.03.05c-.22.06-.44.11-.66.17-.17.05-.34.09-.51.13-.32.08-.64.18-.96.26-.35.08-.69.18-1.04.27-.25.06-.49.13-.74.19-.34.09-.69.17-1.03.27-.08.02-.15.04-.24.06-.03,0-.03-.04-.03-.07l-.010002-.02Zm3.71-1.12c.19-.05.39-.1.58-.15.14-.04.29-.07.43-.11.03,0,.04-.03.05-.06.03-.1.08-.18.17-.25.02-.02.03-.03.02-.07-.04-.16-.08-.33-.12-.48-.08-.27-.15-.54-.22-.82,0-.03-.03-.05-.06-.06-.1-.02-.19-.07-.27-.14-.03-.03-.06-.02-.08,0-.17.05-.34.08-.5.13-.24.07-.49.12-.73.18-.12.03-.24.07-.37.1.41.12.68.39.79.79.11.41,0,.77-.31,1.1.22-.06.42-.11.61-.16h.01Zm-2.440001-.36c-.11-.41,0-.77.29-1.09-.22.06-.44.11-.65.17-.27.07-.53.14-.79.21h-.01c-.12.02-.22.05-.25.19-.01.05-.05.1-.1.13s-.05.08-.04.13c.08.27.14.54.21.81.04.16.08.32.13.48,0,.03.01.04.04.04.1.01.19.05.27.13.04.04.1.03.14.02.19-.07.39-.11.58-.16.31-.08.63-.16.94-.24.01,0,.02-.01.03-.02-.4-.13-.68-.38-.79-.79v-.010001Zm1.08.35c.08-.03.1,0,.12.07.02.08.07.02.1.02.05,0,.03-.03.02-.06v-.03c-.04-.06,0-.08.05-.1.13-.05.24-.13.28-.28.02-.06,0-.11,0-.17,0-.04-.03-.04-.07-.04-.06.01-.12.03-.18.05-.04.01-.08.02-.06.08.01.03,0,.07-.02.1-.01.03-.04.05-.07.05s-.02-.04-.03-.07c-.02-.05-.02-.11-.04-.16-.02-.04,0-.05.03-.06.09-.05.17-.11.24-.19.14-.17.05-.45-.17-.52-.09-.02-.18-.03-.27,0-.04.01-.06-.02-.06-.06,0-.05-.04-.05-.06-.04-.03.02-.1,0-.08.07.02.06,0,.07-.05.09-.16.06-.28.19-.27.38,0,.05.01.09.08.06.04-.02.08-.03.12-.03.07-.01.13-.03.11-.12,0-.02.01-.04.03-.06.02-.02.04-.03.06-.03.01,0,.02.03.02.05,0,.05.02.09.03.14.02.05,0,.07-.04.09-.08.06-.16.1-.23.17-.18.21-.03.51.19.56.05.01.09.02.13.02h.08l.010002.02Z"/>
    <path class="cls-7" d="m10.739434,12.113804c-.1,0-.19.04-.29.06-.03,0-.06.03-.1.03-.07,0-.08.03-.04.09.08.14.18.26.32.37-.14,0-.27-.03-.4-.05-.1-.01-.21-.03-.31-.04-.15-.02-.3-.02-.44-.06-.19-.04-.36,0-.54.04-.08.02-.15.04-.23.08.08.01.17.03.25.04.17.02.34.04.51.07.18.03.36.03.53.06.21.04.43.05.65.09.12.02.25.03.37.05.21.03.41.05.62.08.2.03.41.04.61.07.26.04.52.06.78.11.16.03.33.04.5.06.08,0,.16.02.24.04.03,0,.05,0,.05-.03.02-.18.05-.37.07-.55.02-.16.05-.31.07-.47.02-.16.04-.32.06-.47.02-.17.04-.34.06-.5q0-.04-.03-.03c-.08.03-.17.03-.25.07v.01c.1.04.09.12.07.21-.02.12-.03.24-.05.37-.02.12-.03.24-.05.36-.02.13-.04.26-.05.39,0,.04-.02.08-.02.13,0,.03-.03.03-.05.04-.1.04-.2.09-.26.18-.02.03-.05.02-.07.02-.23-.03-.45-.06-.68-.09-.2-.03-.41-.05-.61-.07-.11-.01-.22-.03-.33-.05,0-.03.04-.04.06-.05.33-.17.53-.44.6-.81.01-.07.02-.14.02-.22,0-.06-.02-.07-.07-.05-.27.07-.54.14-.81.21-.06.02-.13.02-.19.06-.02.04,0,.09-.01.14,0,.02-.03.05,0,.07.03.02.07,0,.09-.03.02-.02.05-.05.05-.09,0-.03.02-.03.04-.03.08,0,.15,0,.22.02.04,0,.06.02.04.07-.04.17-.21.31-.42.3-.07,0-.1.02-.1.09,0,.06-.02.06-.07.05-.06,0-.08-.03-.06-.11.01-.05,0-.05-.04-.05-.16-.03-.3-.1-.37-.26l.06-.020001Z"/>
    <path class="cls-2" d="m10.739434,12.113804c.07.16.21.23.37.26.03,0,.05,0,.04.05-.02.08,0,.11.06.11.04,0,.07,0,.07-.05,0-.06.03-.09.1-.09.21.02.38-.13.42-.3.01-.05,0-.07-.04-.07-.07-.01-.15-.02-.22-.02-.02,0-.04,0-.04.03,0,.04-.03.06-.05.09-.02.02-.06.05-.09.03-.04-.02,0-.05,0-.07,0-.05,0-.09.01-.14-.05,0-.09.02-.13.03,0,.05-.02.09-.02.13,0,.02-.01.04-.04.03-.05-.02-.11-.04-.13-.11-.1,0-.2.03-.29.07l-.02.020001Z"/>
    <path class="cls-7" d="m13.009434,11.783804c-.16,0-.22.07-.22.24,0,.11.1.2.23.2.13,0,.22-.1.22-.23,0-.14-.08-.22-.22-.22l-.009999.01Z"/>
    <path class="cls-7" d="m11.029434,12.043805c.02.07.08.08.13.11.03.01.04,0,.04-.03,0-.05.02-.09.02-.13-.06.01-.13.01-.18.05h-.01Z"/>
    <path class="cls-11" d="m11.909433,10.263804c-.11-.4-.38-.67-.79-.79.13-.04.25-.07.37-.1.24-.06.49-.11.73-.18.17-.05.34-.09.5-.13.02,0,.05-.02.08,0,.07.07.16.12.27.14.04,0,.05.03.06.06.07.27.14.55.22.82.04.16.08.32.12.48,0,.04,0,.05-.02.07-.08.06-.14.14-.17.25,0,.03-.02.05-.05.06-.14.04-.29.08-.43.11-.19.05-.39.1-.58.15-.2.05-.4.11-.61.16.3-.32.42-.68.31-1.1h-.010001Zm.62.079999c.11,0,.22-.12.22-.22,0-.13-.11-.23-.24-.24-.11,0-.25.11-.22.23,0,.14.09.23.24.23Z"/>
    <path class="cls-11" d="m10.529434,11.633804c-.31.08-.63.16-.94.24-.19.05-.39.09-.58.16-.04.02-.1.03-.14-.02-.07-.08-.17-.11-.27-.13-.03,0-.03-.02-.04-.04-.05-.16-.09-.32-.13-.48-.07-.27-.14-.54-.21-.81-.01-.05-.02-.09.04-.13.05-.03.09-.08.1-.13.03-.14.13-.17.25-.19h.01c.26-.07.53-.14.79-.21.21-.06.43-.11.65-.17-.3.32-.4.68-.29,1.09.11.41.39.67.79.79-.01,0-.02.02-.03.02v.010001Zm-1.36-.43c.12,0,.22-.11.23-.25,0-.1-.1-.22-.23-.21-.14,0-.22.09-.22.23-.02.14.12.22.22.23Z"/>
    <path class="cls-2" d="m10.629434,11.163805c-.22-.06-.37-.36-.19-.56.06-.07.15-.12.23-.17.03-.02.06-.04.04-.09-.01-.04-.04-.09-.03-.14,0-.02,0-.05-.02-.05s-.04.01-.06.03-.03.04-.03.06c.02.09-.04.11-.11.12-.04,0-.08.02-.12.03-.07.03-.08-.01-.08-.06-.01-.19.11-.32.27-.38.05-.02.07-.03.05-.09-.02-.07.05-.05.08-.07.02-.01.06-.01.06.04,0,.03.02.07.06.06.09-.02.18-.02.27,0,.22.06.32.35.17.52-.07.08-.15.14-.24.19-.03.01-.05.02-.03.06.02.05.03.11.04.16,0,.02,0,.06.03.07.03,0,.05-.02.07-.05.02-.03.04-.06.02-.1-.02-.06.01-.07.06-.08.06-.02.12-.03.18-.05.03,0,.06,0,.07.04,0,.06.01.11,0,.17-.04.14-.15.22-.28.28-.04.02-.09.03-.05.1v.03c.01.03.02.06-.02.06-.04,0-.09.05-.1-.02s-.04-.11-.12-.07h-.08c-.04,0-.09,0-.13-.02l-.010002-.02Zm.24-.3s-.04-.09-.03-.14c0-.02-.02-.03-.05-.03-.06.02-.11.09-.11.15s.06.09.14.09c.05,0,.06,0,.049999-.07Zm-.04-.55l.02.01c.05-.02.09-.05.11-.1.02-.05-.02-.08-.05-.11-.03-.02-.08,0-.11,0-.01,0-.01.02-.01.03.01.06.03.12.04.18v-.01Z"/>
    <path class="cls-7" d="m12.289433,10.113804c0,.14.09.23.24.23.11,0,.22-.12.22-.22,0-.13-.11-.23-.24-.24-.11,0-.25.11-.22.23Z"/>
    <path class="cls-7" d="m8.949433,10.983804c-.02.14.12.22.22.23.12,0,.22-.11.23-.25,0-.1-.1-.22-.23-.21-.14,0-.22.09-.22.23Z"/>
    <path class="cls-7" d="m10.829433,10.933805c.05,0,.06,0,.05-.07-.01-.04-.04-.09-.03-.14,0-.02-.02-.03-.05-.03-.06.02-.11.09-.11.15s.06.09.139999.09Z"/>
    <path class="cls-7" d="m10.789433,10.133804c.01.06.03.12.04.18,0,.01.02.01.02.01.05-.02.09-.05.11-.1.02-.05-.02-.08-.05-.11-.03-.02-.08,0-.11,0-.01,0-.01.02-.01.03v-.01Z"/>
  </g>
  <g>
    <g>
      <path class="cls-9" d="m3.145,8.359048h.09c-.07-.17,0-.3.07-.47.21-.46.4-.92.58-1.39.2-.5.42-1,.68-1.48,0-.01.06,0,.09,0-.04-.07-.07-.16-.02-.22.17-.22.03-.29-.15-.37-1.36-.63-2.71-1.26-4.07-1.88v5.17c.67.27,1.35.55,2.02.82.27.11.58.33.7-.18h.01Z"/>
      <path class="cls-8" d="m19.435,13.839049c-.27-.12-.42-.14-.530001.14-.540001,1.23-1.08,2.46-1.620001,3.69-.17.29-.120001.48.219999.610001.41.16.799999.370001,1.200001.57.1.049999.24.059999.200001.23.889999.15,1.789999.299999,2.68.450001v-4.8c-.719999-.29-1.440001-.59-2.15-.89Z"/>
    </g>
    <path class="cls-12" d="m10.835,10.089048c-.48.43-1.07.46-1.66.39-.78-.1-1.49-.47-2.2-.77-.82-.35-1.64-.72-2.45-1.08.02-.06.04-.12.07-.18.35-.84.71-1.68,1.06-2.52,0,0,.02.01.03.02.56.3.57.29.81-.3.14-.35.33-.67.49-1.01.3-.62.61-1.24.91-1.87.11-.22.28-.33.55-.29.53.07.59.18.41.76-.07.22-.19.43-.29.64-.03.07-.09.14,0,.19.07.04.12-.02.17-.05.37-.3.73-.6,1.1-.9.2-.16.39-.33.6-.48.29-.2.7-.09.87.21.12.21-.05.62-.28.78-.41.28-.81.58-1.21.87-.09.06-.19.16-.17.26.03.11.18.13.3.15.64.1,1.21.36,1.68.82-.02.53.16.97.59,1.29-.07.18-.23.25-.39.31-.18-.01-.37,0-.51-.15-.33-.56-.74-1.03-1.4-1.22-1.14-.32-2.05.94-2.07,1.9-.03,1.03,1.22,1.91,2.24,1.42.37-.18.64-.06.83.3-.02.16.05.34-.08.49l-.000002.02Z"/>
    <path class="cls-12" d="m16.245,16.449048c-.57-.51-1.24-.71-2-.75-.53-.03-1,.08-1.49.26-.47.18-.95.2-1.45.13-1.67-.23-3.23-.82-4.78-1.440001-.17-.07-.34-.14-.51-.18-.24-.06-.3-.22-.3-.43,0-.22.05-.41.32-.46.2-.04.4-.05.61-.02,1.94.33,3.89.66,5.83.98.11.02.23.04.34.06v-.05c-.93-.16-1.86-.33-2.8-.46-.42-.06-.7-.34-.46-.88.11-.26.32-.34.58-.3.67.11,1.36.12,2.03.27.46.1.91.06,1.36-.11.72-.27,1.43-.14,2.12.16.559999.24,1.1.54,1.690001.7-.309999.86-.700001,1.69-1.09,2.52Z"/>
    <path class="cls-4" d="m16.245,16.449048c.389999-.83.780001-1.66,1.09-2.52.16-.34.42-.433333.780001-.28.26.11.52.23.780001.34-.540001,1.23-1.08,2.46-1.620001,3.69-.43-.08-.790001-.35-1.21-.48-.09-.03-.11-.12-.06-.23.09-.17.16-.35.23-.52h.01Zm.629999.439999c-.129999,0-.200001.06-.219999.19-.01.11.049999.18.16.2.129999.02.209999-.03.23-.16s-.049999-.2-.17-.23Z"/>
    <path class="cls-5" d="m5.645,5.919048c-.35.84-.71,1.68-1.06,2.52-.02.06-.04.12-.07.18-.05.29-.21.24-.41.14-.29-.15-.59-.28-.88-.41-.07-.17,0-.3.07-.47.21-.46.4-.92.58-1.39.2-.5.42-1,.68-1.48,0-.01.06,0,.09,0,.26.11.51.23.77.34.37.16.39.2.21.57h.02Zm-1.6,2.22c0-.1-.04-.18-.15-.21-.14-.03-.24.03-.27.16-.02.1.07.18.17.2.12.03.2-.03.25-.16v.01Z"/>
    <path class="cls-1" d="m16.874999,16.889048c.120001.03.190001.1.17.23-.02.13-.1.18-.23.16-.110001-.02-.17-.09-.16-.2.01-.12.09-.19.219999-.19Z"/>
    <path class="cls-1" d="m4.045,8.139048c-.05.13-.13.19-.25.16-.1-.03-.19-.1-.17-.2.03-.13.13-.19.27-.16.11.03.15.11.15.21v-.01Z"/>
  </g>
  <rect class="cls-10" width="22" height="22"/>
</svg>