<?xml version="1.0" encoding="UTF-8"?>
<svg id="Capa_1" data-name="Capa 1" xmlns="http://www.w3.org/2000/svg" viewBox="0 0 22 22">
  <defs>
    <style>
      .cls-1 {
        fill: #fff;
      }

      .cls-2 {
        fill: #026838;
      }

      .cls-3 {
        fill: #bdc2c7;
      }

      .cls-4 {
        fill: #e74b3c;
      }

      .cls-5 {
        fill: #94a4a5;
      }

      .cls-6 {
        fill: #35495e;
      }

      .cls-7 {
        fill: #b6bbc0;
      }

      .cls-8 {
        fill: none;
      }
    </style>
  </defs>
  <g>
    <path class="cls-2" d="m16.11,12.49s-.02-.03-.01-.04c.02,0,0,.03.01.04Z"/>
    <path class="cls-2" d="m5.89,9.53v-.02h.01-.01v.02Z"/>
  </g>
  <g>
    <circle class="cls-7" cx="14.729999" cy="15.490873" r="4.06"/>
    <path class="cls-5" d="m14.71,18.890873c1.82.01,3.33-1.34,3.45-3.1.15-2.17-1.47-3.59-3.14-3.690001-2.11-.12-3.52,1.34-3.68,3.059999-.21,2.23,1.6,3.75,3.38,3.73l-.009999.000002Z"/>
    <path d="m18.86,15.040873s-.03-.02-.03-.03c0-.02.01-.02.03,0v.04-.01Z"/>
    <path class="cls-1" d="m16.61,11.850872c-.47-.24-.97-.38-1.5-.42v-1.31c0-.14-.04-.2-.19-.2h-1.1c-.15,0-.19.05-.19.2v1.14c0,.13.03.15.14.15.2,0,.4-.03.59.02-.7.08-1.35.29-1.93.68-.05.03-.1.05-.16.07-.25-.03-.5,0-.75-.01-.09,0-.14.04-.14.14,0,.25-.02.5.01.75-.02.09-.07.16-.12.23-.37.56-.57,1.19-.64,1.85-.05-.19-.02-.38-.02-.57,0-.1-.04-.15-.14-.15h-1.24c-.08,0-.1.03-.1.12,0,.39.01.78,0,1.17,0,.15.05.19.19.19h1.31c.03.53.22,1.02.43,1.5h-6.36c-.69,0-1.17-.32-1.46-.95-.02-.05-.03-.12-.1-.14v-.06c.03-.04.02-.07,0-.11v-7.7h13.45v3.43l.02-.02Zm-11.22-.45h0c.19,0,.39-.01.58,0,.13.01.17-.03.17-.15v-1.15c0-.13-.05-.19-.18-.19h-1.12c-.14,0-.18.05-.18.19v1.19c0,.1.05.1.12.11h.63-.02Zm3.75-.78h0v.59c0,.15.05.19.19.19.39,0,.78,0,1.17.01.09,0,.11-.04.11-.12v-1.24c0-.09-.05-.14-.14-.14h-1.24c-.08,0-.11.03-.1.12v.58l.01.009999Zm-4.48,4.55h0c0,.19.01.37,0,.56,0,.12.02.16.15.16.41,0,.82,0,1.22.01.1,0,.11-.06.11-.14v-1.21c0-.1-.04-.15-.14-.15h-1.19c-.1,0-.15.05-.15.15v.62Zm2.24-4.54h0v.61c0,.09.02.16.13.16h1.21c.08,0,.13-.03.13-.12v-1.23c0-.09-.04-.13-.13-.13h-1.24c-.09,0-.11.04-.11.13v.58h.01Zm5.23-.71h-.63c-.07,0-.12.01-.11.11v1.19c0,.12.04.18.17.18h1.14c.12,0,.17-.04.17-.16v-1.17c0-.1-.04-.15-.15-.15h-.6.009999Zm-5.99,2.98h0v-.54c0-.16-.06-.2-.21-.2h-1.09c-.14,0-.2.05-.19.19v1.09c0,.17.06.21.22.21h1.14c.11,0,.13-.06.13-.14v-.61Zm3.77.74h0c.19,0,.37-.01.56,0,.14.01.16-.04.16-.15v-1.17c0-.12-.06-.16-.17-.16h-1.16c-.11,0-.16.05-.16.16v1.16c0,.13.06.17.18.17h.58l.01-.01Zm-3,1.54h0v.58c0,.11.03.13.13.13h1.21c.1,0,.15-.04.15-.14v-1.19c0-.1-.05-.14-.15-.14h-1.17c-.11,0-.16.05-.15.16v.61l-.02-.009999Zm.74-1.54h.58c.11,0,.16-.04.16-.15v-1.17c0-.11-.04-.16-.16-.16h-1.17c-.1,0-.15.03-.15.14v1.19c0,.12.06.15.16.15h.58Z"/>
    <path class="cls-4" d="m16.61,8.420873H3.15c0-1.07-.02-2.14.01-3.2.01-.45.29-.8.67-1.05.24-.15.51-.24.8-.24,0,.25.01.49.02.74,0,.32-.08.63,0,.95.09.32.37.56.69.56.39,0,.67-.2.75-.56.07-.31.05-.63.04-.95,0-.25.01-.49.02-.74h7.469999c0,.25.01.49.02.74,0,.32-.08.63,0,.95.09.32.37.56.69.56.39,0,.67-.2.75-.56.07-.31.05-.63.04-.95,0-.25.01-.49.02-.74.71.03,1.33.49,1.46,1.25.02.12.03.24.03.36v2.87l-.02.01Z"/>
    <path class="cls-3" d="m3.16,16.300873c.07.02.07.09.1.14.28.63.77.95,1.46.95h6.36c.16.26.33.51.49.77-.11.03-.22-.03-.33-.03h-6.5c-.47,0-.86-.13-1.18-.46-.25-.270001-.41-.580001-.41-.970001v-.4h.01Z"/>
    <path class="cls-3" d="m15.129999,3.930873c0,.25-.01.49-.02.74h-1.48c0-.25-.01-.49-.02-.74,0-.28,0-.56.02-.84.02-.36.32-.64.68-.64.54,0,.8.27.8.81v.66l.02.01Z"/>
    <path class="cls-3" d="m4.66,4.670873c0-.25-.01-.49-.02-.74,0-.28,0-.56.02-.84.02-.36.32-.61.68-.64.5-.03.82.33.8.82v.66c0,.25-.01.49-.02.74h-1.48.02Z"/>
    <path class="cls-3" d="m3.15,16.130873s.03.07,0,.11v-.11Z"/>
    <path class="cls-6" d="m14.71,18.890873c-1.78.02-3.59-1.5-3.38-3.73.16-1.72,1.57-3.17,3.68-3.059999,1.67.09,3.29,1.51,3.14,3.690001-.12,1.76-1.62,3.110001-3.45,3.1l.009999-.000002Zm1.03-3.73h-.42c-.03-.05-.05-.11-.09-.14-.13-.09-.14-.22-.14-.37v-1.2c.01-.02.01-.03,0-.05-.09-.22-.19-.28-.43-.24-.16.03-.24.14-.24.37v1.22c0,.09-.02.14-.09.21-.28.25-.34.6-.18.9-.04.05-.08.1-.13.14-.41.41-.82.83-1.24,1.24-.07.06-.1.12,0,.18.07.04.1.22.24.08.46-.46.92-.93,1.38-1.39.21.11.42.15.64.03.15-.08.24-.21.36-.32.12.03.24.02.35,0h1.71c.24,0,.35-.11.35-.33,0-.21-.13-.34-.35-.34h-1.71l-.009999.01Z"/>
    <path class="cls-3" d="m14.36,11.430872c-.2-.05-.39-.02-.59-.02-.11,0-.15-.02-.14-.15.01-.38.01-.76,0-1.14,0-.14.04-.2.19-.2h1.1c.15,0,.19.05.19.2v1.31h-.749999Z"/>
    <path class="cls-3" d="m10.65,15.890872h-1.31c-.14,0-.2-.05-.19-.19v-1.17c0-.09.02-.12.1-.12h1.24c.11,0,.14.05.14.15,0,.19-.03.38.02.57-.02.25-.06.5,0,.75v.01Z"/>
    <path class="cls-3" d="m11.4,13.050873c-.03-.25,0-.5-.01-.75,0-.09.04-.14.14-.14.25,0,.5-.02.75.01-.04.09-.13.14-.2.19-.26.19-.43.47-.67.68l-.01.01Z"/>
    <path class="cls-3" d="m5.39,11.400873h-.63c-.07,0-.12,0-.12-.11v-1.19c0-.13.04-.19.18-.19h1.12c.14,0,.19.05.18.19v1.15c0,.12-.03.16-.17.15-.19-.02-.38,0-.58,0h.02Z"/>
    <path class="cls-3" d="m9.139999,10.620873v-.58c0-.09.02-.12.1-.12h1.24c.09,0,.14.04.14.14v1.24c0,.07-.02.12-.11.12-.39,0-.78-.01-1.17-.01-.14,0-.2-.05-.19-.19v-.59h0l-.01-.01Z"/>
    <path class="cls-3" d="m4.66,15.170873v-.61c0-.1.04-.15.15-.15h1.19c.1,0,.14.05.14.15v1.21c0,.07,0,.14-.11.14-.41,0-.82-.01-1.22-.01-.13,0-.16-.04-.15-.16.01-.19,0-.37,0-.56h0v-.01Z"/>
    <path class="cls-3" d="m6.9,10.630873v-.58c0-.09.02-.13.11-.13h1.24c.09,0,.13.04.13.13v1.23c0,.09-.05.12-.13.12h-1.21c-.11,0-.14-.06-.13-.16v-.61h-.01Z"/>
    <path class="cls-3" d="m12.12,9.920873h.6c.1,0,.15.04.15.15v1.17c0,.12-.06.16-.17.16h-1.14c-.13,0-.17-.06-.17-.18v-1.19c0-.1.04-.11.11-.11h.63-.009999Z"/>
    <path class="cls-3" d="m6.14,12.910873v.61c0,.08-.01.14-.13.14-.38-.01-.76-.01-1.14,0-.15,0-.22-.04-.22-.21.01-.36,0-.72,0-1.09,0-.15.05-.2.19-.19h1.09c.15,0,.21.04.21.2-.01.18,0,.36,0,.54h0Z"/>
    <path class="cls-3" d="m9.9,13.640872h-.58c-.12,0-.18-.04-.18-.17v-1.16c0-.11.04-.16.16-.16h1.16c.11,0,.17.04.17.16v1.17c0,.11-.03.17-.16.15-.18-.02-.37,0-.56,0h0l-.01.01Z"/>
    <path class="cls-3" d="m6.9,15.180872v-.61c0-.11.04-.16.15-.16h1.17c.1,0,.15.04.15.14v1.190001c0,.11-.05.14-.15.14h-1.21c-.09,0-.13-.02-.13-.13.01-.19,0-.39,0-.58h0l.02.009998Z"/>
    <path class="cls-3" d="m7.639999,13.640872h-.58c-.1,0-.17-.03-.16-.15v-1.19c0-.11.05-.14.15-.14h1.17c.11,0,.16.05.16.16v1.17c0,.12-.05.15-.16.15h-.58Z"/>
    <path class="cls-5" d="m4.66,4.670873h1.48c0,.32.03.64-.04.95-.08.36-.37.56-.75.56-.32,0-.6-.23-.69-.56-.08-.32,0-.63,0-.95Z"/>
    <path class="cls-5" d="m13.629999,4.670873h1.48c0,.32.03.64-.04.95-.08.36-.37.56-.75.56-.32,0-.6-.23-.69-.56-.08-.32,0-.63,0-.95Z"/>
    <path class="cls-3" d="m14.139999,15.850872c-.16-.31-.1-.65.18-.9.07-.06.09-.12.09-.21v-1.22c0-.23.07-.34.24-.37.24-.04.34.02.43.24v1.25c0,.15,0,.27.14.37.04.03.06.09.09.14.12.21.12.43.07.66-.12.11-.22.24-.36.32-.22.12-.43.08-.64-.03-.1-.06-.19-.14-.25-.25h.009999Zm.94-.33c0-.23-.12-.36-.35-.37-.14,0-.35.19-.36.34,0,.18.2.39.38.39.15,0,.32-.19.32-.37l.01.009999Z"/>
    <path class="cls-3" d="m15.74,15.150873h1.71c.23,0,.35.13.35.34,0,.22-.11.33-.35.33h-1.71c.05-.22.04-.44,0-.66v-.01Z"/>
    <path class="cls-4" d="m14.139999,15.850872c.06.1.15.18.25.25-.46.46-.92.93-1.38,1.39-.13.13-.17-.04-.24-.08-.09-.06-.06-.11,0-.18.42-.41.83-.82,1.24-1.24.04-.05.08-.1.13-.14Z"/>
    <path class="cls-5" d="m15.74,15.150873c.04.22.05.44,0,.66-.12.01-.24.02-.35,0,.05-.23.05-.45-.07-.66h.42Z"/>
    <path class="cls-5" d="m15.08,13.440873v-.05c.02.01.02.03,0,.05Z"/>
    <path class="cls-6" d="m15.07,15.520872c0,.17-.17.37-.32.37-.19,0-.39-.21-.38-.39,0-.15.22-.34.36-.34.22,0,.34.14.35.37l-.01-.009999Z"/>
  </g>
  <rect class="cls-8" width="22" height="22"/>
</svg>