<?xml version="1.0" encoding="UTF-8"?>
<svg id="Capa_1" data-name="Capa 1" xmlns="http://www.w3.org/2000/svg" viewBox="0 0 22 22">
  <defs>
    <style>
      .cls-1 {
        fill: #fff;
      }

      .cls-2 {
        fill: #026838;
      }

      .cls-3 {
        fill: #f19001;
      }

      .cls-4 {
        fill: #fac043;
      }

      .cls-5 {
        fill: none;
      }

      .cls-6 {
        fill: #149939;
      }
    </style>
  </defs>
  <g>
    <g>
      <path class="cls-2" d="m17.808093,12.370002s-.02-.03-.01-.04c.02,0,0,.03.01.04Z"/>
      <path class="cls-2" d="m7.578092,9.410002v-.02h.01-.01v.02Z"/>
    </g>
    <g>
      <g>
        <path class="cls-1" d="m12.108093,17.500002v-.05c-.03-.9-.06-1.8-.09-2.7,0-.09-.05-.14-.14-.14h-.94c-.09,0-.14.05-.14.14-.03.8-.05,1.59-.08,2.39,0,.04-.02.06-.05.08-.42.23-.84.47-1.26.709999-.06.030001-.08.08-.08.139999v1.91c0,.1.04.15.15.15h6.800001c.1,0,.15-.040001.15-.15v-.809999c0-.030001,0-.049999.03-.059999.14-.07.21-.18.21-.33s-.08-.26-.21-.33c-.02,0-.03-.030001-.03-.049999v-.33c0-.1-.05-.15-.15-.15h-.830001v-.95c0-.03,0-.07-.02-.1-.04-.06-.1-.07-.17-.03-.29.16-.58.32-.87.49-.06.03-.12.07-.19.1v-.05c-.03-.88-.06-1.75-.09-2.63,0-.11-.05-.15-.15-.15h-.92c-.11,0-.15.04-.15.15-.03.77-.05,1.54-.08,2.309999,0,.03-.01.05-.04.07-.15.09-.31.17-.46.26-.06.03-.11.06-.18.1l-.02.009999Zm3.46-4.39v-.18c0-.11-.04-.15-.15-.15h-1.04c-.31,0-.53.16-.63.45,0,.03-.02.04-.05.04h-.21c-.34,0-.61.27-.61.62v.33c0,.11.04.15.15.15h1.03c.32,0,.53-.15.63-.45,0-.03.02-.04.05-.04h.24c.25,0,.49-.18.56-.43m-3.29-.68h-.37c-.31,0-.57.26-.58.57,0,.04-.02.06-.06.07-.23.07-.38.23-.42.47-.02.12-.01.25-.01.38,0,.06.06.1.12.1h.76c.3,0,.56-.26.58-.57,0-.04.02-.06.06-.07.23-.07.37-.23.42-.46.02-.11.01-.23.02-.35,0-.09-.05-.14-.14-.14h-.38Z"/>
        <path d="m12.108093,17.500002c.07-.04.12-.07.18-.1.15-.09.31-.17.46-.26.03-.02.04-.03.04-.07.02-.77.05-1.54.08-2.31,0-.11.05-.15.15-.15h.92c.1,0,.15.04.15.15.03.88.06,1.75.09,2.63v.05c.07-.04.13-.07.19-.1.29-.16.58-.32.87-.49.07-.04.14-.03.17.03.02.03.02.06.02.1v.95h.83c.1,0,.15.049999.15.15v.33c0,.02.02.040001.03.049999.13.07.21.18.21.33s-.07.27-.21.33c-.03.01-.03.030001-.03.059999v.809999c0,.1-.04.15-.15.15h-6.8c-.1,0-.15-.040001-.15-.15v-1.91c0-.07.03-.110001.08-.139999.42-.23.84-.47,1.26-.71.03-.02.05-.04.05-.08.03-.8.05-1.59.08-2.39,0-.09.05-.14.14-.14h.94c.09,0,.14.05.14.14.03.9.06,1.8.09,2.7v.05l.02-.009997Zm-.83-.34c-.06.03-.1.05-.14.07-.51.28-1.01.57-1.52.849999-.03.02-.05.040001-.05.08v.67c0,.040001.01.049999.05.049999h1.59c.04,0,.06-.01.06-.059999v-1.660001l.01.000002Zm3.92,0s-.05.02-.06.03c-.53.3-1.06.6-1.59.889999-.04.02-.05.040001-.05.08v.65c0,.049999.01.059999.06.059999h1.56q.07,0,.07-.07v-1.65l.01.010001Zm-1.96,0s-.03.01-.05.02c-.54.3-1.07.6-1.61.910001-.03.02-.04.040001-.04.07v.299999c0,.049999.02.059999.06.059999h1.57c.06,0,.07-.02.07-.07v-1.29Zm0,2.71v-1.060001c0-.049999-.03-.040001-.06-.040001h-1.6c-.04,0-.06,0-.06.049999v1.039999h.45c.03,0,.03-.02.03-.040001v-.43c0-.09.05-.139999.14-.139999h.45c.1,0,.15.049999.15.15v.42c0,.02,0,.049999.03.049999h.45l.020002.000006Zm-.17-2.92h0c.07-.04.14-.08.21-.12.02-.01.04-.02.06-.03.09-.01.15.04.15.14v.87c.02-.01.04-.02.06-.03.11-.06.23-.13.34-.19.04-.02.05-.05.05-.09,0-.13-.01-.25-.02-.38-.01-.41-.03-.82-.04-1.23,0-.05-.02-.06-.06-.06h-.66q-.08,0-.08.07c0,.2-.02.39-.02.59v.46h.01Zm-2.09.07c.11-.06.23-.12.33-.19.1-.06.22-.01.22.13v.86c.11-.06.21-.12.31-.18.01,0,.01-.03.01-.04v-.27c-.02-.48-.03-.95-.05-1.43,0-.05-.01-.06-.06-.06h-.68c-.05,0-.06.01-.06.06,0,.25-.02.5-.02.74v.39-.009999Zm-.549999,2.110001h-.81c-.04,0-.05,0-.05.049999v.629999c0,.040001.01.049999.05.049999h1.6c.04,0,.05-.01.05-.059999v-.620001c0-.040001-.01-.059999-.06-.059999h-.8l.02.010002Zm3.91,0h-.81c-.04,0-.05,0-.05.049999v.629999c0,.040001.01.049999.05.049999h1.61c.04,0,.05-.01.05-.049999v-.629999c0-.040001-.01-.049999-.06-.049999h-.8.010001Zm1.83.370001v-.33c0-.030001,0-.040001-.04-.040001h-.65c-.03,0-.04.01-.04.040001v.639999c0,.030001.01.040001.04.040001h.64c.04,0,.05-.01.05-.049999v-.32.019999Zm-.280001-.620001h.38c.08,0,.13-.049999.13-.110001,0-.07-.05-.110001-.13-.110001h-.78c-.03,0-.05.01-.05.049999v.120001c0,.040001.02.059999.06.059999h.39v-.009998Zm-4.490001-3.79h.33c.04,0,.05-.01.04-.05v-.15c0-.03,0-.05-.04-.05h-.65c-.03,0-.04,0-.04.04v.16c0,.04.01.05.05.05h.33-.02Zm2.08,0h.33c.03,0,.05-.01.04-.04v-.15c0-.03,0-.04-.04-.04h-.65c-.03,0-.04.01-.04.04v.15c0,.04,0,.05.05.05h.33l-.02-.01Zm2.33,3.070001h-.32c-.03,0-.05.01-.04.040001v.16c0,.030001.01.040001.04.040001h.65c.03,0,.04,0,.04-.040001v-.16c0-.030001-.01-.040001-.04-.040001h-.33Zm-3.31,1.530001h0v-.129999c0-.030001,0-.049999-.04-.049999h-.15c-.03,0-.04.01-.04.040001v.27c0,.030001.01.040001.04.040001h.15c.03,0,.04-.01.04-.040001v-.130003Z"/>
        <path d="m15.528092,13.450002c-.07.24-.3.42-.56.43h-.24c-.03,0-.04,0-.05.04-.1.3-.31.45-.63.45h-1.03c-.11,0-.15-.04-.15-.15v-.33c0-.35.27-.61.61-.62h.21c.03,0,.04,0,.05-.04.1-.3.31-.45.63-.45h1.04c.11,0,.15.04.15.15v.18s-.01.23-.03.339999Zm-.21-.42h-.99c-.2,0-.35.15-.36.35,0,.09-.05.13-.14.14h-.36c-.15,0-.29.1-.34.25-.04.12-.01.23-.02.35h.99c.19,0,.34-.15.35-.35,0-.1.05-.14.15-.14h.35c.17,0,.32-.11.35-.28.02-.1.01-.21.02-.320001Z"/>
        <path d="m12.238092,12.770001h.37c.09,0,.14.05.14.14,0,.12,0,.24-.02.35-.04.23-.19.39-.42.46-.04.01-.05.03-.06.07-.02.3-.28.56-.58.57h-.76c-.07,0-.12-.04-.12-.1,0-.13-.01-.26.01-.38.04-.24.19-.39.42-.47.04-.01.05-.03.06-.07.02-.3.28-.56.58-.57h.38Zm.26.25h-.64c-.15,0-.28.11-.32.25-.02.07-.02.14-.02.21,0,.09-.05.13-.14.15-.06,0-.13.03-.18.06-.13.08-.2.26-.17.4,0,.01.02.02.04.02h.6c.15,0,.29-.12.33-.26.02-.07.01-.14.02-.21,0-.09.05-.13.13-.14.05,0,.11-.02.16-.04.15-.08.22-.23.190001-.44Z"/>
        <path class="cls-6" d="m11.268093,17.160002v1.660001c0,.049999-.02.059999-.06.059999h-1.59c-.03,0-.05-.01-.05-.049999v-.67c0-.040001.02-.059999.05-.08.51-.28,1.01-.57,1.52-.85.04-.02.08-.04.14-.07h-.009999Z"/>
        <path class="cls-6" d="m15.188093,17.160002v1.650001q0,.07-.07.07h-1.559999c-.05,0-.06-.02-.06-.059999v-.65c0-.040001.01-.059999.05-.08.53-.3,1.059999-.59,1.59-.89.01,0,.03-.01.06-.03l-.010001-.010001Z"/>
        <path class="cls-6" d="m13.228093,17.160002v1.28c0,.049999-.01.07-.07.07h-1.57c-.05,0-.06-.01-.06-.059999v-.299999c0-.030001.01-.049999.04-.07.54-.3,1.07-.6,1.61-.91.01,0,.03-.01.05-.02v.009999Z"/>
        <path class="cls-1" d="m13.228093,19.870002h-.45c-.04,0-.03-.02-.03-.049999v-.42c0-.1-.05-.15-.15-.15h-.45c-.09,0-.14.049999-.14.139999v.43c0,.02,0,.040001-.03.040001h-.45v-1.039999c0-.040001.01-.049999.06-.049999h1.6c.03,0,.06,0,.06.040001v1.060001l-.020002-.000006Z"/>
        <path class="cls-1" d="m13.058093,16.950002v-.46c0-.2.01-.39.02-.59q0-.07.08-.07h.66c.05,0,.06.01.06.06.01.41.03.82.04,1.23,0,.13,0,.25.02.38,0,.04,0,.07-.05.09-.12.06-.23.13-.34.19-.02,0-.03.02-.06.03v-.87c0-.09-.06-.15-.15-.14-.02,0-.04.01-.06.03-.07.04-.14.08-.21.12h-.01Z"/>
        <path class="cls-1" d="m10.968092,17.030002v-.39c0-.25.02-.5.02-.74,0-.05.02-.06.06-.06h.68c.05,0,.06.02.06.06.01.48.03.95.05,1.43v.27c0,.02,0,.04-.01.04-.1.06-.2.12-.31.18v-.86c0-.14-.12-.19-.22-.13-.11.07-.22.13-.33.19v.009999Z"/>
        <path class="cls-1" d="m10.418092,19.140002h.8c.05,0,.06.01.06.059999v.620001c0,.040001-.01.059999-.05.059999h-1.6c-.04,0-.06-.01-.05-.049999v-.629999c0-.040001.01-.049999.05-.049999h.81l-.02-.010002Zm-.37.370001c0-.086666-.043334-.129999-.13-.129999s-.126667.040001-.12.120001c.006667.08.05.123333.13.129999.08.006664.12-.033335.12-.120001Zm.24,0c0,.086666.043334.129999.13.129999.08,0,.12-.040001.12-.120001,0-.086666-.043333-.129999-.13-.129999-.08,0-.12.040001-.12.120001Zm.74,0c0-.086666-.043333-.129999-.13-.129999-.08,0-.12.040001-.12.120001,0,.086666.043333.129999.13.129999.08,0,.12-.040001.12-.120001Z"/>
        <path class="cls-1" d="m14.338092,19.140002h.8c.04,0,.06,0,.06.049999v.629999c0,.040001-.01.049999-.05.049999h-1.61c-.04,0-.05,0-.05-.049999v-.629999c0-.040001.01-.049999.05-.049999h.81-.010001Zm.12.370001c0-.086666-.043333-.129999-.13-.129999s-.126666.040001-.12.120001c.006667.08.050001.123333.13.129999.079999.006664.12-.033335.12-.120001Zm.24,0c0,.086666.043333.129999.13.129999.08,0,.12-.040001.12-.120001,0-.086666-.043334-.129999-.13-.129999-.080001,0-.12.040001-.12.120001Zm-.98,0c0,.086666.043333.129999.13.129999.08,0,.120001-.040001.12-.120001,0-.086666-.043333-.129999-.13-.129999-.08,0-.119999.040001-.12.120001Z"/>
        <path class="cls-1" d="m16.168092,19.510001v.32c0,.030001,0,.049999-.05.049999h-.64c-.03,0-.04-.01-.04-.040001v-.639999c0-.030001,0-.049999.04-.040001h.65c.03,0,.04.01.04.040001v.33-.019999Zm-.369999.120001c.086666,0,.13-.043333.13-.129999s-.043334-.129999-.13-.129999c-.086667,0-.130001.040001-.13.120001,0,.080002.04.123333.12.129999l.01.009998Z"/>
        <path class="cls-1" d="m15.898093,18.880002h-.39c-.04,0-.06-.01-.06-.059999v-.120001c0-.040001.01-.049999.05-.049999h.78c.08,0,.13.049999.13.110001,0,.059999-.05.110001-.13.110001h-.38v.009998Z"/>
        <path class="cls-1" d="m11.408092,15.090001h-.33c-.03,0-.05,0-.05-.05v-.16c0-.03.01-.04.04-.04h.65c.03,0,.04.01.04.05v.15c0,.03,0,.05-.04.05h-.33.02Z"/>
        <path class="cls-1" d="m13.478093,15.090001h-.33c-.04,0-.05-.01-.05-.05v-.15c0-.03.01-.04.04-.04h.65c.03,0,.04.01.04.04v.15c0,.03,0,.05-.04.04h-.33l.02.01Z"/>
        <path class="cls-1" d="m15.808093,18.160001h.32c.03,0,.05.01.04.040001v.16c0,.030001-.01.040001-.04.040001h-.65c-.03,0-.04-.01-.04-.040001v-.16c0-.030001.01-.040001.04-.040001h.33Z"/>
        <path class="cls-6" d="m12.498092,19.690001v.129999c0,.030001-.01.040001-.04.040001h-.15c-.03,0-.04-.01-.04-.040001v-.27c0-.030001.01-.040001.04-.040001h.15c.03,0,.04.02.04.049999v.130003Z"/>
        <path class="cls-1" d="m15.318092,13.020001c0,.11,0,.22-.02.32-.03.17-.18.28-.35.28h-.35c-.1,0-.14.04-.15.14-.01.19-.16.35-.35.35h-.99c0-.12-.02-.24.02-.35.05-.15.18-.25.34-.25h.36c.09,0,.14-.04.14-.14.01-.2.16-.35.36-.35h.94c.01,0,.02,0,.050001,0Z"/>
        <path class="cls-1" d="m12.498092,13.020001c.03.21-.04.36-.19.44-.05.02-.11.04-.16.04-.09.01-.13.05-.13.14,0,.07,0,.14-.02.21-.03.15-.17.26-.33.26h-.6c-.01,0-.03-.01-.04-.02-.03-.15.04-.33.17-.4.05-.03.12-.05.18-.06.09-.01.14-.05.14-.15,0-.07,0-.14.02-.21.04-.14.17-.25.32-.25h.639999Z"/>
        <path d="m10.058092,19.510001c0,.080002-.04.120001-.12.120001s-.123333-.043333-.13-.129999c-.006667-.086666.033333-.126667.12-.120001.086667.006666.13.049999.13.129999Z"/>
        <path d="m10.298092,19.500001c0-.08.04-.120001.12-.120001s.123334.043333.13.129999c.006667.086666-.033333.126667-.12.120001-.086667-.006664-.13-.049999-.13-.129999Z"/>
        <path d="m11.038092,19.510001c0,.080002-.04.120001-.12.120001s-.123334-.043333-.13-.129999c-.006667-.086666.033333-.126667.12-.120001s.13.049999.13.129999Z"/>
        <path d="m14.458092,19.510001c0,.080002-.040001.120001-.12.120001s-.123333-.043333-.13-.129999c-.006666-.086666.033333-.126667.12-.120001s.13.049999.13.129999Z"/>
        <path d="m14.698092,19.500001c0-.08.039999-.120001.12-.120001s.123333.043333.13.129999c.006666.086666-.033333.126667-.12.120001-.086667-.006664-.13-.049999-.13-.129999Z"/>
        <path d="m13.728093,19.500001c0-.08.04-.120001.12-.120001s.123334.043333.13.129999c.006667.086666-.033334.126667-.12.120001-.086666-.006664-.13-.049999-.13-.129999Z"/>
        <path d="m15.808093,19.630002c-.08,0-.119999-.043333-.12-.129999,0-.086666.043333-.126667.13-.120001.086666.006666.13.049999.13.129999,0,.080002-.043334.123333-.13.129999l-.01-.009998Z"/>
      </g>
      <path class="cls-3" d="m13.098093,15.570002s0,.04.04.04h.72c.03,0,.04-.01.03-.04v-.15c0-.04-.02-.05-.06-.05h-.72v.18l-.009999.02Z"/>
      <path class="cls-3" d="m11.028092,15.390001v.180001c0,.03,0,.04.04.04h.71c.03,0,.04-.01.04-.04v-.16c0-.03-.01-.04-.05-.04h-.72s-.01,0-.01.02l-.009999-.000002Z"/>
    </g>
    <g>
      <path class="cls-1" d="m8.798092,12.350001c.28-.02.51-.04.74-.05,1.34-.05,2.650001.13,3.93.52.23.07.46.11.65-.1.18-.2.15-.42.07-.65-.26-.71-.52-1.43-.78-2.14-.06-.16-.04-.26.08-.39.47-.49.6-1.08.37-1.72-.23-.64-.7-1.01-1.38-1.09-.21-.03-.29-.12-.35-.29-.26-.73-.51-1.46-.8-2.17-.07-.16-.26-.34-.42-.37-.16-.02-.35.13-.5.24-.09.07-.14.19-.21.3-.96,1.41-2.17,2.57-3.62,3.47-.91.57-1.9.95-2.9,1.33-1.01.38-1.54,1.48-1.26,2.54.27,1.03,1.28,1.72,2.33,1.57.21-.03.33.02.44.2.72,1.13,1.46,2.25,2.19,3.37.39.6,1.07.77,1.64.42.58-.35.74-1.04.38-1.67-.18-.32-.36-.63-.53-.94.59-.58.65-.99.26-1.72-.1-.2-.21-.39-.34-.64l.010001-.019999ZM16.248092,1.860002c-.05.05-.16.12-.23.22-.66.97-1.32,1.94-1.98,2.91-.12.17-.2.36.02.5.22.14.35-.02.46-.19.44-.65.89-1.31,1.33-1.96.23-.33.46-.67.68-1.01.14-.22.03-.46-.280002-.47Zm-.54,7.38c-.06.06-.19.13-.21.22-.01.1.06.23.13.33.04.05.15.06.22.08.92.26,1.85.52,2.77.79.18.05.370001.1.559999.16.190001.06.379999.08.450001-.16.07-.22-.08-.34-.280001-.38-.030001,0-.059999-.02-.09-.03-1.09-.31-2.18-.62-3.27-.92-.08-.02-.16-.04-.29-.08l.01-.01Zm2.830001-3.44c-.31.11-.56.2-.82.3-.85.31-1.7.61-2.54.93-.28.1-.37.36-.17.5.09.06.26.06.36.03,1.04-.37,2.08-.75,3.120001-1.13.07-.02.15-.04.190001-.09.049999-.09.110001-.21.09-.29-.030001-.09-.15-.16-.219999-.23l-.010002-.02Z"/>
      <path d="m8.798092,12.350001c.13.25.24.45.34.64.39.73.33,1.15-.26,1.72.18.31.35.63.53.94.35.63.19,1.33-.38,1.67s-1.25.17-1.64-.42c-.74-1.12-1.47-2.24-2.19-3.37-.12-.18-.23-.23-.44-.2-1.06.14-2.06-.54-2.33-1.57-.28-1.05.25-2.15,1.26-2.54,1-.38,1.99-.76,2.9-1.33,1.45-.91,2.66-2.06,3.62-3.47.07-.1.12-.23.21-.3.15-.11.35-.26.5-.24.16.02.36.21.42.37.29.71.54,1.44.8,2.17.06.18.14.27.35.29.67.08,1.15.45,1.38,1.09.23.64.1,1.23-.37,1.72-.13.13-.14.23-.08.39.27.71.52,1.43.78,2.14.09.23.12.46-.07.65-.19.2-.41.17-.65.1-1.28-.39-2.59-.57-3.93-.52-.23,0-.46.03-.74.05l-.010001.019998Zm2.03-7.85c-1.21,1.84-2.74,3.24-4.63,4.27.4,1.09.78,2.15,1.17,3.22,2.12-.43,4.179999-.33,6.28.29-.95-2.62-1.88-5.16-2.83-7.77l.01-.01Zm-4.02,7.59c-.37-1.02-.74-2.03-1.11-3.04-.64.25-1.26.46-1.85.72-.77.33-1.13,1.190001-.86,1.97.28.79,1.12,1.23,1.93.99.62-.19,1.23-.41,1.88-.64h.01Zm-1.25,1c.81,1.24,1.59,2.43,2.39,3.62.18.27.55.29.82.1.26-.18.35-.51.18-.81-.6-1.07-1.2-2.14-1.81-3.2-.04-.06-.16-.13-.23-.12-.44.12-.87.26-1.35.41Zm3.02,1.1c.25-.23.3-.47.16-.74-.11-.23-.24-.44-.36-.67-.16-.293333-.403333-.37-.73-.23.31.54.61,1.08.93,1.639999Zm4.530001-5.1c.31-.37.36-.74.2-1.13-.14-.37-.42-.59-.86-.68.23.62.43,1.19.66,1.81Z"/>
      <path d="m16.248092,1.860002c.3,0,.42.25.28.47-.22.34-.45.67-.68,1.01-.44.65-.89,1.3-1.33,1.96-.12.17-.24.33-.46.19-.22-.14-.13-.32-.02-.5l1.98-2.91c.07-.1.18-.17.230001-.22Z"/>
      <path d="m15.708092,9.240002c.14.04.21.05.29.08,1.09.31,2.18.62,3.27.92.030001,0,.059999.02.09.03.209999.05.35.16.280001.38-.07.23-.26.21-.450001.16-.18-.05-.370001-.1-.559999-.16-.92-.26-1.85-.52-2.77-.79-.08-.02-.18-.03-.22-.08-.07-.09-.15-.22-.13-.33.01-.09.14-.16.21-.22l-.01.01Z"/>
      <path d="m18.538093,5.800002c.08.07.200001.14.219999.23.030001.08-.040001.21-.09.29-.030001.05-.120001.07-.190001.09-1.04.38-2.07.76-3.12,1.13-.11.04-.27.03-.36-.03-.2-.14-.11-.39.17-.5.85-.31,1.690001-.62,2.54-.93.26-.09.51-.19.820001-.3l.01.02Z"/>
      <path class="cls-3" d="m10.828092,4.500002c.95,2.62,1.88,5.16,2.83,7.77-2.1-.61-4.17-.71-6.28-.29-.39-1.07-.78-2.13-1.17-3.22,1.89-1.03,3.42-2.43,4.630001-4.27l-.01.01Z"/>
      <path class="cls-3" d="m6.808092,12.090001c-.66.22-1.26.45-1.88.64-.81.25-1.65-.2-1.93-.99-.28-.78.09-1.64.86-1.97.59-.25,1.21-.47,1.85-.72.37,1.01.74,2.02,1.11,3.04h-.01Z"/>
      <path class="cls-1" d="m5.558092,13.100001c.48-.15.91-.29,1.35-.41.06-.02.19.05.23.12.61,1.06,1.22,2.13,1.81,3.2.17.3.08.62-.18.81-.26.19-.64.17-.82-.1-.8-1.18-1.57-2.38-2.39-3.62Z"/>
      <path class="cls-1" d="m8.578092,14.200002c-.32-.56-.62-1.1-.93-1.64.333333-.139999.576667-.063334.73.23.12.22.24.44.36.67.13.27.09.5-.16.740001Z"/>
      <path class="cls-4" d="m13.108093,9.100001c-.22-.62-.43-1.19-.66-1.81.45.08.72.31.86.68.15.39.1.76-.2,1.13Z"/>
    </g>
  </g>
  <rect class="cls-5" width="22" height="22"/>
</svg>