<?xml version="1.0" encoding="UTF-8"?>
<svg id="Capa_1" data-name="Capa 1" xmlns="http://www.w3.org/2000/svg" viewBox="0 0 22 22">
  <defs>
    <style>
      .cls-1 {
        fill: #c1ddbb;
      }

      .cls-2 {
        fill: #d5e7f7;
      }

      .cls-3 {
        fill: #bda195;
      }

      .cls-4 {
        fill: #704130;
      }

      .cls-5 {
        fill: #69b32d;
      }

      .cls-6 {
        fill: #985c3f;
      }

      .cls-7 {
        fill: none;
      }

      .cls-8 {
        fill: #f7f6f6;
      }

      .cls-9 {
        fill: #f18e1a;
      }

      .cls-10 {
        fill: #804c37;
      }

      .cls-11 {
        fill: #f9bd2d;
      }
    </style>
  </defs>
  <g>
    <g>
      <path class="cls-8" d="m8.018878,5.770001H3.868878s-.9.04-.8.97c.02.19.09.78.18,1.6h4.78v-2.58l-.01.01Z"/>
      <path class="cls-9" d="m6.778878,13.620001v5.94h1.24v-11.22H3.248878c.08.72.18,1.63.29,2.6.8-.14,3.24-.32,3.24,2.67v.01Z"/>
      <path class="cls-11" d="m3.538878,10.950001c.39,3.47.87,7.79.87,7.79,0,0,0,.82.83.82h1.54v-5.940001c0-2.99-2.44-2.809999-3.24-2.669999Z"/>
      <path class="cls-9" d="m11.638878,18.740001s.49-4.33.87-7.8c-.85-.14-3.19-.25-3.19,2.68v5.94h1.49c.84,0,.83-.82.83-.82Z"/>
    </g>
    <g>
      <path class="cls-2" d="m12.808878,8.34c.09-.83.16-1.42.18-1.6.11-.94-.8-.97-.8-.97h-.61l-1.22,2.58h2.46l-.01-.01Z"/>
      <polygon class="cls-2" points="10.388878 5.770001 8.028878 5.770001 8.018878 5.770001 8.018878 8.34 9.158878 8.34 10.388878 5.770001"/>
      <path class="cls-11" d="m10.098878,8.88c-.09.19-.28.31-.48.31-.08,0-.16-.02-.23-.05-.27-.13-.38-.45-.25-.71l.04-.07h-1.14v11.220001h1.29v-5.940001c0-2.93,2.34-2.82,3.19-2.68.11-.97.21-1.87.29-2.59h-2.46l-.25.53v-.019999Z"/>
      <path class="cls-5" d="m14.868878,1.740001h-2.23c-.21,0-.39.12-.48.31l-1.77,3.72h1.19l1.41-2.96h1.89c.3,0,.54-.24.54-.54s-.24-.54-.54-.54l-.01.01Z"/>
      <polygon class="cls-1" points="9.158878 8.34 10.348878 8.34 11.568878 5.770001 10.388878 5.770001 9.158878 8.34"/>
      <path class="cls-11" d="m9.378878,9.13c.07.04.15.05.23.05.2,0,.39-.11.48-.31l.25-.53h-1.19l-.04.07c-.13.27-.01.59.25.71l.02.009999Z"/>
    </g>
    <g>
      <path class="cls-6" d="m18.868878,18.54c-.16-.02-.32-.02-.48-.02h-9.82c-.29,0-.58-.01-.86.02v1.719999l11.14-.18c.02-.059999.03-.129999.03-.190001v-1.35l-.01.000002Z"/>
      <path class="cls-4" d="m14.778878,13.11c.28-.13.56-.24.85-.36.08-.03.15-.03.23.04.43.44.86.87,1.29,1.3l.11.11c0,.03.02.05.05.05h0c0,.05.03.07.08.08h0c0,.03.02.05.05.05.11.1.21.21.32.31,0,.03.02.05.05.05h0c0,.05.03.07.08.08h0c0,.05.03.07.08.08l.08.08c0,.03.02.05.05.05l.16.16c0,.03.02.05.05.05l.16.16c0,.03.02.05.05.05l.03.03c0,.03.02.05.05.05l.16.16c0,.03.02.05.05.05l.03.03v.05c-.02.03-.06.03-.09.03-.61,0-1.22.03-1.83.05-.68.03-1.36-.02-2.04.03-.36.03-.73.01-1.1.02-.66.01-1.33.03-1.99.04-.51,0-1.01-.02-1.52.02-.32.03-.63,0-.95.02-.45.02-.91,0-1.36,0-.04,0-.09.02-.11-.05.35-.15.69-.3,1.04-.45.36-.15.73-.3,1.09-.45.24-.1.48-.19.72-.29.36-.15.72-.31,1.09-.46"/>
      <path class="cls-10" d="m7.838878,15.990001c.01.06.06.05.11.05.45,0,.91.02,1.36,0,.32-.02.64,0,.95-.02.51-.04,1.01-.01,1.52-.02.66-.01,1.33-.02,1.99-.04.37,0,.73,0,1.1-.02.68-.05,1.36,0,2.04-.03.61-.02,1.22-.05,1.83-.05.03,0,.07,0,.09-.03h.05c.05.08.02.17.03.26v.56h-3.53c-.2,0-.31.11-.31.31v.31c.02.18-.16.32-.3.34s-.3-.12-.34-.28c-.03-.13-.02-.25-.02-.38,0-.18-.13-.31-.31-.31h-1.96c-.2,0-.34.14-.35.35,0,.29.03.58-.03.87-.16.23-.39.360001-.63.25-.1-.049999-.16-.120001-.23-.190001,0-.040001-.01-.07-.05-.08v-.85c0-.16-.07-.27-.23-.33-.13-.05-.24-.03-.36.05-.1.07-.12.18-.14.29-.03.16-.14.25-.26.24-.13-.02-.21-.11-.22-.28,0-.16-.13-.3-.29-.32-.19-.02-.36.13-.37.33,0,.15.02.3-.05.45-.07.14-.27.24-.39.17-.15-.08-.24-.2-.24-.38v-.26c0-.19-.12-.31-.31-.31h-.34c0-.17.01-.34.01-.51,0-.11.08-.13.16-.14h.020001Z"/>
      <path class="cls-11" d="m10.908878,17.930001c.07.08.14.139999.23.190001.24.120001.47-.02.63-.25.19.030001.38-.02.57-.02.28,0,.56,0,.84-.01.22.01.44.040001.66,0,.47,0,.94-.02,1.42-.030001.15.030001.3.030001.45,0,.15,0,.3-.01.45-.02.7-.02,1.39,0,2.09-.030001.1.040001.2.040001.3,0,.11,0,.22-.01.34-.02h.05v.82h-.05c-.16-.02-.32-.02-.48-.02h-9.82c-.29,0-.58-.01-.86.02h-.05v-.610001h.05c.49,0,.98,0,1.47-.030001.37-.01.75-.01,1.12-.02.07.030001.15,0,.22.01.13.01.26-.030001.39.02l-.02.000004Z"/>
      <path class="cls-3" d="m7.658878,18.54h.05v1.719999s-.02,0-.03.01c-.04-.049999-.02-.1-.02-.15v-1.58Z"/>
      <path class="cls-3" d="m18.868878,18.54h.05v1.41c0,.049999.04.139999-.07.129999.02-.059999.03-.129999.03-.190001v-1.35l-.01.000002Z"/>
      <path class="cls-3" d="m7.708878,17.930001h-.05v-1.28h.04v1.28h.01Z"/>
      <path class="cls-3" d="m18.928878,17.72h-.05v-1.07h.03c.04.15.01.3.02.45v.62Z"/>
      <path class="cls-3" d="m17.388878,14.340001s-.07-.03-.08-.08c.04,0,.07.03.08.08Z"/>
      <path class="cls-3" d="m17.888878,14.830001s-.07-.03-.08-.08c.04,0,.07.03.08.08Z"/>
      <path class="cls-3" d="m17.958878,14.920001s-.07-.04-.08-.08c.04,0,.07.03.08.08Z"/>
      <path class="cls-3" d="m17.308878,14.260001s-.05-.02-.05-.05c.03,0,.05.02.05.05Z"/>
      <path class="cls-3" d="m17.438878,14.39s-.05-.02-.05-.05c.03,0,.05.02.05.05Z"/>
      <path class="cls-3" d="m17.808878,14.760001s-.05-.02-.05-.05c.03,0,.05.02.05.05Z"/>
      <path class="cls-3" d="m18.098878,15.040001s-.05-.02-.05-.05c.03,0,.05.02.05.05Z"/>
      <path class="cls-3" d="m18.298878,15.250001s-.05-.02-.05-.05c.03,0,.05.02.05.05Z"/>
      <path class="cls-3" d="m18.508878,15.460001s-.05-.02-.05-.05c.03,0,.05.02.05.05Z"/>
      <path class="cls-3" d="m18.588878,15.540001s-.05-.02-.05-.05c.03,0,.05.02.05.05Z"/>
      <path class="cls-3" d="m18.798878,15.750001s-.05-.02-.05-.05c.03,0,.05.02.05.05Z"/>
      <path class="cls-3" d="m18.878878,15.830001h-.05v-.05c.03,0,.05.02.05.05Z"/>
      <path class="cls-6" d="m18.888878,16.65v1.07c-.11,0-.22.01-.34.02-.1-.02-.2-.03-.3,0-.7.040001-1.39.01-2.09.030001-.15,0-.3.030001-.45.02-.15-.040001-.3-.040001-.45,0-.47,0-.94.02-1.42.030001-.02-.030001-.05-.030001-.08-.030001h-.49c-.03,0-.07,0-.09.030001-.28,0-.56.01-.84.01-.19,0-.38.049999-.57.02.05-.29.02-.58.03-.87,0-.21.14-.35.35-.35h1.96c.18,0,.31.12.31.31,0,.13-.01.25.02.38.04.16.2.3.34.28s.32-.16.3-.34c-.01-.1,0-.21,0-.31,0-.21.11-.31.31-.31h3.5l-.000002.009998Z"/>
      <path class="cls-6" d="m7.708878,17.930001v-1.28h.3c.19,0,.31.12.31.31v.26c0,.18.09.3.24.38.12.06.32-.03.39-.17.07-.15.05-.3.05-.45,0-.19.18-.35.37-.33.16.02.28.16.29.32,0,.16.09.26.22.28.12.01.24-.08.26-.24.02-.11.04-.22.14-.29.11-.08.23-.09.36-.05.15.06.23.17.23.33v.849999h-.27c-.09,0-.19-.030001-.28.030001-.37,0-.75,0-1.12.02-.49.02-.98.030001-1.47.030001l-.02-.000002Z"/>
      <path class="cls-3" d="m10.308878,17.89c.09-.059999.18-.02.28-.030001h.27c.04.01.05.040001.05.08-.13-.049999-.26-.01-.39-.02-.07,0-.15.02-.22-.01l.009999-.019999Z"/>
      <path class="cls-3" d="m13.178878,17.840001s.06-.030001.09-.030001h.49c.03,0,.06,0,.08.030001-.22.049999-.44.02-.66,0Z"/>
      <path class="cls-3" d="m15.258878,17.8c.15-.040001.3-.049999.45,0-.15.040001-.3.040001-.45,0Z"/>
      <path class="cls-3" d="m18.248878,17.750001c.1-.04.2-.03.3,0-.1.049999-.2.040001-.3,0Z"/>
    </g>
    <path class="cls-8" d="m13.888878,12.960001s-.37.31-.05.45.75.32.69.71-.32.37-.62.25-1.06-.49-.83-1.04.81-.37.81-.37Z"/>
    <path class="cls-8" d="m12.688878,14.460001s-.39.02-.37.34.39.49.98.54,1.21-.02,1.16-.25-1.77-.63-1.77-.63Z"/>
    <path class="cls-6" d="m13.158878,13.710001s-.59-.06-.71.29.34.81.88,1.07,1.17.34,1.3.03-.21-.78-.67-.94-.81-.45-.81-.45h.01Z"/>
  </g>
  <rect class="cls-7" width="22" height="22"/>
</svg>