<?xml version="1.0" encoding="UTF-8"?>
<svg id="Capa_1" data-name="Capa 1" xmlns="http://www.w3.org/2000/svg" viewBox="0 0 22 22">
  <defs>
    <style>
      .cls-1 {
        fill: #fff;
      }

      .cls-2 {
        fill: #026838;
      }

      .cls-3 {
        fill: #e84f35;
      }

      .cls-4 {
        fill: #0e4727;
      }

      .cls-5 {
        fill: #e20613;
      }

      .cls-6 {
        stroke: #fff;
        stroke-miterlimit: 10;
        stroke-width: .18px;
      }

      .cls-6, .cls-7 {
        fill: none;
      }

      .cls-8 {
        fill: #81bb4a;
      }
    </style>
  </defs>
  <g>
    <g>
      <path class="cls-2" d="m18.14543,11.715s-.02-.03-.01-.04c.02,0,0,.03.01.04Z"/>
      <path class="cls-2" d="m7.925431,8.755v-.02h.01-.01v.02Z"/>
    </g>
    <g>
      <g>
        <path class="cls-8" d="m10.79543,14.615c-.22.03-.44.05-.65.09-.2.04-.4.03-.59.07-.21.05-.44.03-.65.09-.1.03-.2.01-.31.03-.29.05-.59.07-.88.11-.43.06-.85.12-1.28.18-.12.02-.25,0-.38.02-.21.04-.42.06-.64.09-.35.05-.71.12-1.06.14-.24.02-.47.07-.71.09-.08,0-.15.03-.23.05-.12.03-.18-.02-.19-.14-.02-.41-.12-.82-.15-1.23-.03-.4-.11-.79-.14-1.18-.03-.36-.11-.72-.14-1.07-.02-.16-.03-.32-.05-.48-.01-.16-.07-.32-.08-.48-.02-.29-.1-.58-.09-.87,0-.07.01-.11.1-.12.25-.03.5-.07.76-.1.08-.01.1-.07.11-.13.09-.49.21-.98.38-1.45.03-.07,0-.15.03-.22.13-.34.2-.7.29-1.05.12-.45.23-.9.34-1.34.03-.12.08-.11.16-.09.35.1.69.2,1.04.29.65.17,1.31.32,1.96.5.23.06.47.12.7.18.38.11.76.21,1.14.28.32.06.63.18.95.26.48.13.96.27,1.45.37.2.04.4.1.6.17.22.08.44.1.66.17.23.07.47.08.68.16.44.17.9.22,1.34.38.08.03.17.04.25.05.16.01.17.04.13.19-.1.35-.2.7-.28,1.05-.07.29-.17.57-.22.87-.06.3-.16.58-.23.88-.05.21-.11.42-.16.63-.07.33-.2.65-.27.98-.02.11,0,.21.02.3.03.22.03.45.09.66.02.07.02.13-.09.15-.28.06-.57.08-.86.12-.23.03-.46.06-.69.09-.24.03-.48.06-.72.09-.29.04-.59.08-.88.12-.19.02-.38.05-.57.07h0l.009998-.020001Zm-2.06-2.15c-.08-.02-.17-.05-.25-.05-.1-.08-.23-.08-.35-.11-.51-.13-1.01-.26-1.52-.4-.1-.03-.13,0-.13.1,0,.14,0,.28.04.41.14.69.51,1.2,1.14,1.53.04.02.09.02.11.09-.21.03-.42.06-.62.09-.39.05-.77.09-1.16.14-.43.06-.85.12-1.28.18-.04,0-.1.01-.13-.04-.12-.18-.29-.27-.49-.35-.04-.01-.1-.02-.09-.07.01-.08-.02-.16-.03-.24-.02-.25-.06-.5-.1-.74-.03-.23-.06-.45-.09-.68-.03-.23-.05-.46-.09-.69-.03-.17-.05-.32.14-.4,0,0,0-.01.01-.02-.15-.08-.32-.08-.47-.14-.04-.01-.07-.01-.06.06.05.31.08.63.12.95.04.3.07.6.11.9.04.3.09.59.13.89.05.35.09.69.13,1.04,0,.07.04.07.09.06.15-.03.3-.05.46-.07.31-.04.63-.05.94-.11.49-.09.98-.13,1.46-.2.38-.06.77-.08,1.16-.14s.78-.1,1.17-.15c.23-.03.47-.04.71-.09.4-.08.81-.11,1.22-.17.33-.05.67-.06,1-.12.32-.05.64-.08.96-.13.16-.02.32-.05.48-.07-.14-.06-.28-.1-.43-.14-.33-.09-.66-.17-1.02-.08-.27.06-.56.07-.83.11-.2.02-.39.05-.59.08-.24.03-.48.08-.75.09.26-.2.46-.44.61-.7.06-.11.05-.16-.08-.17-.06,0-.12-.04-.18-.06-.18-.04-.36-.11-.54-.12-.18-.07-.36-.12-.55-.13-.1-.08-.23-.08-.35-.1l-.009999-.040002Zm5.05.73c.05,0,.05-.07.07-.13.13-.53.26-1.05.4-1.58.11-.42.23-.84.34-1.25.12-.43.2-.86.34-1.29.03-.08,0-.11-.07-.12-.32-.08-.64-.16-.96-.24-.4-.11-.8-.22-1.2-.32-.41-.11-.83-.21-1.24-.32-.8-.21-1.6-.42-2.4-.64-.47-.12-.94-.25-1.42-.36-.33-.08-.65-.18-.98-.25-.19-.04-.38-.08-.56-.14-.3-.1-.6-.15-.9-.25-.11-.03-.15.02-.16.11,0,.03-.01.05-.02.08-.17.64-.34,1.28-.51,1.92-.19.72-.37,1.43-.56,2.15-.02.07.01.08.05.09.42.11.84.2,1.25.32.32.09.64.16.96.25.6.16,1.2.34,1.8.48.66.16,1.31.34,1.96.51.47.12.93.25,1.39.36.65.17,1.3.33,1.95.51.14.04.29.07.45.11h.02Zm-8.43-1.119999c-.27,0-.42.15-.42.41,0,.25.18.43.42.43s.43-.17.43-.38c0-.32-.12-.46-.42-.46h-.01Z"/>
        <path class="cls-4" d="m13.775431,13.195c-.17-.04-.31-.07-.45-.11-.65-.18-1.3-.35-1.95-.51-.47-.12-.93-.25-1.39-.36-.65-.16-1.3-.35-1.96-.51-.61-.15-1.2-.32-1.8-.48-.32-.09-.64-.16-.96-.25-.41-.12-.84-.21-1.25-.32-.04,0-.07-.02-.05-.09.19-.72.37-1.43.56-2.15.17-.64.34-1.28.51-1.92,0-.02.01-.05.02-.08.01-.09.06-.15.16-.11.3.09.6.15.9.25.18.06.37.1.56.14.33.07.65.17.98.25.48.11.95.24,1.42.36.8.21,1.6.43,2.4.64.41.11.83.21,1.24.32.4.1.8.22,1.2.32.32.08.64.16.96.24.07.02.1.04.07.12-.14.42-.22.86-.34,1.29-.11.42-.23.83-.34,1.25-.14.52-.26,1.05-.4,1.58-.01.05-.01.12-.07.13h-.02Zm-5.77-1.920001c-.57-.61-.8-1.29-.58-2.07.21-.76.71-1.26,1.49-1.49-.25-.07-.48-.14-.7-.2-.46-.12-.92-.22-1.38-.35-.31-.09-.63-.16-.95-.25-.04-.01-.1-.04-.15.02-.14.14-.31.23-.51.27-.07.01-.1.05-.12.12-.13.52-.26,1.03-.41,1.54-.08.3-.15.61-.23.92-.02.07,0,.09.04.12.16.12.26.27.32.46.01.05.04.1.09.11.27.07.55.14.82.21.37.09.73.18,1.1.28.38.1.75.2,1.16.31h.01Zm1.96.499999s.05.03.07.04c.59.15,1.18.3,1.77.45.37.1.74.17,1.09.3.08.03.19.05.27-.04.14-.14.31-.21.5-.24.06,0,.06-.03.08-.08.1-.3.16-.61.24-.91.14-.51.26-1.02.4-1.52.03-.1.03-.17-.07-.24-.09-.06-.17-.15-.19-.24-.06-.26-.25-.32-.47-.36h-.03c-.5-.13-1-.26-1.5-.39-.4-.1-.81-.21-1.23-.31.56.6.76,1.28.56,2.05-.21.77-.73,1.26-1.5,1.49h.01Zm-.38-.820001c.08.02.17,0,.25-.03.41-.11.7-.67.35-1.07-.12-.14-.28-.22-.43-.33-.06-.04-.1-.07-.07-.17.03-.08.07-.17.06-.26,0-.04.02-.09.04-.1.04-.01.08.02.11.05s.06.07.05.11c-.03.17.07.21.21.24.07.01.15.03.22.06.12.05.15-.02.15-.11.03-.36-.21-.61-.51-.72-.1-.04-.13-.05-.09-.16.04-.13-.09-.1-.15-.12-.04-.02-.11-.03-.11.07,0,.06-.03.13-.11.11-.17-.04-.34-.04-.51,0-.42.12-.6.66-.33.98.13.15.28.26.45.35.05.03.09.04.06.12-.04.1-.05.2-.08.31-.01.05,0,.12-.06.13-.05,0-.1-.04-.13-.09s-.07-.12-.05-.18c.04-.11-.02-.13-.11-.15-.11-.03-.23-.06-.34-.09-.06-.01-.12,0-.12.07,0,.11-.02.22.01.32.08.27.28.42.53.52.08.03.17.07.09.18v.05c-.02.05-.05.11.04.11.07,0,.16.1.19-.05.03-.13.08-.2.22-.14.04.02.09,0,.16,0l.010001-.01Z"/>
        <path class="cls-4" d="m9.62543,12.705c.19.01.36.08.54.12.06.01.12.05.18.06.13.01.14.06.08.17-.15.27-.34.5-.61.7.27,0,.51-.06.75-.09.2-.02.39-.05.59-.08.28-.04.56-.05.83-.11.36-.08.68,0,1.02.08.14.04.28.08.43.14-.16.02-.32.05-.48.07-.32.04-.64.08-.96.13-.33.05-.67.06-1,.12-.41.07-.81.1-1.22.17-.23.04-.47.05-.71.09-.39.05-.78.09-1.17.15-.38.06-.77.08-1.16.14-.49.07-.98.11-1.46.2-.31.05-.62.07-.94.11-.15.02-.31.04-.46.07-.06.01-.09,0-.09-.06-.04-.35-.09-.69-.13-1.04-.04-.3-.09-.59-.13-.89-.04-.3-.07-.6-.11-.9-.04-.32-.07-.63-.12-.95-.01-.07.02-.07.06-.06.15.06.32.06.47.14,0,0,0,.02-.01.02-.19.08-.17.23-.14.4.04.23.06.46.09.69.03.23.06.45.09.68.03.25.07.49.1.74,0,.08.04.16.03.24,0,.06.05.06.09.07.19.07.37.17.49.35.03.05.09.04.13.04.43-.06.85-.12,1.28-.18.39-.05.77-.09,1.16-.14.21-.03.41-.06.62-.09-.02-.06-.07-.07-.11-.09-.63-.32-1-.84-1.14-1.53-.03-.13-.04-.27-.04-.41,0-.1.03-.13.13-.1.51.13,1.01.26,1.52.4.12.03.25.03.35.11.04.08.01.17.02.26,0,.05.06.1,0,.13-.07.03-.13-.01-.17-.06s-.09-.1-.09-.16c0-.05-.04-.06-.08-.06-.14-.01-.28.01-.42.03-.07.01-.11.04-.08.14.08.32.4.59.79.56.14-.01.19.05.18.16,0,.11.05.11.13.1.11-.01.15-.06.11-.22-.03-.09,0-.09.07-.1.3-.06.56-.19.7-.49v.030003Z"/>
        <path class="cls-1" d="m9.62543,12.705c-.13.31-.39.43-.7.49-.07.01-.1.01-.07.1.04.15,0,.2-.11.22-.08,0-.13,0-.13-.1,0-.12-.05-.17-.18-.16-.39.03-.71-.24-.79-.56-.03-.1.01-.13.08-.14.14-.02.28-.04.42-.03.04,0,.08.01.08.06,0,.07.05.12.09.16.04.05.11.09.17.06.07-.03,0-.09,0-.13-.01-.08.01-.17-.02-.26.09,0,.17.03.25.05,0,.09.04.16.03.25,0,.04.02.08.07.05.1-.05.21-.08.24-.2.19.01.37.06.55.13l.02.009999Z"/>
        <path class="cls-4" d="m5.34543,12.075c.3,0,.42.14.42.46,0,.22-.19.38-.43.38s-.41-.18-.42-.43c0-.26.15-.41.42-.41h.01Z"/>
        <path class="cls-4" d="m9.075431,12.565c-.03.13-.14.16-.24.2-.05.02-.08-.01-.07-.05.01-.09-.04-.17-.03-.25.12.02.24.03.35.1h-.01Z"/>
        <path class="cls-8" d="m8.005431,11.275c-.41-.11-.79-.21-1.16-.31-.36-.1-.73-.19-1.1-.28-.27-.07-.55-.14-.82-.21-.06-.02-.08-.06-.09-.11-.05-.19-.16-.35-.32-.46-.05-.03-.06-.06-.04-.12.08-.3.14-.61.23-.92.14-.51.28-1.03.41-1.54.02-.07.05-.1.12-.12.19-.04.37-.12.51-.27.06-.06.11-.03.15-.02.31.09.63.16.95.25.45.13.92.23,1.38.35.23.06.46.13.7.2-.78.23-1.28.73-1.49,1.49-.21.78,0,1.46.58,2.07h-.010001Zm-1.29-2.349999c.05-.23-.2-.44-.41-.44-.24,0-.45.2-.45.44,0,.2.22.42.42.42.27,0,.45-.16.45-.43l-.01.01Z"/>
        <path class="cls-8" d="m9.95543,11.764999c.76-.24,1.29-.72,1.5-1.49.21-.77,0-1.46-.56-2.05.42.11.83.21,1.23.31.5.13,1,.26,1.5.39h.03c.22.04.41.1.47.36.02.1.1.19.19.24.1.07.1.14.07.24-.14.51-.26,1.02-.4,1.52-.08.3-.15.61-.24.91-.02.05-.02.07-.08.08-.19.03-.37.1-.5.24-.08.08-.19.07-.27.04-.36-.14-.73-.21-1.09-.3-.59-.16-1.18-.3-1.77-.45-.02,0-.04-.02-.07-.04h-.009999Zm3.04-1.199999c0-.26-.16-.43-.42-.44-.25,0-.44.22-.43.4.01.26.19.47.43.46.19,0,.46-.16.42-.43v.01Z"/>
        <path class="cls-1" d="m9.58543,10.945c-.06,0-.12.02-.16,0-.15-.07-.2,0-.22.14-.03.15-.13.05-.19.05-.09,0-.06-.06-.04-.11v-.05c.08-.12,0-.15-.09-.18-.25-.1-.45-.25-.53-.52-.03-.11-.02-.22-.01-.32,0-.07.06-.08.12-.07.12.03.23.06.34.09.08.02.15.04.11.15-.02.06.01.13.05.18.03.05.08.1.13.09.05,0,.05-.08.06-.13.03-.1.04-.21.08-.31.03-.08,0-.09-.06-.12-.17-.09-.32-.2-.45-.35-.27-.32-.1-.86.33-.98.17-.05.34-.05.51,0,.08.02.11-.04.11-.11,0-.1.07-.09.11-.07.06.03.19,0,.15.12-.04.11,0,.13.09.16.3.11.54.36.51.72,0,.09-.03.17-.15.11-.07-.03-.14-.05-.22-.06-.13-.02-.24-.06-.21-.24,0-.04-.02-.08-.05-.11s-.07-.06-.11-.05c-.03,0-.05.06-.04.1,0,.09-.04.18-.06.26-.03.1.01.13.07.17.15.11.31.19.43.33.34.39.06.95-.35,1.07-.09.02-.18.05-.25.03l-.01.01Zm-.12-.47c.15,0,.24-.06.26-.17.02-.1-.09-.24-.2-.27-.05-.01-.09,0-.09.05,0,.09-.04.18-.06.26-.04.11-.01.14.09.13Zm.08-1.52s0-.05-.02-.05c-.07,0-.15-.03-.21.01-.06.05-.13.11-.1.21s.12.15.21.19c.01,0,.04,0,.04-.02.03-.11.06-.23.08-.34Z"/>
        <path class="cls-4" d="m6.70543,8.915c0,.26-.18.43-.45.43-.2,0-.42-.22-.42-.42,0-.24.21-.44.45-.44.21,0,.46.21.41.44l.01-.01Z"/>
        <path class="cls-4" d="m13.00543,10.565c.04.27-.22.42-.42.43-.23,0-.42-.21-.43-.46,0-.19.18-.41.43-.4.26,0,.42.17.42.44v-.01Z"/>
        <path class="cls-4" d="m9.465431,10.475c-.1.01-.12-.02-.09-.13.03-.08.07-.17.06-.26,0-.04.04-.07.09-.05.11.03.21.18.2.27-.02.11-.11.17-.26.17Z"/>
        <path class="cls-4" d="m9.545431,8.955c-.03.11-.06.23-.08.34,0,.02-.03.03-.04.02-.09-.04-.18-.1-.21-.19s.03-.16.1-.21c.06-.05.14-.02.21-.01.03,0,.02.03.02.05Z"/>
      </g>
      <g>
        <path class="cls-7" d="m11.905431,4.385c-3.26,0-5.92,2.66-5.92,5.92,0,1.34.45,2.58,1.21,3.58L15.485431,5.595c-.99-.76-2.23-1.21-3.58-1.21Z"/>
        <path class="cls-7" d="m16.615431,6.725l-8.29,8.289999c.99.76,2.23,1.21,3.58,1.21,3.26,0,5.92-2.66,5.92-5.92,0-1.34-.45-2.58-1.21-3.579999Z"/>
        <g>
          <path class="cls-7" d="m16.615431,6.725l.61-.61-1.13-1.13-.61.61c.43.32.81.71,1.13,1.13Z"/>
          <path class="cls-7" d="m11.905431,4.385c-3.26,0-5.92,2.66-5.92,5.92,0,1.34.45,2.58,1.21,3.58L15.485431,5.595c-.99-.76-2.23-1.21-3.58-1.21Z"/>
          <path class="cls-7" d="m7.195431,13.885l-.61.61,1.13,1.13.61-.61c-.43-.32-.81-.71-1.13-1.13Z"/>
          <path class="cls-7" d="m16.615431,6.725l-8.29,8.289999c.99.76,2.23,1.21,3.58,1.21,3.26,0,5.92-2.66,5.92-5.92,0-1.34-.45-2.58-1.21-3.579999Z"/>
          <path class="cls-5" d="m15.485431,5.595L7.195431,13.885c.32.43.71.81,1.13,1.13l8.29-8.29c-.32-.43-.71-.81-1.13-1.13Z"/>
        </g>
        <path class="cls-5" d="m11.905431,2.785c-4.15,0-7.52,3.37-7.52,7.52s3.37,7.52,7.52,7.52,7.52-3.37,7.52-7.52-3.370001-7.52-7.52-7.52Zm0,13.44c-1.34,0-2.58-.45-3.58-1.21-.43-.32-.81-.71-1.13-1.13-.76-.99-1.21-2.23-1.21-3.58,0-3.26,2.66-5.92,5.92-5.92,1.34,0,2.58.45,3.58,1.21.43.32.81.71,1.13,1.13.76.99,1.21,2.23,1.21,3.58,0,3.26-2.66,5.92-5.92,5.92Z"/>
      </g>
      <g>
        <circle class="cls-5" cx="15.905431" cy="16.365" r="2.85"/>
        <circle class="cls-3" cx="15.905431" cy="16.365" r="2.58"/>
        <path class="cls-5" d="m15.905431,18.945c1.42,0,2.58-1.15,2.58-2.58,0-.42-.1-.81-.28-1.16-1.01-.14-2.41-.09-3.41.89-.54.52-.93.99-1.21,1.39.42.86,1.3,1.459999,2.32,1.459999Z"/>
        <circle class="cls-6" cx="15.905431" cy="16.365" r="2.58"/>
        <rect class="cls-1" x="14.18543" y="15.875" width="3.27" height=".94" rx=".14" ry=".14"/>
      </g>
    </g>
  </g>
  <rect class="cls-7" width="22" height="22"/>
</svg>