<?xml version="1.0" encoding="UTF-8"?>
<svg id="Capa_1" data-name="Capa 1" xmlns="http://www.w3.org/2000/svg" viewBox="0 0 22 22">
  <defs>
    <style>
      .cls-1 {
        fill: #fff;
      }

      .cls-2 {
        fill: #d6def1;
      }

      .cls-3 {
        fill: #026838;
      }

      .cls-4 {
        fill: #009648;
      }

      .cls-5 {
        fill: #f5f3f5;
      }

      .cls-6 {
        fill: #8d99b5;
      }

      .cls-7 {
        fill: #e3e4e3;
      }

      .cls-8 {
        fill: #f4b68c;
      }

      .cls-9 {
        fill: none;
      }

      .cls-10 {
        fill: #a9b7dd;
      }

      .cls-11 {
        fill: #f6a30a;
      }

      .cls-12 {
        fill: #ec6f5a;
      }

      .cls-13 {
        fill: #dc7668;
      }
    </style>
  </defs>
  <g>
    <g>
      <path class="cls-3" d="m17.066767,12.285s-.02-.03-.01-.04c.02,0,0,.03.01.04Z"/>
      <path class="cls-3" d="m6.846768,9.325v-.02h.01-.01v.02Z"/>
    </g>
    <g>
      <path class="cls-4" d="m11.956768,3.295h3c.57,0,.94.37.94.94v8.640001c0,.47.03.95.04,1.42-.06.12-.04.25-.04.37,0,1.54-.01,3.070001,0,4.61,0,.5-.13.889999-.58,1.129999H3.956768c-.47-.26-.62-.68-.58-1.200001.02-.33,0-.66,0-.99V4.284999c0-.25.06-.46.21-.64.17-.21.38-.35.67-.35h3.02v.69h-2.55c-.14,0-.24.02-.24.2,0,.76-.01,1.52-.06,2.28-.03.51,0,1.02,0,1.54-.08.08-.08.15,0,.23l-.05,1.75c-.07.06-.07.11,0,.17-.02.45-.03.89-.05,1.34-.1.19-.09.39-.01.58-.03.52-.1,1.04-.1,1.55,0,.98-.1,1.94-.14,2.91-.02.47-.02.94-.08,1.400001-.08.59-.1.59.48.59.01.08-.02.17.06.23.06.24.26.16.41.16h9.67c.17,0,.24-.049999.24-.23-.01-1.09-.01-2.17-.01-3.26,0-.6,0-1.2.01-1.8,0-.08,0-.16-.1-.19.03-.35.08-.69.09-1.04.03-1.67.06-3.35.05-5.02,0-.75-.03-1.51-.04-2.26,0,0,.02-.01.02-.02,0-.02-.01-.03-.02-.04v-.29c.07-.08.08-.16,0-.23,0-.09-.01-.19-.02-.28.06-.22-.02-.31-.26-.31-.87.01-1.74,0-2.62,0,.05-.23-.06-.46,0-.69v.04Z"/>
      <path class="cls-5" d="m15.316767,20.405c.46-.24.59-.620001.58-1.129999-.02-1.540001,0-3.07,0-4.610001,0-.12-.02-.25.04-.37.07,0,.13-.01.18.06.32.45.62.9.9,1.37.4.67.75,1.37.98,2.12.02.059999.05.120001.08.18.073334.146666.2.183332.38.110001-.42.530001.06.959999.08,1.43.01.280001.11.549999.09.83h-3.31v.009998Z"/>
      <path class="cls-13" d="m7.446768,3.045c-.07.39-.04.79-.05,1.18,0,.17.05.24.23.24h4.039999c.16,0,.22-.05.22-.22v-1.07c.06.02.06.07.08.12-.07.23.05.46,0,.69-.05.18.05.38-.07.55-1.5-.03-3-.03-4.5,0-.15-.16.03-.39-.12-.55v-.69c.09-.06.05-.22.17-.26v.01Z"/>
      <path class="cls-1" d="m14.846767,5.165c0,.75.03,1.51.04,2.26.01,1.67-.02,3.35-.05,5.02,0,.35-.06.69-.09,1.04-.23.08-.06.25-.07.37-.07.58-.11,1.17-.18,1.75-.08.68-.27,1.34-.47,2-.05.17-.11.360001-.35.370001-.46.02-.92.120001-1.37.200001-1.23.219999-2.47.27-3.71.370001-.83.059999-1.66.129999-2.49.07-.54-.040001-1.08-.059999-1.62-.049999-.58,0-.56,0-.48-.59.06-.46.06-.94.08-1.4.03-.97.14-1.940001.14-2.91,0-.51.07-1.03.1-1.55-.05-.2.12-.39.01-.58.02-.45.03-.89.05-1.34.07-.06.07-.11,0-.17.02-.58.04-1.16.05-1.75v-.23c0-.51-.02-1.03,0-1.54.05-.76.06-1.52.06-2.28,0-.18.09-.2.24-.2h2.21c0,.18.02.37,0,.55-.03.26.06.33.32.33,1.52-.01,3.04,0,4.56,0,.5,0,.51,0,.54-.5,0-.12.02-.2.18-.19.77.04,1.54.08,2.309999.12,0,.09.01.19.02.28v.58l-.029999-.030003Zm-5.01,2.67s.08-.02.12-.03c.92.02,1.85.04,2.77.06.2.05.4.09.59-.02-.01-.13.08-.28-.18-.3-.71-.04-1.42-.07-2.14-.07-.16-.07-.32-.04-.48-.02-.63-.01-1.26-.02-1.88-.03-.15,0-.2.05-.2.2s.08.17.2.17c.3,0,.6.01.9.02.09.07.2.04.3.03v-.009999Zm-3.079999,8.51c.06-.14.07-.27,0-.41.05-.14.21-.19.29-.31.04-.06.08-.12.02-.18-.06-.07-.13-.04-.2,0-.11.07-.15.23-.3.26h-.75c-.23-.05-.32.05-.29.28.01.09,0,.17,0,.26,0,.499999.25.736667.75.71.16,0,.32.08.46-.04,0-.19.01-.39.02-.58v.01Zm.12-5.71c.08-.32.02-.65.04-.97.09-.11.18-.22.26-.33.04-.06.06-.13,0-.18-.06-.05-.12-.03-.18.02-.09.09-.17.18-.26.26-.09,0-.17-.02-.26-.02-.593333-.013333-.873333.279999-.84.88-.02.5-.02.39.37.4.1,0,.21-.01.31-.02.18,0,.37.08.55-.05l.01.010001Zm.06-2.67v-.12c.04-.04.04-.08,0-.12v-.12s.03-.09.05-.13c.09-.15.38-.31.24-.43-.2-.16-.31.16-.45.27-.18,0-.38-.07-.55.05-.18-.03-.29.04-.3.24-.01.1-.02.19.04.28h-.21c0-.03,0-.06-.01-.09,0-.01-.02-.02-.06-.05v.61c0,.06,0,.12.08.17.17.08.48.06.69-.07,0-.1-.15-.15-.12-.27.1-.1.2-.2.3-.3.08,0,.15.01.21.06v.47c-.01.02-.03.04-.04.06.07.09.11.06.12-.04.01-.14.01-.29.01-.43,0,0,.02-.01.02-.02,0-.01,0-.03-.01-.04l-.01.02Zm2.25,1.51c-.08,0-.16-.02-.23.04-.21.06-.59-.17-.56.32,0,.03,0,.05.04.05l1.1.02s.04.02.06.03c.7,0,1.41,0,2.11.01.15,0,.31.05.45.03.12-.01.26-.04.23-.25-.03-.19-.15-.15-.25-.15-.64,0-1.27,0-1.91-.01-.03-.14-.14-.1-.23-.1h-.81v.01Zm-3.609999,4.179999c-.14.33-.02.66-.05.99.02.05.04.1.06.14,0,0-.01.02-.02.02v.03c.4.05.79.09,1.19,0,.06-.28.09-.55-.03-.82.06-.19.23-.3.34-.46.04-.06.15-.11.04-.18-.07-.04-.17-.11-.24.03-.06.13-.18.2-.3.26-.39-.1-.63.12-.84.41-.02-.02-.03-.04-.05-.05,0-.1.04-.18.1-.26.04-.05.12-.14.02-.19-.08-.04-.19-.06-.23.08h.01Zm.02-1.51v.25c.04.13-.16.38.15.39.3.01.6,0,.9,0,.09,0,.17-.02.15-.13-.05-.27.1-.53.04-.81.04-.16.2-.23.27-.37.03-.06.16-.1.07-.18-.07-.06-.18-.07-.26.02-.07.07-.11.19-.23.19h-.87c-.12,0-.2.02-.2.17s-.01.31-.02.46v.01Zm3.88,3.68c-.34,0-.68-.02-1.01-.03-.3,0-.33.05-.21.37.4.11.82.03,1.22.05.17,0,.34.01.51,0,.12-.01.2-.08.19-.23-.02-.16-.13-.11-.21-.11h-.37c-.02-.08-.04-.14-.12-.04v-.010001Zm2.51-1.23c-1.16-.02-2.32-.04-3.48-.06-.13,0-.26-.02-.25.18,0,.18.1.23.26.23,1.12,0,2.24-.03,3.36.06.24.02.32-.07.29-.29,0-.12-.09-.12-.17-.12h-.009999Zm1.16-.47c.06-.26-.06-.33-.31-.31-.28.02-.57-.05-.86.01-.12-.18-.26-.13-.41-.04-.54,0-1.08,0-1.63-.01-.01-.05-.04-.1-.09-.1-.36.01-.72-.06-1.08.04h-.32c-.14,0-.22.02-.21.18,0,.15.04.24.21.24h.37c.02-.01.05-.02.07-.03,1.14.03,2.28.06,3.42.09.27,0,.55.1.82-.05l.02-.02Zm-3.9-2.099999c.95-.03,1.9.11,2.85.05.02,0,.04-.01.07-.02h.11c.3.01.59.08.89-.03.08-.12.08-.23-.07-.3-.07-.09-.16-.06-.24-.04-.56-.01-1.12-.03-1.68-.03-.47,0-.95.04-1.42,0-.4-.04-.81-.04-1.21-.06-.12,0-.18.03-.18.16,0,.12,0,.21.16.21.11,0,.21,0,.32.01.13.08.27.03.41.04l-.01.01Zm.81-6.59c-.88-.02-1.76-.04-2.64-.05-.58,0-.57,0-.57.58,0,.2.07.24.25.24.89.01,1.78.03,2.67.05.23,0,.47,0,.7.01.58.01,1.16.03,1.74.04.04,0,.05-.01.06-.05,0-.18,0-.36.01-.55.02-.18-.06-.22-.23-.23-.41-.03-.82.03-1.23.01-.24-.21-.5-.1-.76-.07v.02Zm-.400001,4.9h-1.07c-.11,0-.21,0-.21.16s.08.19.22.19c.4,0,.79.02,1.18.04,1.08.05,2.16.05,3.25.07.16,0,.25-.02.25-.22,0-.19-.11-.19-.25-.19-1.12.03-2.24-.04-3.36-.06l-.01.010001Zm-.28,6.29h-.96c-.17,0-.19.12-.21.23-.02.16.11.13.2.13.81,0,1.62.09,2.43.06.26,0,.52.02.78.04.39.03.79.05,1.19-.02.15-.03.33-.07.3-.24-.02-.15-.21-.13-.34-.13-1.13,0-2.26,0-3.39-.06v-.009999Zm1.050001-7.97h1.12c.12,0,.21-.02.21-.17,0-.14-.06-.18-.19-.19-.37-.01-.73-.04-1.1-.05-.6-.02-1.2.03-1.8-.03-.13-.01-.23-.04-.24.14,0,.16.03.26.22.25.64-.03,1.27.11,1.78.06v-.009999Zm-1.010001,3.78h-.9c-.13,0-.2.04-.2.18,0,.12.05.16.17.18.61.06,1.22.05,1.82.06.14,0,.22-.02.22-.19,0-.16-.05-.23-.22-.22h-.9l.01-.010001Z"/>
      <path class="cls-7" d="m4.476768,18.545001c.54,0,1.08.02,1.62.049999.83.059999,1.67,0,2.49-.07,1.24-.1,2.48-.139999,3.71-.370001.45-.08.91-.18,1.37-.200001.24,0,.3-.200001.35-.37.2-.66.39-1.31.47-2,.07-.58.12-1.17.18-1.75.01-.12-.16-.29.07-.37.1.03.1.11.1.19,0,.6,0,1.2-.01,1.8-.09.01-.1.07-.1.15,0,.36,0,.71-.05,1.07-.08.5-.13,1.01-.23,1.51-.04.17-.13.24-.3.24-.45,0-.9.08-1.35.110001-1.04.07-2.08.17-3.12.17-1.47,0-2.94.1-4.41.07h-.73c-.08-.059999-.04-.15-.060001-.229998Z"/>
      <path class="cls-5" d="m4.536768,18.785001h.73c1.47.030001,2.94-.07,4.41-.07,1.04,0,2.079999-.1,3.12-.17.45-.030001.9-.110001,1.35-.110001.17,0,.27-.07.3-.24.11-.5.16-1,.23-1.51.05-.36.05-.71.05-1.07,0-.07.01-.14.1-.15,0,1.09,0,2.17.01,3.26,0,.18-.06.23-.24.23H4.92677c-.15,0-.35.07-.41-.16l.019998-.01Z"/>
      <path class="cls-7" d="m14.826768,4.295c-.77-.04-1.54-.07-2.31-.12-.16,0-.17.06-.18.19q-.03.5-.54.5h-4.56c-.26,0-.35-.07-.32-.33.02-.18,0-.37,0-.55h.34c.14.16-.04.39.12.55.07.05.15.04.22.04h4.08c.07,0,.13-.02.2-.04.12-.17.02-.37.07-.55.87,0,1.74.01,2.62,0,.24,0,.32.08.260001.31Z"/>
      <path class="cls-2" d="m4.316768,11.505c.11.2-.06.39-.01.58-.08-.2-.09-.39.01-.58Z"/>
      <path class="cls-2" d="m4.366768,9.995c.07.06.07.12,0,.17-.07-.06-.07-.12,0-.17Z"/>
      <path class="cls-2" d="m4.416768,8.015v.23c-.07-.08-.07-.16,0-.23Z"/>
      <path class="cls-2" d="m14.846767,4.815v-.23c.08.08.07.15,0,.23Z"/>
      <path class="cls-2" d="m14.846767,5.165v-.06c0,.01.02.03.02.04l-.02.02Z"/>
      <path class="cls-8" d="m11.886768,4.535c-.07.01-.13.04-.2.04h-4.08c-.08,0-.16.01-.22-.04,1.5-.02,3-.03,4.5,0Z"/>
      <path class="cls-11" d="m10.826768,5.505c.41.02.82-.05,1.23-.01.17.01.24.05.23.23-.02.18,0,.36-.01.55-.02.02-.04.03-.06.05-.58-.01-1.16-.03-1.74-.04-.23-.09-.47-.07-.7-.01-.89-.02-1.78-.04-2.67-.05-.18,0-.25-.04-.25-.24q0-.58.57-.58c.88.01,1.76.03,2.64.05.25.02.51.04.76.07v-.02Z"/>
      <path class="cls-2" d="m9.666768,10.335c1.12.02,2.24.09,3.36.06.14,0,.24,0,.25.19,0,.2-.09.22-.25.22-1.08-.02-2.17-.02-3.25-.07-.39-.02-.79-.04-1.18-.04-.14,0-.22-.03-.22-.19s.1-.16.21-.16h1.07l.01-.010001Z"/>
      <path class="cls-2" d="m9.386768,16.625c1.13.07,2.26.06,3.39.06.13,0,.32-.01.34.13.02.17-.15.21-.3.24-.39.07-.79.05-1.19.02-.26-.02-.52-.05-.78-.04-.81.03-1.62-.07-2.43-.06-.09,0-.22.03-.2-.13.02-.11.04-.23.21-.23h.96v.009999Z"/>
      <path class="cls-11" d="m13.096767,11.735001c.15.07.15.18.07.3-.3.01-.59-.05-.89.03h-.11c-.03-.02-.05-.01-.07.02-.95.05-1.9-.08-2.85-.05-.13-.1-.27-.04-.41-.04-.11,0-.21-.01-.32-.01-.16,0-.16-.09-.16-.21,0-.13.06-.17.18-.16.4.02.81.01,1.21.06.47.05.95,0,1.42,0,.56,0,1.12.02,1.68.03.06.13.15.12.24.04l.01-.01Z"/>
      <path class="cls-11" d="m12.736768,7.855c-.92-.02-1.85-.04-2.77-.06h-.13c-.1,0-.19,0-.29.01-.3,0-.6-.02-.9-.02-.12,0-.2-.02-.2-.17s.05-.2.2-.2c.63.02,1.26.02,1.88.03.16.08.32.05.48.02.71,0,1.42.03,2.14.07.26.01.16.17.18.3-.2,0-.39.01-.59.019999Z"/>
      <path class="cls-11" d="m8.846768,14.115001h-.37c-.17,0-.2-.09-.21-.24,0-.17.08-.19.21-.18h.32c.39.02.77.12,1.17.06.54,0,1.08,0,1.63.01.13.11.27.04.41.04.29-.06.57,0,.86-.01.25-.02.36.05.31.31-.27.04-.55-.05-.82.05-1.14-.03-2.28-.06-3.42-.09-.02.01-.05.02-.07.03l-.02.02Z"/>
      <path class="cls-2" d="m12.166768,14.705c.03.22-.05.31-.29.29-1.12-.09-2.24-.06-3.36-.06-.16,0-.25-.04-.26-.23,0-.2.12-.18.25-.18,1.16.02,2.32.04,3.48.06,0,.12.09.12.17.12h.009999Z"/>
      <path class="cls-4" d="m8.396768,9.825c-.03-.48.35-.26.56-.32h.24c.35,0,.69.12,1.05.06.64,0,1.27,0,1.91.01.1,0,.23-.04.25.15.03.21-.12.24-.23.25-.15.02-.3-.03-.45-.03-.7,0-1.41,0-2.11-.01-.02-.01-.04-.02-.06-.03-.37,0-.74-.02-1.1-.02-.01-.02-.03-.03-.04-.05l-.020001-.009999Z"/>
      <path class="cls-2" d="m10.436768,8.655c-.51.05-1.14-.08-1.78-.06-.19,0-.23-.08-.22-.25,0-.18.11-.15.24-.14.6.07,1.2.01,1.8.03.37.01.73.04,1.1.05.13,0,.19.05.19.19,0,.15-.09.17-.21.17h-1.12v.009999Z"/>
      <path class="cls-2" d="m9.416768,12.435h.9c.17,0,.22.06.22.22s-.08.19-.22.19c-.61,0-1.22,0-1.82-.06-.12-.01-.17-.05-.17-.18,0-.14.07-.18.2-.18h.9l-.01.010001Z"/>
      <path class="cls-4" d="m8.266768,16.165c-.12-.32-.09-.37.21-.37.34,0,.68.02,1.01.03.03.05.07.05.12.04h.37c.08,0,.2-.04.21.11.02.15-.07.22-.19.23-.17.02-.34,0-.51,0-.4-.11-.82-.04-1.22-.05v.010001Z"/>
      <path class="cls-13" d="m6.646768,7.895c-.1.1-.2.2-.3.3-.3.12-.27-.17-.37-.31-.06-.09-.05-.18-.04-.28.1-.02.2,0,.21.1.05.3.17.14.26.04.1-.1.22-.19.27-.33.04-.04.07-.07.11-.11.15-.11.25-.44.45-.28.14.12-.15.28-.24.43-.03.04-.05.09-.07.13-.04,0-.09,0-.11.06-.06.08-.12.16-.18.23l.01.02Z"/>
      <path class="cls-13" d="m6.686768,11.505c.13,0,.16-.12.23-.19.08-.08.19-.08.26-.02.09.08-.04.12-.07.18-.07.14-.23.21-.27.37-.03.02-.06.05-.09.07-.16.1-.24.27-.37.4-.12.12-.25.19-.38.07-.11-.11-.17-.28-.13-.44.02-.1.13-.04.15,0,.15.38.26.09.38-.02.09-.09.15-.2.23-.29.02-.04.03-.08.05-.12l.01-.009999Z"/>
      <path class="cls-13" d="m6.586768,13.665c.12-.06.24-.13.3-.26.07-.15.17-.08.24-.03.11.07,0,.12-.04.18-.11.15-.27.27-.34.46-.01,0-.03,0-.04.01-.19.09-.26.29-.41.42-.16.14-.29.19-.42-.03-.02-.11-.04-.22-.07-.32h0c.03-.11.14-.12.17-.05.16.38.27.08.37-.03.1-.1.2-.21.23-.35h.01Z"/>
      <path class="cls-13" d="m6.746768,9.425c.09-.09.17-.18.26-.26.05-.05.11-.07.18-.02.07.05.05.12,0,.18-.08.11-.18.22-.26.33-.02.02-.03.04-.05.06-.06,0-.1.04-.12.09-.12.14-.25.27-.36.42-.1.14-.23.15-.35.06-.14-.11-.14-.27-.1-.42.02-.08.13-.08.15,0,.06.3.18.1.26.03.11-.1.19-.22.29-.32.03-.05.07-.09.1-.14v-.01Z"/>
      <path class="cls-13" d="m6.576768,15.705c.15-.03.18-.19.3-.26.07-.04.14-.08.2,0,.06.06.01.12-.02.18-.07.12-.23.17-.29.31,0,.02-.01.04-.02.06-.02.02-.04.05-.06.07-.18.13-.32.3-.45.48-.07.1-.2.17-.3.06-.11-.12-.18-.28-.11-.45.03-.08.12-.02.13.02.09.28.18.11.26,0,.09-.12.23-.2.27-.36.03-.04.05-.08.08-.11l.01-.000002Z"/>
      <path class="cls-5" d="m5.876768,14.415c.12.22.25.17.42.03.15-.13.22-.33.41-.42,0,.25,0,.49-.01.74-.37,0-.73.02-1.1.02-.02-.05-.04-.1-.06-.14.08.01.11-.04.12-.11.11.03.16-.06.23-.12h-.01Z"/>
      <path class="cls-5" d="m5.976768,7.895c.09.13.06.42.37.31-.04.12.11.17.12.27h-.14c-.386667,0-.57-.193333-.55-.58h.21-.01Z"/>
      <path class="cls-5" d="m6.586768,13.665c-.03.14-.13.25-.23.35-.11.11-.21.41-.37.03-.03-.06-.14-.05-.17.05-.02,0-.04-.01-.07-.02.21-.29.44-.51.84-.41Z"/>
      <path class="cls-10" d="m6.746768,9.425s-.07.09-.1.14c-.22-.09-.46-.02-.69-.05-.16-.02-.2.06-.2.21v.84c-.13-.06-.01-.21-.11-.28-.033333-.593333.246667-.886666.84-.88.09,0,.17.01.26.02Z"/>
      <path class="cls-6" d="m6.756768,11.915s.06-.05.09-.07c.06.27-.09.53-.04.81.02.11-.06.13-.15.13-.3,0-.6.01-.9,0-.32-.01-.11-.26-.16-.39.09.07-.02.22.11.28h.29c.5.006667.753333-.243333.76-.75v-.01Z"/>
      <path class="cls-5" d="m6.676768,7.425c-.05.14-.17.22-.27.33-.09.1-.21.26-.26-.04-.02-.09-.12-.12-.21-.1,0-.19.12-.27.3-.24.14.1.29.03.44.05Z"/>
      <path class="cls-6" d="m6.276768,16.955c-.506667.02-.756667-.216666-.75-.71,0-.09.01-.18,0-.26-.03-.23.06-.33.29-.28v.08c-.06,0-.11.02-.17.03-.09.35-.1.69,0,1.04.21,0,.42.01.63.02v.09-.01Z"/>
      <path class="cls-6" d="m6.686768,11.505s-.03.08-.05.12h-.38c-.366667,0-.556667.176666-.57.53-.02.53-.06,0-.08,0,0-.15.03-.31.02-.46,0-.15.07-.17.2-.17h.87l-.01-.02Z"/>
      <path class="cls-6" d="m5.586768,14.785c.37,0,.73-.02,1.1-.02.03.02.05.05.08.07-.4.09-.79.05-1.19,0v-.03s.01-.02.02-.02h-.01Z"/>
      <path class="cls-6" d="m5.746768,14.065s.04.01.07.02h0c-.32.05-.11.29-.17.44-.01.07-.03.12-.12.11.03-.33-.08-.67.05-.99.14.09,0,.27.11.37.02.02.03.04.05.05h.01Z"/>
      <path class="cls-2" d="m9.956768,13.765c-.39.06-.78-.04-1.17-.06.36-.1.72-.03,1.08-.04.05,0,.08.05.09.1Z"/>
      <path class="cls-6" d="m5.766768,7.895c-.02.393334.163333.586667.55.58.58-.01.1,0,.14,0-.2.13-.52.15-.69.07-.08-.04-.07-.1-.08-.17v-.61c.03.03.05.03.06.05,0,.03.01.06.01.09l.01-.010001Z"/>
      <path class="cls-5" d="m10.246768,9.575c-.35.06-.7-.05-1.05-.06v-.05h.81c.09,0,.2-.04.23.1l.01.01Z"/>
      <path class="cls-6" d="m5.646768,10.285c.1.07-.01.22.11.28.19,0,.38,0,.58.01v.09c-.1,0-.21.02-.31.02-.39,0-.4.1-.37-.4h-.01Z"/>
      <path class="cls-10" d="m6.766768,14.835s-.05-.05-.08-.07c0-.25,0-.49.01-.74.01-.01.02-.01.04-.01.12.27.08.55.03.82Z"/>
      <path class="cls-10" d="m5.816768,15.785v-.08h.75c-.03.04-.05.08-.08.11-.23,0-.45-.02-.68-.03h.01Z"/>
      <path class="cls-5" d="m5.696768,14.015c-.12-.1.03-.28-.11-.37.04-.14.15-.12.23-.08.1.05.01.14-.02.19-.06.08-.1.16-.1.26Z"/>
      <path class="cls-2" d="m8.266768,16.165c.41,0,.82-.06,1.22.05-.41-.02-.82.06-1.22-.05Z"/>
      <path class="cls-10" d="m6.676768,7.425c-.15-.03-.3.05-.44-.05.17-.12.37-.04.55-.05-.04.04-.07.07-.11.11v-.01Z"/>
      <path class="cls-6" d="m6.826768,7.665c.02-.05.07-.05.11-.06,0,.04,0,.08.01.12v.3c0,.14,0,.29-.01.43,0,.09-.05.12-.12.04.01-.02.03-.04.04-.06v-.47c0-.1.05-.2-.03-.29v-.01Z"/>
      <path class="cls-10" d="m6.336768,10.675v-.09c.15,0,.31-.01.46-.02.02.02.04.04.07.07h.02c-.17.12-.36.05-.55.040001Z"/>
      <path class="cls-2" d="m6.876768,9.715s.03-.04.05-.06c-.02.32.04.65-.04.97h-.02c0-.3,0-.61.01-.91Z"/>
      <path class="cls-2" d="m10.826768,5.505c-.25-.02-.51-.04-.76-.07.26-.03.52-.14.76.07Z"/>
      <path class="cls-6" d="m6.686768,16.055s.04-.05.06-.07c0,.12.01.24.02.35,0,.19-.01.39-.02.58-.02-.02-.05-.05-.07-.07v-.8l.01.009999Z"/>
      <path class="cls-10" d="m12.276768,12.065c.29-.08.59-.02.89-.03-.29.11-.59.04-.89.03Z"/>
      <path class="cls-10" d="m6.676768,16.845s.05.05.07.07c-.15.12-.31.05-.46.04v-.09c.13,0,.26-.01.4-.02h-.01Z"/>
      <path class="cls-5" d="m11.986768,13.825c-.14,0-.28.06-.41-.04.15-.08.29-.13.41.04Z"/>
      <path class="cls-10" d="m12.336768,14.165c.27-.09.55,0,.82-.05-.26.15-.54.04-.82.05Z"/>
      <path class="cls-10" d="m5.606768,12.135h.08c0,.17.01.35.02.52-.13-.06-.02-.21-.11-.28v-.25l.01.01Z"/>
      <path class="cls-10" d="m9.776768,6.255c.23-.06.47-.08.7.01-.23,0-.47,0-.7-.01Z"/>
      <path class="cls-5" d="m6.826768,7.665c.08.09.03.19.03.29-.06-.04-.13-.06-.21-.06.06-.08.12-.16.18-.23Z"/>
      <path class="cls-10" d="m12.736768,7.855c.2,0,.39-.01.59-.02-.19.11-.39.07-.59.02Z"/>
      <path class="cls-10" d="m13.096767,11.735001c-.1.09-.18.09-.24-.04.09-.02.17-.05.24.04Z"/>
      <path class="cls-10" d="m11.016768,7.465c-.16.02-.32.06-.48-.02.16-.01.32-.04.48.02Z"/>
      <path class="cls-2" d="m8.846768,11.985001c.14,0,.28-.06.41.04-.14-.01-.28.04-.41-.04Z"/>
      <path class="cls-2" d="m6.766768,16.335c0-.12-.01-.24-.02-.35,0-.02.01-.04.02-.06.07.14.07.27,0,.410001Z"/>
      <path class="cls-5" d="m12.166768,14.705c-.08,0-.17,0-.17-.12.09,0,.17,0,.17.12Z"/>
      <path class="cls-2" d="m9.546767,7.795c.1,0,.19,0,.29-.01,0,.01,0,.03.01.04-.1,0-.2.04-.3-.03Z"/>
      <path class="cls-2" d="m9.606767,15.865001s-.09.01-.12-.04c.08-.1.1-.03.12.04Z"/>
      <path class="cls-2" d="m9.196768,9.465v.05h-.24c.07-.06.16-.03.23-.04l.01-.01Z"/>
      <path class="cls-10" d="m9.846768,7.825s0-.03-.01-.04h.13c-.04.01-.08.02-.12.03v.01Z"/>
      <path class="cls-7" d="m6.946768,7.835v-.12c.04.04.04.08,0,.12Z"/>
      <path class="cls-5" d="m6.846768,8.425s-.03.04-.04.06c.01-.02.03-.04.04-.06Z"/>
      <path class="cls-10" d="m8.846768,14.115001s.05-.02.07-.03c-.02.01-.05.02-.07.03Z"/>
      <path class="cls-2" d="m9.546767,9.895s.04.02.06.03c-.02-.01-.04-.02-.06-.03Z"/>
      <path class="cls-2" d="m8.396768,9.825s.03.03.04.05c-.03,0-.05-.02-.04-.05Z"/>
      <path class="cls-10" d="m12.216768,6.315s.04-.03.06-.05c0,.03-.02.05-.06.05Z"/>
      <path class="cls-7" d="m6.946768,8.015v-.06c0,.01.01.03.01.04,0,0-.01.01-.02.02h.01Z"/>
      <path class="cls-10" d="m12.106767,12.075s.04-.04.07-.02c-.02,0-.04,0-.07.02Z"/>
      <path class="cls-5" d="m5.706768,12.665c0-.17-.01-.35-.02-.52.013333-.36.203333-.536667.57-.53h.38c-.08.1-.14.2-.23.29-.11.12-.22.41-.38.02-.01-.04-.13-.1-.15,0-.04.16.01.33.13.44.13.12.26.05.38-.07.13-.13.21-.3.37-.4,0,.506667-.253333.756667-.76.75h-.29v.02Z"/>
      <path class="cls-1" d="m5.646768,14.535c.05-.15-.16-.39.17-.44.02.11.04.22.07.32-.07.06-.12.14-.23.12h-.01Z"/>
      <path class="cls-5" d="m6.796768,10.565c-.15,0-.31.01-.46.02-.19,0-.38,0-.58-.01v-.84c0-.14.04-.22.2-.21.23.03.46-.04.69.05-.1.11-.18.23-.29.32-.08.07-.19.27-.26-.03-.02-.08-.12-.08-.15,0-.05.15-.04.32.1.42.12.1.24.08.35-.06.11-.15.24-.28.36-.42.11.25.03.5.04.76Z"/>
      <path class="cls-6" d="m6.796768,10.565c-.01-.25.07-.51-.04-.76.02-.06.06-.08.12-.09,0,.3,0,.61-.01.91-.02-.02-.04-.04-.07-.07v.01Z"/>
      <path class="cls-5" d="m6.676768,16.845c-.13,0-.26.01-.4.02-.21,0-.42-.01-.63-.02v-1.04c.06,0,.11-.02.17-.03.23,0,.45.02.68.03-.04.15-.18.24-.27.36-.08.11-.18.27-.26,0-.01-.04-.1-.1-.13-.02-.07.17,0,.33.11.45.1.1.22.04.3-.06.13-.18.27-.34.45-.48v.8l-.02-.009999Z"/>
      <path class="cls-2" d="m5.646768,15.815v1.04c-.1-.35-.1-.69,0-1.04Z"/>
    </g>
    <path class="cls-12" d="m7.386768,4.225v-1.13s.02-.33.63-.36.68-.35.81-.59.16-.55.82-.55.89.59.93.71.41.48.79.48.52.27.55.67.02.91.02.91c0,0,.05.18-.18.18h-4.24s-.12.05-.12-.31l-.010001-.01Z"/>
    <circle class="cls-1" cx="9.606767" cy="2.385" r=".4"/>
  </g>
  <rect class="cls-9" width="22" height="22"/>
</svg>