<?xml version="1.0" encoding="UTF-8"?>
<svg id="Capa_1" data-name="Capa 1" xmlns="http://www.w3.org/2000/svg" viewBox="0 0 22 22">
  <defs>
    <style>
      .cls-1 {
        fill: #faba25;
      }

      .cls-2 {
        fill: #fff;
      }

      .cls-3 {
        fill: #87be52;
      }

      .cls-4 {
        fill: #aa6257;
      }

      .cls-5 {
        fill: #f6a83e;
      }

      .cls-6 {
        fill: #fbeddc;
      }

      .cls-7 {
        fill: #8f94a2;
      }

      .cls-8 {
        fill: #4d5c75;
      }

      .cls-9 {
        fill: #dfdff0;
      }

      .cls-10 {
        fill: #daa661;
      }

      .cls-11 {
        fill: none;
      }

      .cls-12 {
        fill: #f2eff6;
      }

      .cls-13 {
        fill: #1d2942;
      }

      .cls-14 {
        fill: #fccf6c;
      }

      .cls-15 {
        fill: #e95171;
      }

      .cls-16 {
        fill: #be7d5a;
      }

      .cls-17 {
        fill: #68addf;
      }
    </style>
  </defs>
  <rect class="cls-11" width="22" height="22"/>
  <g>
    <path class="cls-13" d="m6.7700247257,4.2818416433c-.0800170898-.0399780273-.1400146484.0300292969-.1900024414.0599975586-1.2100219727.700012207-2.4200439453,1.4199829102-3.6400146484,2.1099853516-.3599853516.200012207-.549987793.4700317383-.6199951172.8600463867v4.8800048828l.0199584961,6.6699829102c-.0099487305.1499633789.0800170898.25.1900024414.3200073242.3099975586.1900024414.6300048828.3599853516.9400024414.5399780273-.0999755859-.2199707031-.0999755859-.450012207-.0999755859-.6900024414,0-3.6199951172,0-7.2399902344-.0100097656-10.8599853516,0-.549987793.2299804688-.9100341797.700012207-1.1500244141.3699951172-.1900024414.6900024414-.4599609375,1.0900268555-.5799560547h.0099487305v-.3800048828c.0500488281-.3000488281.2900390625-.4400024414.5300292969-.5800170898.3300170898-.1900024414.6799926758-.3599853516.9799804688-.6099853516-.049987793-.2100219727.1199951172-.3800048828.1000366211-.5900268555Z"/>
    <path class="cls-8" d="m3.4699999094,19.7218508682c-.0999999046-.2199993134-.0999999046-.4500007629-.0999999046-.6900005341,0-3.6199998856,0-7.2399997711-.0099999905-10.8599996567,0-.5500001907.2300000191-.9099998474.6999998093-1.1500000954.3699998856-.1900000572.6900000572-.4600000381,1.0900001526-.5900001526,0,.1500000954.0100002289.3000001907.0199999809.4400000572v.0999999046c0,.0900001526-.0100002289.1799998283-.0199999809.2699999809-.25.0700001717-.4299998283.2600002289-.6599998474.3599996567-.1799998283.0799999237-.3499999046.1700000763-.3899998665.3900003433-.0500001907.0600004196-.0300002098.1199998856,0,.1800003052,0,.5.0100002289.9899997711.0100002289,1.4899997711,0,1.470000267.0199999809,2.9399995804.0300002098,4.4099998474-.0599999428.0399999619-.0599999428.0699996948,0,.1099996567v2.6599998474c0,.3500003815-.0100002289.7000007629,0,1.0599994659,0,.1700000763-.0500001907.3600006104.0500001907.5200004578.0500001907.1599998474.1500000954.1700000763.2800002098.1000003815.6900000572-.3999996185,1.3899998665-.7999992371,2.0799999237-1.2000007629.8800001144-.5,1.75-1.0100002289,2.6300001144-1.5100002289,0,.2700004578,0,.5400009155.0100002289.8099994659,0,.0100002289-.0100002289.0300006866-.0100002289.0400009155l-.0600004196.0599994659c-.470000267.1900005341-.8800001144.4799995422-1.3199996948.7299995422-.8000001907.4400005341-1.5700001717.9099998474-2.3599996567,1.3600006104-.5.2900009155-1.0100002289.5799999237-1.5100002289.8700008392-.1399998665.0799999237-.2899999619.1499996185-.4400000572.0200004578l-.020001173.0200004578Z"/>
    <path class="cls-1" d="m17.2800005674,9.5918498001c0,.3800001144,0,.75.0100002289,1.1300001144v1.470000267c-.0300006866.3400001526.0599994659.6899995804-.0599994659,1.0200004578-.4200000763.1899995804-.8500003815.3800001144-1.2000007629.6999998093-.2700004578.0699996948-.5100002289.2100000381-.720000267.3900003433-.4600000381.1700000763-.8299999237.5-1.279999733.6999998093-.0699996948.0399999619-.1300001144.0799999237-.220000267.0500001907.029999733-.0500001907.0799999237-.0699996948.0900001526-.1499996185.0500001907-.3000001907-.0399999619-.5900001526-.0399999619-.8900003433v-2.529999733c.3999996185-.2100000381.8000001907-.4300003052,1.1800003052-.6999998093.0200004578.0200004578.0399999619.029999733.0600004196.0500001907v1.0399999619c.1700000763-.1099996567.220000267-.279999733.3100004196-.4099998474.0900001526-.1400003433.1299991608-.2399997711.3400001526-.1700000763.1599998474.0600004196.3299999237,0,.2999992371-.2600002289-.0200004578-.2299995422,0-.470000267,0-.6999998093,0,0,.0100002289-.0100002289.0100002289-.0200004578s-.0100002289-.029999733-.0200004578-.0399999619h-.0200004578v-.1000003815c.1700000763,0,.2900009155-.0900001526.4200000763-.1700000763.2700004578-.1499996185.5200004578-.3500003815.8299999237-.4300003052l.0100002289.0199995041Zm-2.4099998474,4.3099994659c.1999998093.0799999237.2600002289-.0799999237.3500003815-.1700000763.0600004196-.0500001907.1000003815-.1300001144.0200004578-.1800003052-.0600004196-.0399999619-.1499996185-.029999733-.1899995804.0399999619-.0600004196.1000003815-.1899995804.1700000763-.1800012589.3100004196Zm-.3000001907.3699998856c0-.1199998856.0100002289-.25.0200004578-.3699998856-.0699996948.1199998856-.0699996948.25-.0200004578.3699998856Z"/>
    <path class="cls-1" d="m15.5699995756,17.7218508682c.0799999237.3600006104-.2100000381.4699993134-.4300003052.5900001526-.970000267.5100002289-1.8900003433,1.1000003815-2.8400001526,1.6200008392-.029999733.0200004578-.0699996948.0200004578-.1000003815.0400009155-.0200004578-.1100006104-.0500001907-.2099990845-.0500001907-.3199996948v-3.2299995422c.3999996185-.2299995422.7899999619-.4699993134,1.1899995804-.7000007629h.0500001907v1.1399993896c.0900001526-.1399993896.1499996185-.2099990845.1999998093-.2900009155.1666669846-.2600002289.3866662979-.3466663361.6599998474-.2600002289.1199998856,0,.1300001144-.0599994659.0900001526-.1499996185-.0100002289-.3299999237-.0200004578-.6499996185-.029999733-.9799995422v-.0500001907c.4300003052-.1499996185.8000001907-.4099998474,1.1800003052-.6499996185.0899991989.0799999237.0500001907.1800003052.0500001907.279999733,0,.8299999237,0,1.6499996185.0100002289,2.4799995422v.4899997711l.0200004578-.0100002289Zm-2.5,1.1399993896c.2600002289-.0200004578.3900003433-.1100006104.4600000381-.2800006866.0200004578-.0499992371-.0900001526-.0900001526-.1400003433-.0900001526-.2100000381,0-.1899995804.2099990845-.3299999237.3700008392h.0100002289Zm-.2100000381.4200000763s-.029999733-.0200004578-.0399999619-.0100002289c-.0100002289,0-.0100002289.0300006866-.0200004578.0400009155.0100002289,0,.029999733.0200004578.0399999619.0100002289.0100002289,0,.0200004578-.0300006866.0200004578-.0400009155Z"/>
    <path class="cls-16" d="m19.62000072,12.0818505249c.1000003815.0699996948.0300006866.1899995804.0599994659.2700004578v3.2399988174c-.25.2800006866-.6100006104.3899993896-.9099998474.5799999237-.7900009155.4799995422-1.6000003815.9200000763-2.3999996185,1.3799991608-.1599998474-.0300006866-.1100006104-.1599998474-.1100006104-.2600002289v-3.2700004578c.4099998474-.2100000381.8099994659-.4300003052,1.1900005341-.6899995804h.0499992371v1.1599998474c.1399993896-.2100000381.25-.3400001526.3199996948-.4899997711.1000003815-.1899995804.2199993134-.2399997711.4099998474-.1300001144.0699996948.0500001907.1499996185.0600004196.2299995422.0200004578.0400009155-.0399999619.0300006866-.0799999237,0-.1300001144v-.3500003815c0-.2100000381.0100002289-.4300003052.0200004578-.6400003433.3799991608-.2399997711.7600002289-.470000267,1.1399993896-.7100000381l.0000019073.0200023651Zm-2.0699996948,4.279999733c.0599994659-.0599994659.2199993134-.0900001526.1299991608-.2099990845-.0900001526-.1200008392-.2099990845-.0599994659-.2999992371.0400009155-.0799999237.0900001526-.1200008392.1900005341-.1299991608.3099994659.0900001526.0200004578.1100006104-.1100006104.1900005341-.0699996948.0200004578.1200008392-.0200004578.2299995422-.0599994659.3500003815.2099990845-.0799999237.1599998474-.2600002289.1599998474-.4200000763l.0099983215-.0000019073Zm-1.0200004578.9200000763c.1900005341-.1100006104.3700008392-.2199993134.5799999237-.3400001526-.1900005341-.1100006104-.2700004578.1200008392-.4300003052.0900001526v-.2600002289c0-.0599994659.0400009155-.1299991608-.0499992371-.1599998474-.0200004578,0-.0499992371,0-.0699996948.0300006866-.0499992371.0499992371-.0400009155.1100006104-.0200004578.1700000763.0499992371.1499996185.0900001526.3099994659-.0200004578.4799995422l.0100002289-.0100002289Z"/>
    <path class="cls-5" d="m12.1400002241,16.4218497238v3.2299995422c0,.1100006104.0399999619.2099990845.0500001907.3199996948-.1700000763.0599994659-.279999733-.0699996948-.3999996185-.1299991608-.8299999237-.4799995422-1.6599998474-.9699993134-2.4799995422-1.4599990845-.0399999619-.0300006866-.0799999237-.0699996948-.1199998856-.1100006104v-1.359998703c0-.0799999237.0399999619-.1599998474-.0399999619-.2299995422,0-.0200004578,0-.0300006866.0100002289-.0400009155.0799999237-.2700004578.0399999619-.5499992371.029999733-.8199996948,0-.0900001526,0-.1800003052-.0100002289-.2600002289.029999733-.1800003052.029999733-.3500003815,0-.529999733v-.220000267c.0100002289-.029999733.0200004578-.0600004196.0399999619-.1000003815.0500001907.029999733.1000003815.0699996948.1599998474.1000003815.9200000763.5399999619,1.8400001526,1.0799999237,2.7700004578,1.6299991608l-.0100011826-.0200004578Z"/>
    <path class="cls-8" d="m11.8199995756,2.5518500766c.2899999619.0999999046.3199996948.3399999142.3199996948.6000001431v5.9600000381c-.2399997711.0699996948-.4300003052.2299995422-.6499996185.3400001526-.0799999237-.1300001144-.0200004578-.279999733-.0799999237-.4099998474,0-1.5700001717-.0100002289-3.1300001144-.0200004578-4.6999998093.0399999619-.0399999619.0399999619-.0799999237,0-.1199998856v-.0999999046c.029999733-.0199999809.029999733-.0399999619,0-.0599999428-.0699996948-.25-.2600002289-.2600002289-.4399995804-.1799998283-.1999998093.0900001526-.3699998856.2199997902-.5500001907.3400001526h-.0399999619v-.3200001717c0-.1599998474,0-.3299999237-.1599998474-.4200000763.5399999619-.3099999428,1.0799999237-.6199998856,1.6199998856-.9200000763v-.0100009441Z"/>
    <path class="cls-14" d="m17.2800005674,9.5918498001c-.3099994659.0699996948-.5599994659.2700004578-.8299999237.4300003052-.1299991608.0799999237-.25.1800003052-.4200000763.1700000763-.0599994659-.0200004578-.1200008392-.0399999619-.1700000763-.0699996948-.9099998474-.5200004578-1.8299999237-1.0399999619-2.7399997711-1.5599994659.3299999237-.3199996948.720000267-.5399999619,1.1499996185-.6800003052.1999998093-.0600004196.4300003052.1599998474.6300001144.2700004578.7699995041.4300003052,1.529999733.8900003433,2.2899999619,1.3299999237.0499992371.029999733.1000003815.0399999619.1000003815.1099996567l-.0100002289-.0000009537Z"/>
    <path class="cls-12" d="m13.1199997664,8.5618500671c.9099998474.5199995041,1.8299999237,1.0399999619,2.7400007248,1.5600004196.0499992371.029999733.1200008392.0399999619.1700000763.0699996948v.1000003815c-.3299999237.1400003433-.6499996185.3100004196-.9300003052.5500001907-.0200004578-.0200004578-.0399999619-.029999733-.0600004196-.0500001907-.2100000381-.1999998093-.470000267-.3100004196-.720000267-.4399995804-.7399997711-.3999996185-1.4400005341-.8800001144-2.1900005341-1.25"/>
    <path class="cls-13" d="m11.8199995756,2.5518500766c-.5399999619.3099999428-1.0799999237.620000124-1.6199998856.9200000763h-.0500001907c-.1700000763-.1199998856-.3599996567-.2899999619-.5699996948-.2000000477-.3000001907.1400001049-.6000003815.2899999619-.8500003815.5199999809-.1000003815-.0300002098-.1400003433-.1700000763-.2600002289-.1700000763-.0699996948-.0900001526-.2299995422-.0799999237-.2700004578-.2000000477.7100000381-.4200000763,1.4300003052-.8399999142,2.1499996185-1.25.2399997711-.1400001049.4499998093-.2599999905.75-.0299999714.2100000381.1600000858.4799995422.2799999714.7299995422.4100000858h-.0099983215Z"/>
    <path class="cls-10" d="m19.62000072,12.0818505249c-.3799991608.2399997711-.7600002289.470000267-1.1399993896.7100000381h-.0300006866c-.2399997711-.1300001144-.4699993134-.2700004578-.7099990845-.3999996185-.1399993896-.0699996948-.2600002289-.220000267-.4500007629-.1999998093v-1.470000267c.7800006866.4399995804,1.5699996948.8699998856,2.3299999237,1.3599996567Z"/>
    <path class="cls-4" d="m16.2600001097,14.0318503341v3.2700004578c0,.1000003815-.0499992371.2299995422.1100006104.2600002289-.1599998474.1499996185-.2600002289-.0300006866-.3700008392-.0799999237-.1299991608-.0599994659-.25-.1599998474-.3899993896-.2000007629-.0200004578-.0200004578-.0300006866-.0400009155-.0499992371-.0599994659,0-.8299999237,0-1.6499996185-.0100002289-2.4799995422,0-.0900001526.0400009155-.1999998093-.0499992371-.279999733-.029999733-.0900001526-.1300001144-.1000003815-.1899995804-.1599998474.220000267-.1800003052.4499998093-.3199996948.720000267-.3900003433.0699996948.0399999619.1499996185.0799999237.2199993134.1199998856l.0099983215-.0000009537Z"/>
    <path class="cls-1" d="m8.1899994612,3.4218502006c.0500001907.1300001144.1999998093.1100001335.2700004578.1999998093-.3599996567-.0599999428-.5900001526.1500000954-.8100004196.3800001144-.3099999428.3200001717-.4099998474.740000248-.5500001907,1.1500000954-.1799998283-.0300002098-.3099999428-.1399998665-.4299998283-.2699999809-.0500001907-.2100000381.1199998856-.3899998665.0999999046-.5900001526.0500001907-.0900001526.1100001335-.1799998283.1599998474-.2800002098.0599999428-.1199998856.1999998093-.1799998283.2199997902-.3200001717.2899999619-.2899999619.6200003624-.4400000572,1.0300002098-.2699999809l.0100002289.0000004768Z"/>
    <path class="cls-12" d="m7.1599997282,3.6918501815c-.0199999809.1399998665-.1599998474.1999998093-.2199997902.3200001717"/>
    <path class="cls-6" d="m15.5699995756,17.6618494949s.0100002289.0300006866.0200004578.0400009155"/>
    <path class="cls-5" d="m6.6799997091,4.8718500099c.1199998856.1300001144.25.2399997711.4299998283.2699999809,0,.0599999428-.0199999809.1199998856-.0799999237.1300001144-.2600002289.0799999237-.4400000572.2800002098-.6799998283.3800001144-.5399999619.2199997902-.8099999428.5900001526-.7199997902,1.1900000572.0500001907.3200001717-.0599999428.6500000954.0599999428.9599995613-.0500001907.0600004196-.0700001717.1199998856-.1900000572.0699996948-.2699999809-.1300001144-.4200000763-.3000001907-.3699998856-.6100001335,0-.0900001526.0100002289-.1799998283.0199999809-.2699999809.0399999619-.0300002098.0399999619-.0700001717,0-.0999999046,0-.1500000954-.0100002289-.3000001907-.0199999809-.4400000572h.0100002289c.0700001717-.1199998856.0700001717-.25,0-.3800001144.0599999428-.3099999428.2899999619-.4400000572.529999733-.5799999237.3299999237-.1900000572.6900000572-.3600001335.9800000191-.6100001335l.029999733-.0099992752Z"/>
    <path class="cls-10" d="m5.1599997282,6.071850296c.0599999428.1300001144.0599999428.25,0,.3800001144v-.3800001144Z"/>
    <path class="cls-2" d="m5.1399997473,7.2618498764c-.0500001907.3100004196.0999999046.4899997711.3699998856.6099996567.1100001335.0500001907.1399998665,0,.1900000572-.0699996948.0500001907-.0100002289.1199998856,0,.1500000954-.029999733.3899998665-.2800002098.8200001717-.4699997902,1.2300000191-.7100000381.9600000381-.5700001717,1.9200000763-1.1300001144,2.8999996185-1.6599998474.3299999237-.1799998283.4399995804-.4000000954.3900003433-.7399997711-.0200004578-.1199998856,0-.25,0-.3800001144.0100002289-.0199999809.029999733-.0399999619.0399999619-.0700001717.1800003052-.1100001335.3599996567-.25.5500001907-.3400001526.1800003052-.0799999237.3699998856-.0700001717.4399995804.1799998283v.279999733c0,1.5700001717.0100002289,3.1300001144.0200004578,4.6999998093-.0600004196.1499996185-.0100002289.3000001907-.029999733.4499998093-.1400003433.1199998856-.3299999237.1700000763-.4499998093.3299999237,0,.0200004578-.0100002289.0399999619-.0200004578.0600004196,0,0-.0100002289.0100002289-.0100002289.0200004578s.0100002289.0200004578.0200004578.0399999619v.5900001526c-.4899997711.2700004578-.9799995422.5399999619-1.470000267.8199996948-.6999998093.3999996185-1.3999996185.8000001907-2.0999999046,1.1999998093-.2300000191.1300001144-.4400000572.279999733-.6700000763.3999996185-.1500000954.0799999237-.1700000763.220000267-.1100001335.3199996948.0700001717.1300001144.1700000763,0,.2399997711-.0399999619.1399998665-.0699996948.2600002289-.1599998474.3899998665-.2399997711,1.0899996758-.6199998856,2.1699995995-1.2299995422,3.259999752-1.8500003815.1199998856-.0699996948.2100000381-.2100000381.3699998856-.1899995804h.0900001526v1.9499998093c-.0100002289.029999733-.029999733.0699996948-.0399999619.1000003815-.0500001907.0200004578-.1000003815.029999733-.1499996185.0600004196-1.2899999619.7399997711-2.5799999237,1.4899997711-3.8699998856,2.2300004959-.0900001526.0500001907-.1900000572.1099996567-.2600002289.1899995804-.0799999237.0899991989-.0900001526.220000267-.0199999809.3000001907.0599999428.0699996948.1399998665-.0200004578.2100000381-.0599994659.3200001717-.1900005341.6300001144-.3800001144.9500002861-.5699996948.6899995804-.3999996185,1.3800001144-.8100004196,2.0799999237-1.1999998093.3500003815-.1899995804.6800003052-.4499998093,1.0699996948-.5699996948h.0600004196c.0500001907.0399999619.1000003815.0799999237.1599998474.1199998856-.0100002289.1099996567-.1199998856.1099996567-.1899995804.1700000763-.1899995804.1499996185-.4499998093.1700000763-.6199998856.3599996567-.3599996567.220000267-.720000267.4399995804-1.0799999237.6700000763-.0100002289.029999733-.0200004578.0600004196-.0399999619.1000003815h-.029999733c-.029999733,0-.0600004196,0-.0799999237.0200004578-.8000001907.4499998093-1.5900001526.9000005722-2.3900003433,1.3599996567-.0500001907.0300006866-.0999999046.0900001526-.1199998856.1399993896-.0300002098.0699996948-.0399999619.1700000763.0199999809.2299995422s.1300001144-.0200004578.1900000572-.0499992371c.2600002289-.1499996185.529999733-.3099994659.7899999619-.4599990845.529999733-.2999992371,1.0600004196-.6099996567,1.5799999237-.9099998474.029999733.1400003433-.029999733.2899999619.0399999619.4300003052,0,.0900001526,0,.1800003052.0100002289.2600002289-.0200004578,0-.029999733,0-.0399999619.0200004578-.8800001144.5-1.75,1.0100002289-2.6300001144,1.5100002289-.6900000572.3999996185-1.3899998665.7999992371-2.0799999237,1.2000007629-.1300001144.0699996948-.2300000191.0699996948-.2800002098-.1000003815,0-.2800006866.0100002289-.5599994659,0-.8400001526-.0100002289-.25.0599999428-.5-.0399999619-.7399997711v-2.6599998474c.0700001717-.0399999619.0700001717-.0699996948,0-.1099996567,0-1.470000267-.0199999809-2.9399995804-.0300002098-4.4099998474,0-.5,0-.9899997711-.0100002289-1.4899997711.0399999619-.0600004196.0399999619-.1199998856,0-.1800003052.0399999619-.220000267.2100000381-.3100004196.3899998665-.3900003433.2300000191-.1100001335.4099998474-.2899999619.6599998474-.360004425Zm-.5300002098,5.6599998474h.0500001907c.3800001144-.220000267.7600002289-.4499998093,1.1500000954-.6700000763.0799999237-.3999996185.0700001717-.7899999619,0-1.1900005341-.0199999809-.1000003815-.0300002098-.2399997711-.1599998474-.1400003433-.3200001717.2399997711-.7300000191.3199996948-1.0300002098.5799999237-.1100001335.0699996948-.0700001717.1700000763-.0399999619.2600002289v.279999733c-.0399999619.2899999619-.0599999428.5699996948,0,.8599996567l.0199999809.0200004578.009999752.0000009537Zm1.220000267.8699998856s.0100002289-.0900001526.0100002289-.1300001144c0-.3299999237-.0399999619-.3599996567-.3299999237-.1999998093-.2199997902.1099996567-.4200000763.2600002289-.6399998665.3699998856-.1999998093.1099996567-.3099999428.2399997711-.2699999809.4899997711.0300002098.1899995804,0,.3999996185,0,.5900001526,0,.3199996948.1366667747.4099998474.4099998474.2700004578.4099998474-.2099990845.0599999428-.0399999619.0900001526-.0500001907.720000267-.3299999237.75-.3800001144.7300000191-1.1700000763,0-.0500001907,0-.1099996567-.0100002289-.1599998474h0l.009999752-.0100002289Zm.0199999809,2.1999998093v-.1599998474c-.0199999809-.0900001526-.0599999428-.0499992371-.0999999046-.0100002289-.2899999619.1000003815-.5100002289.3099994659-.779999733.4300003052-.25.1100006104-.4099998474.2600002289-.3600001335.5499992371,0,0-.0199999809.0100002289-.0199999809.0200004578s.0100002289.0300006866.0199999809.0400009155v.8700008392c-.0399999619.0400009155-.0500001907.0799999237.0199999809.1100006104h.0799999237c.3499999046-.1399993896.6399998665-.3899993896.9899997711-.5300006866.0799999237-.0300006866.2100000381-.1299991608.1599998474-.2800006866v-.6000003815c.0199999809-.0699996948.0199999809-.1399993896,0-.2199993134,0-.0699996948,0-.1399993896.0100002289-.2199993134l-.0199999809-.0000019073Zm-.0199999809-7.5300006866c-.0500001907-.0900001526-.1199998856-.0699996948-.1799998283-.029999733-.3299999237.1899995804-.6599998474.3800001144-.990000248.5699996948-.0900001526.0500001907-.0799999237.1300001144-.0799999237.2100000381v1.279999733c.4299998283-.2600002289.8400001526-.5,1.25-.7399997711.0599999428-.0799999237.0500001907-.1700000763,0-.2600002289v-.9800004959l.0199999809-.0100002289c0-.0100002289,0-.0200004578-.0100002289-.0399999619l-.009999752.0000009537Zm5.0799999237-2.6800003052c-.0100002289-.0599999428.029999733-.1399998665-.0500001907-.1599998474-.0399999619-.0100002289-.1099996567.0199999809-.1499996185.0500001907-.220000267.1900000572-.4899997711.2899999619-.7399997711.4400000572-.9200000763.5300002098-1.8400001526,1.0499997139-2.75,1.5800004005-.1900000572.1099996567-.3699998856.220000267-.5500001907.3400001526-.1199998856.0799999237-.1300001144.220000267-.0799999237.3100004196.0700001717.1300001144.1500000954-.0200004578.2100000381-.0500001907.3099999428-.1700000763.6199998856-.3599996567.9300003052-.5399999619,1.0100002289-.5799999237,2.0199995041-1.1599998474,3.0399999619-1.7399997711.1000003815-.0500001907.1599998474-.1100001335.1399993896-.2300014496Zm.0500001907,2.4200000763c-.0200004578-.0699996948-.0600004196-.1400003433-.1700000763-.0900001526-.0699996948.029999733-.1300001144.0600004196-.1899995804.1000003815-.6499996185.3800001144-1.3000001907.7600002289-1.9499998093,1.1400003433-.6400003433.3699998856-1.2699999809.7399997711-1.9099998474,1.1199998856-.1300001144.0799999237-.2300000191.1999998093-.1399998665.3299999237.0599999428.0900001526.1900000572,0,.2800002098-.0600004196.8100004196-.4600000381,1.6199998856-.9200000763,2.4300003052-1.3900003433.4799995422-.279999733.9600000381-.5699996948,1.4400005341-.8599996567.1000003815-.0600004196.1999998093-.1199998856.2100000381-.279999733l-.0000019073-.0100002289Zm-4.3800001144,5.7199993134c-.0199999809.1499996185.0300002098.1999998093.1799998283.1199998856.0700001717-.0399999619.1500000954-.0699996948.2199997902-.1099996567.6499996185-.3699998856,1.2899999619-.7399997711,1.9400005341-1.1099996567.1899995804-.1099996567.3800001144-.2299995422.5799999237-.3500003815.1199998856-.0699996948.1999998093-.1899995804.1400003433-.3100004196-.0799999237-.1400003433-.1899995804-.0100002289-.2700004578.0399999619-.8800001144.4899997711-1.75.9899997711-2.6300001144,1.4800004959-.0900001526.0500001907-.1599998474.1199998856-.1500000954.2399997711h-.009999752Zm3.029999733-6.6199998856c-.0100002289-.0599999428.029999733-.1399998665-.0500001907-.1700000763-.0600004196-.0199999809-.1199998856.0300002098-.1700000763.0599999428-.6700000763.3899998665-1.3500003815.7800002098-2.0199999809,1.1699995995-.2300000191.1400003433-.4600000381.279999733-.6900000572.4200000763-.1300001144.0799999237-.1399998665.2100000381-.0900001526.3100004196.0700001717.1400003433.1399998665-.029999733.2199997902-.0399999619.1999998093-.029999733.3200001717-.1899995804.490000248-.279999733.7299995422-.4099998474,1.4499998093-.8299999237,2.1800003052-1.2399997711.1000003815-.0500001907.1599998474-.1100001335.1400003433-.2300000191l-.0100002289-.0000004768Zm-3.0399999619,4.1899995804c.0100002289.0799999237-.0300002098.2100000381.1399998665.1199998856.6599998474-.3800001144,1.3200001717-.7600002289,1.9800000191-1.1400003433.279999733-.1599998474.5500001907-.3400001526.8199996948-.5100002289.1199998856-.0699996948.1300001144-.1899995804.0799999237-.279999733-.0600004196-.1300001144-.1599998474-.0100002289-.220000267.029999733-.8900003433.5100002289-1.7700004578,1.0200004578-2.6500000954,1.529999733-.1100001335.0600004196-.1700000763.1300001144-.1500000954.2600002289l.0000009537-.0099992752Z"/>
    <path class="cls-12" d="m4.1299999952,16.8518500289c.0999999046.2399997711.0300002098.5.0399999619.7399997711.0100002289.2800006866,0,.5599994659,0,.8400001526-.0999999046-.1700000763-.0399999619-.3500003815-.0500001907-.5200004578v-1.0599994659h.0100002289Z"/>
    <path class="cls-4" d="m9.1599997282,15.8318495712s.029999733-.0200004578.0399999619-.0200004578c.0100002289.2800006866.0600004196.5499992371-.029999733.8199996948,0-.2700004578,0-.5400009155-.0100002289-.8099994659v.0100002289Z"/>
    <path class="cls-7" d="m4.1299999952,14.0918498001c.0700001717.0399999619.0700001717.0699996948,0,.1099996567-.0599999428-.0399999619-.0599999428-.0699996948,0-.1099996567Z"/>
    <path class="cls-7" d="m4.0999997854,8.0118498764c.0300002098.0600004196.0300002098.1199998856,0,.1800003052-.0300002098-.0600004196-.0399999619-.1199998856,0-.1800003052Z"/>
    <path class="cls-10" d="m5.1599997282,6.8818502388s.0399999619.0700001717,0,.0999999046v-.0999999046Z"/>
    <path class="cls-5" d="m10.9199999571,10.5118498764v-.6400003433c0-.0200004578.0100002289-.0399999619.0200004578-.0600004196.0500001907.0200004578.1000003815.029999733.1499996185.0600004196.9300003052.5399999619,1.8599996567,1.0799999237,2.7899999619,1.6199998856v2.529999733c0,.3000001907.0900001526.5900001526.0399999619.8900003433-.0100002289.0799999237-.0600004196.1000003815-.0900001526.1499996185-.1999998093-.1099996567-.3999996185-.220000267-.5900001526-.3299999237-.7100000381-.3999996185-1.4099998474-.8100004196-2.1199998856-1.220000267-.0500001907-.0399999619-.1000003815-.0799999237-.1599998474-.1199998856,0-.1599998474-.0100002289-.3199996948-.0200004578-.4799995422v-2.3900003433l-.0199995041-.0099992752Z"/>
    <path class="cls-14" d="m13.8799999952,11.4918503723c-.9300003052-.5399999619-1.8599996567-1.0799999237-2.7899999619-1.6199998856-.0500001907-.029999733-.1000003815-.0399999619-.1499996185-.0600004196.1099996567-.1599998474.3000001907-.2100000381.4499998093-.3299999237.0399999619,0,.0799999237,0,.1099996567-.0399999619.220000267-.1099996567.4099998474-.2700004578.6499996185-.3400001526.7600002289.3699998856,1.4499998093.8500003815,2.1900005341,1.25.25.1300001144.5100002289.2399997711.720000267.4399995804-.3699998856.2600002289-.7699995041.4799995422-1.1800003052.7000007629Z"/>
    <path class="cls-12" d="m11.1099995375,13.5018496475c.7100000381.4099998474,1.4099998474.8100004196,2.1199998856,1.220000267.1999998093.1099996567.3999996185.220000267.5900001526.3299999237.0799999237.029999733.1499996185,0,.220000267-.0500001907.0900001526.0500001907.1800003052.1000003815.279999733.1099996567v.0500001907c-.3000001907.1899995804-.6400003433.3199996948-.9300003052.5499992371h-.0500001907c-.029999733-.0300006866-.0500001907-.0699996948-.0900001526-.0900001526-.6999998093-.4099998474-1.3900003433-.8299999237-2.1099996567-1.2100000381-.2700004578-.1400003433-.4899997711-.3999996185-.8299999237-.3900003433.1700000763-.1899995804.4300003052-.2100000381.6199998856-.3599996567.0699996948-.0500001907.1800003052-.0500001907.1899995804-.1700000763l-.0099992752.0100011826Z"/>
    <path class="cls-9" d="m15.1199997664,10.8418498001c.2700004578-.2399997711.5899991989-.4099998474.9299993515-.5500001907h.0200004578v.0600004196c0,.2299995422-.0300006866.470000267,0,.6999998093.0300006866.2700004578-.1499996185.3100004196-.2999992371.2600002289-.2099990845-.0699996948-.25.0200004578-.3400001526.1700000763-.0900001526.1400003433-.1400003433.3100004196-.3100004196.4099998474v-1.0500001907Z"/>
    <path class="cls-12" d="m17.2999991179,12.1918501815c.1900005341-.0200004578.2999992371.1300001144.4500007629.1999998093.2399997711.1300001144.4799995422.2600002289.7099990845.3999996185,0,.0200004578-.0100002289.029999733-.0200004578.0500001907-.3500003815.0900001526-.6299991608.3199996948-.9300003052.4899997711h-.0499992371c-.0699996948-.0399999619-.1399993896-.0799999237-.2199993134-.1199998856.1200008392-.3400001526.0300006866-.6800003052.0599994659-1.0199995041Z"/>
    <path class="cls-14" d="m14.3199995756,15.1218504867c-.1099996567-.0100002289-.1899995804-.0600004196-.279999733-.1099996567.4499998093-.1899995804.8199996948-.5199995041,1.279999733-.6999998093.0600004196.0600004196.1599998474.0699996948.1900005341.1599998474-.3800001144.2399997711-.75.5-1.1800003052.6499996185h-.0100002289Z"/>
    <path class="cls-10" d="m17.2399996519,13.2118496856c.0699996948.0399999619.1399993896.0799999237.2199993134.1199998856-.3799991608.2600002289-.7800006866.4899997711-1.1900005341.6899995804-.0699996948-.0399999619-.1499996185-.0799999237-.2199993134-.1199998856.3500003815-.3199996948.7700004578-.5100002289,1.2000007629-.6999998093l-.0100002289.0100002289Z"/>
    <path class="cls-8" d="m14.8799999952,13.9118504486c0-.1400003433.1199998856-.1999998093.1800003052-.3100004196.0399999619-.0699996948.1300001144-.0799999237.1899995804-.0399999619.0799999237.0500001907.0399999619.1199998856-.0200004578.1800003052-.1000003815.0900001526-.1499996185.2600002289-.3499994278.1700000763Z"/>
    <path class="cls-8" d="m14.5699995756,14.2818503341c-.0600004196-.1199998856-.0500001907-.25.0200004578-.3699998856,0,.1199998856-.0100002289.25-.0200004578.3699998856Z"/>
    <path class="cls-14" d="m16.0699995756,10.3518500289v-.0600004196c0,.0100002289.0100002289.029999733.0200004578.0399999619,0,0,0,.0100002289-.0100002289.0200004578h-.0100002289Z"/>
    <path class="cls-14" d="m10.3000000715,14.0218501052c.3400001526,0,.5600004196.25.8299999237.3900003433.720000267.3699998856,1.4099998474.8000001907,2.1099996567,1.2100000381.0399999619.0200004578.0600004196.0599994659.0900001526.0900001526-.3999996185.2299995422-.7899999619.4699993134-1.1900005341.7000007629-.9200000763-.5400009155-1.8400001526-1.0799999237-2.7700004578-1.6300001144-.0500001907-.029999733-.1099996567-.0699996948-.1599998474-.1000003815.3599996567-.220000267.720000267-.4399995804,1.0799999237-.6700000763l.0100011826.0099992752Z"/>
    <path class="cls-9" d="m13.3900002241,15.7218508682c.279999733-.2299995422.6199998856-.3599996567.9300003052-.5500001907.0100002289.3299999237.0200004578.6500005722.029999733.9800004959-.029999733.0499992371-.0600004196.1000003815-.0900001526.1499996185-.279999733-.0866661072-.5000009537,0-.6599998474.2600002289-.0500001907.0799999237-.1099996567.1599998474-.1999998093.2900009155v-1.1399993896l-.0100002289.0099983215Z"/>
    <path class="cls-8" d="m13.0699995756,18.8518500289c.1300001144-.1599998474.1099996567-.3700008392.3299999237-.3700008392.0399999619,0,.1599998474.0400009155.1400003433.0900001526-.0699996948.1599998474-.2100000381.25-.4600000381.2800006866h-.0100002289Z"/>
    <path class="cls-14" d="m14.2499998808,16.3118510208c.029999733-.0499992371.0600004196-.1000003815.0900001526-.1499996185.0399999619.0900001526.029999733.1599998474-.0900001526.1499996185Z"/>
    <path class="cls-10" d="m12.8699997664,19.2718501052s-.0100002289.0300006866-.0200004578.0400009155c0,0-.0200004578,0-.0399999619-.0100002289,0-.0100002289,0-.0300006866.0200004578-.0400009155,0,0,.029999733,0,.0399999619.0100002289Z"/>
    <path class="cls-9" d="m17.4999998808,13.3318505249c.3099994659-.1700000763.5799999237-.3999996185.9300003052-.4899997711,0,.1899995804.0200004578.3900003433.0300006866.5799999237v.3500003815c-.0300006866.0399999619-.0300006866.0799999237,0,.1300001144-.0799999237.0399999619-.1499996185.0200004578-.2299995422-.0200004578-.1800003052-.1099996567-.3099994659-.0699996948-.4099998474.1300001144-.0699996948.1499996185-.1800003052.279999733-.3199996948.4899997711v-1.1599998474l-.0000019073-.0100002289Z"/>
    <path class="cls-8" d="m16.5400007963,17.2818503341c.1100006104-.1700000763.0699996948-.3299999237.0200004578-.4799995422-.0200004578-.0699996948-.0400009155-.1200008392.0200004578-.1700000763.0200004578-.0200004578.0499992371-.0300006866.0699996948-.0300006866.0799999237.0300006866.0400009155.1000003815.0499992371.1599998474v.2600002289c.1599998474.0300006866.2299995422-.2000007629.4300003052-.0900001526-.2099990845.1200008392-.3899993896.2299995422-.5799999237.3400001526l-.0100002289.0100002289Z"/>
    <path class="cls-8" d="m17.4500006437,16.4318499526c-.0900001526-.0400009155-.1000003815.0900001526-.1900005341.0699996948,0-.1200008392.0400009155-.2199993134.1299991608-.3099994659.0900001526-.1000003815.2099990845-.1499996185.2999992371-.0400009155.0900001526.1200008392-.0699996948.1499996185-.1299991608.2099990845-.0300006866.0200004578-.0699996948.0400009155-.109998703.0700016022Z"/>
    <path class="cls-4" d="m17.4500006437,16.4318499526s.0699996948-.0400009155.1100006104-.0699996948c0,.1599998474.0499992371.3400001526-.1599998474.4200000763.0400009155-.1200008392.0799999237-.2299995422.0599994659-.3500003815h-.0100002289Z"/>
    <path class="cls-7" d="m18.4699991941,13.4318499526c0-.1899995804-.0200004578-.3900003433-.0300006866-.5799999237,0-.0200004578.0100002289-.0399999619.0200004578-.0500001907h.0300006866c0,.2100000381-.0100002289.4300003052-.0200004578.6400003433v-.0100002289Z"/>
    <path class="cls-7" d="m18.4599989653,13.9018502197s-.0200004578-.0900001526,0-.1300001144c.0200004578.0399999619.0300006866.0900001526,0,.1300001144Z"/>
    <path class="cls-9" d="m9.1499994993,15.1218504867c-.529999733.3000001907-1.0599994659.6100006104-1.5799999237.9099998474-.2600002289.1499996185-.529999733.3099994659-.7899999619.4599990845-.0599999428.0300006866-.1300001144.1100006104-.1900000572.0499992371-.0599999428-.0599994659-.0399999619-.1599998474-.0199999809-.2299995422.0199999809-.0499992371.0700001717-.1100006104.1199998856-.1399993896.7899999619-.4599990845,1.5900001526-.9099998474,2.3900003433-1.3599996567.0200004578-.0100002289.0500001907-.0100002289.0799999237-.0200004578,0,.0200004578.0200004578.029999733.029999733.0500001907v.1700000763c-.0100002289.0399999619-.0200004578.0699996948-.0399999619.1100006104Z"/>
    <path class="cls-6" d="m9.1499994993,15.1218504867s.0200004578-.0699996948.0399999619-.1099996567c.029999733.1800003052.029999733.3500003815,0,.529999733-.0699996948-.1400003433-.0100002289-.2899999619-.0399999619-.4300003052v.0100002289Z"/>
    <path class="cls-6" d="m9.1899994612,14.8418498001s-.0200004578-.029999733-.029999733-.0500001907h.029999733v.0500001907Z"/>
    <path class="cls-14" d="m10.3599995375,4.2818503341c0,.1300001144-.0200004578.25,0,.3800001144.0500001907.3499999046-.0600004196.5599999428-.3900003433.7399997711-.9799995422.529999733-1.9400005341,1.0999999046-2.9000000954,1.6599998474-.4099998474.2399997711-.8400001526.4299998283-1.2300000191.7100000381-.0399999619.029999733-.0999999046.0200004578-.1500000954.029999733-.1199998856-.3099999428-.0100002289-.6399998665-.0599999428-.9600000381-.0900001526-.5999999046.1799998283-.970000267.720000267-1.1900000572.2399997711-.0999999046.4299998283-.3000001907.6799998283-.3800001144.0500001907-.0199999809.0700001717-.0799999237.0799999237-.1300001144.1300001144-.4099998474.2300000191-.8299999237.5499997139-1.1500000954.220000267-.2300000191.4499998093-.4400000572.8100004196-.3800001144.1199998856,0,.1599998474.1300001144.2600002289.1700000763.0200004578.0399999619.0500001907.0799999237.0500001907.1199998856-.0100002289.3000001907.1199998856.2800002098.3199996948.1599998474.3500003815-.2100000381.6999998093-.4000000954,1.0500001907-.6100001335h.0500001907c.1700000763.0999999046.1599998474.259999752.1599998474.4200000763v.4100012779Zm-2.9899997711.7300000191c.0100002289.0999999046-.0199999809.2199997902.0599999428.3200001717.1399998665.1900000572.3099999428.2100000381.5599999428.0700001717.4399995804-.25.7299995422-.9099998474.5799999237-1.2999997139-.0900001526-.25-.2399997711-.3200001717-.4799995422-.2100000381-.4300003052.1799998283-.720000267.6199998856-.720000267,1.1199994087Z"/>
    <path class="cls-7" d="m11.4999998808,9.4418501815s-.0699996948.0399999619-.1099996567.0399999619c.0100002289-.1499996185-.029999733-.3000001907.029999733-.4499998093.0600004196.1300001144,0,.279999733.0799999237.4099998474Z"/>
    <path class="cls-7" d="m11.3999994993,4.331850048v-.1199998856c.0399999619.0399999619.0399999619.0799999237,0,.1199998856Z"/>
    <path class="cls-7" d="m11.3999994993,4.1218500099v-.0599999428c.029999733.0199999809.029999733.0399999619,0,.0599999428Z"/>
    <path class="cls-6" d="m10.3599995375,4.2818503341v-.0599999428h.0399999619c-.0100002289.0199999809-.029999733.0399999619-.0399999619.0700001717v-.0100002289Z"/>
    <path class="cls-5" d="m10.1400002241,3.4618501625c-.3500003815.1999998093-.6999998093.4000000954-1.0500001907.6100001335-.1999998093.1199998856-.3299999237.1399998665-.3199996948-.1599998474,0-.0399999619-.029999733-.0799999237-.0500001907-.1199998856.25-.2300000191.5500001907-.3800001144.8500003815-.5199999809.2100000381-.0999999046.3999996185.0799999237.5699996948.2000000477v-.0100004673Z"/>
    <path class="cls-9" d="m10.9199999571,10.5118498764v.3800001144c-.0399999619,0-.0699996948.0200004578-.0900001526.0600004196-.1700000763-.029999733-.25.1199998856-.3699998856.1899995804-1.0900001526.6199998856-2.1700000763,1.2300004959-3.2600002289,1.8500003815-.1300001144.0799999237-.25.1700000763-.3899998665.2399997711-.0700001717.0399999619-.1799998283.1700000763-.2399997711.0399999619-.0500001907-.1099996567-.0399999619-.2399997711.1100001335-.3199996948.2300000191-.1300001144.4400000572-.2700004578.6700000763-.3999996185.6999998093-.3999996185,1.3999996185-.8000001907,2.1000003815-1.1999998093.4899997711-.279999733.9799995422-.5500001907,1.470000267-.8199996948l-.0000009537-.0200014114Z"/>
    <path class="cls-9" d="m10.8999994993,13.3818497619c-.3900003433.1199998856-.7100000381.3800001144-1.0699996948.5699996948-.6999998093.3900003433-1.3900003433.7899999619-2.0799999237,1.1999998093-.3200001717.1899995804-.6300001144.3799991608-.9499998093.5699996948-.0700001717.0400009155-.1500000954.1299991608-.2100000381.0599994659-.0700001717-.0799999237-.0599999428-.2099990845.0199999809-.3000001907.0700001717-.0799999237.1700000763-.1400003433.259999752-.1899995804,1.2899999619-.75,2.5799999237-1.4899997711,3.8699998856-2.2299995422.0500001907-.029999733.1000003815-.0399999619.1499996185-.0600004196v.3800001144l.0100002289.0000009537Z"/>
    <path class="cls-9" d="m10.8999994993,5.7718501052c.0200004578.1199998856-.0399999619.1799998283-.1400003433.2300000191-1.0100002289.5799999237-2.029999733,1.1599998474-3.0399999619,1.740000248-.3099999428.1800003052-.6199998856.3699998856-.9299998283.5399999619-.0599999428.029999733-.1399998665.1800003052-.2100000381.0500001907-.0500001907-.1000003815-.0399999619-.2399997711.0799999237-.3100004196.1799998283-.1199998856.3699998856-.2299995422.5500001907-.3400001526.9199995995-.529999733,1.8399996758-1.0500001907,2.7499995232-1.5799999237.25-.1399998665.5200004578-.25.7399997711-.4400000572.0399999619-.0300002098.1000003815-.0599999428.1499996185-.0500001907.0799999237.0199999809.0399999619.1100001335.0500011444.1600003242Z"/>
    <path class="cls-15" d="m5.8200000525,8.5018496475v1.2399997711c-.4099998474.2399997711-.8200001717.4799995422-1.25.7399997711v-1.279999733c0-.0799999237,0-.1599998474.0799999237-.2100000381.3299999237-.1899995804.6599998474-.3800001144.990000248-.5699996948.0700001717-.0399999619.1300001144-.0600004196.1799998283.029999733-.0100002289.0200004578-.0100002289.029999733,0,.0500001907Zm-.2399997711.220000267c-.1599998474.2899999619-.3000001907.529999733-.4400000572.779999733-.0500001907.0900001526-.0900001526.1999998093-.2399997711.1499996185-.0799999237-.029999733-.1500000954,0-.1700000763.0799999237-.0199999809.0699996948.0500001907.1000003815.1100001335.1300001144.1500000954.1000003815.2300000191.029999733.3000001907-.0900001526.1399998665-.2299995422.2699999809-.4600000381.4000000954-.6999998093.0500001907-.0900001526.1300001144-.1700000763.039999485-.3499994278Z"/>
    <path class="cls-9" d="m10.9399994612,8.1918501815c0,.1599998474-.1099996567.220000267-.2100000381.279999733-.4799995422.2899999619-.9499998093.5799999237-1.4400005341.8599996567-.8100004196.470000267-1.6199998856.9300003052-2.4300003052,1.3900003433-.0900001526.0500001907-.2199997902.1499996185-.2800002098.0600004196-.0900001526-.1300001144,0-.25.1399998665-.3299999237.6399998665-.3699998856,1.2699995041-.7399997711,1.9099998474-1.1199998856.6499996185-.3800001144,1.3000001907-.7600002289,1.9499998093-1.1400003433.0600004196-.0399999619.1300001144-.0699996948.1899995804-.1000003815.1099996567-.0500001907.1400003433.0200004578.1700000763.0900001526l.0000019073.0100002289Z"/>
    <path class="cls-1" d="m5.8400000334,17.0218501052c.0500001907.1499996185-.0799999237.2399997711-.1599998474.2800006866-.3499999046.1399993896-.6399998665.3899993896-.9899997711.5300006866h-.0799999237c0-.0400009155-.0100002289-.0699996948-.0199999809-.1100006104v-.9200000763c-.0500001907-.2900009155.1100001335-.4400005341.3600001335-.5499992371.2699999809-.1200008392.5-.3299999237.779999733-.4300003052.0300002098,0,.0700001717,0,.0999999046.0100002289v.1000003815s-.0199999809.0100002289-.0100002289.0200004578c0,.0100002289.0100002289.0300006866.0199999809.0400009155,0,.0699996948,0,.1399993896-.0100002289.2199993134-.0399999619.0699996948-.0399999619.1499996185,0,.2199993134v.4899997711c-.0399999619.0400009155-.0399999619.0699996948,0,.1100006104l.0100002289-.0100021362Zm-.2600002289-.8199996948c-.1500000954.25-.3000001907.5-.4400000572.75-.0500001907.0799999237-.0799999237.1700000763-.1999998093.1100006104-.0900001526-.0499992371-.1599998474,0-.1999998093.0599994659-.0300002098.0499992371.0399999619.0900001526.0799999237.1200008392.0700001717.0499992371.1599998474.1599998474.2300000191.0699996948.25-.3199996948.4800000191-.6599998474.5900001526-1.0499992371,0,0-.0199999809-.0200004578-.0500001907-.0599994659l-.0100002289-.0000019073Z"/>
    <path class="cls-3" d="m5.8200000525,13.791850563c0,.0500001907.0100002289.1099996567.0100002289.1599998474.0199999809.779999733-.0100002289.8299999237-.7300000191,1.1700000763-.0300002098.0100002289-.0599999428.0399999619-.0900001526.0500001907-.2733330727.1400003433-.4099998474.0500001907-.4099998474-.2700004578,0-.1999998093.0199999809-.3999996185,0-.5900001526-.0300002098-.2399997711.0700001717-.3800001144.2699999809-.4899997711.2199997902-.1099996567.4200000763-.2600002289.6399998665-.3699998856.2899999619-.1499996185.3299999237-.1199998856.3299999237.1999998093,0,.0399999619,0,.0900001526-.0100002289.1300001144h0l-.009999752.0100002289Zm-.8800001144.8100004196c-.0999999046-.0500001907-.1799998283-.029999733-.1999998093.0500001907-.0399999619.1400003433.1199998856.1300001144.1799998283.1999998093.0700001717.0900001526.0999999046.0200004578.1500000954-.0399999619.2199997902-.279999733.3499999046-.6199998856.5500001907-.9099998474.0300002098-.0399999619.0399999619-.0900001526,0-.1199998856-.0599999428-.0500001907-.0999999046.0100002289-.1199998856.0600004196-.1199998856.2100000381-.2399997711.4200000763-.3600001335.6199998856-.0500001907.0799999237-.0999999046.1700000763-.1900000572.1400003433l-.0100002289-.0000009537Z"/>
    <path class="cls-17" d="m5.8099998236,12.2418503723c-.3800001144.220000267-.759999752.4499998093-1.1500000954.6700000763h-.0500001907l-.0199999809-.0200004578c.0100002289-.2899999619.0300002098-.5699996948,0-.8599996567v-.279999733c.0100002289-.0900001526.0199999809-.1700000763.0399999619-.2600002289.3000001907-.2600002289.7100000381-.3400001526,1.0300002098-.5799999237.1300001144-.1000003815.1500000954.0500001907.1599998474.1400003433v1.1900005341l-.009999752-.0000009537Zm-.1900000572-.9600000381c-.1100001335,0-.1300001144.0799999237-.1700000763.1499996185-.0999999046.1800003052-.2100000381.3599996567-.3099999428.5399999619-.0599999428.1000003815-.0999999046.1999998093-.2399997711.1199998856-.0599999428-.029999733-.1300001144,0-.1599998474.0699996948-.0399999619.0799999237.0399999619.1099996567.0900001526.1400003433.1399998665.0799999237.25.0799999237.3299999237-.0799999237.0900001526-.1800003052.2100000381-.3400001526.2899999619-.5199995041.0599999428-.1300001144.2199997902-.2299995422.1700000763-.4099998474l-.0000004768-.0100002289Z"/>
    <path class="cls-9" d="m6.5599998236,13.9118504486c0-.1199998856.0599999428-.1899995804.1500000954-.2399997711.8800001144-.5,1.75-.9899997711,2.6300001144-1.4800004959.0799999237-.0500001907.1899995804-.1800003052.2700004578-.0399999619.0699996948.1199998856-.0100002289.2399997711-.1400003433.3100004196-.1899995804.1199998856-.3800001144.2399997711-.5799999237.3500003815-.6400003433.3699998856-1.2899999619.7399997711-1.9400000572,1.1099996567-.0700001717.0399999619-.1500000954.0699996948-.2199997902.1099996567-.1500000954.0799999237-.1999998093.029999733-.1799998283-.1199998856h.0099992752Z"/>
    <path class="cls-9" d="m9.5900000334,7.2918500862c.0200004578.1199998856-.0500001907.1799998283-.1400003433.2300000191-.7300004959.4099998474-1.4499998093.8400001526-2.1800003052,1.2399997711-.1599998474.0900001526-.2899999619.2600002289-.4899997711.279999733-.0799999237.0100002289-.1500000954.1800003052-.2199997902.0399999619-.0500001907-.1000003815-.0399999619-.2299995422.0900001526-.3100004196.2300000191-.1400003433.4600000381-.279999733.6900000572-.4200000763.6700000763-.3900003433,1.3500003815-.779999733,2.0200004578-1.1700000763.0500001907-.0300002098.1099996567-.0900001526.1700000763-.0599999428.0799999237.0300002098.0399999619.1100001335.0500001907.1700000763l.0099992752.0000009537Z"/>
    <path class="cls-9" d="m6.5599998236,11.4718499145c-.0199999809-.1300001144.0399999619-.1899995804.1500000954-.2600002289.8900003433-.5100002289,1.7699995041-1.0199995041,2.6500005722-1.529999733.0600004196-.0399999619.1599998474-.1499996185.220000267-.029999733.0399999619.0900001526.0399999619.2100000381-.0799999237.279999733-.279999733.1700000763-.5399999619.3500003815-.8199996948.5100002289-.6599998474.3800001144-1.3200001717.7600002289-1.9800000191,1.1400003433-.1599998474.0900001526-.1199998856-.0399999619-.1399998665-.1199998856l-.0000014305.0099992752Z"/>
    <path class="cls-9" d="m5.8099998236,12.2418503723v-1.1899995804c.0700001717.3999996185.0799999237.7899999619,0,1.1899995804Z"/>
    <path class="cls-9" d="m4.5799998045,12.0318503341c.0399999619.2899999619.0199999809.5699996948,0,.8599996567-.0700001717-.2899999619-.0500001907-.5699996948,0-.8599996567Z"/>
    <path class="cls-6" d="m10.8999994993,13.3818497619v-.3800001144c.0100002289-.029999733.029999733-.0699996948.0399999619-.1000003815,0,.1599998474.0100002289.3199996948.0200004578.4799995422-.0200004578,0-.0399999619,0-.0600004196.0000009537Z"/>
    <path class="cls-6" d="m5.8200000525,9.7418503723v-.2600002289c.0500001907.0900001526.0599999428.1700000763,0,.2600002289Z"/>
    <path class="cls-9" d="m4.6199997664,11.4918503723c-.0100002289.0900001526-.0199999809.1700000763-.0399999619.2600002289-.0300002098-.0900001526-.0700001717-.1899995804.0399999619-.2600002289Z"/>
    <path class="cls-14" d="m5.8400000334,16.4218497238c-.0500001907-.0699996948-.0500001907-.1399993896,0-.2199993134.0300002098.0699996948.0300002098.1399993896,0,.2199993134Z"/>
    <path class="cls-6" d="m10.8400000334,10.9418501815s.0500001907-.0600004196.0900001526-.0600004196v.0600004196h-.0900001526Z"/>
    <path class="cls-14" d="m5.8400000334,15.8318495712s-.0700001717,0-.0999999046-.0100002289c.0399999619-.0400009155.0799999237-.0699996948.0999999046.0100002289Z"/>
    <path class="cls-14" d="m5.8400000334,17.0218501052s-.0399999619-.0699996948,0-.1100006104v.1100006104Z"/>
    <path class="cls-6" d="m4.5999997854,17.7218508682s.0100002289.0699996948.0199999809.1100006104c-.0599999428-.0300006866-.0599999428-.0599994659-.0199999809-.1100006104Z"/>
    <path class="cls-6" d="m10.9199999571,9.8618502578v.0500001907c0-.0100002289-.0100002289-.0200004578-.0200004578-.0399999619,0,0,0-.0100002289.0100002289-.0200004578l.0100002289.0100002289Z"/>
    <path class="cls-6" d="m5.8200000525,8.5018496475s-.0100002289-.029999733,0-.0500001907c0,.0100002289.0100002289.0200004578.0100002289.0399999619l-.0199999809.0100002289h.009999752Z"/>
    <path class="cls-6" d="m4.5900000334,16.8018507919v.0499992371c0-.0100002289-.0100002289-.0300006866-.0199999809-.0400009155,0,0,.0100002289-.0100002289.0199999809-.0200004578v.0100021362Z"/>
    <path class="cls-14" d="m5.8400000334,15.9918494186s-.0100002289-.0300006866-.0199999809-.0400009155c0,0,0-.0100002289.0100002289-.0200004578v.0599994659l.009999752.0000019073Z"/>
    <path class="cls-1" d="m7.3699997664,5.0118498764c0-.4899997711.2899999619-.9400000572.720000267-1.1199998856.2399997711-.0999999046.3900003433-.0399999619.4799995422.2100000381.1499996185.4000000954-.1499996185,1.0500001907-.5799999237,1.3000001907-.25.1399998665-.4200000763.1199998856-.5599999428-.0700001717-.0799999237-.1100001335-.0500001907-.2199997902-.0599999428-.3200001717Zm.220000267-.0199999809c.0600004196.2399997711.1899995804.3000001907.3999996185.1900000572.2600002289-.1300001144.4600000381-.529999733.4099998474-.8099999428-.0399999619-.2100000381-.1700000763-.2699999809-.3800001144-.1500000954-.279999733.0500001907-.529999733.4899997711-.4299993515.7699999809Z"/>
    <path class="cls-12" d="m5.5799998045,8.7318501434c.0900001526.1800003052,0,.2600002289-.0399999619.3500003815-.1300001144.2399997711-.2600002289.4600000381-.4000000954.6999998093-.0700001717.1199998856-.1599998474.1899995804-.3000001907.0900001526-.0500001907-.0399999619-.1199998856-.0600004196-.1100001335-.1300001144.0199999809-.0799999237.0900001526-.1099996567.1700000763-.0799999237.1500000954.0500001907.1799998283-.0500001907.2399997711-.1499996185.1399998665-.25.2800002098-.4899997711.4400005341-.7800006866Z"/>
    <path class="cls-2" d="m5.5799998045,16.1918501815s.0599999428.0499992371.0500001907.0599994659c-.1199998856.3999996185-.3499999046.7299995422-.5900001526,1.0499992371-.0700001717.0799999237-.1599998474-.0300006866-.2300000191-.0699996948-.0399999619-.0300006866-.1100001335-.0699996948-.0799999237-.1200008392.0399999619-.0699996948.1100001335-.1200008392.1999998093-.0599994659.1199998856.0699996948.1500000954-.0300006866.1999998093-.1100006104.1500000954-.25.2899999619-.4899997711.4400000572-.75l.0100002289.0000019073Z"/>
    <path class="cls-12" d="m4.939999938,14.6018500289c.0999999046.0200004578.1500000954-.0600004196.1900000572-.1400003433.1199998856-.2100000381.2399997711-.4200000763.3600001335-.6199998856.0300002098-.0399999619.0599999428-.1000003815.1199998856-.0600004196.0399999619.029999733.0300002098.0799999237,0,.1199998856-.2100000381.2899999619-.3299999237.6300001144-.5500001907.9099998474-.0500001907.0600004196-.0799999237.1300001144-.1500000954.0399999619-.0599999428-.0699996948-.2199997902-.0600004196-.1799998283-.1999998093.0199999809-.0799999237.0999999046-.1000003815.1999998093-.0500001907l.0100002289.0000009537Z"/>
    <path class="cls-12" d="m5.6199997664,11.2818503341c.0500001907.1800003052-.1100001335.279999733-.1700000763.4099998474-.0799999237.1800003052-.1999998093.3400001526-.2899999619.5200004578-.0799999237.1700000763-.1999998093.1599998474-.3299999237.0799999237-.0500001907-.029999733-.1300001144-.0600004196-.0900001526-.1400003433.0300002098-.0600004196.0900001526-.1099996567.1599998474-.0699996948.1500000954.0799999237.1900000572-.0200004578.2399997711-.1199998856.0999999046-.1800003052.2100000381-.3599996567.3099999428-.5399999619.0399999619-.0699996948.0599999428-.1499996185.1700000763-.1499996185l.0000004768.0099992752Z"/>
    <path class="cls-5" d="m8.0200003386,4.2218499145c.2100000381-.1199998856.3500003815-.0599999428.3800001144.1500000954.0500001907.2800002098-.1499996185.6799998283-.4099998474.8099999428-.2100000381.1100001335-.3400001526.0500001907-.3999996185-.1900000572.2700004578-.1799998283.3900003433-.4499998093.4299993515-.7699999809Z"/>
    <path class="cls-13" d="m8.0200003386,4.2218499145c-.0399999619.3200001717-.1599998474.5799999237-.4300003052.7699999809-.0999999046-.2800002098.1400003433-.7199997902.4300003052-.7699999809Z"/>
  </g>
</svg>