<?xml version="1.0" encoding="UTF-8"?>
<svg id="Capa_1" data-name="Capa 1" xmlns="http://www.w3.org/2000/svg" viewBox="0 0 22 22">
  <defs>
    <style>
      .cls-1 {
        fill: #fff;
      }

      .cls-2 {
        fill: #454848;
      }

      .cls-3 {
        fill: #026838;
      }

      .cls-4 {
        fill: #f19001;
      }

      .cls-5 {
        fill: #009443;
      }

      .cls-6 {
        fill: none;
      }

      .cls-7 {
        fill: #e1646b;
      }

      .cls-8 {
        fill: #f6a30a;
      }

      .cls-9 {
        fill: #1d1e1c;
      }

      .cls-10 {
        fill: #dfdfdf;
      }
    </style>
  </defs>
  <g>
    <g>
      <path class="cls-3" d="m17.76,11.428885s-.02-.03-.01-.04c.02,0,0,.03.01.04Z"/>
      <path class="cls-3" d="m7.54,8.468885v-.02h.01-.01v.02Z"/>
    </g>
    <g>
      <g>
        <g>
          <path class="cls-1" d="m15.03,3.318885c-.03-.71-.23-.87-.89-.71-2.869999.71-5.74,1.42-8.6,2.16-.43.11-.92.08-1.29.42-.01,4.22-.01,8.43-.01,12.65,0,.35.18.64.41.900001.58.66,1.34.76,2.16.690001h.18c3.3-.84,6.61-1.690001,9.91-2.54.61-.16.71-.28.71-.9v-6.2c0-1.77-.01-3.54-.02-5.31-.02-.03-.04-.06-.06-.1-.11-.4-.42-.37-.72-.33-.18.03-.33.15-.52.15-.08-.14-.23-.21-.36-.3-.29-.21-.67-.28-.89-.58l-.009999-.000002Z"/>
          <path class="cls-5" d="m17.59,4.478885c0,1.77.01,3.54.02,5.31v6.2c0,.62-.1.74-.71.9-3.3.85-6.61,1.69-9.91,2.54-.06.01-.12,0-.18,0V6.608884c3.16-.8,6.32-1.61,9.47-2.41.19,0,.35-.12.52-.15.3-.04.61-.07.72.33.02.03.04.06.06.1h.009998Zm-8.75,9.620001c-.13,1.86,1.58,3.12,3.25,2.63,1.85-.54,3.02-1.74,3.41-3.68.37-1.86-.94-3.54-3.12-3.16-1.96.34-3.57,2.33-3.54,4.21Z"/>
          <path class="cls-2" d="m6.8,6.608885v12.819999c-.82.07-1.58-.030001-2.16-.690001-.22-.259998-.4-.559999-.4-.899999V5.198885c.09.15.17.3.26.45.56.81,1.39.98,2.3.97v-.01Z"/>
          <path class="cls-10" d="m6.8,6.608885c-.91,0-1.74-.16-2.3-.97.61-.09,1.19-.28,1.78-.44,2.18-.56,4.37-1.13,6.56-1.65.71-.17,1.41-.61,2.18-.24.22.3.6.37.89.58.13.09.27.16.36.3-3.16.8-6.32,1.61-9.47,2.41v.01Z"/>
          <path class="cls-5" d="m15.03,3.318885c-.77-.37-1.48.07-2.18.24-2.19.52-4.38,1.09-6.56,1.65-.59.15-1.17.34-1.78.44-.09-.15-.17-.3-.26-.45.36-.34.86-.31,1.29-.42,2.86-.75,5.73-1.46,8.6-2.17.65-.16.85,0,.89.71Z"/>
          <path class="cls-7" d="m17.59,4.478885s-.04-.06-.06-.1c.02.03.04.06.06.1Z"/>
          <path class="cls-1" d="m8.84,14.098885c-.03-1.88,1.58-3.87,3.539999-4.21,2.18-.38,3.48,1.3,3.12,3.16-.38,1.940001-1.56,3.15-3.41,3.68-1.66.48-3.37-.78-3.25-2.63Zm4.07-3.43c-.18.03-.42,0-.67.06-.76.17-1.31.64-1.77,1.2-.64.8-1.08,1.69-.82,2.77.22.94,1.12,1.559999,2.04,1.35,1.64-.38,2.73-1.42,3.06-3.08.23-1.12-.33-2.4-1.84-2.29v-.01Z"/>
          <path class="cls-8" d="m12.91,10.668885c1.51-.11,2.059999,1.17,1.84,2.29-.34,1.67-1.43,2.71-3.06,3.08-.92.21-1.82-.4-2.04-1.35-.25-1.07.18-1.97.82-2.77.46-.57,1.01-1.03,1.77-1.2.25-.06.49-.03.67-.06v.010001Z"/>
        </g>
        <g>
          <path class="cls-1" d="m8.24,9.708885c-.13.04-.25,0-.37-.09l-.14.2c.06.06.14.1.23.12s.19.01.29-.02c.14-.04.28-.13.38-.26.1-.12.15-.27.15-.41,0-.1-.03-.19-.09-.25s-.17-.11-.34-.15c-.14-.03-.23-.07-.27-.11-.04-.03-.06-.08-.06-.14,0-.07.03-.14.08-.19.05-.06.12-.11.19-.13.12-.03.23,0,.35.07l.15-.19c-.16-.11-.33-.14-.49-.1-.13.03-.25.12-.35.23-.09.11-.14.25-.14.37,0,.1.03.19.09.25s.17.11.32.15c.15.03.24.07.28.11s.06.09.06.16c0,.08-.04.16-.1.23-.06.08-.15.13-.23.15"/>
          <polygon class="cls-1" points="8.98 7.918885 9.2 7.848885 9.2 9.608885 8.98 9.668885 8.98 7.918885"/>
          <polygon class="cls-1" points="9.45 7.778885 9.68 7.718885 9.68 9.468885 9.45 9.538885 9.45 7.778885"/>
          <polygon class="cls-9" points="12.82 6.818885 13.04 6.758885 13.04 8.508885 12.82 8.578885 12.82 6.818885"/>
          <path class="cls-4" d="m9.09,7.698885c.1-.03.19-.14.19-.24s-.08-.16-.19-.13c-.05.01-.1.05-.13.09-.04.04-.06.1-.05.15,0,.1.08.16.18.13"/>
          <path class="cls-9" d="m9.57,7.558885c.1-.03.19-.14.19-.24s-.08-.16-.19-.13c-.05.01-.1.05-.13.09-.04.04-.06.1-.05.15,0,.05.02.09.05.11.03.03.08.03.13.02"/>
          <path class="cls-1" d="m13.059999,6.248885c-.07-.05-.19-.02-.26.07h0c-.04.04-.06.1-.05.15,0,.1.09.16.19.12.1-.03.17-.13.18-.23,0-.05-.02-.09-.05-.12"/>
          <polygon class="cls-4" points="10.26 7.548885 10.26 7.778885 10.64 7.668885 9.89 8.638885 10.05 8.748885 10.81 7.778885 10.81 8.168885 11.03 8.108885 11.03 7.648885 11.03 7.328885 10.26 7.548885"/>
          <path class="cls-9" d="m12.37,7.168885c-.17-.13-.4-.16-.64-.09-.14.04-.27.11-.39.2-.12.1-.23.23-.31.36v.45l-.23.06v1.53l.23-.06v-.85c.09.08.19.14.32.17.34.07.76-.12,1.02-.47.17-.22.27-.49.26-.73,0-.24-.09-.45-.27-.57m-.07,1.02c-.06.12-.15.24-.25.33s-.22.16-.34.19c-.12.03-.24.04-.35,0-.11-.03-.19-.09-.25-.18-.06-.09-.09-.21-.09-.33,0-.19.07-.39.2-.56.13-.17.3-.29.49-.34.25-.07.47,0,.59.18.12.18.12.45,0,.7"/>
        </g>
      </g>
      <path class="cls-1" d="m14.26,12.538885c0,.51-.42.98-.95,1.059999-.17.03-.33.02-.49-.03-.03,0-.05,0-.07.02-.53.57-1.06,1.13-1.58,1.68-.24.26-.65.2-.8-.11-.09-.19-.05-.41.11-.56.53-.51,1.08-1.03,1.64-1.56.03-.03.04-.05.02-.09-.2-.58.21-1.23.86-1.37.07-.02.15-.02.22-.03.05,0,.09,0,.11.05.02.05,0,.08-.04.11l-.48.48c-.02.02-.03.04-.02.07.05.15.1.31.16.46,0,.02.03.04.05.05.16.04.33.08.5.13.04.01.06,0,.09-.03.15-.15.31-.31.47-.46l.04-.04c.07-.05.15-.02.16.05v.12Zm-3.300001,2.42c0-.1-.08-.18-.18-.18s-.18.08-.18.18.08.18.18.18.18-.08.18-.18Z"/>
    </g>
  </g>
  <rect class="cls-6" width="22" height="22"/>
</svg>