<?xml version="1.0" encoding="UTF-8"?>
<svg id="Capa_1" data-name="Capa 1" xmlns="http://www.w3.org/2000/svg" viewBox="0 0 22 22">
  <defs>
    <style>
      .cls-1 {
        fill: #5bbad8;
      }

      .cls-2 {
        fill: #fdffff;
      }

      .cls-3 {
        fill: #f19001;
      }

      .cls-4 {
        fill: #c5e5f2;
      }

      .cls-5 {
        fill: none;
      }

      .cls-6 {
        fill: #d8d8d9;
      }

      .cls-7 {
        fill: #149939;
      }

      .cls-8 {
        fill: #1d1e1c;
      }
    </style>
  </defs>
  <g>
    <g>
      <path class="cls-2" d="m7.739665,19.49441c1.450464,0,2.900958-.004358,4.351357.005353.187635.001256.214516-.054675.214019-.223485-.00596-2.026376-.00077-4.052789-.009012-6.079149-.000756-.185933.052104-.216076.222634-.214925,1.158963.007833,2.318052.009309,3.476971-.001204.186031-.001687.215434.052183.214916.222693-.00619,2.033153-.001765,4.066338-.008185,6.099488-.000519.164208.047212.196457.200602.194807.738702-.007947,1.477618-.009435,2.216261.000912.165825.002323.194304-.049587.193972-.201469-.004802-2.202591-.003294-4.405197-.003294-6.607799q0-.327812-.317857-.354038c-.020111-.00166-.040694-.000803-.060313-.004784-.555395-.11273-1.055754-.332338-1.453624-.750272-.080839-.084916-.154421-.076853-.242919-.001006-.428665.367391-.900021.632866-1.474227.725084-.561111.090118-1.070175-.020693-1.566991-.260222-.247341-.11925-.449174-.303758-.664407-.46849-.059233-.045335-.103522-.082573-.172883-.0197-.073655.066766-.15334.126883-.230432.189852-.410651.335419-.883083.539058-1.407049.584893-.788038.068934-1.473846-.183152-2.040488-.740083-.0908-.089244-.162779-.091109-.257212-.007241-.420044.373049-.894954.622712-1.459599.718999-.574386.097948-1.096547-.014932-1.601551-.275496-.221443-.114258-.424608-.252177-.591706-.439218-.067137-.075152-.140283-.099081-.225558-.026889-.086253.073017-.171053.147991-.26031.217178-.414785.321519-.883961.518065-1.40708.549834-.169893.010319-.189537.062823-.189288.207486.003871,2.250035.005727,4.500091-.00273,6.750103-.000716.190584.059121.213169.224937.212441,1.443658-.006328,2.887357-.003653,4.331043-.003653Zm-2.978044-13.016075c-.453742,0-.907484-.000199-1.361226.000201-.073448.000065-.144295-.005441-.200416.066019-.302521.385211-.61025.767009-.913241,1.150999-.311782.395131-.613833.800423-.917861,1.203006-.09285.122949-.148788.263814-.135528.430413.014464.181735.001891.365461.006112.548203.011704.506633.238604.934614.589029,1.263685.384769.361321.84658.584337,1.4174.551021.782896-.045696,1.323231-.430275,1.685698-1.093218.20922-.382658.219923-.810615.208284-1.235397-.005096-.185983.03162-.353202.113275-.523272.341536-.711352.671885-1.428092,1.003921-2.143977.093809-.202256.083617-.216546-.134224-.217254-.453737-.001473-.907483-.000446-1.361225-.000428Zm12.427742-.000012c-.460668,0-.921347-.001312-1.381995.001741-.054602.000362-.129897-.035569-.161614.036865-.027163.06203.022396.118471.055892.163888.120093.162834.210692.350478.282995.528332.158666.390296.345494.765437.526449,1.14412.203334.425511.409781.845104.350811,1.343572-.030678.259316.022405.507583.123793.762288.267602.672284,1.085158,1.276823,1.844628,1.234083.807137-.045421,1.354717-.428865,1.733694-1.115803.127783-.231617.165273-.484547.186794-.732225.032863-.378255.050647-.751029-.234027-1.088335-.595239-.705288-1.160969-1.435884-1.723425-2.167912-.071472-.09302-.127667-.111275-.221989-.111071-.460666.001002-.921336.000453-1.382004.000458Zm-6.191837-.000004c-.454098,0-.908397.007615-1.362181-.004328-.149237-.003928-.202852.05271-.221768.184784-.067909.474153-.117815.952168-.213765,1.420688-.11249.549284-.157305,1.099212-.156412,1.658467.001034.648333.281454,1.144612.768528,1.544965.444628.365464.972591.51036,1.513755.386232,1.028545-.23592,1.558038-.914727,1.626355-1.916828.041323-.60613-.099658-1.194202-.181683-1.78751-.061131-.442171-.1628-.879146-.212857-1.322226-.018187-.160984-.076373-.166887-.197691-.165828-.454064.003957-.908182.001584-1.362281.001583Zm1.954676,9.980926c0,.996539.00195,1.944273-.002547,2.891977-.000543.114327.029937.146553.145176.145802.772257-.005039,1.544578-.004913,2.316838-.000097.113357.000705.146667-.028275.146439-.144452-.00364-1.856027-.003416-3.712064-.00039-5.568093.000178-.108589-.019373-.150944-.14085-.150044-.772249.00573-1.544598.006771-2.316815-.000737-.134997-.001313-.151143.046094-.150301.161958.004972.684122.002453,1.3683.002454,2.052458,0,.056121-.000001.112244-.000001.209271.222994-.408428.475548-.525378.850109-.426357.242623.064143.45516.352872.451329.613128-.004171.283465-.246417.579943-.527193.645219-.308586.071741-.576197-.065505-.774247-.430033Z"/>
      <path class="cls-6" d="m7.739665,19.49441c-1.443686,0-2.887385-.002675-4.331043.003653-.165816.000727-.225654-.021857-.224937-.212441.008457-2.250012.006601-4.500067.00273-6.750103-.000249-.144663.019395-.197167.189288-.207486.523118-.031769.992294-.228315,1.40708-.549834.089257-.069188.174057-.144161.26031-.217178.085275-.072192.158421-.048263.225558.026889.167098.187041.370263.324961.591706.439218.505003.260564,1.027165.373443,1.601551.275496.564645-.096287,1.039555-.345949,1.459599-.718999.094433-.083868.166412-.082003.257212.007241.566643.556931,1.25245.809018,2.040488.740083.523966-.045835.996398-.249474,1.407049-.584893.077092-.06297.156778-.123086.230432-.189852.06936-.062874.11365-.025635.172883.0197.215233.164732.417067.34924.664407.46849.496815.23953,1.00588.35034,1.566991.260222.574205-.092218,1.045561-.357692,1.474227-.725084.088497-.075847.16208-.08391.242919.001006.39787.417934.898229.637543,1.453624.750272.019618.003981.040202.003124.060313.004784q.317858.026217.317857.354038c0,2.202602-.001508,4.405208.003294,6.607799.000331.151882-.028147.203792-.193972.201469-.738643-.010348-1.477559-.008859-2.216261-.000912-.15339.00165-.201121-.030599-.200602-.194807.006419-2.03315.001995-4.066335.008185-6.099488.000519-.170511-.028885-.22438-.214916-.222693-1.15892.010513-2.318008.009037-3.476971.001204-.170529-.001151-.22339.028992-.222634.214925.008242,2.02636.003051,4.052772.009012,6.079149.000497.16881-.026384.224742-.214019.223485-1.450399-.009711-2.900893-.005353-4.351357-.005353Zm.026204-5.857299c-.82015,0-1.640324.00307-2.460427-.003118-.131773-.000992-.16788.032261-.167062.165922.005975.975919.005868,1.951908.000096,2.927829-.000782.132221.033091.167059.166194.166668,1.62673-.004778,3.253484-.004713,4.880215-.000094.131675.000374.167862-.032163.167044-.16582-.005974-.975919-.005868-1.951907-.000095-2.927828.000781-.132225-.033-.167843-.166214-.166776-.80654.00646-1.613159.003218-2.419752.003218Z"/>
      <path class="cls-3" d="m4.761621,6.478317c.453742,0,.907487-.001027,1.361225.000446.21784.000708.228033.014998.134224.217254-.332035.715884-.662384,1.432625-1.003921,2.143977-.081655.17007-.118371.337289-.113275.523272.011639.424783.000936.852739-.208284,1.235397-.362467.662942-.902802,1.047522-1.685698,1.093218-.57082.033316-1.032631-.1897-1.4174-.551021-.350425-.329071-.577325-.757052-.589029-1.263685-.004222-.182742.008352-.366468-.006112-.548203-.01326-.1666.042678-.307465.135528-.430413.304028-.402582.606079-.807875.917861-1.203006.302991-.383989.610719-.765788.913241-1.150999.05612-.071459.126967-.065953.200416-.066019.453741-.0004.907484-.000201,1.361226-.000219Z"/>
      <path class="cls-3" d="m17.189363,6.478318c.460668,0,.921338.000549,1.382004-.000453.094322-.000205.150517.018051.221989.111071.562455.732028,1.128185,1.462624,1.723425,2.167912.284674.337306.266891.71008.234027,1.088335-.021522.247678-.059012.500608-.186794.732225-.378977.686937-.926557,1.070381-1.733694,1.115803-.759469.04274-1.577025-.561799-1.844628-1.234083-.101387-.254705-.154471-.502973-.123793-.762288.05897-.498468-.147477-.918061-.350811-1.343572-.180955-.378683-.367783-.753824-.526449-1.14412-.072303-.177853-.162902-.365498-.282995-.528332-.033497-.045416-.083055-.101858-.055892-.163888.031718-.072434.107012-.036503.161614-.036865.460649-.003053.921327-.001741,1.381995-.001746Z"/>
      <path class="cls-8" d="m10.997526,6.47832c.454099,0,.908217.002373,1.362281-.001584.121317-.001058.179503.004845.197691.165828.050057.44308.151726.880056.212857,1.322226.082026.593307.223006,1.18138.181683,1.78751-.068318,1.002101-.59781,1.680908-1.626355,1.916828-.541164.124127-1.069126-.020769-1.513755-.386232-.487074-.400353-.767494-.896632-.768528-1.544965-.000893-.559255.043922-1.109183.156412-1.658467.09595-.46852.145856-.946535.213765-1.420688.018916-.132074.072531-.188712.221768-.184784.453783.011943.908083.004328,1.362181.004328Z"/>
      <path class="cls-6" d="m12.952202,16.459245c.198051.364528.465661.501774.774247.430033.280776-.065276.523022-.361754.527193-.645219.003831-.260256-.208706-.548985-.451329-.613128-.374561-.09902-.627116.01793-.850109.426357,0-.097027.000001-.15315.000001-.209271-.000001-.684158.002518-1.368336-.002454-2.052458-.000842-.115864.015304-.163271.150301-.161958.772218.007509,1.544567.006467,2.316815.000737.121477-.0009.141028.041455.14085.150044-.003027,1.856029-.00325,3.712066.00039,5.568093.000228.116177-.033082.145157-.146439.144452-.77226-.004816-1.54458-.004942-2.316838.000097-.115239.000751-.145719-.031475-.145176-.145802.004498-.947705.002547-1.895438.002547-2.891977Z"/>
      <path class="cls-1" d="m7.765868,13.637111c.806592,0,1.613211.003242,2.419752-.003218.133214-.001068.166995.034551.166214.166776-.005773.975921-.005879,1.951909.000095,2.927828.000818.133657-.035369.166193-.167044.16582-1.626731-.004619-3.253485-.004684-4.880215.000094-.133103.000391-.166976-.034447-.166194-.166668.005772-.975921.005879-1.951911-.000096-2.927829-.000818-.133661.035289-.166913.167062-.165922.820104.006188,1.640277.003118,2.460427.003118Z"/>
    </g>
    <path class="cls-7" d="m6.751497,6.505926h2.174917l-.401736,2.784448s.152383,2.244182-1.149797,2.3273c-1.30218.083118-1.925564-.983561-1.67621-2.091799s1.052826-3.019949,1.052826-3.019949Z"/>
    <path class="cls-7" d="m15.243554,6.505926h-2.174917s.401736,2.784448.401736,2.784448c0,0-.152383,2.244182,1.149797,2.3273s1.925564-.983561,1.67621-2.091799-1.052826-3.019949-1.052826-3.019949Z"/>
    <polygon class="cls-4" points="10.228594 14.111209 5.934172 14.374416 5.97573 16.299979 10.214741 15.524213 10.228594 14.111209"/>
    <path class="cls-2" d="m10.982658,5.831755v-.003544c1.6356,0,3.2712.000082,4.9068-.000037.754404-.000055,1.508836-.003988,2.263188.002627.127126.001115.1572-.038518.15405-.168454-.008372-.345449.009021-2.066519-.00573-2.411479-.020361-.476222-.23848-.748629-.701752-.748898-4.424991-.00257-8.849984-.001685-13.274976-.001232-.375064.000038-.628095.273824-.628967.677184-.000776.359235.010108,2.093614-.004631,2.452159-.007203.175228.044525.205976.198087.205609,2.364634-.005642,4.729284-.003935,7.093931-.003935Z"/>
    <g>
      <path class="cls-7" d="m8.565888,4.973268c-.132332,0-.257383-.066422-.375156-.199266l-.144852.164777c.062301.079485.142359.143268.233754.186236.092297.044836.193604.068033.296216.067827.144815.004226.285012-.051189.387801-.153282.100888-.097925.156429-.233445.153281-.374007.001024-.10136-.030843-.200321-.09082-.282037-.061567-.082516-.178317-.168225-.350249-.257129-.140507-.072297-.232986-.135398-.277439-.189302-.041284-.045842-.06468-.105015-.06591-.166694.000234-.066746.029463-.130095.08009-.17359.051818-.048633.120546-.075161.191602-.073958.118027,0,.238735.059908.362128.179722l.148299-.153281c-.167331-.161712-.333386-.242567-.498165-.242567-.130947-.004284-.258075.044495-.352547.135271-.092323.088418-.142985.211733-.139486.339518-.001499.099828.029131.197496.087372.278588.058631.081239.168611.164011.330705.247165.150727.076641.247677.140508.290853.191601.041932.049245.064659.111981.063995.176656-.000269.080626-.035838.157087-.097332.20923-.064359.059078-.149095.090941-.236436.088904"/>
      <rect class="cls-7" x="9.321181" y="3.353085" width=".230688" height="1.793392"/>
      <rect class="cls-7" x="9.807083" y="3.353084" width=".231072" height="1.793392"/>
      <rect class="cls-8" x="13.242119" y="3.353081" width=".230689" height="1.793392"/>
      <path class="cls-3" d="m9.435757,3.163782c.104927.000007.190343-.084383.191601-.189303,0-.105818-.085784-.191602-.191602-.191601-.050136-.000461-.098245.01978-.13297.055947-.036444.035487-.05668.084408-.055948.135271.001237.103883.085038.187855.188919.189302"/>
      <path class="cls-8" d="m9.921659,3.163782c.104927.000007.190343-.084383.191601-.189303,0-.105818-.085784-.191602-.191602-.191601-.050024-.000447-.098006.0198-.132589.055947-.036444.035487-.05668.084408-.055948.135271-.000566.050271.019684.098537.055949.133355.034475.036302.08253.056579.132589.055947"/>
      <path class="cls-7" d="m13.491199,2.838055c-.072576-.074073-.191459-.075286-.265532-.002709-.000915.000893-.001817.001797-.002711.00271-.036344.035525-.056442.084456-.055565.135271.004704.104655.093357.185681.198013.180977.098067-.004408.176567-.08291.180976-.180977.000732-.050863-.019504-.099784-.055949-.135271"/>
      <polygon class="cls-3" points="10.626754 3.353084 10.626754 3.583772 11.021837 3.583772 10.248917 4.357077 10.411779 4.519938 11.188531 3.743567 11.188532 4.145548 11.41922 4.145548 11.419219 3.682638 11.419219 3.353083 10.626754 3.353084"/>
      <path class="cls-8" d="m12.78419,3.582238c-.170129-.179203-.407442-.279101-.654513-.275523-.138048-.001914-.274429.030338-.396998.093886-.125175.068551-.232841.165068-.31461.282037v.462909s-.229921,0-.229921,0l.000003,1.558487h.229922l-.000002-.866039c.087811.110702.198366.201263.324191.265559.351792.168928.772231.093581,1.043462-.187004.176731-.178329.27353-.420743.268241-.671756.003957-.248735-.094244-.488213-.271693-.662559m-.067442,1.027368c-.060126.110138-.148987.201914-.25713.26556-.104228.062341-.223434.095188-.344883.095034-.124354.000038-.246556-.032461-.354463-.094269-.108263-.059073-.197756-.147371-.258279-.254831-.060865-.111015-.091893-.235919-.090053-.362511-.005204-.191446.067862-.376741.202332-.51311.129766-.135584.310536-.210396.498164-.206164.252158-.002196.485095.134445.606229.355612.127191.221247.127192.493427.000001.714674"/>
    </g>
  </g>
  <rect class="cls-5" width="22" height="22"/>
</svg>