<?xml version="1.0" encoding="UTF-8"?>
<svg id="Capa_1" data-name="Capa 1" xmlns="http://www.w3.org/2000/svg" viewBox="0 0 22 22">
  <defs>
    <style>
      .cls-1 {
        fill: #f6e3bc;
      }

      .cls-2 {
        fill: #fff;
      }

      .cls-3 {
        fill: #28404f;
      }

      .cls-4 {
        fill: #2cb095;
      }

      .cls-5 {
        fill: #f7d286;
      }

      .cls-6 {
        fill: #f9b442;
      }

      .cls-7 {
        fill: #eebb5d;
      }

      .cls-8 {
        fill: #fcebe9;
      }

      .cls-9 {
        fill: #909090;
      }

      .cls-10 {
        fill: #bec3c4;
      }

      .cls-11 {
        fill: #fff8dd;
      }

      .cls-12 {
        fill: #e74c38;
      }

      .cls-13 {
        fill: #d1d5d6;
      }

      .cls-14 {
        fill: none;
      }

      .cls-15 {
        fill: #f3cb20;
      }

      .cls-16 {
        fill: #c75c4c;
      }

      .cls-17 {
        fill: #ebf0f1;
      }
    </style>
  </defs>
  <g>
    <path class="cls-17" d="m17.65,5.324997s0,.05.01.07v14.120001c-.08.059999-.16.120001-.24.18-.49,0-.97.030001-1.46.030001-3.32.01-6.64.02-9.96.030001h-.94c-.16-.02-.31-.030001-.47-.049999-.04-.02-.08-.049999-.12-.07h0V2.495001l.09-.15s.02-.05.02-.07c.72,0,1.44.01,2.16,0,2.51,0,5.01-.02,7.52-.03.03.01.07.03.11.04,0,.19.11.15.23.1.04.04.09.08.13.12,0,.74.02,1.47,0,2.21-.01.36.12.5.47.45h.24c.66-.06,1.33.13,1.98-.1.04.04.08.08.12.11.03.05.06.11.09.16l.02-.010004Zm-4.89,12.34s.01.07.02.1c.06.36.34.24.54.22.25-.02.42-.16.4-.45h2.32c.14-.07.13-.15,0-.23h-1.9c-.18,0-.41-.06-.43.24-.19-.24-.41-.47-.47-.79.13-.25.32-.52-.15-.6-.18-.03-.4-.06-.52.15-.14.25.12.37.2.54v.34c-.17.16-.18.32-.02.5l.010001-.02Zm-6.18-6.54c.59.16,1.17.22,1.76-.02,0-.03,0-.06-.01-.09h.02c.16-.03.22-.13.22-.29v-3.83c0-.17-.05-.29-.25-.32-.62-.08-1.24-.08-1.85.12,0,.04,0,.07.01.11l-.03.12c-.03.05-.08.1-.08.15v3.75c0,.06.08.12.12.19h.01l.09.12-.01-.009999Zm4.68-.12c.62.18,1.24.22,1.85-.03v-2.04c0-.16.13-.42-.2-.45-.48-.07-.96-.09-1.44,0-.08.02-.15.04-.23.06l-.12.24h-.1c-.2-.21-.09-.48-.11-.72-.02-.19.05-.4-.22-.47-.46-.21-.97,0-1.43-.12-.55-.15-.58.12-.58.53.01.85,0,1.71,0,2.56,0,.18-.08.4.14.52.03,0,.06.02.09.03.54.21,1.1.06,1.64.09.14,0,.2-.09.23-.21.04,0,.07-.01.11-.02h.35l.019999.029999Zm.34-7.94c.45-.25,1,.04,1.45-.26-.48-.04-.96-.19-1.44.03h-2.57v.15c.85.18,1.71.05,2.57.08h-.009999Zm1.09,11.899999c-.03.27-.37.57.05.79.17.09.45.13.58-.06.17-.26-.02-.5-.18-.71.12-.07.17-.19.25-.3.11-.17.11-.31-.03-.46-.13-.13-.25-.24-.44-.13-.16.09-.39.14-.36.38.02.16.09.32.14.48l-.010001.010001Zm-3.29-11.769999c-.38-.07-.53.09-.47.46.02.31.27.23.44.23h3.73c.12,0,.29.06.31-.18-.36-.12-.73-.03-1.09-.06-.04-.07-.09-.15-.13-.22-.91-.39-1.86-.18-2.79-.22v-.01Zm4.19,1.15c-.08-.1-.2-.11-.32-.11h-7.81c-.18,0-.36-.01-.39.23-.1.49.1.6.58.59,2.46-.03,4.92-.03,7.38,0,.47,0,.62-.14.54-.58v-.14l.02.01Zm-3.01,9.58c-.45-.34-.93-.56-1.51-.45-.98-.23-2.1.6-2.55,1.75-.34.88.07,2.14.89,2.77.48.35,1.02.559999,1.62.58.23.030001.47.07.6-.200001.3,0,.59,0,.8-.25.35.06.52-.21.71-.42.63-.71.74-1.6.53-2.440001-.13-.54-.33-1.23-1.1-1.33l.01-.009998Zm2.97-3.04c.44.32.94.08,1.4.15.39.06.55-.1.54-.51-.02-1.54-.02-3.07,0-4.61,0-.39-.1-.57-.52-.54-.39.03-.78,0-1.17-.01h-.1c-.22.16-.14.39-.14.59-.01.95-.02,1.9-.03,2.85-.12.5-.13.99,0,1.49v.37c-.09.07-.08.15,0,.22h.020001Zm-3.39,1.400001c1.85-.02,3.37.05,4.88-.1.16-.02.38.05.41-.21.03-.31-.21-.26-.4-.28-1.17-.13-2.349999-.04-3.52-.06-.69-.01-1.4.15-2.07.04-.82-.14-1.62.18-2.43-.04-.17-.05-.56-.03-.55.35.01.37.32.31.57.31h3.1l.01-.01ZM6.81,3.764997h1.39c.29,0,.37-.13.36-.39,0-.22,0-.43-.32-.43h-2.85c-.31,0-.33.19-.33.42,0,.25.05.41.35.4.46-.01.93,0,1.39,0h.01Zm8.930001,11.72v-.16h-1.73c-.09,0-.15.06-.13.15.02.1.11.2.2.17.54-.19,1.12,0,1.660001-.16Zm.46-1.01v-.16c-.76-.09-1.52-.05-2.27.16h2.28-.009999Zm-2.3,1.96h1.75c-.59.02-1.16-.3-1.75,0Z"/>
    <path class="cls-10" d="m15.22,5.164997c-.35.05-.48-.09-.47-.45.02-.74,0-1.47,0-2.21.1-.02.19,0,.26.07.77.87,1.74,1.54,2.42,2.48-.65.23-1.32.05-1.98.1-.08-.11-.16-.11-.24,0l.009999.01Z"/>
    <path class="cls-11" d="m4.49,2.494997v17.139999c-.2-.110001-.14-.309999-.14-.469999-.01-5.440001-.01-10.89-.01-16.33,0-.12.03-.23.04-.35h.1l.01.01Z"/>
    <path class="cls-1" d="m14.619999,2.384997c-.11.05-.22.09-.23-.1.11-.03.2-.03.23.1Z"/>
    <path class="cls-1" d="m4.49,2.494997h-.1c.02-.11.1-.14.2-.15-.03.05-.06.1-.09.15h-.01Z"/>
    <path class="cls-7" d="m17.65,5.324997c-.03-.05-.06-.11-.09-.16.03.05.06.11.09.16Z"/>
    <path class="cls-11" d="m4.6,19.704996s-.07.030001-.11.030001c0-.030001-.01-.07,0-.1.04.02.08.049999.12.07h-.01Z"/>
    <path class="cls-4" d="m13.81,5.344997c.39,0,.78.04,1.17.01.42-.03.52.15.52.54-.02,1.54-.02,3.07,0,4.61,0,.42-.15.57-.54.51-.47-.07-.96.17-1.4-.15v-.59c.05-.5.06-.99,0-1.49,0-.95.01-1.9.03-2.85,0-.2-.08-.43.14-.59l.05.02.05-.02h-.02Z"/>
    <path class="cls-4" d="m7.4,17.984997c-.82-.63-1.23-1.88-.89-2.77.45-1.15,1.57-1.97,2.55-1.75,0,.81-.06,1.62.03,2.43l-.06.12c-.54.65-1.09,1.31-1.63,1.96v.01Z"/>
    <path class="cls-12" d="m9.03,16.024997l.06-.12h.07c.27-.16.46-.36.48-.68h0c.37-.11.52-.42.66-.73h0c.18-.05.28-.2.38-.33.4.27.59.68.68,1.14.01.56,0,1.12-.12,1.67-.1.51-.57.76-.84,1.15-.22.250001-.51.259999-.8.250001-.38.030001-.48-.15-.48-.51,0-.57.1-1.15-.06-1.71-.01-.04-.03-.08-.04-.12l.01-.010001Z"/>
    <path class="cls-10" d="m10.16,12.284997h-3.1c-.25,0-.56.06-.57-.31-.01-.38.37-.4.55-.35.81.22,1.61-.1,2.43.04.67.11,1.37-.05,2.07-.04,1.17.02,2.349999-.07,3.52.06.18.02.43-.03.4.28-.03.26-.24.19-.41.21-1.51.15-3.02.09-4.88.1l-.009999.01Z"/>
    <path class="cls-3" d="m13.579999,4.484997c.08.44-.07.58-.54.58-2.46-.03-4.92-.03-7.38,0-.48,0-.69-.1-.58-.59.12-.01.23-.02.35-.03.23,0,.46.03.7.03,2.49,0,4.98.01,7.47.02l-.02-.01Z"/>
    <path class="cls-3" d="m12.9,8.484997c.33.03.2.28.2.45.01.68,0,1.36,0,2.04-.62,0-1.24.02-1.85.03h0c0-.82-.01-1.63-.02-2.45.08-.02.15-.04.23-.06.48.08.96.1,1.44,0v-.01Z"/>
    <path class="cls-10" d="m6.81,3.764997h-1.39c-.3,0-.35-.15-.35-.4,0-.23.02-.42.33-.42h2.85c.32,0,.31.21.32.43,0,.26-.07.4-.36.39-.46-.01-.93,0-1.39,0h-.01Z"/>
    <path class="cls-3" d="m9.03,16.024997s.03.08.04.12c-.12.81-.03,1.62-.05,2.43-.6-.030001-1.13-.24-1.62-.58.54-.65,1.09-1.309999,1.63-1.96v-.01Z"/>
    <path class="cls-15" d="m9.16,15.894997h-.07c-.08-.81-.03-1.62-.03-2.43.58-.11,1.07.1,1.51.45v.23c-.23,0-.27.16-.27.35h0c-.35.13-.63.32-.66.73h0c-.3.12-.5.32-.48.67Z"/>
    <path class="cls-8" d="m10.579999,14.144997v-.23c.77.11.97.8,1.1,1.33.2.84.1,1.73-.53,2.440001-.19.21-.36.48-.71.42.27-.39.74-.63.84-1.15.36-.53.28-1.1.12-1.67-.09-.46-.28-.86-.68-1.14-.04,0-.08,0-.12-.01l-.02.009999Z"/>
    <path class="cls-8" d="m6.47,6.694997c.6-.2,1.22-.21,1.85-.12.2.03.25.15.25.32v3.829999c0,.16-.06.26-.22.28.01-.13.02-.25.04-.38.11-.18.11-.36,0-.54v-2.5c.09-.1.09-.21,0-.31-.02-.17-.04-.34-.06-.52-.61-.19-1.23-.05-1.85-.08l-.01.02Z"/>
    <path class="cls-10" d="m12.309999,3.644997c.36.03.73-.06,1.09.06-.02.23-.19.17-.31.18-1.24,0-2.49.01-3.73,0-.18,0-.42.08-.44-.23,1.13,0,2.26,0,3.390001-.01Z"/>
    <path class="cls-2" d="m5.42,4.434997c-.12.01-.23.02-.35.03.03-.25.22-.23.39-.23h7.81c.12,0,.23,0,.32.11h-7.55c-.21,0-.43-.07-.62.09Z"/>
    <path class="cls-13" d="m5.42,4.434997c.19-.15.41-.08.62-.09h7.55v.14c-2.49,0-4.98-.01-7.47-.02-.23,0-.46-.02-.7-.03Z"/>
    <path class="cls-13" d="m12.309999,3.644997c-1.13,0-2.26,0-3.39.01-.06-.37.09-.53.47-.46.04.3.28.21.46.22h2.33c.04.07.09.15.13.22v.01Z"/>
    <path class="cls-16" d="m8.38,7.594997v3.04c-.01.13-.02.25-.04.38h-.02c-.61,0-1.22-.01-1.83-.02l-.01.01c.01-.05.02-.09.03-.14.43,0,.85,0,1.28.02.33.02.44-.12.43-.44-.02-.6,0-1.2,0-1.81-.01-.54.23-1.23-.09-1.58-.36-.38-1.06-.1-1.62-.13h-.05l.03-.12c.61,0,1.22-.02,1.84-.03.02.17.04.34.06.52v.31l-.01-.010001Z"/>
    <path class="cls-15" d="m12.68,14.954997c-.05-.16-.12-.32-.14-.48-.03-.25.2-.29.36-.38.19-.11.32,0,.44.13.14.15.14.28.03.46-.07.11-.13.23-.25.3-.15,0-.29-.01-.44-.02v-.01Z"/>
    <path class="cls-11" d="m8.829999,11.094997c-.23-.13-.14-.34-.14-.52v-2.56c0-.41.03-.68.58-.53.46.13.96-.09,1.43.12l-.03.03h-1.61c-.1-.02-.18-.02-.2.11,0,.97,0,1.93-.01,2.9v.44l-.02.010001Z"/>
    <path class="cls-11" d="m10.91,10.994997s-.07.01-.11.02c-.02-.02-.03-.04-.05-.05v-2.17c.05-.17.08-.33-.03-.48-.02-.22-.04-.45-.06-.67l.03-.03c.27.06.2.28.22.47.03.24-.09.51.11.72v1.63c-.16.13-.1.31-.11.47v.11-.02Z"/>
    <path class="cls-8" d="m12.77,17.164997v-.34c.17.04.31-.04.46-.09.06.32.28.55.47.79h0c.03.29-.15.43-.4.45-.2.02-.48.14-.54-.22.04,0,.09,0,.13-.01h.2c.08.01.13-.02.11-.11.05-.34-.08-.5-.44-.43v-.04h.009999Z"/>
    <path class="cls-10" d="m11.6,3.054997c-.86-.04-1.72.1-2.57-.08v-.15h2.57v.23Z"/>
    <path class="cls-10" d="m12.18,3.414997h-2.33c-.18,0-.41.08-.46-.22.93.05,1.88-.16,2.79.22Z"/>
    <path class="cls-4" d="m12.68,14.954997c.15,0,.29.01.44.02.16.21.36.45.18.71-.13.19-.4.15-.58.06-.42-.22-.08-.52-.05-.79h.01Z"/>
    <path class="cls-10" d="m13.71,17.534997c.03-.29.25-.24.43-.24h1.9v.23h-2.32l-.01.01Z"/>
    <path class="cls-10" d="m15.739999,15.484997c-.54.17-1.12-.03-1.66.16-.09.03-.18-.07-.2-.17-.02-.09.05-.15.13-.15h1.73v.16Z"/>
    <path class="cls-10" d="m16.199999,14.474997h-2.28c.75-.21,1.51-.25,2.27-.16v.16h.009999Z"/>
    <path class="cls-3" d="m13.23,16.744997c-.15.05-.29.13-.46.09-.08-.18-.35-.29-.2-.54.12-.21.34-.18.52-.15.47.08.28.36.15.6h-.009999Z"/>
    <path class="cls-8" d="m6.51,10.864997s-.02.09-.03.14c-.04-.06-.11-.12-.12-.19v-3.75c0-.05.05-.1.08-.15h.05v3.93l.02.02Z"/>
    <path class="cls-7" d="m8.829999,11.094997v-.2c.03,0,.06,0,.09-.01.58.05,1.16-.08,1.73.07-.55.35-1.16.07-1.73.18-.03-.02-.06-.03-.09-.03v-.01Z"/>
    <path class="cls-16" d="m9.02,18.564997c.02-.81-.07-1.62.05-2.43.16.56.06,1.14.06,1.71,0,.36.1.55.48.509999-.13.27-.37.24-.6.200001l.01.01Z"/>
    <path class="cls-13" d="m11.6,3.054997v-.23c.47-.22.95-.07,1.440001-.03-.45.3-1,0-1.45.26h.009999Z"/>
    <path class="cls-10" d="m13.9,16.434997c.59-.3,1.16.02,1.75,0h-1.75Z"/>
    <path class="cls-10" d="m11.24,8.544997c0,.82.01,1.63.02,2.45h-.13v-2.21l.12-.24h-.01Z"/>
    <path class="cls-2" d="m11.12,8.794997v2.21h-.22v-.11c.16-.13.1-.31.11-.47v-1.63h.11Z"/>
    <path class="cls-11" d="m8.92,11.134997c.57-.11,1.18.17,1.73-.18h.09c.02.02.03.03.05.05-.03.12-.1.22-.23.21-.55-.03-1.11.12-1.64-.09v.01Z"/>
    <path class="cls-1" d="m6.49,10.984997c.61,0,1.22.01,1.83.02,0,.03.01.06.01.09-.59,0-1.17.01-1.76.02-.03-.04-.06-.09-.09-.13h.01Z"/>
    <path class="cls-13" d="m11.25,10.994997c.62,0,1.24-.02,1.85-.03-.61.25-1.23.21-1.85.03Z"/>
    <path class="cls-1" d="m8.32,6.774997c-.61,0-1.22.02-1.84.03-.01-.04-.02-.07-.01-.11.62.03,1.24-.11,1.85.08Z"/>
    <path class="cls-8" d="m6.58,11.124997c.59,0,1.17-.01,1.76-.02-.58.23-1.17.18-1.76.02Z"/>
    <path class="cls-13" d="m13.55,8.794997c.06.5.05.99,0,1.49-.13-.5-.12-.99,0-1.49Z"/>
    <path class="cls-9" d="m12.9,8.484997c-.48.11-.96.09-1.44,0,.48-.09.96-.07,1.44,0Z"/>
    <path class="cls-16" d="m12.76,17.664997c-.17-.17-.16-.34.02-.5v.04c0,.14,0,.28.01.42l-.04.03.009999.01Z"/>
    <path class="cls-13" d="m16.029999,17.524997v-.23c.12.08.13.16,0,.23Z"/>
    <path class="cls-13" d="m13.55,10.664997v.22c-.09-.07-.09-.14,0-.22Z"/>
    <path class="cls-13" d="m15.22,5.164997c.08-.11.16-.11.24,0h-.24Z"/>
    <path class="cls-10" d="m13.81,5.344997l-.05.02s-.05-.01-.05-.02h.1Z"/>
    <path class="cls-16" d="m12.909999,17.754997s-.09,0-.13.01c0-.03,0-.07-.02-.1l.04-.03c.04.04.07.08.110001.12Z"/>
    <path class="cls-6" d="m9.65,15.224997c.04-.41.31-.6.66-.73-.14.31-.29.62-.66.73Z"/>
    <path class="cls-16" d="m11.38,15.304997c.17.57.25,1.13-.12,1.67.12-.55.13-1.11.12-1.67Z"/>
    <path class="cls-6" d="m9.16,15.894997c-.02-.35.19-.54.48-.67-.03.32-.22.52-.48.67Z"/>
    <path class="cls-6" d="m10.579999,14.144997s.08,0,.12.01c-.11.14-.2.28-.38.33,0-.19.03-.34.27-.35l-.01.01Z"/>
    <path class="cls-1" d="m8.38,10.624997v-.54c.11.18.11.36,0,.54Z"/>
    <path class="cls-1" d="m8.38,7.594997v-.31c.1.1.09.2,0,.31Z"/>
    <path class="cls-12" d="m6.5,7.154997v-.23c.55.03,1.26-.25,1.62.13.33.35.08,1.04.09,1.58.02.6,0,1.2,0,1.81,0,.32-.1.46-.43.44-.43-.02-.85-.02-1.28-.02v-.21c.14-1.16.13-2.33,0-3.49v-.009999Z"/>
    <path class="cls-15" d="m10.75,10.964997h-.09c-.57-.15-1.15-.02-1.73-.07-.03-.08-.07-.15-.1-.23,0-.97,0-1.93.01-2.9.07-.04.13-.07.2-.11h1.61c.02.22.04.45.06.67-.05.17-.08.33.03.48v2.170001l.01-.010001Z"/>
    <path class="cls-5" d="m9.039999,7.644997c-.07.04-.13.07-.2.11.02-.13.1-.13.2-.11Z"/>
    <path class="cls-5" d="m8.829999,10.654997c.03.08.07.15.1.23-.03,0-.06,0-.09.01v-.24h-.01Z"/>
    <path class="cls-5" d="m10.75,8.784997c-.11-.15-.09-.32-.03-.48.11.15.09.32.03.48Z"/>
    <path class="cls-17" d="m11.02,10.414997c-.01.16.05.35-.11.47,0-.16-.06-.35.11-.47Z"/>
    <path class="cls-12" d="m12.909999,17.754997s-.07-.08-.11-.12c0-.14,0-.28-.01-.42.36-.07.49.09.44.43l-.11.11h-.21Z"/>
    <path class="cls-16" d="m13.11,17.754997l.11-.11c.01.09-.03.12-.11.11Z"/>
    <path class="cls-16" d="m6.5,7.154997c.14,1.16.14,2.33,0,3.49v-3.49Z"/>
  </g>
  <rect class="cls-14" width="22" height="22"/>
</svg>