<?xml version="1.0" encoding="UTF-8"?>
<svg id="Capa_1" data-name="Capa 1" xmlns="http://www.w3.org/2000/svg" viewBox="0 0 22 22">
  <defs>
    <style>
      .cls-1 {
        fill: #fff;
      }

      .cls-2 {
        fill: #eec10f;
      }

      .cls-3 {
        fill: #fddfbc;
      }

      .cls-4 {
        fill: #488331;
      }

      .cls-5 {
        fill: #df8601;
      }

      .cls-6 {
        fill: #f19001;
      }

      .cls-7 {
        fill: #0e4727;
      }

      .cls-8 {
        fill: #84bc43;
      }

      .cls-9 {
        fill: #a5cb72;
      }

      .cls-10 {
        fill: #ffea99;
      }

      .cls-11 {
        fill: #4e9133;
      }

      .cls-12 {
        fill: #5fad30;
      }

      .cls-13 {
        fill: none;
      }

      .cls-14 {
        fill: #81bb4a;
      }

      .cls-15 {
        fill: #5eac30;
      }

      .cls-16 {
        fill: #fabf75;
      }

      .cls-17 {
        fill: #f6a841;
      }

      .cls-18 {
        fill: #f6f6f4;
      }
    </style>
  </defs>
  <g>
    <path class="cls-16" d="m19.19317,9.692538c0,.05.01.1.01.16v8.38h-1.14c.38.3.72.57,1.06.84-.09.15-.23.16-.38.16H3.18317c-.14,0-.28,0-.34-.16.41-.219999.72-.57,1.1-.83.06-.04.03-.08,0-.11-.1-.11-.11-.25-.11-.39v-7.11c0-.07-.02-.15.04-.21.14.09.29.19.43.27.41.25.79.54,1.22.76.01.03.02.06.06.06.04.03.08.06.13.09,0,.05.05.03.07.04h0s.01.04.04.04c.32.2.64.4.96.6.01.01.02.02.04.04h0s.01.04.04.04c.11.06.21.12.32.18.21.19.46.33.71.47.02.04.05.04.08.05.04.06.1.08.16.11.02.05.06.08.12.08.01.01.02.02.04.04.01.01.03.02.04.03.33.2.65.41.96.64,0,.04-.04.07-.07.09-.6.48-1.2.95-1.79,1.43-.86.69-1.72,1.37-2.57,2.07-.25.21-.53.38-.79.67h13.93s-.05-.06-.07-.08c-.77-.61-1.54-1.22-2.3-1.83-.8-.64-1.61-1.28-2.400001-1.93-.17-.14-.39-.22-.52-.41.39-.27.79-.53,1.18-.8.33-.21.66-.41.98-.62.5-.33,1.01-.64,1.5-.99.04-.02.09-.03.13-.06.37-.24.75-.48,1.12-.74.17-.12.37-.19.5-.36.1,0,.15-.07.23-.12.02-.01.03-.03.05-.04h0c.3-.14.55-.34.830001-.51l-.039999-.040001Z"/>
    <path class="cls-15" d="m17.86317,8.192538c.52-.41.09-.99.09-.99-.2-.27-.4-.54-.61-.81-.6-.8-1.19-1.61-1.8-2.41-.29-.38-.54-.81-.91-1.12,0,0-.44-.27-.95.1-.01.01-.03.02-.04.03l-2.26,1.67c-.53.4-1.05.8-1.58,1.19-1.43,1.07-2.85,2.13-4.28,3.2-.5.37-.99.74-1.49,1.12,0,.04.01.07.05.08.1,0,.18-.07.27-.09.02-.06.02-.15.12-.07h.08c.01-.01.02-.02.04-.04h.04c0-.06.06-.08.11-.1.83-.44,1.65-.88,2.48-1.32.46-.25.93-.5,1.39-.75-.03-.06.02-.03.04-.04,0-.08.06-.08.12-.08,0-.06.04-.09.08-.12.93-.69,1.86-1.38,2.79-2.07.35-.26.69-.52,1.04-.78.28-.21.38-.22.69-.03.19.12.41.18.64.19.03,0,.06,0,.08-.04.08-.17.4-.33.55-.28.04-.03.08-.05.12-.08.04-.12.1-.19.24-.12.47-.13.86.11,1.07.54.54,1.06,1.12,2.09,1.68,3.14.03.05.05.1.11.1m-3.88-3.99c-.1,0-.25-.19-.25-.3,0-.17.15-.29.32-.28.17,0,.27.13.27.3s-.15.28-.34.28Z"/>
    <path class="cls-8" d="m14.003169,4.932538s.06,0,.08-.04c.2-.07.38-.16.55-.28.04-.03.08-.05.12-.08.09-.02.17-.06.24-.12.47-.13.86.11,1.07.54.54,1.06,1.12,2.09,1.68,3.14.03.05.05.1.11.1,0,.17.1.3.18.44.04.06.07.13.1.19,0,.03,0,.04.03.04.03.09.08.18.15.25.2.36.24.72.04,1.1h0c-.02.01-.03.03-.05.04-.07.05-.13.12-.23.12-.06-.17-.12-.35-.18-.52l-1.02-3c-.04-.11-.07-.22-.16-.32-.33-.36-.64-.41-1.13-.23-.29.11-.57.25-.89.26-.25-.13-.48-.29-.69-.47-.06-.06-.17-.06-.26-.02-.1.03-.17.09-.26.14-1.16.62-2.33,1.24-3.49,1.87-.12.06-.25.11-.34.23-.01.02-.02.06-.04.06-.55.19-1.09.38-1.64.57-.77.27-1.54.54-2.31.8-.35.12-.69.25-1.06.31,0-.06.06-.08.11-.1.83-.44,1.65-.88,2.48-1.32.46-.25.93-.5,1.39-.75l.04-.04h0c.05,0,.1-.03.12-.08h0c.18-.05.34-.15.5-.24,1.36-.73,2.71-1.45,4.06-2.19.23-.13.48-.21.68-.39l.02-.01Zm1.02.31c-.18,0-.27.09-.27.26,0,.19.11.3.29.3.14,0,.27-.14.27-.28,0-.18-.1-.28-.29-.27v-.01Z"/>
    <path class="cls-17" d="m3.87317,10.402538c-.06.06-.04.14-.04.21v7.11c0,.14,0,.28.11.39.03.04.06.07,0,.11-.38.26-.69.61-1.1.830001-.12-.1-.06-.24-.07-.36v-8.96c0-.02.01-.03.02-.05h0c.12.08.24.15.36.22.22.13.4.32.66.37,0,.03,0,.06.04.08v.04l.02.009999Z"/>
    <path class="cls-5" d="m10.59317,4.652538s-.1,0-.48.24c-.48.32-.97.64-1.45.95l-5.85,3.85c.12.08.24.15.36.22.22.13.4.32.66.37.07-.04.14-.08.2-.12.5-.37.99-.75,1.49-1.12,1.43-1.07,2.85-2.13,4.28-3.2.53-.4,1.05-.8,1.58-1.19-.26-.07-.53-.05-.79,0Z"/>
    <path class="cls-6" d="m19.12317,19.062538c-.34-.27-.67-.53-1.059999-.84h1.139999c0,.28.08.57-.08.84Z"/>
    <path class="cls-2" d="m18.36317,10.202538c.2-.37.16-.74-.04-1.1.11.06.22.13.32.19,0,.02.01.04.04.03.16.13.360001.21.51.36-.280001.17-.53.38-.83.51v.01Z"/>
    <path class="cls-18" d="m18.683169,9.332538s-.04,0-.04-.03c.01.01.03.02.04.03Z"/>
    <path class="cls-10" d="m2.80317,9.692538s-.01.03-.02.05c-.01-.02,0-.04.02-.05Z"/>
    <path class="cls-18" d="m18.173169,8.862538s-.04-.02-.03-.04c.01.01.02.03.03.04Z"/>
    <path class="cls-3" d="m12.69317,13.932538c.13.19.35.27.52.41.79.65,1.6,1.29,2.4,1.93.77.61,1.54,1.22,2.3,1.83.03.02.04.05.07.08H4.06317c.26-.29.54-.46.79-.67.85-.69,1.71-1.38,2.57-2.07.6-.48,1.19-.95,1.79-1.43.03-.03.06-.05.07-.09.03.01.06.02.09.03.25.15.49.3.74.45.47.38,1.14.44,1.75.05.28-.18.55-.35.83-.53v.01Z"/>
    <path class="cls-14" d="m10.11317,14.422538c-.25-.15-.49-.3-.74-.45-.03-.02-.06-.02-.09-.03-.31-.23-.63-.45-.96-.64-.01-.01-.03-.02-.04-.03-.01-.01-.02-.02-.04-.04,0-.09-.06-.08-.12-.08-.06-.03-.12-.05-.16-.11v-.13c.02-.12.11-.22.07-.36-.05-.18-.15-.32-.35-.35-.24-.04-.39.06-.51.33-.11-.06-.21-.12-.32-.18-.01-.01-.02-.02-.04-.03h0c-.01-.01-.02-.02-.04-.04-.32-.2-.64-.4-.96-.6-.01-.01-.02-.02-.04-.03h0c-.02-.01-.05-.03-.07-.04-.04-.03-.08-.06-.13-.09v-.07c.04-.16.04-.31.05-.47,0-.2.1-.35.3-.42.83-.28,1.67-.57,2.5-.86.76-.26,1.52-.53,2.28-.79.4-.14.81-.27,1.22-.4.02-.01.03-.02.05-.03.17-.06.35-.11.52-.17.4-.14.8-.28,1.2-.42.22-.07.43-.14.65-.21.12.07.25.04.37.04.06.06.13.11.18.18.27.3.6.45,1,.47,0,.03.01.06.05.07.05,0,.06-.03.07-.07.35-.02.46.06.55.4.03.1.06.2.1.3.14.41.29.82.42,1.24.08.26.01.36-.21.51-.26.18-.46.41-.54.73-.48.36-1,.66-1.5.99-.32.21-.65.42-.98.62-.48.08-.9.31-1.36.44-.46.13-.91.29-1.36.46-.35.13-.71.21-1.05.38l.029998-.019999Zm.87-4.65c-.94-.07-1.74.75-1.74,1.69s.77,1.72,1.7,1.73c.85,0,1.79-.71,1.72-1.86-.05-.78-.84-1.63-1.68-1.55v-.010001Zm3.54.58c0-.24-.15-.38-.42-.38-.23,0-.38.16-.38.41,0,.24.19.43.42.42.19,0,.37-.22.37-.45h.01Z"/>
    <path class="cls-9" d="m11.933169,8.502538c-.41.13-.81.26-1.22.4-.76.26-1.52.53-2.28.79-.83.29-1.67.57-2.5.86-.2.07-.29.22-.3.42,0,.16,0,.32-.05.47h-.05c-.43-.22-.81-.51-1.22-.76-.15-.09-.29-.18-.43-.27v-.04c.07-.04.14-.08.21-.12.1,0,.18-.07.27-.09.06,0,.1-.02.12-.07h.08c.01-.01.02-.02.04-.04h.04c.37-.06.71-.2,1.06-.31.77-.26,1.54-.53,2.31-.8.55-.19,1.09-.38,1.64-.57.02,0,.02-.04.04-.06.08.01.16-.01.23-.04,1.4-.48,2.79-.95,4.190001-1.43.21-.07.45-.12.63-.27.32,0,.6-.15.89-.26.49-.18.8-.13,1.13.23.08.09.12.21.16.32.34,1,.68,2,1.02,3,.06.17.12.35.18.52-.12.18-.33.25-.5.36-.37.25-.74.49-1.12.74-.04.02-.08.04-.13.06.08-.32.28-.55.54-.73.22-.15.28-.25.21-.51-.13-.42-.28-.82-.42-1.24-.03-.1-.07-.2-.1-.3-.1-.33-.21-.42-.55-.4h-.12c-.4-.01-.73-.17-1-.47-.06-.06-.12-.12-.18-.18-.11-.12-.24-.1-.37-.04-.22.07-.44.14-.65.21-.4.14-.8.28-1.2.42-.17.06-.35.12-.52.17-.02.01-.03.02-.05.03l-.03-.000002Zm4.139999-1.23c0-.17-.11-.28-.29-.28-.15,0-.31.15-.31.28,0,.11.16.3.25.3.22,0,.35-.11.34-.31l.01.01Z"/>
    <path class="cls-9" d="m10.11317,14.422538c.33-.18.7-.25,1.05-.38.45-.16.9-.33,1.36-.46s.88-.36,1.36-.44c-.39.27-.79.53-1.18.8-.28.18-.56.35-.83.53-.6.39-1.28.34-1.75-.05h-.009999Z"/>
    <path class="cls-4" d="m7.17317,12.522539c.12-.27.27-.37.51-.33.2.03.3.17.35.35.04.13-.05.24-.07.36-.03.03-.06.06-.08.09-.25-.14-.49-.28-.71-.47Z"/>
    <path class="cls-12" d="m7.88317,12.992538s.06-.06.08-.09v.13c-.03,0-.06-.01-.08-.05v.01Z"/>
    <path class="cls-12" d="m8.12317,13.142538c.06,0,.12,0,.12.08-.06,0-.1-.03-.12-.08Z"/>
    <path class="cls-12" d="m5.71317,11.592538s.05.03.07.04c-.03-.01-.06,0-.07-.04Z"/>
    <path class="cls-12" d="m5.53317,11.442539h.05v.07c-.04,0-.04-.04-.06-.06l.01-.009999Z"/>
    <path class="cls-2" d="m18.31317,10.242538s.03-.03.05-.04c-.02.01-.03.03-.05.04Z"/>
    <path class="cls-12" d="m5.78317,11.632538s.02.02.04.03c-.02,0-.04-.01-.04-.03Z"/>
    <path class="cls-12" d="m6.82317,12.312539s.02.02.04.03c-.02,0-.03-.01-.04-.03Z"/>
    <path class="cls-12" d="m8.28317,13.262538s.03.02.04.03c-.01-.01-.03-.02-.04-.03Z"/>
    <path class="cls-12" d="m6.78317,12.272539s.02.02.04.04c-.01-.01-.02-.02-.04-.04Z"/>
    <path class="cls-11" d="m14.003169,4.932538c-.2.18-.45.27-.68.39-1.35.74-2.7,1.46-4.06,2.19-.16.09-.32.19-.5.24,0-.06.04-.09.08-.12.93-.69,1.86-1.38,2.789999-2.07.35-.26.69-.52,1.04-.78.28-.21.38-.22.69-.03.19.12.41.18.64.19v-.01Z"/>
    <path class="cls-7" d="m14.32317,3.922538c0,.17-.15.28-.34.28-.1,0-.25-.19-.25-.3,0-.17.15-.29.32-.28.17,0,.27.13.27.3Z"/>
    <path class="cls-12" d="m14.633169,4.612538c-.17.12-.36.21-.55.28.08-.17.4-.33.55-.28Z"/>
    <path class="cls-12" d="m14.99317,4.412538c-.07.06-.15.1-.24.12.04-.12.1-.19.24-.12Z"/>
    <path class="cls-12" d="m4.08317,10.252538c-.07.04-.14.08-.21.12-.03-.02-.04-.05-.04-.08.07-.04.14-.08.2-.12,0,.04.01.07.05.08Z"/>
    <path class="cls-12" d="m4.47317,10.092538s-.06.08-.12.07c.02-.06.02-.15.12-.07Z"/>
    <path class="cls-11" d="m8.763169,7.752538c-.02.05-.07.08-.12.08,0-.08.06-.08.12-.08Z"/>
    <path class="cls-11" d="m8.64317,7.822538l-.04.04c-.03-.06.02-.03.04-.04Z"/>
    <path class="cls-12" d="m4.59317,10.052538l-.04.04c.01-.01.02-.02.04-.04Z"/>
    <path class="cls-12" d="m14.723169,6.562538c-.18.15-.41.2-.63.27-1.39.48-2.79.96-4.19,1.43-.07.03-.15.05-.23.04.09-.11.22-.16.34-.23,1.16-.63,2.33-1.25,3.49-1.87.09-.05.17-.1.26-.14.1-.04.2-.04.26.02.21.19.44.34.69.47l.01.01Z"/>
    <path class="cls-11" d="m15.02317,5.242538c.18,0,.28.1.29.27,0,.15-.12.28-.27.28-.18,0-.29-.11-.29-.3,0-.17.09-.26.27-.26v.01Z"/>
    <path class="cls-7" d="m10.98317,9.772539c.85-.08,1.64.77,1.68,1.55.07,1.15-.87,1.86-1.72,1.86-.93,0-1.71-.78-1.7-1.73,0-.93.8-1.76,1.74-1.69v.01Zm.08,1.42c-.08,0-.16.02-.24,0-.12-.03-.29-.06-.27-.23.02-.17.16-.22.32-.23.1,0,.2.01.29-.03.15-.06.18-.21.08-.33-.08-.09-.18-.08-.27-.08-.08,0-.17.02-.22-.08-.05-.1-.14-.14-.25-.1-.12.04-.16.13-.15.25,0,.07,0,.14-.05.2-.36.46-.17.94.4,1.05.14.03.27.03.41.04.18,0,.26.11.27.28.01.18-.1.25-.25.27-.1.02-.21.02-.31-.04-.12-.07-.21-.05-.28.08s-.01.22.08.29c.1.08.22.11.35.11.09,0,.15,0,.19.1.05.12.16.12.25.09.1-.04.18-.12.14-.25-.02-.07,0-.11.05-.15.26-.24.26-.52.13-.81-.13-.29-.35-.43-.68-.41l.01-.02Z"/>
    <path class="cls-4" d="m14.52317,10.352538c0,.23-.18.45-.37.45-.23,0-.43-.19-.42-.42,0-.25.14-.41.38-.41.27,0,.42.14.42.38h-.01Z"/>
    <path class="cls-12" d="m14.35317,7.662538c.13-.06.26-.08.37.04-.12,0-.25.03-.37-.04Z"/>
    <path class="cls-12" d="m15.90317,8.352538h.12c0,.04-.02.07-.07.07-.04,0-.04-.04-.05-.07Z"/>
    <path class="cls-12" d="m11.933169,8.502538s.03-.02.05-.03c-.02.01-.03.02-.05.03Z"/>
    <path class="cls-11" d="m16.06317,7.262538c0,.2-.12.32-.34.31-.09,0-.25-.2-.25-.3,0-.13.16-.28.31-.28.18,0,.29.1.29.28l-.01-.01Z"/>
    <path class="cls-1" d="m11.06317,11.192539c.32-.02.55.12.68.41s.13.58-.13.81c-.05.04-.07.08-.05.15.04.13-.04.21-.14.25-.1.03-.2.03-.25-.09-.04-.09-.1-.11-.19-.1-.13,0-.25-.03-.35-.11-.1-.07-.15-.16-.08-.29.07-.12.16-.14.28-.08.1.05.21.05.31.04.15-.02.26-.09.25-.27-.01-.17-.09-.27-.27-.28-.14,0-.27,0-.41-.04-.58-.11-.76-.58-.4-1.05.05-.07.05-.13.05-.2,0-.12.03-.21.15-.25.11-.03.2,0,.25.1s.14.08.22.08c.1,0,.2,0,.27.08.11.12.07.27-.08.33-.1.04-.19.02-.29.03-.15.01-.3.06-.32.23-.02.17.15.2.27.23.07.02.16,0,.24,0l-.010001.020001Z"/>
  </g>
  <rect class="cls-13" width="22" height="22"/>
</svg>