<?xml version="1.0" encoding="UTF-8"?>
<svg id="Capa_1" data-name="Capa 1" xmlns="http://www.w3.org/2000/svg" viewBox="0 0 22 22">
  <defs>
    <style>
      .cls-1 {
        fill: #fff;
      }

      .cls-2 {
        fill: #026838;
      }

      .cls-3 {
        stroke: #fff;
        stroke-width: .35px;
      }

      .cls-3, .cls-4 {
        fill: #e20613;
        stroke-miterlimit: 10;
      }

      .cls-4 {
        stroke: #e20613;
        stroke-width: 1.28px;
      }

      .cls-5 {
        fill: none;
      }
    </style>
  </defs>
  <g>
    <path class="cls-2" d="m16.115,12.49s-.02-.03-.01-.04c.02,0,0,.03.01.04Z"/>
    <path class="cls-2" d="m5.885,9.53v-.02h.01-.01v.02Z"/>
  </g>
  <g>
    <polygon class="cls-4" points="14.065 3.595 7.935 3.595 3.595 7.935 3.595 14.065 7.935 18.405 14.065 18.405 18.405 14.065 18.405 7.935 14.065 3.595"/>
    <polygon class="cls-3" points="14.065 3.595 7.935 3.595 3.595 7.935 3.595 14.065 7.935 18.405 14.065 18.405 18.405 14.065 18.405 7.935 14.065 3.595"/>
    <path class="cls-1" d="m15.305,11.475001c-.07-.25-.24-.41-.49-.45-.26-.04-.48.05-.62.29-.21.35-.41.71-.62,1.07-.02.03-.06.05-.08.07-.01-.03-.04-.07-.04-.1v-5.04c0-.18-.03-.35-.16-.48-.18-.2-.44-.27-.67-.18-.25.1-.4.32-.4.6v3.67c0,.06-.03.11-.08.1-.03,0-.05-.06-.07-.09v-4.88c0-.26-.11-.46-.35-.57-.41-.2-.87.09-.88.56v4.92c-.02.03-.05.07-.07.07-.03,0-.06-.04-.08-.06-.01-.03,0-.06,0-.09v-4.06c-.03-.4-.42-.66-.8-.54-.25.08-.43.31-.43.6v4.08c-.02.03-.05.08-.07.08-.05.01-.08-.04-.08-.09v-2.26h0c0-.32-.11-.47-.11-.47-.19-.23-.45-.31-.72-.21-.21.08-.4.31-.39.6v6.03c.02.41.15.79.39,1.12.42.58,1.01.9,1.7,1.03.8.15,1.56.03,2.25-.41.26-.16.49-.35.65-.62l2.2-3.8c.09-.15.11-.31.07-.47l-.049999-.019998Z"/>
  </g>
  <rect class="cls-5" width="22" height="22"/>
</svg>