<?xml version="1.0" encoding="UTF-8"?>
<svg id="Capa_1" data-name="Capa 1" xmlns="http://www.w3.org/2000/svg" viewBox="0 0 22 22">
  <defs>
    <style>
      .cls-1 {
        fill: #f6f5f8;
      }

      .cls-2 {
        fill: #fff;
      }

      .cls-3 {
        fill: #080909;
      }

      .cls-4 {
        fill: #112134;
      }

      .cls-5 {
        fill: #f19001;
      }

      .cls-6 {
        fill: #f8cbab;
      }

      .cls-7 {
        fill: #f6b63b;
      }

      .cls-8 {
        fill: #0b3148;
      }

      .cls-9 {
        fill: #168a33;
      }

      .cls-10 {
        fill: #fdedc8;
      }

      .cls-11 {
        fill: #0a3752;
      }

      .cls-12 {
        fill: #2fafc2;
      }

      .cls-13 {
        fill: #3b3b3b;
      }

      .cls-14 {
        fill: #d9d9de;
      }

      .cls-15 {
        fill: none;
      }

      .cls-16 {
        fill: #b1b1b1;
      }

      .cls-17 {
        fill: #cd7c2e;
      }

      .cls-18 {
        fill: #149939;
      }

      .cls-19 {
        fill: #d58101;
      }

      .cls-20 {
        fill: #d9d9d9;
      }
    </style>
  </defs>
  <g>
    <path class="cls-13" d="m18.035,19.055795s-.040001-.030001-.049999-.040001c-.01-.01-.030001-.02-.040001-.030001h-.040001s0-.02-.01-.01c-.040001-.030001-.08-.059999-.120001-.07,0-.030001-.030001-.030001-.049999-.040001h0s-.030001-.02-.040001-.030001h0l-.01-.01c-.030001,0-.040001-.040001-.07-.040001h0s-.01,0-.02-.01c-.030001-.02-.059999-.040001-.1-.059999,0,0-.01,0-.02-.01h-.01c-.040001-.030001-.08-.049999-.12-.08-.07-.040001-.14-.08-.21-.120001-.02-.01-.04-.030001-.07-.040001.03-.030001.02-.08.04-.110001.03-.049999.06-.110001.07-.17.01,0,.02-.01.02-.030001,0-.01.01-.030001.02-.040001,0,0,.01-.02.02-.030001.31-.74.62-1.48.929999-2.22.08-.18.16-.36.219999-.54.049999-.11.09-.22.139999-.33v-.04c.01-.01.01-.03,0-.04.02-.03.040001-.05.040001-.08v-.01c.01-.03.02-.05.030001-.08q.040001-.1.139999-.06c.1.04.200001.07.299999.11l.040001.02s.09.04.139999.05h.030001s0,.01.02.01c.030001.01.059999.03.1.03.02,0,.040001.02.059999.02.02,0,.040001.01.049999.02.040001.03.08.04.129999.05h.040001c.02.02.040001.02.07.03.049999.03.1.05.15.06h.01s.02.01.030001.02c0,.01.02.01.030001.01,0,.01.02.01.040001.02h.02c.209999.08.41.17.620001.24v5.240001s-.040001-.01-.049999-.02c-.15-.110001-.309999-.190001-.469999-.290001-.09-.059999-.17-.110001-.26-.15,0-.030001-.030001-.040001-.059999-.040001,0,0-.01,0-.02-.01-.02-.02-.049999-.040001-.08-.040001-.01,0-.030001-.02-.040001-.030001h-.02c-.030001-.030001-.07-.049999-.110001-.059999h0s-.059999-.040001-.08-.049999c-.1-.059999-.190001-.120001-.290001-.18-.01-.02-.030001-.030001-.059999-.030001-.030001-.02-.049999-.049999-.1-.049999-.040001-.040001-.09-.07-.139999-.09-.049999-.030001-.110001-.07-.16-.1-.02-.02-.049999-.030001-.07-.049999h-.02c-.02-.01-.049999-.02-.07-.030001-.030001-.040001-.07-.059999-.110001-.07-.08-.049999-.16-.110001-.25-.16-.030001-.02-.059999-.049999-.1-.049999l-.009998-.059992Z"/>
    <path class="cls-7" d="m16.685001,12.655795v.02h0v.03c0,.03-.02.06.02.09v.200001c-.03.02-.02.05-.02.09v.08c-.03.04-.02.09-.05.12-.03.01-.04.05-.06.07-.07.14-.17.26-.31.34h-.04c-.2-.1-.4-.16-.61-.22-.09-.03-.19-.04-.29-.07-.02-.11-.06-.16-.16-.17-.08-.01-.16,0-.23.04-.01.01-.02,0-.04,0-.28-.1-.56-.2-.85-.3-.55-.2-1.11-.4-1.66-.59-.11-.04-.23-.06-.34-.03-.18.04-.29.16-.32.35-.03.19.04.35.2.45.07.04.15.07.22.1.57.24,1.14.48,1.71.71.13.05.26.12.4.17.09.03.19.07.27.13h-.06c-.3-.1-.6-.21-.9-.31-.31-.11-.61-.21-.92-.32-.35-.12-.69-.23-1.04-.35-.13-.05-.26-.06-.39,0-.19.08-.28.23-.28.42,0,.15.1.37.27.4.05,0,.09.03.14.05.42.16.84.32,1.26.47.38.14.77.29,1.15.43.03.01.06.02.09.05-.03.01-.06,0-.09,0-.27-.07-.53-.14-.8-.21-.42-.11-.85-.22-1.28-.32-.12-.03-.24-.08-.38-.07-.25.02-.37.26-.34.46.02.15.14.24.27.29.17.06.34.1.52.14.16.04.33.08.49.12.24.06.48.12.72.19.17.04.33.08.5.13-.28.07-.56.12-.85.16-.05-.02-.11-.02-.16-.03-.35-.06-.69-.13-1.04-.19-.03,0-.06,0-.08.02-.07.07-.13.15-.16.24-.02.06-.01.12.05.17.02.03.04.05.07.07l.01.01c0,.01.01.02.03.03l.01.01.01.01h0s0,.02.02.02h0s0,.01.01.02h0s.02.05.04.07h0s.01.03.02.05h0c0,.03.01.05.03.07h0s.01.07.02.1h0v.05c-.02.03-.01.06,0,.08v.08c0,.02,0,.04-.01.06h0c-.02.04-.04.09-.06.13h0c-.02.02-.03.04-.04.07h0s0,.01-.01.02h-.02c-.03,0-.04.03-.03.06h0s-.01,0-.01.01h0c-.07.01-.11.07-.17.1-.19.1-.39.120001-.6.09-.28-.03-.49-.17-.64-.39-.1-.14-.15-.3-.11-.47.02-.11.07-.21.15-.3.09-.1.19-.17.31-.22.07-.03.11-.07.12-.14.02-.12-.02-.22-.06-.33,0-.02-.03-.02-.05-.03-.27-.05-.54-.09-.81-.14-.26-.05-.53-.09-.79-.14-.23-.04-.47-.08-.7-.12-.17-.03-.33-.06-.5-.09-.04,0-.06-.01-.05-.07.04-.21.08-.41.11-.62.09-.52.18-1.04.27-1.55.02-.13.03-.27.08-.39.04.03.05.08.09.1h0l.01.01h0c.01.03.04.05.07.07h0c.02.03.04.05.07.06h0s.05.04.08.05h0c.07.05.15.08.23.09h.01c.02.01.04.02.07.02h.29c.27-.06.48-.21.64-.43.21-.28.29-.6.24-.95-.05-.35-.22-.63-.53-.81-.25-.14-.52-.15-.79-.04-.07.03-.14.07-.22.12.06-.31.11-.6.16-.89.1-.54.19-1.08.28-1.62,0-.04,0-.1.05-.12.15.02.3.05.45.07h0c.02.01.04.01.07.02.18.03.35.06.53.1.2.04.41.08.61.11.11.02.21.05.32.05h.03c.02,0,.04.01.06.02.15.03.3.06.44.08.06,0,.05.03.02.06h0l-.01.01h0c-.02,0-.04.02-.06.04,0,0-.02.02-.03.03,0,0-.01,0-.01.02h0c-.01,0-.02.01-.02.02h0l-.01.01h0l-.01.01h0c-.04.03-.07.07-.08.12-.01,0-.01.02-.01.03-.02,0-.03.02-.02.04v.01c-.04.07-.06.14-.07.21-.02.03-.02.05,0,.08h0v.08c0,.04-.01.08,0,.12.02.09.04.19.1.27,0,.01,0,.02.01.03,0,0,0,.01.01.02h0s.02.07.05.09c0,0,0,.01.01.02,0,.01,0,.02.02.02h0l.01.01h0s0,.02.02.02h0s.03.05.05.06h0s.01.03.03.03h0l.01.01h0c0,.02.02.04.04.04h0s.01.02.02.02h0s.01,0,.02.01h0c0,.02.01.02.03.02h0c0,.02.02.03.04.03h.02v.01c.02.03.04.04.07.04h0s.02.01.03.01h0c.05.04.11.06.17.08.02,0,.05,0,.07.01.02.01.04.02.07.02h.03c.06.02.12.04.18.02h.16c.04,0,.08.01.12-.02.03,0,.06-.02.1-.03.02.02.03,0,.05,0,.15-.05.28-.12.41-.21.29-.22.42-.64.31-.98-.03-.09-.09-.18-.12-.27h.05c.14.04.29.06.44.08.05,0,.09.04.14.02.01,0,.03,0,.04.01.11.02.21.05.32.05h0c.1.02.2.04.3.06.04,0,.09.03.13,0h0s0,.01.01.01h0c.08.04.17.04.26.06.28.05.56.1.85.15.04,0,.05.02.04.06v.08c-.01.07-.03.13-.04.2-.04.21-.08.41-.11.62,0,.04-.02.08-.02.13v.01c-.03.1-.04.2-.06.3v.04c-.02.03-.03.06-.03.1v.05c-.02.02-.01.05-.01.07h0c-.02.05-.03.1-.03.16v.06c-.02.04-.02.08-.03.12v.01c-.03.04,0,.09-.03.14-.04.2-.08.4-.1.61v.01c-.01.06-.03.11-.03.17,0,.01,0,.02.01.03,0,.01.01.02.02.02h0l.01.01h0l.01.01.01.01.01.01h0c0,.01.02.02.03.02h0s.01,0,.02.01h0s.02.01.03.01h0c.07.04.13.04.2,0h0l.01-.01c.01-.01.02-.03.03-.04,0,0,0-.01.01-.02h0l.01-.01h0s0-.01.01-.02h0c.11-.09.22-.17.36-.19h.27c.07.01.13.05.19.07h0c.07.06.14.11.2.19.04.09.09.19.13.28l.069996.099987Z"/>
    <path class="cls-2" d="m7.175,2.915795v-.01c0,.01.02.03.03.04,0,.01.01.03.01.04.17.64.33,1.28.5,1.92.2.79.41,1.58.61,2.37.07.27.15.55.22.82v.03c-.11.07-.22.14-.33.19-.12.06-.21.13-.2.28v.04c-.01-.06-.05-.06-.1-.05-.16.05-.33.09-.5.13-.55.14-1.1.28-1.64.43-.03,0-.07,0-.05.06.01.05.03.07.08.05.06-.02.11-.03.17-.05.32-.08.63-.16.95-.24.18-.04.35-.09.53-.14.19-.05.37-.1.56-.15-.02.09-.03.18-.05.28-.23.06-.46.12-.7.18-.47.12-.93.24-1.4.36-.04,0-.07.01-.05.07.02.06.04.05.09.04.14-.04.29-.08.43-.11.53-.14,1.07-.28,1.6-.42,0,.1-.02.19-.05.28-.14.02-.27.07-.41.1l-.93.24c-.2.05-.41.1-.61.16-.04,0-.05.02-.04.07.02.09.08.04.12.03.37-.1.75-.2,1.12-.29.24-.06.48-.13.73-.19-.02.05-.01.1-.02.15-.04.2-.07.4-.11.6-.02,0-.04.01-.06.02-1.31.34-2.62.68-3.94,1.02-.09-.35-.18-.7-.27-1.059999-.4-1.53-.8-3.06-1.19-4.59-.11-.44-.23-.88-.34-1.32.03,0,.06,0,.08-.03h0s.09,0,.12-.03h0s.03,0,.04-.01h.01c.02,0,.03,0,.04-.01h0c.07-.02.15-.03.22-.05.02,0,.05,0,.06-.03.02,0,.04,0,.05.01,0,0,.02.02.02.03.04.14.08.28.11.42.01.05.02.06.08.05.57-.15,1.15-.3,1.72-.45.3-.08.6-.16.89-.23.36-.09.72-.19,1.08-.28.05-.01.05-.03.04-.07-.02-.09-.05-.18-.08-.27-.02-.07-.01-.14-.06-.19.05-.02.1-.04.16-.05.05,0,.1-.03.15-.05h.04c.02,0,.04,0,.06-.01h.01c.02,0,.03,0,.04-.01h0c.08,0,.15-.03.22-.06.02,0,.03,0,.04-.01.04,0,.07,0,.1-.03v-.020001Zm-1.98,5.34v-.02c-.02-.09-.05-.18-.07-.27-.1-.4-.21-.81-.31-1.21-.01-.05-.03-.07-.08-.05-.1.03-.21.05-.31.08-.39.1-.78.21-1.17.3-.07.02-.07.04-.06.1.07.27.15.55.22.82.06.22.12.45.18.67,0,.04.02.05.06.04.21-.06.43-.12.64-.17.29-.08.58-.15.87-.22.03,0,.05-.02.04-.06l-.01-.01Zm.46,1.76v-.01c-.13-.51-.27-1.02-.4-1.52-.01-.04-.03-.05-.08-.04-.25.07-.51.13-.76.2-.25.06-.49.13-.74.19-.03,0-.06.01-.04.06.06.23.12.46.18.69.06.24.13.48.19.73.04.17.03.17.19.12h0c.3-.08.59-.15.89-.23.17-.04.35-.09.52-.14.02,0,.05,0,.05-.05Zm-.9-3.47s0-.04-.01-.06c-.12-.47-.25-.94-.37-1.41q-.03-.12-.15-.1h-.03c-.47.12-.94.25-1.4.37-.05.01-.06.03-.05.08.08.3.16.6.23.9.05.2.1.39.15.59.01.05.03.06.08.04.1-.03.2-.05.31-.08.27-.07.55-.15.82-.22.12-.03.25-.06.37-.09.02,0,.05,0,.05-.03v.01Zm3.07,1.38c0-.07-.03-.09-.1-.07-.36.09-.72.19-1.07.28-.36.09-.72.19-1.08.28-.04,0-.06.02-.05.07.01.05.03.05.08.04.17-.05.35-.09.53-.14.36-.09.73-.19,1.09-.28.19-.05.38-.1.57-.15.02,0,.05,0,.04-.03h-.01Zm-.42-1.5c-.1.03-.2.05-.3.08-.34.09-.68.18-1.02.27-.29.08-.58.15-.87.22-.02,0-.07,0-.04.06.01.03,0,.07.07.06.22-.05.44-.11.66-.17.25-.07.5-.13.74-.2.26-.07.52-.14.78-.21.03,0,.05,0,.04-.05-.01-.03,0-.07-.05-.07l-.009999.010001Zm-2.4-.02h.05c.26-.07.51-.13.77-.2.35-.09.69-.18,1.04-.27.12-.03.24-.06.36-.09.05-.01.06-.03.05-.08-.01-.06-.05-.04-.08-.03-.1.03-.21.05-.31.08-.36.1-.73.19-1.09.29-.26.07-.52.13-.78.2-.04,0-.04.03-.03.05s0,.07.02.07v-.02Zm.5,1.78s.08-.02.12-.03c.53-.14,1.05-.27,1.58-.41.16-.04.33-.09.49-.13.06-.01.04-.05.03-.09,0-.05-.03-.03-.06-.02-.06.01-.12.03-.17.04-.41.11-.82.22-1.23.32-.26.07-.52.14-.79.2-.02,0-.05,0-.04.04.01.03,0,.07.06.07l.01.01Zm-.81-3.35s.03,0,.04-.01c.19-.05.38-.1.57-.15.54-.14,1.07-.28,1.61-.42.04-.01.05-.03.04-.07-.01-.03-.02-.06-.07-.05-.09.03-.18.05-.27.07-.37.1-.73.19-1.1.29-.17.04-.35.09-.52.13-.1.03-.2.05-.31.08-.03,0-.04.02-.03.06,0,.02,0,.06.03.06l.01.01Zm.07.5h.02c.42-.11.85-.22,1.27-.33.3-.08.59-.15.89-.23.06-.01.07-.04.05-.09-.02-.07-.07-.02-.1-.02-.48.12-.97.25-1.45.38-.23.06-.47.12-.7.18-.03,0-.05.01-.04.05.01.03,0,.07.06.07v-.01Zm.53,2.14c.07-.02.12-.03.18-.04.36-.09.72-.19,1.08-.28.32-.08.64-.17.96-.25.04-.01.05-.03.04-.06-.01-.03-.01-.07-.07-.05-.13.04-.27.07-.41.11-.5.13-1.01.26-1.51.39-.09.02-.19.05-.28.07-.03,0-.04.02-.03.06.01.02,0,.06.03.06l.01-.01Zm-.22-.78s.02.07.07.06c.22-.06.44-.12.67-.17.5-.13,1-.26,1.5-.39.04-.01.06-.03.04-.08-.01-.05-.04-.05-.07-.03-.01,0-.03.01-.05.01-.36.09-.72.18-1.08.27-.35.09-.69.19-1.04.27-.03,0-.06.02-.05.06h.01Zm.28,1.07s-.01.08.06.06c.35-.09.69-.18,1.04-.27.17-.04.35-.09.52-.13.21-.06.43-.11.64-.17.03,0,.04-.03.04-.06,0-.08-.06-.05-.1-.04-.4.11-.81.21-1.21.32-.32.08-.63.16-.95.25-.02,0-.05,0-.04.05v-.01Zm1.77-2.4h-.02c-.19.05-.38.1-.57.15-.3.08-.61.16-.91.24-.23.06-.47.12-.7.18-.03,0-.04.02-.03.05,0,.06.04.07.09.05.31-.08.63-.17.94-.25.41-.11.81-.21,1.22-.32.03,0,.06,0,.04-.05,0-.03,0-.07-.06-.06v.01Zm-1.44,3.53c.12-.03.25-.07.38-.1.6-.16,1.2-.31,1.8-.47.04-.01.06-.02.05-.07-.01-.05-.03-.05-.07-.04-.09.03-.19.06-.29.07-.16.03-.32.08-.49.12-.36.1-.73.19-1.09.28-.1.03-.21.06-.31.08-.04.01-.05.04-.04.07,0,.02,0,.06.05.05l.01.009999Zm-.85-3.2s.06-.01.09-.02c.32-.08.65-.17.97-.25.38-.1.76-.2,1.14-.29.04,0,.06-.02.05-.07-.01-.05-.03-.05-.08-.04-.23.06-.47.12-.7.18-.3.08-.59.15-.89.23-.2.05-.39.1-.59.15-.02,0-.06,0-.04.05.01.03,0,.07.04.07l.01-.010001Z"/>
    <path class="cls-6" d="m15.335,13.415796c.09.03.19.04.29.07.21.06.42.13.61.22h.04c.03.03.06.05.1.05.01.02.01.04.04.04h.01c.01.02.04.03.06.04.02.03.04.05.07.07.02.03.03.05.07.06h0c.04.06.11.1.17.15,0,.02.02.03.04.03.06.05.12.09.18.14.03.02.05.05.08.07l.01.01h.01c.02.07.06.12.13.15l.01.01c.07.07.139999.14.219999.19h0c0,.02.02.03.040001.04,0,0,.02.02.030001.03.02.03.040001.06.08.07-.110001.26-.219999.53-.33.79-.14.34-.29.67-.43,1.01-.12.3-.24.61-.37.900001-.02,0-.03,0-.05-.01h-.02c-.05-.030001-.1-.049999-.15-.049999h0s-.01,0-.02-.01h-.01c-.02-.02-.03-.030001-.06-.030001h-.03c0-.01-.02-.01-.03-.01-.02-.01-.03-.02-.05-.02-.06-.04-.13-.05-.2-.07-.02,0-.04,0-.06-.01-.07-.03-.14-.06-.21-.07h0c-.02-.02-.04-.03-.07-.03h-.01s-.01,0-.02-.01h-.03c-.13-.06-.26-.09-.4-.12h0l-.01-.01h-.03c0-.01-.02-.01-.03-.01-.02-.01-.04-.02-.07-.02-.02-.02-.04-.02-.06-.03-.12-.04-.24-.07-.37-.11h-.03c-.02-.02-.04-.02-.07-.02h-.03c-.01-.02-.04-.01-.05-.02s-.03-.01-.04-.01c-.01-.01-.03-.01-.04-.01-.03-.02-.07-.03-.11-.03h-1.79c-.05,0-.1.02-.15.04h-.07c-.15,0-.27-.07-.37-.17,0-.01,0-.02-.02-.03-.02-.04-.05-.08-.07-.12v-.18c.02-.02.02-.04.03-.07,0-.01.02-.03.03-.04v-.01l.01-.01c.1-.11.23-.17.38-.2.18-.03.35-.06.53-.1.28-.04.56-.1.85-.16-.17-.04-.33-.08-.5-.13-.24-.06-.48-.12-.72-.19-.16-.04-.33-.08-.49-.12-.17-.04-.35-.08-.52-.14-.13-.05-.25-.13-.27-.29-.03-.2.09-.43.34-.46.13-.01.25.04.38.07.43.11.85.22,1.28.32.27.07.53.14.8.21.03,0,.05.02.09,0-.03-.03-.06-.04-.09-.05-.38-.14-.77-.29-1.15-.43-.42-.16-.84-.32-1.26-.47-.05-.02-.09-.04-.14-.05-.17-.03-.28-.25-.27-.4,0-.19.1-.34.28-.42.13-.05.26-.04.39,0,.34.12.69.24,1.04.35.31.11.61.21.92.32.3.1.6.21.9.31h.06c-.08-.06-.18-.1-.27-.13-.14-.05-.27-.11-.4-.17-.57-.24-1.14-.47-1.71-.71-.08-.03-.15-.06-.22-.1-.17-.1-.23-.26-.2-.45.03-.18.15-.3.32-.35.11-.03.23-.01.34.03.55.2,1.11.4,1.66.59.28.1.56.2.85.3.01,0,.02.01.04,0,.12.06.25.12.39.13l-.030003.050004Z"/>
    <path class="cls-11" d="m1.915,4.285795c.11.44.23.88.34,1.32.4,1.53.8,3.06,1.19,4.59.09.35.18.71.27,1.06,1.31-.34,2.63-.68,3.94-1.02.03.02.03.04.03.07-.02.14-.05.27-.07.41-.01.1-.05.19-.04.29v.01c-.03.02,0,.05,0,.07-.09.05-.2.05-.29.09-.1.02-.2.05-.3.07,0,0-.01.02-.02.02-.12,0-.23.05-.34.08-.08.02-.15.03-.23.06-.04,0-.08,0-.11.03h-.02c-.03,0-.05.01-.08.02-.25.06-.49.13-.74.19h-.04s-.01,0-.01.01h0s-.05,0-.07.01c-.02,0-.05.01-.07.02h-.04c-.07.01-.13.03-.2.05-.34.08-.67.17-1,.26-.02,0-.05,0-.07.02h-.01c-.07.01-.13.03-.2.05h0c-.09.01-.17.04-.25.06h-.03c-.02,0-.03,0-.04-.02,0-.02-.01-.05-.02-.07,0-.03,0-.05-.03-.07,0-.06-.04-.12-.04-.18,0-.01-.01-.03-.02-.04h0s.01-.01,0-.02h0c0-.02,0-.03-.01-.05v-.02c0-.03,0-.06-.02-.08v-.16h0c-.02-.08-.04-.16-.07-.23,0-.11-.05-.22-.08-.33-.04-.19-.09-.37-.14-.55-.05-.2-.1-.41-.16-.61-.03-.1-.06-.21-.08-.31-.01-.03,0-.06-.03-.08,0-.04,0-.07-.03-.1,0-.05,0-.1-.03-.14-.03-.13-.06-.25-.1-.38,0,0,0-.01-.01-.02v-.01c0-.07-.03-.14-.05-.21.01,0,.02,0,0-.02v-.08s0-.03-.02-.04h0c0-.05-.02-.1-.04-.14h0c0-.04-.01-.07-.03-.1v-.02c-.02-.07-.03-.13-.06-.2-.06-.25-.13-.49-.19-.74-.03-.13-.06-.25-.1-.38,0-.01-.01-.02-.02-.03,0-.08-.03-.16-.05-.24v-.120001h0v-.04c0-.01,0-.03-.01-.04v-.02h0c0-.02,0-.04-.01-.05v-.03c0-.03,0-.06-.02-.08v-.03c0-.02,0-.04-.02-.06v-.04s0-.01-.01-.02c-.02-.12-.06-.24-.09-.35-.02-.06,0-.12-.05-.17,0-.03-.02-.06-.02-.08v-.01c.01-.04,0-.08-.03-.11,0-.08-.03-.14-.05-.21-.04-.19-.1-.37-.14-.56,0-.03-.06-.07.02-.07,0,0,.01,0,.01-.01h0c.06,0,.12-.02.17-.04.09-.02.17-.04.26-.07h.04l-.12.039999Z"/>
    <path class="cls-13" d="m1.645,15.755795s.05-.1.09-.14h0c.06-.11.12-.21.2-.29,0,0,.01,0,.01-.01h0v-.01c.02-.03.05-.06.07-.1.04,0,.04-.05.07-.07.21-.17.41-.35.66-.46.02,0,.04-.01.06-.02,0,0,.02-.01.03-.02.01,0,.03,0,.04-.01.02,0,.05-.02.07-.03.05-.02.1-.04.15-.05h.04c.1-.01.19-.05.28-.06.09,0,.17-.02.26-.03h.29c.17,0,.33.05.49.07h.15s.02,0,.03.01h.05s0,.01.02.01c.04.01.08.03.12.04h.08s.02,0,.03.01h0c.05.03.11.06.16.09.05.03.09.06.14.09h.01s.02.01.03.02c0,0,0,.01.02.01h0c.06.05.12.1.18.15.02.02.04.04.06.06.02.03.04.05.07.07l.01.01h.01s.06.08.09.11c0,0,.02.02.02.03,0,0,.01.02.02.03.02.03.04.05.06.08.01.01.02.03.03.04l.01.01c.13.2.23.41.31.62,0,.04.02.07.03.11,0,.01,0,.03.01.04h0c0,.1.04.19.05.29.02.18.03.35.01.53-.02.14-.03.27-.06.41-.05.2-.13.39-.22.570001,0,0-.01,0-.01.02,0,.01-.01.02-.02.040001-.02.01-.03.02-.03.049999l-.01.01s-.01,0-.01.01c0,0-.01.02-.02.030001,0,0-.01,0-.01.02-.03.049999-.06.09-.09.139999-.02.030001-.05.059999-.07.09-.03.02-.04.059999-.07.09,0,0-.01,0-.02.01h0s-.03.030001-.05.040001h0c-.01.01-.02.02-.03.030001l-.01.01-.01.01h0s-.09.08-.13.120001h-.01c-.05-.01-.05.030001-.07.049999-.07.049999-.14.09-.21.139999,0,0-.01,0-.01.01h0l-.01.01h0c-.05,0-.07.049999-.11.059999l-.12.059999s-.02,0-.03.01h-.02c-.1.030001-.19.08-.29.1-.03,0-.05,0-.07.030001h-.06c-.04,0-.08.02-.11.02h-.01c-.13.030001-.26.030001-.39.040001h-.35c-.04-.02-.07-.02-.11-.01-.03-.030001-.07,0-.1-.030001-.01,0-.02-.01-.04-.01h-.04c-.02-.01-.04-.01-.06,0-.09-.030001-.18-.07-.28-.1h-.03c-.05-.02-.09-.040001-.14-.07-.02-.02-.04-.030001-.07-.030001h0s0-.01-.01-.01c-.06-.040001-.12-.08-.18-.110001h-.01c-.01-.030001-.04-.040001-.07-.049999h0s-.02-.01-.03-.02h-.01c-.02-.02-.04-.040001-.07-.059999-.07-.07-.15-.129999-.22-.200001,0-.01,0-.030001-.02-.030001-.12-.120001-.23-.26-.31-.42,0-.01-.01-.02-.02-.040001l-.01-.01c-.01-.02-.03-.049999-.04-.07l-.07-.139999v-.01c-.01-.040001-.02-.08-.05-.120001-.03-.1-.07-.200001-.09-.31,0-.03,0-.06-.02-.09v-.03c0-.02,0-.04-.01-.06v-.07c0-.03,0-.06-.01-.1-.02-.07,0-.14-.01-.21,0-.13,0-.26.02-.39.02-.14.06-.28.1-.42.04-.11.09-.22.14-.33,0-.01.02-.03.01-.04h0l-.02.130002Zm2.62-.83h-.04s-.02-.01-.03,0h-.08c-.11-.02-.21,0-.32,0-.19-.01-.38.03-.56.08-.29.09-.55.24-.77.46-.24.23-.42.5-.53.82-.12.35-.14.7-.07,1.07.06.32.21.610001.41.870001.12.16.28.290001.45.41.29.190001.61.299999.95.34.16.02.31,0,.47-.02.51-.07.93-.309999,1.26-.709999.29-.35.45-.75.47-1.21h0v-.17c0-.08,0-.16-.02-.24-.1-.58-.39-1.04-.88-1.37-.21-.14-.43-.24-.67-.28h-.03l-.01-.050001Z"/>
    <path class="cls-17" d="m7.865,12.415796c-.05.13-.06.26-.08.39-.09.52-.18,1.04-.27,1.55-.04.21-.07.41-.11.62-.01.06.01.06.05.07.17.03.33.06.5.09.23.04.47.08.7.12.26.05.53.09.79.14.27.05.54.09.81.14.02,0,.04,0,.05.03.05.1.09.21.06.33-.01.07-.05.11-.12.14-.12.05-.22.11-.31.22-.08.09-.12.19-.15.3-.04.17.01.33.11.47.16.22.37.36.64.39.21.02.41,0,.6-.09.06-.03.1-.09.17-.1,0,.02-.03.03-.03.05h0l-.01.01h0l-.01.01h0l-.01.01h0c-.03.03-.07.06-.1.089999h0s-.01,0-.02.01h0s-.01,0-.02.01h0c-.02,0-.04.02-.05.040001h0s-.02.01-.04.02c-.23.16-.5.24-.78.26h-.23c-.13-.01-.25-.059999-.37-.110001h0c-.02-.02-.04-.030001-.07-.040001h0c-.01-.02-.03-.030001-.06-.040001h0s-.01,0-.02-.01h0l-.01-.01h0l-.01-.01h0s-.04-.049999-.06-.059999h0c-.01-.02-.02-.040001-.04-.049999h0c-.03-.06-.06-.11-.1-.17h0c-.02-.07-.04-.14-.05-.22v-.06c0-.08.03-.15.05-.22h0s.05-.08.07-.12h0s0-.01.01-.02h0s.03-.02.03-.04h0c.01,0,.02-.01.03-.03h0c.03-.02.06-.04.08-.07h0c.02,0,.03-.01.04-.03h0c.06-.03.11-.06.17-.08h0c.05,0,.07-.04.09-.08.04-.1.02-.19-.02-.28h0c-.02-.05-.02-.12-.1-.11h0c-.06-.02-.11-.03-.17-.02h-.01c-.05-.01-.1-.03-.15-.04-.44-.08-.87-.15-1.31-.23-.23-.04-.47-.08-.7-.12h-.02c-.14-.04-.28-.05-.42-.08-.05,0-.06-.02-.05-.07.03-.13.04-.26.07-.39v-.02c.01,0,.01-.02.01-.04.12-.7.25-1.39.37-2.09,0-.03.02-.06.04-.08h0c.08-.04.16-.09.24-.14h0s.07-.03.1-.06h0s.03-.01.04-.03h0c.04-.02.09-.05.13-.07.01,0,.03-.03.05,0l-.019999.019999Z"/>
    <path class="cls-11" d="m8.545,8.085795c-.07-.27-.15-.55-.22-.82-.21-.79-.41-1.58-.61-2.37-.17-.64-.33-1.28-.5-1.92,0-.01,0-.03-.01-.04,0-.03.02-.04.04-.04.06-.02.13-.03.19-.05.08-.02.15-.03.22-.06.05-.02.06.01.07.05.04.17.09.35.14.52.01.05.02.09.04.14.08.33.17.65.25.98.01.06.03.11.04.17,0,0,0,.01.01.01h0c0,.01,0,.03.01.04v.05c.01.11.02.21.08.31v.01c0,.02,0,.04.02.06h0s0,.02.01.03v.03c0,.11.06.21.06.32,0,.01.02.02.03.03.06.22.12.44.18.65.15.57.29,1.14.44,1.7,0,.03.01.06.02.09,0,.03,0,.06.01.09,0,.04,0,.06-.05.05-.09-.02-.18-.03-.27-.05-.04-.01-.09-.02-.13,0h0s-.05.01-.07.01v.009999Z"/>
    <path class="cls-17" d="m7.575,11.015795v-.01c.03-.02.02-.06.02-.09.05-.23.09-.47.13-.7.03-.2.07-.4.11-.6,0-.05,0-.1.02-.15.02-.04.02-.08.02-.12.03-.09.04-.19.05-.28.01-.04.02-.08.03-.13.02-.09.03-.18.05-.28,0-.01.01-.03.01-.04,0-.01.01-.03,0-.04,0-.14.08-.22.2-.28.12-.06.22-.13.33-.19.03,0,.05-.02.07-.04h.04c-.06.02-.04.08-.05.12-.1.54-.19,1.08-.28,1.62-.05.29-.11.58-.16.89.08-.05.14-.09.22-.12.27-.11.53-.1.79.04.32.17.48.46.53.81s-.03.67-.24.95c-.16.22-.38.37-.64.43v-.01h0c.03-.02.04-.04.06-.07h0s0-.01.01-.02h0c.14-.19.22-.4.24-.63.02-.08.02-.17,0-.25h0v-.03h0v-.01c0-.06-.01-.12-.04-.18h0c-.01-.05-.02-.11-.06-.15h0c-.01-.04-.03-.08-.06-.11h0s-.05-.09-.08-.12h0c-.08-.11-.18-.2-.3-.26-.06-.03-.12-.08-.2-.07h-.01c-.14-.05-.29-.05-.43,0h0s-.04,0-.06.01h0c-.06,0-.11.03-.15.07h0s-.02,0-.03.01h0s-.01,0-.02.01h0s-.07.04-.11.02h-.01Z"/>
    <path class="cls-8" d="m4.935,2.215795l.01.01c.02.05.05.09.07.14.04.11.05.23.04.35,0,.05.02.05.06.04.16-.04.32-.09.48-.13h.05c.05,0,.1-.02.15-.04q.11-.03.14.09c.04.14.07.27.11.41-.21.06-.43.12-.64.17-.35.08-.69.18-1.04.27-.2.05-.4.11-.6.16-.27.07-.54.14-.81.21-.05.01-.06,0-.07-.04,0-.04-.01-.01-.03,0-.04-.14-.07-.28-.11-.41-.01-.04,0-.06.04-.07.07-.02.15-.04.22-.06.01,0,.03,0,.04-.01h.03c.02,0,.03,0,.04-.01h.01c.03,0,.06,0,.08-.02h.01c.02,0,.03,0,.04-.01h.07c.01,0,.02,0,.03-.01h.03c.05,0,.09-.02.14-.04h.07c.03,0,.06-.01.09-.02-.14-.2-.19-.41-.15-.64v-.03c.03-.06.05-.13.09-.19.14-.24.36-.35.63-.36h.15c.03,0,.06.02.1.02,0,0,.02,0,.03.01.07.04.15.06.21.11h.01s.01,0,.02.01h0l.01.01h0l.01.01h0l.01.01h0s0,.01.01.01c.01.02.03.04.05.06,0,.02.01.03.03.04l.04-.05Zm-.88.81s.03,0,.04-.01c.17-.04.33-.09.5-.12.12-.02.16-.09.17-.19v-.03c.01-.22-.12-.41-.32-.48-.19-.07-.42,0-.53.16-.14.18-.14.41,0,.58.03.04.06.1.13.1l.01-.01Z"/>
    <path class="cls-12" d="m16.495,17.585796c.13-.3.25-.6.37-.9.14-.34.29-.68.43-1.01.110001-.26.219999-.53.33-.79,0-.02.01-.04.02-.06h0s.01,0,.02-.01h.050001c.07.04.15.07.219999.09h.040001c.030001.02.059999.03.1.04h.030001c.08.04.16.08.23.11.02.05-.02.09-.030001.13-.110001.23-.200001.46-.299999.7-.1.23-.190001.46-.280001.69-.200001.49-.4.97-.61,1.45h-.02c-.07-.040001-.15-.07-.23-.1h-.04c-.07-.040001-.15-.07-.22-.09-.01,0-.03-.01-.04-.02-.04-.030001-.09-.040001-.13-.059999v-.070002c.03-.040001.04-.08.05-.129999l.009997.030003Z"/>
    <path class="cls-4" d="m2.875,3.825795s.02-.03.03,0c0,.04.02.05.07.04.27-.07.54-.14.81-.21.2-.05.4-.11.6-.16.35-.08.69-.18,1.04-.27.22-.05.43-.11.64-.17.11-.03.23-.06.34-.08.05.06.04.13.06.19.03.09.05.18.08.27.01.04,0,.06-.04.07-.36.09-.72.18-1.08.28-.3.08-.6.16-.89.23-.57.15-1.15.3-1.72.45-.05.01-.06,0-.08-.05-.03-.14-.07-.28-.11-.42,0-.01-.01-.02-.02-.03.03-.04.07-.03.11-.04s.09-.03.13-.03c.06,0,.05-.04.04-.07h-.01Z"/>
    <path class="cls-11" d="m8.315,10.905795c-.2.05-.41.11-.61.16h-.05c-.02-.01-.04-.02,0-.04.01,0,.03-.01.03-.03h0s.01,0,.02-.01h0c.01,0,.02,0,.03-.01h0c.05-.02.12-.01.15-.07h0c.02,0,.04.01.06-.01h.07c.11,0,.21-.02.32,0v.01h-.02Z"/>
    <path class="cls-10" d="m15.565,9.405795v-.05c0-.04,0-.05-.04-.06-.28-.05-.56-.1-.85-.15-.09-.01-.18-.02-.26-.06h.1c.04.03.09.03.14.02.02.02.05.02.07.03.04.03.08,0,.12.01s.07.04.11.03c.03,0,.05,0,.08.01.14.03.28.06.42.07h.04c.01.01.03.03.05.03.03,0,.05.01.04.04,0,.03.02.07-.03.08h.01Z"/>
    <path class="cls-10" d="m10.635,8.425795c-.11,0-.21-.03-.32-.05-.2-.03-.41-.07-.61-.11v-.01h.12c.02.02.04.03.07.03.07,0,.14.04.21.03h.04c.02.01.04.03.07.03.1,0,.19.02.29.05h.07c.02,0,.05,0,.06.03Z"/>
    <path class="cls-10" d="m15.555001,9.565795c-.02.07-.01.14-.04.21v.07c-.04.14-.06.28-.08.41h-.02c.03-.21.07-.42.11-.62.01-.07.03-.14.04-.2.02.05,0,.09,0,.14l-.009999-.01Z"/>
    <path class="cls-13" d="m8.655,8.085795h-.04c.04-.03.09-.02.13,0,.09.02.18.04.27.05.05,0,.06-.01.05-.05,0-.03-.01-.06-.01-.09.02.06.03.12.05.17-.15-.02-.3-.05-.45-.07v-.01Z"/>
    <path class="cls-10" d="m11.185001,8.585795s.04-.05-.02-.06c-.15-.02-.3-.05-.44-.08-.02,0-.04-.01-.06-.02l.01-.01c.04,0,.07,0,.11.01.01.02.04.01.06.01.04,0,.07,0,.11.01.03.03.07,0,.11.01h.05c0,.02.01.03.03.03h.08s.01.02.02.03v.03s-.02.02-.03.03h-.03v.009998Z"/>
    <path class="cls-10" d="m15.095001,12.065795c.02-.2.07-.4.1-.61l.01.01c0,.07-.03.14-.03.21,0,.05-.03.09-.03.14v.08c-.05.04-.02.1-.03.15h0c-.01,0-.02,0-.03.01l.009998.009999Z"/>
    <path class="cls-10" d="m10.925,9.665796s.04.03.01.06c-.05-.08-.07-.17-.1-.27v-.12c.02.02.03.04.03.07v.03c0,.04,0,.09.03.12,0,.02,0,.05.03.06,0,0,0,.05,0,.05Z"/>
    <path class="cls-8" d="m8.415,5.525795s-.03-.02-.03-.03c0-.11-.06-.21-.06-.32.05.11.07.23.1.35h-.01Z"/>
    <path class="cls-13" d="m8.325,10.895795c-.1-.03-.21-.02-.32,0h-.07c.14-.05.29-.05.43,0h-.039999Z"/>
    <path class="cls-10" d="m10.835,9.245795h0v-.08c.01-.07.03-.15.07-.21,0,.04-.01.08-.02.12-.01,0-.02.01-.02.03v.09c-.02.02,0,.06-.03.08v-.03Z"/>
    <path class="cls-8" d="m8.295,5.055795c-.06-.09-.07-.2-.08-.31.04.1.07.2.08.31Z"/>
    <path class="cls-10" d="m11.625,16.275795s-.06-.02-.09-.03c-.02,0-.05.01-.06-.03.08,0,.17.02.25.04l-.01.01h-.09v.009999Z"/>
    <path class="cls-6" d="m16.565,12.375795s.02.04.04.06c0,.01.01.03.02.04v.05c0,.02.02.04.03.06,0,.01,0,.03.01.04v.03c-.04-.09-.09-.19-.13-.28h.03Z"/>
    <path class="cls-13" d="m7.685,10.995795s-.02.02-.03.03c-.04.02,0,.03,0,.04-.02.03-.05.01-.08.02,0-.02-.03-.05,0-.07.04.03.07-.02.11-.02Z"/>
    <path class="cls-10" d="m11.615,10.295795c-.06-.02-.12-.04-.17-.08h.04c0,.01.03.01.04.01.01.01.03.01.04.01,0,.02.02.03.04.03h0v.03h.01Z"/>
    <path class="cls-10" d="m11.905,10.335795s.05,0,.06.02c-.06.01-.12,0-.18-.02.02-.01.04,0,.06,0,.02.01.04.01.07.01l-.01-.01Z"/>
    <path class="cls-10" d="m15.455,12.405795c-.07.04-.13.04-.2,0h.2Z"/>
    <path class="cls-6" d="m16.095001,12.085795l.02.02h-.21v-.01h.03c.02,0,.03,0,.04-.01h.12Z"/>
    <path class="cls-10" d="m15.095001,12.075795v.13s0,.02-.01.03c0,0-.02,0-.02.01,0-.06.02-.12.030001-.17Z"/>
    <path class="cls-10" d="m10.945,8.855795s.04-.09.08-.12v.04c-.03.02-.05.05-.06.08h-.03.01Z"/>
    <path class="cls-6" d="m9.115,12.085795v-.26c.02.08.02.17,0,.25v.01Z"/>
    <path class="cls-10" d="m12.125,10.355795l.02-.02h.1c-.04.03-.07.03-.120001.02Z"/>
    <path class="cls-10" d="m15.275,11.115795h-.02c0-.05.01-.11.03-.16v.04c0,.04-.01.07-.02.11l.010001.01Z"/>
    <path class="cls-10" d="m10.965,9.755795s.02,0,.03.01c0,.02.02.05.03.07-.03-.02-.05-.05-.05-.09l-.009999.01Z"/>
    <path class="cls-10" d="m11.685001,10.315795s.02-.01.03-.01h.03c0,.01.01.02.02.03-.03,0-.05,0-.07-.02h-.01Z"/>
    <path class="cls-6" d="m16.715,12.805795s-.02-.06-.02-.09l.02.02v.07Z"/>
    <path class="cls-10" d="m11.525,16.645795s-.03-.06-.02-.1h.03v.1h-.009999Z"/>
    <path class="cls-6" d="m16.715,13.075795l-.02.02c0-.03,0-.06.02-.09v.07Z"/>
    <path class="cls-10" d="m8.705,12.825795h-.14c.05-.02.09-.02.14,0Z"/>
    <path class="cls-6" d="m11.525,16.785795s-.01-.06,0-.08h.01v.05c0,.01-.01.02-.02.03h.01Z"/>
    <path class="cls-10" d="m11.115,9.935795s0,.03.01.04c-.03-.01-.05-.03-.05-.06.01,0,.03,0,.04.01v.01Z"/>
    <path class="cls-6" d="m10.835,9.325795v.12c-.02-.04-.02-.08,0-.12h0Z"/>
    <path class="cls-10" d="m11.395001,10.165796s.02.03.03.04c-.03,0-.05-.01-.07-.04h.05-.01Z"/>
    <path class="cls-10" d="m11.175,8.615795s-.02.03-.04.03h-.01c.01-.02.03-.04.06-.04v.01h-.01Z"/>
    <path class="cls-10" d="m10.915,8.925795s0-.03.02-.04c.03.03,0,.04-.02.04Z"/>
    <path class="cls-10" d="m11.215,10.065795s-.04-.02-.04-.04c.03,0,.04.01.04.04Z"/>
    <path class="cls-10" d="m8.515,12.815795s-.05,0-.07-.02c.03,0,.05-.01.07.02Z"/>
    <path class="cls-10" d="m11.505,16.505795v.04c-.02-.02-.02-.04-.03-.07.02,0,.03,0,.03.03Z"/>
    <path class="cls-10" d="m11.445,16.425795s.02,0,.03.01v.03c-.01-.01-.02-.03-.02-.05l-.009999.01Z"/>
    <path class="cls-10" d="m15.305001,10.965795h-.02c0-.02,0-.05.01-.07v.080001l.01-.010001Z"/>
    <path class="cls-10" d="m11.285,10.115795s-.03,0-.03-.02c.02,0,.03,0,.03.02Z"/>
    <path class="cls-10" d="m11.305001,10.115795s0,.02.01.03c-.02,0-.03,0-.04-.03h.03Z"/>
    <path class="cls-10" d="m15.195,12.375795s-.03,0-.03-.02c.02,0,.03,0,.03.02Z"/>
    <path class="cls-8" d="m8.305,5.125795s-.01-.04-.02-.06c.03.01,0,.04.02.06Z"/>
    <path class="cls-10" d="m8.775,12.815795v-.02h.03v.01h-.03v.01Z"/>
    <path class="cls-6" d="m11.525,16.865795h-.01v-.04.04h.01Z"/>
    <path class="cls-10" d="m11.055001,9.905795h.02v.03c-.01,0-.02-.01-.02-.02v-.009999Z"/>
    <path class="cls-10" d="m11.235,10.085795s-.02,0-.02-.02c.01,0,.02,0,.02.02Z"/>
    <path class="cls-10" d="m11.415,10.205796h.03v.02c-.01,0-.02,0-.03-.01v-.01Z"/>
    <path class="cls-10" d="m11.035,9.865795s0,.01.01.02c-.01,0-.02,0-.02-.02h.01Z"/>
    <path class="cls-6" d="m16.705,12.695795h.01v.01l-.01-.01Z"/>
    <path class="cls-10" d="m11.055001,8.705795s0-.02.02-.02c0,.01,0,.02-.02.02Z"/>
    <path class="cls-6" d="m10.025,17.765796v-.01h.03-.03v.01Z"/>
    <path class="cls-6" d="m10.225001,17.765796v-.01h.03v.01h-.03Z"/>
    <path class="cls-8" d="m8.315,5.155795s-.01-.02-.01-.03c.02,0,.01.02.01.03Z"/>
    <path class="cls-10" d="m15.255,12.405795s-.02,0-.03-.01c.01,0,.02,0,.03.01Z"/>
    <path class="cls-10" d="m11.175,8.595795l.01-.01-.01.01Z"/>
    <path class="cls-10" d="m11.155,10.005795h.02v.02l-.01-.01-.01-.01Z"/>
    <path class="cls-10" d="m11.255,10.095795s-.01,0-.02-.01c0,0,.01,0,.02.01Z"/>
    <path class="cls-10" d="m11.035,8.735795l.01-.01-.01.01Z"/>
    <path class="cls-10" d="m11.045,8.725795s0-.01.01-.02c0,0,0,.01-.01.02Z"/>
    <path class="cls-10" d="m11.075,8.685795s0-.01.01-.02c0,0,0,.01-.01.02Z"/>
    <path class="cls-10" d="m15.095001,12.295795h.02v.02l-.01-.01-.01-.01Z"/>
    <path class="cls-10" d="m15.125,12.315795l-.01-.01.01.01Z"/>
    <path class="cls-10" d="m15.155,12.345795l-.01-.01.01.01Z"/>
    <path class="cls-10" d="m15.225001,12.385795s-.01,0-.02-.01c0,0,.01,0,.02.01Z"/>
    <path class="cls-10" d="m15.455,12.385795h.01l-.01.01v-.02.01Z"/>
    <path class="cls-10" d="m15.515001,12.335795v-.02h.02l-.01.01-.01.01Z"/>
    <path class="cls-17" d="m12.625,9.025795c.11-.05.21-.11.31-.18h.05c.03.09.09.17.12.27.11.34-.02.77-.31.98-.12.09-.26.16-.41.21-.02,0-.03.02-.05,0,.22-.24.29-.65.16-.9-.02-.07-.05-.13-.08-.19-.02-.04-.01-.06.03-.09.06-.04.12-.08.18-.12v.019999Z"/>
    <path class="cls-17" d="m11.725001,16.255795c-.08-.02-.16-.04-.25-.04h0c-.08-.02-.15-.04-.23-.04-.06-.04-.06-.1-.05-.17.03-.1.1-.17.16-.24.02-.03.06-.02.08-.02.35.06.69.12,1.04.19.05,0,.11.01.16.03-.18.03-.35.07-.53.1-.15.02-.28.08-.38.2v-.009999Z"/>
    <path class="cls-17" d="m15.335,13.415796c-.14-.02-.26-.07-.39-.13.07-.04.15-.05.23-.04.09.01.13.06.160001.17Z"/>
    <path class="cls-17" d="m16.415,13.725795l-.01.01-.03.03c-.04,0-.07-.02-.1-.05.14-.08.24-.2.31-.34.01-.03.03-.06.06-.07,0,.03-.01.05-.02.08-.06.12-.12.24-.2.35l-.01-.01Z"/>
    <path class="cls-10" d="m13.025,8.845795s.06-.01.09,0c.14.03.29.06.43.08.03,0,.04.03.06.03-.05.02-.09,0-.14-.02-.15-.03-.3-.04-.44-.08v-.01Z"/>
    <path class="cls-10" d="m13.645001,8.955795s.04-.02.06-.01c.08.03.18.01.26.06-.11,0-.21-.02-.320001-.05Z"/>
    <path class="cls-10" d="m11.235,16.175795c.08,0,.16.02.23.04-.05.01-.12-.03-.16.03-.03-.02-.05-.04-.07-.07Z"/>
    <path class="cls-10" d="m11.405,16.355795s.04.04.04.07c-.02-.02-.04-.04-.04-.07Z"/>
    <path class="cls-10" d="m12.985,8.845795h-.05c.02-.02.04-.05.07,0h-.02Z"/>
    <path class="cls-17" d="m11.375,17.145795s-.01.05-.03.06c0-.03,0-.05.03-.06Z"/>
    <path class="cls-6" d="m10.845001,9.155795v.08c-.01-.03-.02-.06,0-.08Z"/>
    <path class="cls-10" d="m11.125,9.985795s.03.01.03.03c-.02,0-.03-.01-.03-.03Z"/>
    <path class="cls-10" d="m11.325,16.255795s.03.01.03.03c-.01,0-.02-.01-.03-.03Z"/>
    <path class="cls-10" d="m11.375,16.315795s.02.01.02.02c-.01,0-.02-.01-.02-.02Z"/>
    <path class="cls-10" d="m15.075,12.275795s.02,0,.02.02c-.01,0-.02,0-.02-.02Z"/>
    <path class="cls-10" d="m10.945,9.745795s0,.01.01.02c0,0,0-.01-.01-.02Z"/>
    <path class="cls-10" d="m11.045,9.885795s0,.01.01.02c0,0,0-.01-.01-.02Z"/>
    <path class="cls-10" d="m11.335,10.145795s.01,0,.02.01c0,0-.01,0-.02-.01Z"/>
    <path class="cls-10" d="m11.365,16.305795l.01.01-.01-.01Z"/>
    <path class="cls-10" d="m11.395001,16.345795l.01.01-.01-.01Z"/>
    <path class="cls-17" d="m11.335,17.205796s0,.02-.01.01c0,0,0-.01.01-.01Z"/>
    <path class="cls-10" d="m15.505,12.345795s0-.01.01-.02c0,0,0,.01-.01.02Z"/>
    <path class="cls-14" d="m5.195,8.255795s-.02.06-.04.06c-.29.07-.58.15-.87.22-.22.06-.43.11-.64.17-.04.01-.05,0-.06-.04-.06-.22-.12-.45-.18-.67-.07-.28-.14-.55-.22-.82-.02-.06-.01-.08.06-.1.39-.1.78-.2,1.17-.3.1-.03.21-.05.31-.08.06-.02.07,0,.08.05.1.4.21.81.31,1.21.02.09.05.18.07.27v.02l.01.01Z"/>
    <path class="cls-14" d="m5.645,10.015795s-.03.04-.05.05c-.17.05-.35.09-.52.14-.3.08-.59.15-.89.23h0c-.16.05-.15.05-.19-.12-.06-.24-.12-.48-.19-.73-.06-.23-.12-.46-.18-.69-.01-.05.01-.05.04-.06.25-.06.49-.13.74-.19.26-.07.51-.13.76-.2.04-.01.06,0,.08.04.13.51.26,1.02.4,1.52v.009999Z"/>
    <path class="cls-14" d="m4.745,6.545795s-.03.02-.05.03c-.12.03-.25.06-.37.09-.27.07-.55.15-.82.22-.1.03-.21.05-.31.08-.05.02-.07,0-.08-.04-.05-.2-.1-.4-.15-.59-.08-.3-.15-.6-.23-.9-.01-.05,0-.07.05-.08.47-.12.94-.24,1.4-.37h.03q.12-.02.15.1c.12.47.24.94.37,1.41,0,.02,0,.04.01.06v-.01Z"/>
    <path class="cls-14" d="m7.815,7.925795s-.02.03-.04.03c-.19.05-.38.1-.57.15-.36.09-.73.19-1.09.28-.18.05-.35.09-.53.14-.05.01-.06,0-.08-.04-.01-.05.01-.06.05-.07.36-.09.72-.19,1.08-.28.36-.09.72-.19,1.07-.28.07-.02.09,0,.1.07h.01Z"/>
    <path class="cls-14" d="m7.395,6.425795s.04.04.05.07c.02.04,0,.04-.04.05-.26.07-.52.13-.78.21-.25.07-.5.13-.74.2-.22.06-.44.12-.66.17-.06.01-.06-.02-.07-.06-.02-.05.02-.05.04-.06.29-.08.58-.15.87-.22.34-.09.68-.18,1.02-.27.1-.03.2-.05.3-.08l.01-.010001Z"/>
    <path class="cls-14" d="m4.985,6.405795s-.01-.04-.02-.07c-.01-.02,0-.04.03-.05.26-.06.52-.13.78-.2.36-.09.73-.19,1.09-.29.1-.03.21-.05.31-.08.03,0,.06-.03.08.03.01.05,0,.07-.05.08-.12.03-.24.06-.36.09-.35.09-.69.18-1.04.27-.26.07-.51.13-.77.2h-.05v.02Z"/>
    <path class="cls-14" d="m5.485,8.185795c-.06,0-.05-.04-.06-.07-.01-.04.02-.03.04-.04.26-.07.52-.14.79-.2.41-.11.82-.22,1.23-.32.06-.02.12-.03.17-.04.03,0,.06-.02.06.02s.03.07-.03.09c-.17.04-.33.08-.49.13-.53.14-1.05.27-1.58.41-.04.01-.09.02-.12.03l-.01-.01Z"/>
    <path class="cls-14" d="m4.675,4.835795s-.03-.04-.03-.06c-.01-.03,0-.05.03-.06.1-.03.2-.06.31-.08.17-.04.35-.09.52-.13.37-.09.73-.19,1.1-.29.09-.02.18-.04.27-.07.05-.02.06.01.07.05.02.04,0,.06-.04.07-.54.14-1.07.28-1.61.42-.19.05-.38.1-.57.15-.01,0-.02,0-.04.01l-.01-.01Z"/>
    <path class="cls-14" d="m4.745,5.335795c-.06,0-.05-.04-.06-.07s.01-.04.04-.05c.23-.06.47-.12.7-.18.48-.13.97-.25,1.45-.38.03,0,.07-.05.1.02.02.05.01.08-.05.09-.3.07-.6.15-.89.23-.42.11-.85.22-1.27.33h-.02v.01Z"/>
    <path class="cls-14" d="m5.275,7.475795l-.03-.06c-.02-.03,0-.05.03-.06.09-.02.19-.05.28-.07.5-.13,1.01-.26,1.51-.39.14-.04.27-.07.41-.11.06-.02.05.02.07.05.02.04,0,.05-.04.06-.32.08-.64.16-.96.25-.36.09-.72.19-1.08.28-.06.02-.12.03-.18.04l-.01.01Z"/>
    <path class="cls-14" d="m5.055,6.695795s.02-.05.05-.06c.35-.08.69-.18,1.04-.27.36-.09.72-.18,1.08-.27.02,0,.03,0,.05-.01.04-.01.06-.02.07.03s0,.07-.04.08c-.5.13-1,.26-1.5.39-.22.06-.44.11-.67.17-.06.02-.07-.01-.07-.06h-.01Z"/>
    <path class="cls-14" d="m5.335,7.755795s.02-.04.04-.05c.32-.08.63-.16.95-.25.4-.11.81-.21,1.21-.32.04-.01.09-.03.1.04,0,.04,0,.05-.04.06-.21.06-.43.11-.64.17-.17.04-.35.09-.52.13-.35.09-.69.18-1.04.27-.07.02-.04-.04-.06-.06v.01Z"/>
    <path class="cls-14" d="m7.105,5.355795s.05.03.06.06c.01.04-.01.04-.04.05-.41.1-.81.21-1.22.32-.31.08-.63.16-.94.25-.05.01-.08,0-.09-.05,0-.03,0-.05.03-.05.23-.06.47-.12.7-.18.3-.08.61-.16.91-.24.19-.05.38-.1.57-.15h.02v-.01Z"/>
    <path class="cls-14" d="m8.005,8.625795s0,.03-.01.04c-.19.05-.37.1-.56.15-.18.05-.35.09-.53.14-.32.08-.63.16-.95.24-.06.01-.12.03-.17.05s-.07,0-.08-.05c-.02-.05.02-.05.05-.06.55-.14,1.1-.28,1.64-.43.17-.04.33-.08.5-.13.06-.02.09-.01.1.05h.01Z"/>
    <path class="cls-14" d="m5.665,8.895795c-.05,0-.05-.03-.05-.05,0-.03,0-.06.04-.07.1-.03.21-.05.31-.08.36-.09.73-.19,1.09-.28.16-.04.32-.09.49-.12.1-.02.19-.05.29-.07.04-.01.06,0,.07.04.01.05,0,.06-.05.07-.6.15-1.2.31-1.8.47-.13.03-.26.07-.38.1l-.01-.009999Z"/>
    <path class="cls-14" d="m4.815,5.685795s-.03-.04-.04-.07c-.02-.04.02-.04.04-.05.2-.05.39-.1.59-.15.3-.08.59-.15.89-.23.23-.06.47-.12.7-.18.05-.01.06,0,.08.04.01.05-.01.06-.05.07-.38.1-.76.19-1.14.29-.32.08-.65.17-.97.25-.03,0-.05.01-.09.02l-.01.010001Z"/>
    <path class="cls-14" d="m7.945,8.945795s-.01.08-.03.13c-.54.14-1.07.28-1.6.42-.14.04-.29.07-.43.11-.04.01-.07.02-.09-.04s.02-.06.05-.07c.47-.12.93-.24,1.4-.36.23-.06.46-.12.7-.18v-.01Z"/>
    <path class="cls-14" d="m7.865,9.345795s0,.08-.02.12c-.24.05-.48.12-.73.19-.37.1-.75.2-1.12.29-.04,0-.1.05-.12-.03,0-.04,0-.06.04-.07.2-.05.41-.1.61-.16l.93-.24c.14-.03.27-.08.41-.1Z"/>
    <path class="cls-13" d="m7.725,10.215795c-.04.23-.08.47-.13.7,0,.03,0,.07-.02.09-.01-.1.03-.19.04-.29.02-.14.05-.27.07-.41,0-.03,0-.05-.03-.07.02,0,.04-.01.06-.02h.01Z"/>
    <path class="cls-13" d="m8.615,8.075795s-.04.03-.07.04v-.03c.02,0,.05-.02.07-.01Z"/>
    <path class="cls-1" d="m2.665,9.345795c-.06.03-.06-.02-.07-.06-.02-.05.03-.03.05-.04.02.03.03.06.03.1h-.01Z"/>
    <path class="cls-1" d="m5.315,11.685795s-.03.06-.07.07c-.03,0-.05,0-.04-.04h.04c.02,0,.05-.01.07-.02v-.009999Z"/>
    <path class="cls-2" d="m5.875,16.845795v.14h0c-.02.459999-.17.860001-.47,1.209999-.33.389999-.75.629999-1.26.709999-.16.02-.32.040001-.47.02-.34-.040001-.66-.139999-.95-.34-.17-.110001-.33-.25-.45-.41-.2-.26-.34-.549999-.41-.87-.07-.36-.05-.72.07-1.07.11-.32.29-.59.53-.82.22-.21.48-.37.77-.46.18-.06.37-.09.56-.08.11,0,.21-.01.32,0h.18c.25.04.47.14.67.28.49.33.78.79.88,1.37.01.08.02.16.02.24v.03l.01.050001Zm-1.86-.1h0s0-.01-.01-.01h0l-.01-.01h0v-.18c.05-.06.02-.13.02-.19v-.08c0-.06.03-.12-.02-.18-.03-.11-.04-.23-.1-.33h.23c.03,0,.04,0,.04-.04,0-.03,0-.05-.04-.04h-.15c0-.02.01-.02.01-.03.07-.11.16-.2.18-.33.02-.09-.04-.17-.13-.19-.08-.01-.16.05-.17.14v.05c.02.02.04-.01.06,0,.03,0,.02-.02.02-.03.01-.02.02-.05.05-.05.06-.01.09.03.07.11-.04.11-.12.2-.18.29-.03.05-.04.08,0,.13-.04.11-.1.21-.1.33-.02.02-.01.05-.01.07v.01s-.01.01-.01.02c-.01.12-.02.23,0,.35.01.06.04.12,0,.17h-.01s-.01,0-.02.01h0l-.01.01s-.01,0-.02.01c-.02,0-.03.01-.03.03h0s0,.01-.01.02c-.05.13-.03.23.07.3.13.09.28.03.35-.14.13.02.26.06.39.07.22.01.44.02.65-.02.12-.02.24-.04.36-.09-.47-.14-.94-.15-1.4-.07h0l-.01-.01h0s0-.01-.01-.02h0s0-.02-.02-.03h0s0-.01-.01-.01l-.02-.040001Zm-.24-1.54s.02-.06,0-.08c-.08-.02-.1.07-.17.08-.01,0,0,.03,0,.04,0,.02.02.01.03.01h.05v.47c.03.01.06,0,.09,0,.02-.02.01-.04.01-.06v-.25c0-.07.01-.13,0-.2v-.03l-.01.02Zm-1.44,1.83s.01-.07.01-.11c0-.1.02-.21-.01-.31-.03-.09-.09-.13-.17-.11-.07.01-.11.07-.11.16v.08c0,.14.06.18.19.14v.1c0,.03,0,.06-.04.06-.03,0-.04-.01-.06-.04-.02-.04-.06-.02-.08-.02-.03,0-.01.04,0,.06.02.06.07.09.13.09.07,0,.12-.04.14-.11v.009998Zm1.39,1.370001v.18c0,.08.07.139999.15.139999s.13-.059999.13-.15v-.129999c0-.08-.03-.110001-.11-.110001s-.11-.030001-.08-.110001c0-.02.02-.040001.05-.040001.02,0,.04,0,.05.030001.01.049999.05.02.08.02s.02-.040001.02-.049999c-.02-.07-.07-.1-.16-.09-.06,0-.11.059999-.12.129999v.190001l-.01-.01Zm1.94-1.59s.03-.03.04-.05c.04-.06.04-.13,0-.19-.03-.06-.08-.07-.14-.07s-.1.04-.12.1c0,.02-.03.06,0,.07.03,0,.08.03.09-.04,0-.03.03-.05.06-.04.03,0,.04.03.04.06,0,.06-.01.11-.08.12-.03,0-.03.02-.03.04,0,.02-.02.05.02.05.07,0,.08.05.08.11,0,.03.02.07-.03.08-.04,0-.07,0-.08-.05-.01-.04-.05-.01-.08-.01-.02,0-.02.02-.02.03,0,.06.07.13.14.14.07,0,.16-.04.17-.1,0-.08.03-.17-.06-.23v-.02Z"/>
    <path class="cls-13" d="m7.875,10.905795c-.03.06-.1.05-.15.07.04-.04.09-.06.15-.07Z"/>
    <path class="cls-13" d="m7.935,10.885795s-.04.02-.06.01c.02-.02.04-.01.06-.01Z"/>
    <path class="cls-13" d="m7.725,10.975795s-.02.02-.03.01c0-.01.02-.01.03-.01Z"/>
    <path class="cls-13" d="m7.695,10.985795s-.01,0-.02.01c0,0,.01,0,.02-.01Z"/>
    <path class="cls-1" d="m4.405,1.895795s-.02-.03,0-.04c.03,0,.02.02.02.04h-.03.01Z"/>
    <path class="cls-14" d="m4.045,3.025795s.03-.01.04-.01c-.01.01-.03.01-.04.01Z"/>
    <path class="cls-1" d="m8.285,15.675795s.05-.02.06,0c.04.03.08.02.12.02.02,0,.04,0,.04.02,0,.03-.03.02-.05.02-.06,0-.12-.04-.18-.05l.01-.010001Z"/>
    <path class="cls-1" d="m14.845001,9.135795s.02-.05.05-.05c.04,0,.05.04.06.08-.04.01-.07-.02-.110001-.03Z"/>
    <polygon class="cls-1" points="5.155 11.745795 5.165 11.745795 5.155 11.755795 5.145 11.755795 5.155 11.745795"/>
    <path class="cls-7" d="m3.755,16.165796v-.01c.02-.02.01-.05.01-.07,0-.12.06-.22.1-.33h0c.06.1.07.22.1.33,0,.06.02.12.02.18v.08c0,.06-.01.13-.02.19v.02c0,.03-.02.07-.03.1-.01.04,0,.04.03.05h0l.01.01h0l.01.01h0l.01.01h0c0,.01,0,.02.02.03h0s0,.01.01.02h0s0,.01.01.01h0v.12c-.07.17-.22.22-.35.14-.09-.07-.12-.17-.07-.3,0,0,0-.01.01-.02h0s.02-.01.03-.03c0,0,.01,0,.02-.01l.01-.01h0s.01,0,.02-.01h.01c.03,0,.04-.02.03-.04-.03-.16-.03-.33-.03-.49l.04.019999Z"/>
    <path class="cls-13" d="m4.075,16.955796v-.12c.47-.08.93-.08,1.4.07-.12.05-.24.07-.36.09-.22.04-.43.04-.65.02-.13,0-.26-.04-.39-.07v.009999Z"/>
    <path class="cls-3" d="m2.335,17.035795c-.02.07-.06.11-.14.11-.06,0-.11-.03-.13-.09,0-.02-.02-.05,0-.06.02,0,.07-.02.08.02.01.03.03.04.06.04s.04-.03.04-.06v-.1c-.14.04-.19,0-.19-.14v-.08c0-.09.04-.15.11-.16.08-.01.14.02.17.11v.42-.009998Zm-.1-.32h0v-.06c0-.03,0-.05-.04-.05-.03,0-.05.02-.05.05v.13c0,.03.02.05.05.05s.04-.02.03-.05v-.06l.01-.009999Z"/>
    <path class="cls-3" d="m3.725,18.405795v-.190001c0-.07.05-.129999.12-.129999.08,0,.14.030001.16.09,0,.02.01.049999-.02.049999-.02,0-.06.030001-.08-.02,0-.030001-.03-.030001-.05-.030001-.03,0-.04.02-.05.040001-.02.08,0,.110001.08.110001s.11.030001.11.110001v.129999c0,.09-.05.139999-.13.15-.08,0-.14-.059999-.15-.139999v-.18l.01.01Zm.18.110001v-.049999c0-.02,0-.049999-.03-.049999s-.05,0-.06.030001c-.02.049999-.02.1,0,.139999,0,.02.02.049999.05.040001.03,0,.04-.030001.03-.059999v-.049999l.01-.000004Z"/>
    <path class="cls-3" d="m5.665,16.805795c.1.06.07.15.06.23,0,.06-.09.11-.17.1-.06,0-.14-.08-.14-.14,0-.01,0-.03.02-.03.03,0,.07-.03.08.01.01.05.04.06.08.05.05-.01.03-.05.03-.08,0-.06,0-.11-.08-.11-.03,0-.02-.03-.02-.05s0-.03.03-.04c.07,0,.09-.06.08-.12,0-.03,0-.05-.04-.06-.03,0-.06.01-.06.04,0,.07-.06.05-.09.04-.04,0-.01-.04,0-.07.02-.06.05-.09.12-.1.06,0,.11,0,.14.07.03.06.03.13,0,.19-.01.02-.03.03-.04.05v.02Z"/>
    <path class="cls-3" d="m3.875,15.755795h0c-.04-.04-.02-.08,0-.13.06-.1.14-.18.18-.29.03-.08,0-.12-.07-.11-.03,0-.04.03-.05.05,0,.01,0,.03-.02.03s-.04.03-.06,0v-.05c0-.09.09-.15.17-.14.09.01.15.1.13.19-.02.13-.12.22-.18.33,0,0,0,.01-.01.03h.15c.04,0,.04.01.04.04s-.01.04-.04.04h-.23l-.01.010001Z"/>
    <path class="cls-3" d="m3.775,15.745795h-.09c0-.16.01-.31,0-.47-.01-.02-.03,0-.05,0-.01,0-.03,0-.03-.01v-.04c.07,0,.09-.1.17-.08v.62-.02Z"/>
    <path class="cls-10" d="m3.755,16.165796c0,.17,0,.33.03.49,0,.03,0,.05-.03.04.03-.06,0-.12,0-.17-.03-.12-.01-.23,0-.35,0,0,0-.01.01-.02l-.01.010001Z"/>
    <path class="cls-14" d="m3.775,15.745795v-.51c.02.06,0,.13,0,.2v.25c0,.02,0,.05-.01.06h.01Z"/>
    <path class="cls-12" d="m3.675,15.275795c.01.16,0,.31,0,.47-.01-.16,0-.31,0-.47Z"/>
    <path class="cls-14" d="m2.335,17.035795v-.42c.03.1,0,.21.01.31,0,.03.01.07-.01.11Z"/>
    <path class="cls-10" d="m3.975,16.715795s-.05-.02-.03-.05c.01-.03.02-.07.03-.1v.16-.009999Z"/>
    <path class="cls-10" d="m3.975,16.535795c0-.06.01-.13.02-.19,0,.07.04.13-.02.19Z"/>
    <path class="cls-10" d="m3.995,16.255795c0-.06-.02-.12-.02-.18.05.06.02.12.02.18Z"/>
    <path class="cls-14" d="m3.775,15.205796v-.08c.03.03.02.05,0,.08Z"/>
    <path class="cls-10" d="m3.775,16.075795s0,.05-.01.07c0-.03-.01-.05.01-.07Z"/>
    <path class="cls-10" d="m3.695,16.745795s-.01.02-.03.03c0-.02,0-.03.03-.03Z"/>
    <path class="cls-10" d="m4.045,16.785795s-.02-.01-.02-.03c.01,0,.02.01.02.03Z"/>
    <path class="cls-10" d="m3.745,16.705796s-.01,0-.02.01c0,0,.01,0,.02-.01Z"/>
    <path class="cls-10" d="m3.725,16.715795l-.01.01.01-.01Z"/>
    <path class="cls-10" d="m3.995,16.725795l-.01-.01.01.01Z"/>
    <path class="cls-10" d="m4.015,16.745795l-.01-.01s.01,0,.01.01Z"/>
    <path class="cls-10" d="m4.035,16.755795l-.01-.01s.01,0,.01.01Z"/>
    <path class="cls-10" d="m3.675,16.775795s0,.01-.01.02c0,0,0-.01.01-.02Z"/>
    <path class="cls-10" d="m4.055,16.805795s0-.01-.01-.02c0,0,0,.01.01.02Z"/>
    <path class="cls-10" d="m4.075,16.825795s-.01,0-.01-.01l.01.01Z"/>
    <path class="cls-2" d="m2.235,16.715795v.06c0,.03,0,.05-.03.05s-.05-.02-.05-.05v-.13c0-.03.02-.05.05-.05s.04.02.04.05v.06h0l-.01.009999Z"/>
    <path class="cls-2" d="m3.905,18.515796v.049999c0,.030001,0,.049999-.03.059999-.03,0-.05-.02-.05-.040001-.01-.049999-.02-.1,0-.139999.01-.030001.03-.040001.06-.030001.03,0,.03.030001.03.049999v.049999l-.01.000004Z"/>
    <g>
      <path class="cls-5" d="m15.465,4.295795c-.06-.09-.11-.1-.2-.08-.07.02-.13.04-.21,0-.04-.02-.06-.04-.07-.07-.02-.07-.04-.15-.08-.22-.04-.09,0-.13.07-.16.03-.02.07-.04.1-.06.1-.03.12-.09.11-.2-.03-.18,0-.37.03-.55.01-.05,0-.07-.04-.09-.06-.03-.11-.07-.16-.11-.07-.05-.09-.11-.03-.19.04-.06.06-.13.09-.19.03-.08.08-.09.15-.07.09.02.18.09.26.06.07-.03.11-.13.17-.19.1-.09.2-.19.32-.25.05-.02.06-.06.04-.11-.02-.07-.03-.14-.04-.22-.01-.07.02-.1.08-.12.07-.03.15-.05.22-.08.08-.03.13,0,.17.07.03.05.06.1.08.15.03.07.07.08.13.07.16-.02.32-.02.48.02q.16.04.26-.1c.02-.02.030001-.05.049999-.07.07-.09.120001-.1.219999-.03.059999.04.139999.05.200001.1.049999.04.059999.08.040001.13-.02.06-.02.13-.059999.19-.030001.05,0,.08.030001.11.16.12.290001.27.4.43.040001.06.08.06.139999.05.08-.01.17-.06.26,0-.07.13-.139999.27-.219999.4-.15.26-.35.48-.559999.69-.049999.05-.08.11-.16.12.01-.05.030001-.1.040001-.15.059999-.33,0-.62-.24-.86-.27-.29-.73-.37-1.1-.2-.24.12-.4.31-.49.55-.08.24-.07.49.05.73.1.2.24.35.45.44.09.04.18.07.28.09-.07.06-.17.08-.25.1-.27.08-.57.12-.85.12"/>
      <path class="cls-20" d="m16.605,8.925795c-.133332-.086667-.263333-.076667-.39.03-.190001.16-.1.04-.15,0-.04-.03-.07-.06-.11-.1-.13-.12-.13-.14-.02-.28q.08-.1,0-.22c-.09-.13-.14-.28-.19-.42-.02-.05-.04-.07-.09-.07-.04,0-.07-.01-.11-.02-.14-.02-.15-.03-.16-.16v-.1c-.04-.16.01-.18.14-.19.12-.01.19-.06.21-.19.02-.16.09-.3.17-.43.01-.02.01-.03,0-.05-.03-.06-.07-.1-.11-.15-.06-.07-.06-.12,0-.19.04-.05.08-.09.13-.14.05-.05.11-.06.17-.01.12.09.22.14.36.01.08-.07.2-.12.32-.14.08-.02.12-.05.13-.14v-.08c0-.1.04-.14.14-.15.07,0,.14-.02.21,0,.1.03.11.13.120001.21.02.08.049999.12.139999.13.139999.02.27.06.379999.14.09.06.139999.05.23-.03.030001-.02.049999-.05.08-.06.049999-.03.1-.04.139999.02.040001.05.1.09.15.14.049999.05.049999.1.02.15-.030001.05-.059999.09-.09.14-.02.03-.030001.06,0,.1.110001.15.190001.32.24.51,0,.02.02.04.030001.05-.030001.04-.049999.09-.08.13-.209999.32-.450001.62-.75.87-.33.27-.69.48-1.09.62-.06.02-.13.03-.17.08v-.01Zm.9-2.16c-.36-.19-.91.03-1.08.47-.16.4.05.94.49,1.1.39.14.91-.03,1.09-.5.15-.41-.040001-.93-.49-1.08l-.01.01Z"/>
      <path class="cls-19" d="m15.735,4.615795c.12.1.2.18.1.33-.02.03-.02.06-.02.1,0,.03.01.07.04.09.09.06.2.1.3.14.04.01.08,0,.1-.04.03-.05.07-.08.1-.14.03-.06.06-.13.15-.1.15.05.3.07.45.05s.26.01.31.17c0,.02.03.04.04.06.03.06.08.07.139999.05.07-.03.15-.05.219999-.08.09-.03.110001-.08.09-.17-.01-.07-.02-.13-.040001-.2,0-.03,0-.05.02-.06.190001-.11.35-.25.48-.43.01-.02.02-.04.049999-.04.08.02.17.02.23.06.08.05.110001,0,.139999-.05.059999-.08.08-.18.120001-.26.030001-.06,0-.09-.040001-.12-.059999-.05-.120001-.1-.190001-.14-.030001-.02-.040001-.04-.030001-.08.049999-.21.08-.42.030001-.64,0-.03,0-.05.030001-.07.08-.03.139999-.08.209999-.12.059999-.04.07-.09.049999-.15-.02-.08-.049999-.15-.08-.22,0-.03-.02-.05-.049999-.06-.07.13-.139999.27-.219999.4-.15.26-.35.48-.559999.69-.049999.05-.08.11-.16.12-.120001.24-.280001.44-.54.54-.14.05-.28.06-.43.06h-.04c-.07.06-.17.08-.25.1-.27.08-.57.12-.85.12,0,0,.04.05.08.08l.020003.010001Z"/>
      <path class="cls-16" d="m16.605,8.925795c.05-.05.12-.06.17-.08.4-.14.76-.35,1.09-.62.299999-.25.540001-.55.75-.87.030001-.04.049999-.09.08-.13.09,0,.17.01.26.04.040001.01.059999.04.059999.08v.23c0,.06-.02.09-.07.1-.07.02-.129999.04-.200001.05-.040001,0-.059999.02-.059999.06-.030001.18-.059999.36-.18.5-.030001.03-.02.07,0,.1.040001.05.07.09.110001.14.049999.05.040001.1,0,.14-.049999.06-.110001.12-.17.18-.040001.04-.09.05-.139999.01-.110001-.09-.209999-.14-.360001-.03-.110001.08-.24.14-.379999.16-.049999,0-.049999.04-.059999.07,0,.06-.01.13-.02.19,0,.05-.040001.07-.08.08-.08,0-.16.01-.24.02-.06,0-.09-.03-.1-.08-.01-.04-.03-.09-.03-.13,0-.09-.07-.12-.15-.14-.1-.02-.2-.04-.29-.08l.009998.01Z"/>
      <path class="cls-18" d="m15.035,6.405795v-.05c.06-.29.05-.57,0-.86,0-.05,0-.08.04-.11.09-.06.18-.14.27-.2.05-.03.07-.08.05-.14-.05-.12-.1-.24-.15-.36-.04-.08-.09-.11-.19-.09-.09.02-.19.04-.28.07-.06.02-.11,0-.14-.05-.06-.09-.14-.17-.22-.25-.12-.12-.24-.23-.39-.32-.05-.03-.1-.08-.07-.14.05-.1.04-.21.08-.31.02-.06-.01-.12-.08-.15-.12-.05-.24-.09-.36-.14-.08-.03-.14,0-.18.06-.05.08-.11.17-.15.25-.04.07-.08.09-.15.07-.04-.01-.08-.02-.13-.02-.23-.01-.47-.01-.69.04-.05.01-.08,0-.11-.05-.06-.09-.13-.18-.19-.27-.04-.06-.09-.07-.15-.05-.13.05-.26.11-.39.17-.06.03-.08.09-.06.15.04.1.04.2.08.29.02.07,0,.11-.06.16-.22.16-.41.35-.55.59-.03.05-.06.08-.13.07-.07,0-.14-.03-.21-.04-.15-.04-.22-.04-.26.06-.05.12-.1.24-.14.37-.02.07,0,.13.05.16.09.05.17.12.27.17.05.02.07.05.06.12-.06.29-.04.57.02.85,0,.05,0,.08-.05.11l-.27.18c-.05.03-.08.09-.05.15.05.11.1.22.15.34.05.11.09.13.21.1.08-.02.16-.04.25-.07.07-.02.11,0,.16.06.17.23.37.44.62.59.03.02.05.04.04.08v.02c2.2-.3,3.11-1.09,3.47-1.61h-.020001Zm-2.74.780001c-.64-.23-1.01-1.03-.73-1.68.24-.67,1.02-1.01,1.68-.74.67.28,1,.97.73,1.67-.28.72-1,.99-1.68.75Z"/>
      <path class="cls-9" d="m11.605,8.505795c.11.05.22.09.33.13.09.03.14.02.19-.07.03-.05.06-.09.09-.14.03-.06.05-.13.1-.17s.12,0,.19.02c.25.03.49,0,.73-.04.06-.01.1,0,.13.05.05.08.11.16.16.24.06.09.1.11.2.07.12-.04.23-.1.34-.15.05-.03.1-.07.08-.15-.03-.11-.05-.23-.08-.35,0-.03-.01-.06.02-.08.24-.19.45-.39.61-.65.02-.03.05-.06.1-.04.1.02.2.04.3.06.11.02.16,0,.2-.11.02-.05.04-.1.06-.14h0c.02-.06.05-.12.07-.18.02-.06,0-.11-.05-.15-.08-.05-.16-.12-.25-.16-.04-.02-.09-.04-.1-.08-.37.52-1.27,1.32-3.47,1.61-.03.1-.03.2-.05.3-.02.1,0,.14.09.18h.010001Z"/>
    </g>
  </g>
  <rect class="cls-15" width="22" height="22"/>
</svg>