<?xml version="1.0" encoding="UTF-8"?>
<svg id="Capa_1" data-name="Capa 1" xmlns="http://www.w3.org/2000/svg" viewBox="0 0 22 22">
  <defs>
    <style>
      .cls-1 {
        fill: #429f46;
      }

      .cls-2 {
        fill: #fff;
      }

      .cls-3 {
        fill: #d6def1;
      }

      .cls-4 {
        fill: #848585;
      }

      .cls-5 {
        fill: #4ab9e6;
      }

      .cls-6 {
        fill: #718ac5;
      }

      .cls-7 {
        fill: #f19001;
      }

      .cls-8 {
        fill: #f5f3f5;
      }

      .cls-9 {
        fill: #8d99b5;
      }

      .cls-10 {
        fill: #221e20;
      }

      .cls-11 {
        fill: #e3e4e3;
      }

      .cls-12 {
        fill: #f4b68c;
      }

      .cls-13 {
        fill: none;
      }

      .cls-14 {
        fill: #a9b7dd;
      }

      .cls-15 {
        fill: #149939;
      }

      .cls-16 {
        fill: #f2c851;
      }

      .cls-17 {
        fill: #1d1e1c;
      }

      .cls-18 {
        fill: #dc7668;
      }
    </style>
  </defs>
  <g>
    <path class="cls-1" d="m11.92,3.6h2.88c.55,0,.91.36.91.91v8.31c0,.46.02.91.04,1.37-.06.11-.04.24-.04.36,0,1.48-.01,2.96,0,4.43,0,.48-.12.85-.56,1.08H4.22c-.46-.25-.59-.65-.56-1.15.02-.32,0-.63,0-.95V4.57c0-.24.06-.44.2-.62.16-.2.37-.34.64-.34h2.91v.66h-2.45c-.14,0-.23.02-.23.19,0,.73-.01,1.46-.05,2.2-.03.49,0,.99,0,1.48-.07.07-.07.15,0,.22l-.05,1.68c-.07.05-.07.11,0,.17-.02.43-.03.86-.05,1.29-.1.19-.09.37-.01.56-.03.5-.09,1-.09,1.49,0,.94-.1,1.87-.13,2.8-.02.45-.02.9-.07,1.35-.07.56-.09.56.47.57.01.08-.02.16.06.22.06.23.25.16.39.16h9.3c.17,0,.23-.04.23-.22,0-1.04,0-2.09-.01-3.13,0-.58,0-1.16.01-1.73,0-.07,0-.15-.09-.18.03-.33.08-.66.08-1,.03-1.61.06-3.22.05-4.83,0-.72-.03-1.45-.03-2.17,0,0,.02-.01.02-.02s-.01-.03-.02-.04v-.28c.07-.08.07-.15,0-.22,0-.09-.01-.18-.02-.27.05-.22-.02-.3-.25-.29-.84.01-1.68,0-2.52,0,.05-.22-.06-.44,0-.67,0,0-.03,0-.03,0Z"/>
    <path class="cls-8" d="m15.15,20.06c.44-.23.57-.6.56-1.08-.02-1.48,0-2.96,0-4.43,0-.12-.02-.24.04-.36.06,0,.12-.01.17.06.3.43.6.87.87,1.32.39.65.72,1.31.94,2.04.02.06.05.12.08.18.07.14.19.18.37.11-.41.51.06.92.08,1.38,0,.26.1.53.08.8h-3.18s0-.02-.01-.02Z"/>
    <path class="cls-7" d="m8.76,2.71s0-.04.01-.06c.15-.07.19-.2.19-.35h0s.06-.02.05-.06l.02.02-.02-.02c.19-.09.37-.17.6-.16.21,0,.42.02.63.05h.02c0,.06.02.11.09.12.04.05.11.09.13.14.17.45.46.69.96.71.17,0,.35.16.39.37v1.03c0,.16-.06.21-.21.21h-3.88c-.17,0-.23-.06-.22-.23,0-.38-.02-.76.05-1.14.06-.23.25-.23.43-.26.19-.03.38-.04.53-.17.07,0,.11-.04.11-.11h0c.07,0,.11-.04.11-.11v.02h0Zm1.17-.39h0c-.17-.19-.33-.18-.5,0-.09.14-.24.26-.12.47.17.31.41.34.72.08.19-.15.19-.29,0-.44-.02-.02-.03-.03-.05-.05s-.04-.04-.06-.06h.01Z"/>
    <path class="cls-18" d="m7.58,3.36c-.07.38-.04.76-.05,1.14,0,.17.05.23.22.23h3.88c.16,0,.21-.05.21-.21v-1.03c.06.02.06.07.07.12-.07.22.05.44,0,.67-.05.17.05.37-.06.53-1.44-.03-2.88-.03-4.32,0-.15-.15.03-.37-.11-.53v-.66c.09-.06.04-.21.16-.25h0Z"/>
    <path class="cls-8" d="m9.38,2.03c.16-.14.55-.15.73,0h-.73Z"/>
    <path class="cls-18" d="m9.38,2.03h.73c.05.04.1.08.15.12-.21-.03-.42-.04-.63-.05-.22,0-.41.06-.6.16.05-.18.21-.19.35-.22h0Z"/>
    <path class="cls-18" d="m8.97,2.3c0,.15-.04.28-.19.35,0-.16.07-.27.19-.35Z"/>
    <path class="cls-18" d="m10.36,2.26c-.07,0-.09-.06-.09-.12.07,0,.08.06.09.12Z"/>
    <path class="cls-18" d="m8.65,2.83c0,.07-.04.11-.11.11,0-.06.05-.1.11-.11Z"/>
    <path class="cls-18" d="m8.76,2.71c0,.07-.04.11-.11.11.04-.04.07-.07.11-.11Z"/>
    <path class="cls-18" d="m9.02,2.25s-.01.06-.05.06c.02-.02.04-.04.05-.06Z"/>
    <path class="cls-2" d="m14.7,5.4c0,.73.03,1.45.03,2.17.01,1.61-.02,3.22-.05,4.83,0,.33-.05.66-.08,1-.22.08-.05.24-.07.36-.07.56-.11,1.12-.18,1.68-.08.66-.26,1.29-.45,1.92-.05.16-.1.35-.34.35-.45.02-.89.11-1.32.19-1.18.21-2.38.26-3.57.35-.79.06-1.6.12-2.4.07-.52-.04-1.04-.06-1.56-.05-.56,0-.54,0-.47-.57.06-.45.06-.9.07-1.35.03-.93.13-1.86.13-2.8,0-.49.06-1,.09-1.49-.05-.19.12-.37.01-.56.02-.43.03-.86.05-1.29.07-.05.07-.11,0-.17.02-.56.03-1.12.05-1.68v-.22c0-.49-.02-.99,0-1.48.04-.73.06-1.46.05-2.2,0-.18.09-.19.23-.19h2.12c0,.18.01.36,0,.53-.03.25.06.32.31.31,1.46-.01,2.92,0,4.38,0,.48,0,.49,0,.52-.48,0-.12.02-.19.17-.18.74.04,1.48.08,2.22.11,0,.09.01.18.02.27v.56s.04.01.04.01Zm-4.81,2.57s.08-.02.12-.03c.89.02,1.78.04,2.67.06.19.05.38.09.57-.02-.01-.12.08-.27-.17-.29-.68-.04-1.37-.07-2.05-.07-.15-.06-.31-.03-.46-.02-.6,0-1.21-.02-1.81-.03-.15,0-.19.05-.2.19,0,.15.08.16.19.17.29,0,.58.01.86.02.09.07.19.03.29.03,0,0-.01-.01-.01,0h0Zm-2.96,8.17c.06-.13.07-.26,0-.39.05-.14.2-.18.28-.3.03-.06.08-.11.02-.17-.06-.07-.13-.03-.2,0-.11.07-.14.22-.28.25h-.72c-.22-.05-.31.05-.28.27.01.08,0,.17,0,.25,0,.48.24.71.73.69.15,0,.31.08.45-.04,0-.19.01-.37.02-.56h-.02Zm.12-5.49c.08-.31.02-.62.04-.94.08-.11.17-.21.25-.32.04-.05.05-.12,0-.17-.06-.05-.12-.03-.17.02-.08.08-.16.17-.25.25-.08,0-.16-.02-.25-.02-.57,0-.84.27-.81.84-.02.48-.02.38.36.38.1,0,.2-.01.3-.02.18,0,.36.07.53-.04,0,0,0,.02,0,.02Zm.06-2.57v-.11s.04-.07,0-.11v-.11s.03-.08.05-.12c.09-.14.37-.3.23-.41-.19-.16-.29.15-.43.26-.18,0-.36-.06-.53.05-.18-.03-.28.04-.29.23-.01.09-.01.19.04.27h-.2s0-.06-.01-.08c0-.01-.02-.02-.05-.04v.59c0,.06,0,.12.07.16.16.08.47.06.66-.07,0-.1-.15-.14-.11-.26l.29-.29c.07,0,.14.01.2.05v.45s-.03.04-.04.05c.07.09.11.06.11-.03.01-.14,0-.28.01-.41,0,0,.02-.01.01-.02,0-.01,0-.03-.01-.04h0Zm2.17,1.44c-.08,0-.16-.02-.23.04-.21.06-.57-.16-.54.3,0,.03,0,.05.04.05l1.06.02s.04.02.06.03c.68,0,1.36,0,2.03.01.15,0,.3.05.44.03.11-.01.25-.04.22-.24-.02-.18-.14-.14-.24-.14h-1.84c-.03-.13-.14-.1-.23-.1h-.78s.01,0,0,0h0Zm-3.47,4.02c-.13.31-.02.64-.05.96.02.05.04.09.06.14,0,0-.01.01-.01.02v.03c.38.05.76.08,1.14,0,.05-.27.09-.53-.03-.79.06-.18.22-.29.32-.44.04-.06.14-.1.04-.17-.06-.04-.16-.11-.23.03-.06.12-.17.19-.29.25-.38-.09-.61.12-.81.39-.02-.02-.03-.03-.05-.05,0-.1.04-.17.09-.25.04-.05.12-.13.02-.19-.07-.04-.19-.05-.22.08,0,0,.02-.01.02-.01Zm.02-1.45v.24c.04.13-.16.37.15.38.29.01.58,0,.87,0,.08,0,.16-.02.14-.12-.05-.26.09-.51.04-.77.03-.16.19-.22.26-.36.03-.06.15-.1.07-.17-.06-.06-.18-.06-.25.02-.07.07-.1.18-.22.19h-.83c-.12,0-.19.02-.19.17s-.01.29-.02.44l-.02-.02Zm3.73,3.54c-.32,0-.65-.02-.97-.02-.29,0-.31.04-.2.36.39.11.78.03,1.18.05.17,0,.33.01.49,0,.11-.01.2-.08.18-.22-.02-.15-.13-.1-.21-.11h-.36c-.02-.07-.04-.13-.12-.04,0,0,.01-.02,0-.02h0Zm2.41-1.18c-1.11-.02-2.23-.04-3.34-.06-.12,0-.25-.02-.24.17,0,.18.09.22.25.22,1.08,0,2.16-.02,3.23.06.23.02.31-.07.28-.28,0-.12-.09-.11-.17-.11h-.01Zm1.12-.45c.06-.25-.06-.32-.29-.3-.27.02-.55-.05-.82.01-.11-.17-.25-.12-.39-.04-.52,0-1.04,0-1.56-.01-.01-.05-.04-.1-.09-.09-.35.01-.69-.06-1.04.04h-.3c-.13,0-.21.02-.2.18,0,.14.04.24.2.23h.36s.05-.02.07-.03c1.1.03,2.19.06,3.29.08.26,0,.53.1.79-.04,0,0-.02-.03-.02-.03Zm-3.75-2.02c.91-.03,1.82.1,2.74.05.02,0,.04,0,.06-.01h.1c.28.01.57.07.85-.03.08-.12.08-.22-.06-.29-.07-.09-.15-.06-.23-.04-.54-.01-1.08-.03-1.62-.03-.46,0-.91.04-1.37,0-.39-.04-.78-.04-1.16-.06-.11,0-.17.03-.17.15,0,.11,0,.21.16.2.1,0,.2,0,.31.01.13.08.26.03.39.04,0,0,0,.01,0,.01Zm.78-6.34c-.85-.02-1.69-.04-2.54-.05-.56,0-.55,0-.55.55,0,.19.07.23.24.23.85.01,1.71.03,2.56.05.22,0,.45,0,.67.01.56.01,1.12.03,1.68.04.04,0,.05-.01.05-.05,0-.17,0-.35.01-.52.02-.17-.06-.21-.22-.22-.4-.03-.79.03-1.18.01-.23-.2-.48-.1-.73-.06,0,0,0,.01.01,0h0Zm-.39,4.73h-1.03c-.11,0-.2,0-.21.16,0,.16.08.18.21.18.38,0,.76.02,1.14.04,1.04.05,2.08.05,3.12.07.15,0,.24-.02.24-.21,0-.18-.11-.19-.24-.18-1.08.03-2.16-.04-3.23-.06Zm-.27,6.05h-.92c-.16,0-.18.11-.2.22-.02.15.11.12.19.12.78,0,1.56.09,2.34.06.25,0,.5.02.75.04.38.03.76.05,1.14-.02.14-.02.32-.06.29-.23-.02-.14-.2-.13-.33-.13-1.09,0-2.17,0-3.26-.06Zm1-7.67h1.07c.11,0,.2-.02.2-.16,0-.13-.06-.18-.18-.18-.35-.01-.7-.04-1.05-.05-.58-.02-1.15.03-1.73-.03-.13-.01-.22-.04-.23.13,0,.16.03.25.21.24.61-.03,1.22.1,1.71.05Zm-.98,3.64h-.87c-.12,0-.19.03-.19.17,0,.12.05.16.17.17.58.06,1.17.05,1.75.05.13,0,.21-.02.21-.18s-.05-.22-.21-.21h-.87s.01,0,0,0h0Z"/>
    <path class="cls-11" d="m4.73,18.28c.52,0,1.04.01,1.56.05.8.05,1.6,0,2.4-.07,1.19-.09,2.38-.14,3.57-.35.43-.08.87-.17,1.32-.19.23,0,.29-.19.34-.35.19-.63.37-1.26.45-1.92.07-.56.11-1.12.18-1.68.01-.12-.15-.28.07-.36.1.02.09.1.09.18,0,.58,0,1.16-.01,1.73-.08.01-.1.07-.1.14,0,.34,0,.68-.05,1.03-.07.48-.12.97-.22,1.45-.04.17-.13.23-.29.23-.44,0-.87.07-1.3.11-1,.07-2,.16-3,.16-1.41,0-2.83.1-4.24.07h-.7c-.07-.06-.04-.15-.06-.22h0s0-.01,0-.01Z"/>
    <path class="cls-8" d="m4.78,18.5h.7c1.41.03,2.83-.07,4.24-.07,1,0,2-.09,3-.16.43-.03.86-.1,1.3-.11.16,0,.26-.07.29-.23.1-.48.15-.97.22-1.45.05-.34.05-.68.05-1.03,0-.07.01-.13.1-.14,0,1.04,0,2.09.01,3.13,0,.18-.06.22-.23.22H5.16c-.14,0-.33.07-.39-.16,0,0,.01,0,0,0h.01Z"/>
    <path class="cls-11" d="m14.68,4.57c-.74-.04-1.48-.07-2.22-.11-.15,0-.17.06-.17.18-.02.32-.19.48-.52.48h-4.38c-.25,0-.34-.07-.31-.31.02-.17,0-.35,0-.53h.33c.14.15-.04.38.11.53.06.05.14.04.22.04h3.92c.06,0,.13-.02.19-.03.11-.17.02-.36.06-.53.84,0,1.68.01,2.52,0,.23,0,.31.08.25.29,0,0,0-.01,0,0h0Z"/>
    <path class="cls-3" d="m4.57,11.5c.1.19-.06.37-.01.56-.07-.19-.09-.38.01-.56Z"/>
    <path class="cls-3" d="m4.62,10.05c.07.06.07.11,0,.17-.07-.06-.06-.11,0-.17Z"/>
    <path class="cls-3" d="m4.67,8.14v.22c-.07-.08-.07-.15,0-.22Z"/>
    <path class="cls-3" d="m14.7,5.06v-.22c.08.07.07.15,0,.22Z"/>
    <path class="cls-3" d="m14.7,5.4v-.06s.02.03.02.04l-.02.02Z"/>
    <path class="cls-8" d="m10.04,2.88c-.31.27-.55.23-.72-.08-.12-.21.03-.33.12-.47h.5s.04.04.06.06.03.03.05.05v.44h-.01Z"/>
    <path class="cls-18" d="m9.93,2.33h-.5c.17-.19.33-.19.5,0Z"/>
    <path class="cls-18" d="m10.04,2.88v-.44c.19.15.19.29,0,.44Z"/>
    <path class="cls-18" d="m9.99,2.38s-.04-.04-.06-.06c.02.02.04.04.06.06Z"/>
    <path class="cls-12" d="m11.85,4.8c-.06.01-.13.03-.19.03h-3.92c-.07,0-.15.01-.22-.04,1.44-.02,2.88-.03,4.32,0,0,0,.01.01,0,0h0Z"/>
    <path class="cls-6" d="m10.84,5.73c.39.02.79-.04,1.18-.01.16.01.24.04.22.22-.02.17,0,.35-.01.52-.02.02-.04.03-.05.05-.56-.01-1.12-.03-1.68-.04-.22-.09-.45-.07-.67-.01-.85-.02-1.71-.04-2.56-.05-.17,0-.24-.04-.24-.23,0-.37.18-.56.55-.55.85.01,1.69.03,2.54.05.24.02.49.04.73.06,0,0-.01-.01,0,0h-.01Z"/>
    <path class="cls-3" d="m9.72,10.38c1.08.02,2.15.09,3.23.06.13,0,.23,0,.24.18,0,.19-.09.21-.24.21-1.04-.02-2.08-.02-3.12-.07-.38-.02-.76-.03-1.14-.04-.13,0-.21-.03-.21-.18s.1-.16.21-.16c.34,0,.69,0,1.03,0Z"/>
    <path class="cls-3" d="m9.45,16.43c1.09.07,2.17.06,3.26.06.13,0,.31-.01.33.13.02.17-.15.2-.29.23-.38.06-.76.05-1.14.02-.25-.02-.5-.05-.75-.04-.78.03-1.56-.07-2.34-.06-.09,0-.21.03-.19-.12.02-.1.04-.22.2-.22,0,0,.92,0,.92,0Z"/>
    <path class="cls-6" d="m13.02,11.73c.14.07.15.17.06.29-.28.01-.57-.05-.85.03h-.1s-.05-.01-.06.01c-.91.05-1.83-.08-2.74-.05-.12-.09-.26-.04-.39-.04-.1,0-.2-.01-.31-.01-.15,0-.15-.09-.16-.2,0-.13.06-.16.17-.15.39.02.77.01,1.16.06.45.05.91,0,1.37,0,.54,0,1.08.02,1.62.03.06.13.14.12.23.04,0,0,0-.01,0-.01Z"/>
    <path class="cls-6" d="m12.67,7.99c-.89-.02-1.78-.04-2.67-.06h-.41c-.29,0-.58-.02-.86-.02-.12,0-.2-.02-.19-.17,0-.14.05-.2.2-.19.6.02,1.21.02,1.81.03.15.08.31.04.46.02.69,0,1.37.03,2.05.07.25.01.16.17.17.29-.19,0-.38.01-.57.02,0,0,.01.01,0,0h0Z"/>
    <path class="cls-6" d="m8.93,14.01h-.36c-.17,0-.2-.08-.2-.23,0-.16.07-.19.2-.18h.3c.37.02.75.11,1.12.06.52,0,1.04,0,1.56.01.12.1.26.04.39.04.27-.06.55,0,.82-.01.24-.02.35.05.29.3-.26.04-.53-.05-.79.04-1.1-.03-2.19-.06-3.29-.08-.02.01-.05.02-.07.03,0,0,.03.02.03.02Z"/>
    <path class="cls-3" d="m12.12,14.58c.03.22-.05.3-.28.28-1.08-.08-2.15-.06-3.23-.06-.16,0-.24-.04-.25-.22,0-.19.12-.18.24-.17,1.11.02,2.23.04,3.34.06,0,.11.09.11.17.11,0,0,.01,0,0,0Z"/>
    <path class="cls-6" d="m8.5,9.88c-.03-.47.34-.25.54-.3h.23c.34,0,.67.12,1.01.06h1.84c.1,0,.22-.04.24.14.03.2-.11.23-.22.24-.14.02-.29-.03-.44-.03-.68,0-1.35,0-2.03-.01-.02-.01-.04-.02-.06-.03-.35,0-.71-.02-1.06-.02-.01-.02-.02-.03-.04-.05,0,0-.01,0,0,0Z"/>
    <path class="cls-3" d="m10.46,8.76c-.49.05-1.1-.08-1.71-.05-.18,0-.22-.08-.21-.24,0-.18.1-.15.23-.13.57.07,1.15.01,1.73.03.35.01.7.04,1.05.05.13,0,.19.04.18.18,0,.15-.09.16-.2.16h-1.07Z"/>
    <path class="cls-3" d="m9.48,12.4h.87c.16,0,.21.06.21.21,0,.16-.08.18-.21.18-.59,0-1.17,0-1.75-.05-.12-.01-.16-.05-.17-.17,0-.14.07-.18.19-.17h.87s-.01,0,0,0h0Z"/>
    <path class="cls-6" d="m8.37,15.99c-.11-.31-.09-.36.2-.36.32,0,.65.02.97.02.03.05.07.05.12.04h.36c.08,0,.19-.04.21.11.02.14-.07.21-.18.22-.16.02-.33,0-.49,0-.39-.11-.78-.04-1.18-.05,0,0-.01.02,0,.02h0Z"/>
    <path class="cls-7" d="m6.81,8.03l-.29.29c-.29.11-.26-.16-.35-.29-.05-.08-.05-.18-.04-.27.09-.01.19,0,.2.1.05.29.16.13.25.04.09-.1.21-.18.26-.31.04-.03.07-.07.11-.1.14-.11.24-.42.43-.26.14.11-.14.27-.23.41-.03.04-.04.08-.07.12-.04,0-.09,0-.11.05-.06.08-.12.15-.17.23,0,0,.01-.01.01,0h0Z"/>
    <path class="cls-7" d="m6.86,11.5c.12,0,.16-.11.22-.19.08-.08.19-.07.25-.02.08.07-.04.12-.07.17-.07.13-.22.2-.26.36-.03.02-.06.04-.08.07-.16.09-.23.26-.36.38-.11.11-.24.18-.36.06-.11-.11-.16-.27-.12-.43.02-.1.13-.04.14,0,.15.37.25.09.36-.02.08-.09.15-.19.22-.28.02-.04.03-.07.05-.11h.01Z"/>
    <path class="cls-7" d="m6.75,13.58c.12-.05.23-.13.29-.25.07-.14.16-.07.23-.03.1.07,0,.12-.04.17-.11.15-.26.26-.32.44-.01,0-.03,0-.04.01-.18.09-.25.28-.39.41-.16.14-.28.18-.4-.03-.02-.1-.04-.21-.06-.31h0c.03-.1.13-.11.16-.05.15.37.26.08.36-.03.09-.1.19-.2.22-.34,0,0-.01.01,0,.01h0Z"/>
    <path class="cls-7" d="m6.91,9.5c.08-.08.16-.17.25-.25.05-.05.11-.07.17-.02.06.05.05.12,0,.17-.08.11-.17.21-.25.32-.02.02-.03.04-.05.06-.05,0-.09.03-.11.09-.12.13-.24.26-.35.4-.1.13-.22.15-.34.06-.13-.1-.14-.26-.09-.41.02-.07.13-.08.14,0,.06.29.17.09.25.02.1-.09.19-.21.28-.31.03-.05.07-.09.1-.14h0Z"/>
    <path class="cls-7" d="m6.74,15.54c.14-.03.17-.18.28-.25.07-.04.13-.07.2,0,.05.06.01.12-.02.17-.07.12-.23.16-.28.3,0,.02-.01.04-.02.06-.02.02-.04.04-.06.07-.17.13-.31.29-.43.46-.07.1-.19.16-.28.06-.11-.11-.18-.27-.11-.43.03-.08.11-.02.13.02.08.27.18.11.25,0,.08-.12.22-.2.26-.34.02-.04.05-.07.07-.11,0,0,.01-.01.01,0h0Z"/>
    <path class="cls-8" d="m6.08,14.3c.12.21.24.17.4.03.14-.12.21-.32.39-.41,0,.24,0,.47-.01.71-.35,0-.7.02-1.05.02-.02-.05-.04-.09-.06-.14.08.01.1-.04.11-.1.11.02.16-.06.22-.11Z"/>
    <path class="cls-8" d="m6.17,8.03c.09.13.06.4.35.29-.04.12.1.16.11.26h-.14c-.37,0-.54-.19-.53-.56h.21Z"/>
    <path class="cls-8" d="m6.75,13.58c-.03.14-.13.24-.22.34-.1.11-.2.4-.36.03-.03-.06-.13-.05-.16.05-.02,0-.04-.01-.06-.02.2-.27.43-.49.81-.39h-.01Z"/>
    <path class="cls-14" d="m6.91,9.5s-.07.09-.1.14c-.22-.09-.44-.02-.66-.05-.15-.02-.19.06-.19.2v.81c-.12-.06-.01-.2-.11-.27-.03-.57.24-.85.81-.84.08,0,.16.01.25.02h0Z"/>
    <path class="cls-9" d="m6.92,11.9s.06-.04.08-.07c.06.26-.09.51-.04.77.02.1-.06.12-.14.12-.29,0-.58.01-.87,0-.3-.01-.11-.25-.15-.38.09.07-.02.21.11.26h.28c.49,0,.73-.23.73-.72,0,0,0,.02,0,.02Z"/>
    <path class="cls-8" d="m6.84,7.58c-.05.13-.17.22-.26.31s-.2.25-.25-.04c-.01-.09-.11-.11-.2-.1,0-.19.11-.26.29-.23.13.1.28.03.42.05,0,0,0,.01,0,0h0Z"/>
    <path class="cls-9" d="m6.46,16.75c-.49.02-.73-.21-.73-.69,0-.08.01-.17,0-.25-.03-.22.06-.31.28-.27v.08c-.05,0-.11.02-.16.02-.09.33-.1.67,0,1,.2,0,.41.01.61.02,0,0,0,.09,0,.09Z"/>
    <path class="cls-9" d="m6.86,11.5s-.03.07-.05.11h-.36c-.35,0-.54.17-.55.51-.02.51-.05,0-.08,0,0-.15.03-.29.02-.44,0-.15.07-.17.19-.17h.83s0-.01,0-.01Z"/>
    <path class="cls-9" d="m5.8,14.65c.35,0,.7-.02,1.05-.02.03.02.05.05.08.07-.38.08-.76.05-1.14,0v-.05h0Z"/>
    <path class="cls-9" d="m5.95,13.97s.04.01.06.02h0c-.31.04-.11.28-.16.42-.01.06-.03.12-.11.1.03-.32-.08-.64.05-.96.13.09,0,.26.11.36.02.02.03.03.05.05h0Z"/>
    <path class="cls-3" d="m10,13.68c-.38.05-.75-.04-1.12-.06.34-.09.69-.03,1.04-.04.05,0,.07.05.09.09h-.01Z"/>
    <path class="cls-9" d="m5.97,8.03c-.02.37.16.56.53.56.56,0,.09,0,.14,0-.19.12-.5.15-.66.07-.08-.04-.07-.1-.07-.16v-.59s.05.03.05.04c0,.03,0,.05,0,.08Z"/>
    <path class="cls-8" d="m10.27,9.64c-.34.06-.67-.05-1.01-.06v-.04h.78c.09,0,.2-.03.23.1Z"/>
    <path class="cls-9" d="m5.86,10.33c.1.07-.01.21.11.27.19,0,.37,0,.56.01v.09c-.1,0-.2.02-.3.02-.38,0-.38.1-.36-.38,0,0-.01-.01,0-.01h0Z"/>
    <path class="cls-14" d="m6.93,14.7s-.05-.05-.08-.07c0-.24,0-.47.01-.71.01,0,.02-.01.04-.01.12.26.08.53.03.79Z"/>
    <path class="cls-14" d="m6.01,15.62v-.08h.72s-.05.07-.07.11c-.22,0-.44-.02-.66-.03,0,0,.01,0,0,0h0Z"/>
    <path class="cls-8" d="m5.9,13.92c-.12-.1.03-.27-.11-.36.03-.13.15-.12.22-.08.1.05.01.13-.02.19-.05.08-.1.16-.09.25Z"/>
    <path class="cls-3" d="m8.37,15.99c.39,0,.79-.06,1.18.05-.39-.02-.79.06-1.18-.05Z"/>
    <path class="cls-14" d="m6.84,7.58c-.14-.02-.29.05-.42-.05.17-.11.35-.04.53-.05-.04.03-.07.07-.11.1Z"/>
    <path class="cls-9" d="m6.98,7.8c.02-.05.06-.05.11-.05,0,.04,0,.08.01.11v.28c0,.14,0,.28-.01.41,0,.09-.05.12-.11.03.01-.02.03-.04.04-.05v-.45c0-.09.05-.19-.03-.28,0,0-.01,0,0,0h0Z"/>
    <path class="cls-14" d="m6.52,10.7v-.09c.15,0,.29-.01.44-.02.02.02.04.04.06.06h.02c-.17.11-.35.04-.53.04,0,0,.01.01,0,.01h0Z"/>
    <path class="cls-3" d="m7.04,9.78s.03-.04.05-.06c-.02.31.04.63-.04.94h-.02v-.88h0Z"/>
    <path class="cls-3" d="m10.84,5.73c-.24-.02-.49-.04-.73-.06.25-.03.5-.13.73.06Z"/>
    <path class="cls-9" d="m6.85,15.88s.04-.04.06-.07c0,.11.01.23.02.34,0,.19-.01.37-.02.56-.02-.02-.04-.04-.06-.07,0,0,0-.76,0-.76Z"/>
    <path class="cls-14" d="m12.23,12.04c.28-.08.57-.02.85-.03-.28.1-.57.04-.85.03Z"/>
    <path class="cls-14" d="m6.84,16.64s.04.04.06.07c-.14.12-.3.05-.45.04v-.08c.13,0,.25-.01.38-.02,0,0,.01,0,0-.01h0Z"/>
    <path class="cls-8" d="m11.95,13.73c-.13,0-.27.06-.39-.04.14-.08.28-.13.39.04Z"/>
    <path class="cls-14" d="m12.29,14.06c.26-.09.52,0,.79-.04-.25.14-.52.04-.79.04Z"/>
    <path class="cls-14" d="m5.81,12.11h.08c0,.17.01.33.02.5-.12-.05-.02-.2-.11-.26v-.24h.01Z"/>
    <path class="cls-14" d="m9.82,6.45c.23-.06.45-.08.67.01-.22,0-.45,0-.67-.01Z"/>
    <path class="cls-8" d="m6.98,7.8c.08.09.03.19.03.28-.06-.04-.13-.06-.2-.05.06-.08.12-.15.17-.23Z"/>
    <path class="cls-14" d="m12.67,7.99c.19,0,.38-.01.57-.02-.19.11-.38.07-.57.02Z"/>
    <path class="cls-14" d="m13.02,11.73c-.09.08-.17.09-.23-.04.08-.02.17-.05.23.04Z"/>
    <path class="cls-14" d="m11.01,7.62c-.16.02-.31.06-.46-.02.16-.01.31-.04.46.02Z"/>
    <path class="cls-3" d="m8.93,11.97c.13,0,.27-.06.39.04-.13,0-.27.04-.39-.04Z"/>
    <path class="cls-3" d="m6.93,16.15c0-.11-.01-.23-.02-.34,0-.02.01-.04.02-.06.07.13.06.26,0,.39h0Z"/>
    <path class="cls-8" d="m12.12,14.58c-.08,0-.16,0-.17-.11.08,0,.16,0,.17.11Z"/>
    <path class="cls-3" d="m9.6,7.94h.28s0,.03.01.04c-.1,0-.2.04-.29-.03,0,0,0-.01,0,0h0Z"/>
    <path class="cls-3" d="m9.66,15.69s-.09.01-.12-.04c.08-.1.1-.03.12.04Z"/>
    <path class="cls-3" d="m9.27,9.54v.04h-.23c.07-.06.15-.03.23-.04Z"/>
    <path class="cls-14" d="m9.89,7.97s0-.03-.01-.04h.13s-.08.02-.12.03c0,0,0,.01,0,0h0Z"/>
    <path class="cls-11" d="m7.1,7.97v-.11s.04.07,0,.11Z"/>
    <path class="cls-8" d="m7.01,8.54s-.03.04-.04.05c.01-.02.03-.04.04-.05Z"/>
    <path class="cls-14" d="m8.93,14.01s.05-.02.07-.03c-.02.01-.05.02-.07.03Z"/>
    <path class="cls-3" d="m9.6,9.96s.04.02.06.03c-.02-.01-.04-.02-.06-.03Z"/>
    <path class="cls-3" d="m8.5,9.88s.02.03.04.05c-.03,0-.05-.02-.04-.05Z"/>
    <path class="cls-14" d="m12.17,6.51s.04-.03.05-.05c0,.03-.02.05-.05.05Z"/>
    <path class="cls-11" d="m7.1,8.14v-.06s.01.03.01.04c0,0,0,.01-.01.02Z"/>
    <path class="cls-14" d="m12.06,12.05s.04-.04.06-.01c-.02,0-.04,0-.06.01Z"/>
    <path class="cls-8" d="m5.91,12.61c0-.17-.01-.33-.02-.5.01-.35.2-.52.55-.51h.36c-.07.09-.14.2-.22.28-.11.11-.21.39-.36.02-.01-.04-.12-.1-.14,0-.04.16.01.32.12.43.12.12.25.05.36-.06.12-.12.2-.29.36-.38,0,.49-.24.73-.73.72h-.28Z"/>
    <path class="cls-2" d="m5.85,14.41c.05-.14-.15-.38.16-.42.02.1.04.21.06.31-.06.06-.12.14-.22.11Z"/>
    <path class="cls-8" d="m6.96,10.6c-.15,0-.29.01-.44.02-.19,0-.37,0-.56-.01v-.81c0-.14.04-.21.19-.2.22.02.45-.04.66.05-.09.1-.18.22-.28.31-.08.07-.18.26-.25-.02-.02-.08-.12-.08-.14,0-.04.15-.04.3.09.41.12.09.24.08.34-.06.11-.14.23-.27.35-.4.11.24.03.48.04.73v-.02Z"/>
    <path class="cls-9" d="m6.96,10.6c-.01-.24.07-.49-.04-.73.02-.05.06-.08.11-.09,0,.29,0,.59-.01.88-.02-.02-.04-.04-.06-.06Z"/>
    <path class="cls-8" d="m6.84,16.64c-.13,0-.25.01-.38.02-.2,0-.41-.01-.61-.02v-1c.05,0,.11-.02.16-.02.22,0,.44.02.66.03-.04.15-.17.23-.26.34-.08.1-.17.26-.25,0-.01-.04-.09-.1-.13-.02-.07.16,0,.32.11.43.1.1.21.03.28-.06.13-.17.26-.33.43-.46v.76s-.01,0,0,0h0Z"/>
    <path class="cls-3" d="m5.85,15.64v1c-.1-.33-.09-.67,0-1Z"/>
  </g>
  <rect class="cls-13" width="22" height="22"/>
  <path class="cls-2" d="m20.17,18.18c0-.58,0-1.16,0-1.74,0-.04.02-.09-.02-.12-.03-.25-.12-.47-.29-.66-.46-.47-.92-.94-1.38-1.4-.08-.08-.16-.16-.24-.24-.16-.18-.35-.3-.59-.33-.05-.03-.1-.02-.15-.02-.54,0-1.07,0-1.61,0,0-.4,0-.8,0-1.2,0-.12-.04-.15-.15-.15-2.51,0-5.02,0-7.53,0-.15,0-.15,0-.15.15,0,1.86,0,3.72,0,5.58,0,.04-.02.07-.02.11-.05,0-.1,0-.15,0-.16,0-.28.08-.34.23-.05.13-.04.25.05.37.07.09.16.12.25.15h.97c.22.67.86,1.05,1.52.92.48-.1.81-.37,1-.83.01-.03.02-.07.04-.09.05,0,.09,0,.14,0,1.71,0,3.42,0,5.13,0,.04.1.07.2.12.28.41.64,1.14.84,1.81.48.31-.17.5-.44.62-.76.27,0,.54,0,.81,0,.04,0,.08.02.11-.02.15,0,.26-.08.31-.21.05-.14.05-.28-.06-.41-.06-.06-.14-.08-.2-.12Z"/>
  <path class="cls-16" d="m8.06,18.18s.02-.07.02-.11c0-1.86,0-3.72,0-5.58,0-.15,0-.15.15-.15,2.51,0,5.02,0,7.53,0,.12,0,.15.02.15.15,0,.4,0,.8,0,1.2,0,0,0,.02,0,.02,0,.05,0,.09,0,.14,0,1.39,0,2.79,0,4.18q0,.16-.16.16c-1.43,0-2.85,0-4.28,0-.07,0-.07-.03-.09-.08-.19-.49-.54-.78-1.06-.87,0,0-.02-.01-.03,0-.02,0-.04,0-.06,0-.1-.01-.19-.02-.29.01-.51.09-.87.37-1.06.85-.03.07-.06.09-.13.09-.23,0-.45,0-.68,0Z"/>
  <path class="cls-10" d="m10.3,17.24c.51.09.87.38,1.06.87.02.05.02.08.09.08,1.43,0,2.85,0,4.28,0q.16,0,.16-.16c0-1.39,0-2.79,0-4.18,0-.05,0-.09,0-.14.59,0,1.17,0,1.76,0,.24.04.43.15.59.33.07.08.16.16.24.24-.2.03-.4,0-.59.01-.08,0-.1.02-.1.1,0,.4,0,.8,0,1.2,0,.07.01.1.1.1.66,0,1.32,0,1.97,0,.17.18.26.41.29.66,0,.59,0,1.18,0,1.78,0,.03-.02.06.02.08.07.04.15.06.2.12.11.12.11.27.06.41-.05.13-.17.2-.31.21-.28,0-.56,0-.85,0-.03,0-.06-.01-.07.02-.11.33-.31.6-.62.76-.66.36-1.4.16-1.81-.48-.05-.09-.08-.19-.12-.28-.03-.05-.08-.02-.12-.02-1.68,0-3.35,0-5.03,0-.04,0-.09-.02-.12.02-.02.03-.03.06-.04.09-.18.46-.52.73-1,.83-.66.13-1.3-.25-1.52-.92-.02-.04-.06-.02-.08-.02-.27,0-.53,0-.8,0-.03,0-.06-.01-.09.02-.09-.03-.19-.07-.25-.15-.09-.12-.1-.24-.05-.37.06-.15.18-.23.34-.23.05,0,.1,0,.15,0,.23,0,.45,0,.68,0,.07,0,.11-.02.13-.09.19-.48.55-.76,1.06-.85.1,0,.19,0,.29-.01.02,0,.04,0,.06,0,0,0,.02,0,.03,0Zm7.19-2.91c0-.05-.03-.05-.07-.05-.18,0-.37,0-.55,0-.06,0-.07.02-.07.07,0,.42,0,.84,0,1.25,0,.05.02.07.07.07.21,0,.41,0,.62,0,.03-.03.02-.07.02-.11,0-.22,0-.44,0-.66,0-.19.02-.37-.01-.56Zm-7.4,4.94c.38.03.74-.27.74-.71,0-.43-.29-.7-.73-.72-.35-.02-.73.29-.73.73,0,.33.31.73.72.71Zm7.82,0c.39.03.78-.27.73-.81-.03-.32-.29-.61-.72-.63-.36,0-.74.33-.72.73.02.38.28.71.71.7Z"/>
  <path class="cls-5" d="m19.86,15.67c-.66,0-1.32,0-1.97,0-.08,0-.1-.03-.1-.1,0-.4,0-.8,0-1.2,0-.08.02-.1.1-.1.2,0,.4.02.59-.01.46.47.92.94,1.38,1.4Z"/>
  <path class="cls-4" d="m11.39,18.93s.08-.02.12-.02c1.68,0,3.35,0,5.03,0,.04,0,.09-.02.12.02-1.71,0-3.42,0-5.13,0-.05,0-.09,0-.14,0Z"/>
  <path class="cls-4" d="m20.17,18.18s-.02-.05-.02-.08c0-.59,0-1.18,0-1.78.04.03.02.08.02.12,0,.58,0,1.16,0,1.74Z"/>
  <path class="cls-4" d="m17.65,13.69c-.59,0-1.17,0-1.76,0,0,0,0-.02,0-.02.54,0,1.07,0,1.61,0,.05,0,.1-.01.15.02Z"/>
  <path class="cls-4" d="m7.87,18.94s.06-.02.09-.02c.27,0,.53,0,.8,0,.03,0,.06-.01.08.02-.32,0-.64,0-.97,0Z"/>
  <path class="cls-4" d="m19.2,18.94s.05-.02.07-.02c.28,0,.56,0,.85,0-.03.04-.07.02-.11.02-.27,0-.54,0-.81,0Z"/>
  <path class="cls-2" d="m13.46,17.27c.47,0,.95,0,1.42,0,.09,0,.14.02.12.11,0,.02,0,.03,0,.05.02.11-.02.14-.14.14-.94,0-1.89,0-2.83,0-.04,0-.11.03-.12-.03-.02-.08-.02-.17,0-.25.01-.03.06-.01.1-.01.48,0,.96,0,1.44,0Z"/>
  <path class="cls-4" d="m10.21,17.23c-.1,0-.19,0-.29.01.09-.03.19-.02.29-.01Z"/>
  <path class="cls-4" d="m10.3,17.24s-.02,0-.03,0c.01,0,.02,0,.03,0Z"/>
  <path class="cls-2" d="m10.09,19.27c-.41.03-.72-.38-.72-.71,0-.44.38-.74.73-.73.43.02.72.3.73.72,0,.44-.36.74-.74.71Z"/>
  <path class="cls-2" d="m17.91,19.27c-.43,0-.69-.32-.71-.7-.02-.41.36-.74.72-.73.43.01.69.31.72.63.05.54-.34.84-.73.81Z"/>
  <path class="cls-5" d="m17.49,15.66c-.21,0-.41,0-.62,0-.05,0-.07-.02-.07-.07,0-.42,0-.84,0-1.25,0-.06.02-.07.07-.07.18,0,.37,0,.55,0,.04,0,.07,0,.07.05,0,.44,0,.89,0,1.33Z"/>
  <path class="cls-4" d="m17.49,15.66c0-.44,0-.89,0-1.33.03.19,0,.37.01.56,0,.22,0,.44,0,.66,0,.04.01.08-.02.11Z"/>
  <g>
    <path class="cls-15" d="m9.59,15.54c-.13,0-.26-.07-.38-.2l-.14.16c.06.08.14.14.23.19.09.04.19.07.3.07.14,0,.29-.05.39-.15.1-.1.16-.23.15-.37,0-.1-.03-.2-.09-.28-.06-.08-.18-.17-.35-.26-.14-.07-.23-.14-.28-.19-.04-.05-.06-.11-.07-.17,0-.07.03-.13.08-.17.05-.05.12-.08.19-.07.12,0,.24.06.36.18l.15-.15c-.17-.16-.33-.24-.5-.24-.13,0-.26.04-.35.14-.09.09-.14.21-.14.34,0,.1.03.2.09.28.06.08.17.16.33.25.15.08.25.14.29.19.04.05.06.11.06.18,0,.08-.04.16-.1.21-.06.06-.15.09-.24.09"/>
    <rect class="cls-15" x="10.35" y="13.92" width=".23" height="1.79"/>
    <rect class="cls-15" x="10.84" y="13.92" width=".23" height="1.79"/>
    <rect class="cls-17" x="14.27" y="13.92" width=".23" height="1.79"/>
    <path class="cls-2" d="m10.46,13.73c.1,0,.19-.08.19-.19,0-.11-.09-.19-.19-.19-.05,0-.1.02-.13.06-.04.04-.06.08-.06.14,0,.1.09.19.19.19"/>
    <path class="cls-17" d="m10.95,13.73c.1,0,.19-.08.19-.19,0-.11-.09-.19-.19-.19-.05,0-.1.02-.13.06-.04.04-.06.08-.06.14,0,.05.02.1.06.13.03.04.08.06.13.06"/>
    <path class="cls-15" d="m14.52,13.4c-.07-.07-.19-.08-.27,0,0,0,0,0,0,0-.04.04-.06.08-.06.14,0,.1.09.19.2.18.1,0,.18-.08.18-.18,0-.05-.02-.1-.06-.14"/>
    <polygon class="cls-2" points="11.65 13.92 11.65 14.15 12.05 14.15 11.28 14.92 11.44 15.09 12.22 14.31 12.22 14.71 12.45 14.71 12.45 14.25 12.45 13.92 11.65 13.92"/>
    <path class="cls-17" d="m13.81,14.15c-.17-.18-.41-.28-.65-.28-.14,0-.27.03-.4.09-.13.07-.23.17-.31.28v.46h-.23v1.56h.23v-.87c.09.11.2.2.32.27.35.17.77.09,1.04-.19.18-.18.27-.42.27-.67,0-.25-.09-.49-.27-.66m-.07,1.03c-.06.11-.15.2-.26.27-.1.06-.22.1-.34.1-.12,0-.25-.03-.35-.09-.11-.06-.2-.15-.26-.25-.06-.11-.09-.24-.09-.36,0-.19.07-.38.2-.51.13-.14.31-.21.5-.21.25,0,.49.13.61.36.13.22.13.49,0,.71"/>
  </g>
</svg>