<?xml version="1.0" encoding="UTF-8"?>
<svg id="Capa_1" data-name="Capa 1" xmlns="http://www.w3.org/2000/svg" viewBox="0 0 22 22">
  <defs>
    <style>
      .cls-1 {
        fill: #026838;
      }

      .cls-2 {
        fill: #bec3c4;
      }

      .cls-3 {
        fill: #009443;
      }

      .cls-4 {
        fill: #d1d5d6;
      }

      .cls-5 {
        fill: none;
      }

      .cls-6 {
        fill: #f6a30a;
      }

      .cls-7 {
        fill: #c89413;
      }
    </style>
  </defs>
  <g>
    <g>
      <path class="cls-1" d="m17.905627,11.403928s-.02-.03-.01-.04c.02,0,0,.03.01.04Z"/>
      <path class="cls-1" d="m7.685627,8.443929v-.02h.01-.01v.02Z"/>
    </g>
    <path class="cls-4" d="m18.065627,11.283928c.06.09.05.2.06.29.03.2.05.4.04.61-.02.45-.1.89-.27,1.32-.26.67-.69,1.23-1.2,1.72-.38.36-.79.67-1.23.95-.26.17-.53.32-.8.47-.54.3-1.11.55-1.7.77-.34.13-.68.25-1.03.36-.27.09-.54.18-.82.23-.11.02-.15.06-.15.18.01.24,0,.490001,0,.73,0,.360001-.31.559999-.6.549999-.07,0-.14-.040001-.2-.07-.24-.1-.47-.23-.71-.34-.29-.129999-.58-.26-.87-.389999-.14-.059999-.28-.15-.42-.21-.34-.13-.66-.31-1-.46-.47-.21-.93-.44-1.39-.66-.27-.13-.55-.25-.82-.39-.19-.1-.29-.28-.26-.5.02-.2.13-.36.32-.44.45-.21.9-.42,1.36-.63.77-.36,1.54-.72,2.32-1.08.51-.24,1.01-.5,1.54-.71.36-.14.7.04.74.49.02.25,0,.51,0,.76,0,.09.03.11.11.1.3-.05.6-.08.89-.15.62-.15,1.24-.31,1.82-.59.31-.15.62-.32.93-.48.03.03.05.01.07,0,.04-.03.09-.06.13-.08.38-.19.76-.39,1.11-.62.28-.19.57-.37.84-.59.36-.3.66-.63.98-.97.07-.07.12-.16.2-.22h0v.01c0,.02,0,.03.01.05v-.01Z"/>
    <path class="cls-4" d="m3.645627,11.423929c-.06-.09-.05-.2-.07-.31-.06-.36-.05-.72-.02-1.08.01-.17.06-.34.11-.51.18-.69.56-1.28,1.03-1.81.28-.32.61-.61.95-.86.42-.32.86-.59,1.33-.84.57-.31,1.17-.58,1.78-.81.52-.2,1.04-.38,1.58-.51.1-.03.21-.07.31-.09.09-.01.1-.06.1-.13v-.74c0-.41.34-.67.72-.53.19.07.37.16.55.25.28.14.57.26.85.4.16.08.32.16.48.23.43.2.85.4,1.28.6.38.17.76.34,1.13.52.3.15.62.29.93.42.15.06.33.27.31.46-.01.08,0,.17-.04.25-.07.14-.17.23-.31.29-.23.1-.45.21-.68.32-.49.23-.99.45-1.48.68-.33.15-.66.32-.99.47-.5.23-1,.46-1.49.69-.17.08-.33.16-.49.24-.26.13-.51.02-.67-.19-.07-.09-.09-.2-.09-.31v-.75c0-.08-.03-.09-.1-.08-.5.07-1,.15-1.49.29-.63.17-1.24.41-1.8.75-.11.07-.24.11-.36.18h-.01v.02h0c-.03-.02-.06,0-.09.01-.36.17-.71.36-1.05.57-.33.2-.65.42-.94.67-.36.31-.71.63-1.02.99-.07.09-.12.2-.22.25h-.030001Z"/>
    <path class="cls-2" d="m18.055627,11.223929c-.09.05-.14.14-.2.22-.31.34-.62.67-.98.97-.27.22-.55.4-.84.59-.35.24-.73.43-1.11.62-.05.02-.09.05-.13.08-.02.02-.05.03-.07,0,.16-.13.33-.25.48-.39.19-.17.36-.36.52-.56.12-.14.24-.29.33-.45.26-.42.46-.87.58-1.35.09-.32.13-.65.17-.99.03-.29.05-.57.01-.86-.01-.11,0-.23-.03-.34,0-.02-.02-.06,0-.08.04-.02.05.02.07.05.28.4.54.81.75,1.26.13.28.26.57.34.87.03.12.06.23.1.35l.009999.01Z"/>
    <path class="cls-4" d="m3.645627,11.423929c.11-.05.15-.17.22-.25.3-.37.65-.69,1.02-.99.3-.25.62-.46.94-.67.34-.21.69-.4,1.05-.57.03-.01.06-.03.09-.01-.31.22-.59.47-.85.75-.17.18-.31.38-.45.58-.21.31-.36.64-.49.99-.09.24-.15.49-.21.75-.05.26-.09.53-.11.79-.02.19,0,.39,0,.58,0,.21.04.41.05.62-.56-.79-1.04-1.6-1.26-2.55v-.02Z"/>
    <path class="cls-6" d="m18.365627,10.653928c.06.09.05.2.06.29.03.2.05.4.04.61-.02.45-.1.89-.27,1.32-.26.67-.69,1.23-1.2,1.72-.38.36-.79.67-1.23.95-.26.17-.53.32-.8.47-.54.3-1.11.55-1.7.77-.34.13-.68.25-1.03.36-.27.09-.54.18-.82.23-.11.02-.15.06-.15.18.01.24,0,.49,0,.73,0,.360001-.31.559999-.6.549999-.07,0-.14-.040001-.2-.07-.24-.1-.47-.23-.71-.34l-.87-.39c-.14-.06-.28-.15-.42-.21-.34-.13-.66-.31-1-.46-.47-.21-.93-.44-1.39-.66-.27-.13-.55-.25-.82-.39-.19-.1-.29-.28-.26-.5.02-.2.13-.36.32-.44.45-.21.9-.42,1.36-.63.77-.36,1.54-.72,2.32-1.08.51-.24,1.01-.5,1.54-.71.36-.14.7.04.74.49.02.25,0,.51,0,.76,0,.09.03.11.11.1.3-.05.6-.08.89-.15.62-.15,1.24-.31,1.82-.59.31-.15.62-.32.93-.48.03.03.05.01.07,0,.04-.03.09-.06.13-.08.38-.19.76-.39,1.11-.62.28-.19.57-.37.84-.59.36-.3.66-.63.98-.97.07-.07.12-.16.2-.22h0v.01c0,.02,0,.03.01.05v-.01Z"/>
    <path class="cls-3" d="m3.945627,10.793929c-.06-.09-.05-.2-.07-.31-.06-.36-.05-.72-.02-1.08.01-.17.06-.34.11-.51.18-.69.56-1.28,1.03-1.81.28-.32.61-.61.95-.86.42-.32.86-.59,1.33-.84.57-.31,1.17-.58,1.78-.81.52-.2,1.04-.38,1.58-.51.1-.03.21-.07.31-.09.09-.01.1-.06.1-.13v-.74c0-.41.34-.67.72-.53.19.07.37.16.55.25.28.14.57.26.85.4.16.08.32.16.48.23.43.2.85.4,1.28.6.38.17.76.34,1.13.52.3.15.62.29.93.42.15.06.33.27.31.46-.01.08,0,.17-.04.25-.07.14-.17.23-.31.29-.23.1-.45.21-.68.32-.49.23-.99.45-1.48.68-.33.15-.66.32-.99.47-.5.23-1,.46-1.49.69-.17.08-.33.16-.49.24-.26.13-.51.02-.67-.19-.07-.09-.09-.2-.09-.31v-.75c0-.08-.03-.09-.1-.08-.5.07-1,.15-1.49.29-.63.17-1.24.41-1.8.75-.11.07-.24.11-.36.18h-.01v.02h0c-.03-.02-.06,0-.09.01-.36.17-.71.36-1.05.57-.33.2-.65.42-.94.67-.36.31-.71.63-1.02.99-.07.09-.12.2-.22.25h-.03Z"/>
    <path class="cls-7" d="m18.355626,10.593929c-.09.05-.14.14-.2.22-.31.34-.62.67-.98.97-.27.22-.55.4-.84.59-.35.24-.73.43-1.11.62-.05.02-.09.05-.13.08-.02.02-.05.03-.07,0,.16-.13.33-.25.48-.39.19-.17.36-.36.52-.56.12-.14.24-.29.33-.45.26-.42.46-.87.58-1.35.09-.32.13-.65.17-.99.03-.29.05-.57.01-.86-.01-.11,0-.23-.03-.34,0-.02-.02-.06,0-.08.04-.02.05.02.07.05.28.4.54.81.75,1.26.13.28.26.57.34.87.03.12.06.23.1.35l.009999.01Z"/>
    <path class="cls-1" d="m3.945627,10.793929c.11-.05.15-.17.22-.25.3-.37.65-.69,1.02-.99.3-.25.62-.46.94-.67.34-.21.69-.4,1.05-.57.03-.01.06-.03.09-.01-.31.22-.59.47-.85.75-.17.18-.31.38-.45.58-.21.31-.36.64-.49.99-.09.24-.15.49-.21.75-.05.26-.09.53-.11.79-.02.19,0,.39,0,.58,0,.21.04.41.05.62-.56-.79-1.04-1.6-1.26-2.55v-.02Z"/>
  </g>
  <rect class="cls-5" width="22" height="22"/>
</svg>