<?xml version="1.0" encoding="UTF-8"?>
<svg id="Capa_1" data-name="Capa 1" xmlns="http://www.w3.org/2000/svg" viewBox="0 0 22 22">
  <defs>
    <style>
      .cls-1 {
        fill: #fff;
      }

      .cls-2 {
        fill: #535352;
      }

      .cls-3 {
        fill: #e69600;
      }

      .cls-4 {
        fill: #868686;
      }

      .cls-5 {
        fill: #b1b1b0;
      }

      .cls-6 {
        fill: #eab86f;
      }

      .cls-7 {
        fill: #9fc418;
      }

      .cls-8 {
        fill: #cacac9;
      }

      .cls-9 {
        fill: #616160;
      }

      .cls-10 {
        fill: #a4a3a3;
      }

      .cls-11 {
        fill: #f2bf7f;
      }

      .cls-12 {
        fill: none;
      }

      .cls-13 {
        fill: #2e2f30;
      }

      .cls-14 {
        fill: #9a9999;
      }

      .cls-15 {
        fill: #7b7a79;
      }

      .cls-16 {
        fill: #6d6d6c;
      }

      .cls-17 {
        fill: #df7000;
      }
    </style>
  </defs>
  <rect class="cls-12" width="22" height="22"/>
  <g>
    <path class="cls-7" d="m19.5,11.69v1.1s-.01.02-.01.03c0,.1,0,.2,0,.31,0,.09,0,.19,0,.28.02.11-.04.19-.1.28-.1.12-.21.22-.34.3-.23.15-.48.25-.74.33-.3.09-.61.15-.92.22-.14.03-.28.06-.43.08-.14.03-.29.05-.43.08-.01,0-.03,0-.04,0-.01,0-.03,0-.04,0-.01,0-.03,0-.04,0-.01,0-.03,0-.04,0-.01,0-.03,0-.04,0-.05,0-.09.01-.14.02-.01,0-.03,0-.04,0-.08.01-.15.02-.23.03-.02,0-.04,0-.05,0-.01,0-.03,0-.04,0-.02,0-.04,0-.05,0-.02,0-.04,0-.06,0-.02,0-.04,0-.05,0,0,0-.02,0-.03,0-.01-.02-.02-.04-.04-.06-.09-.15-.18-.29-.3-.42-.16-.18-.36-.33-.56-.47-.41-.28-.84-.52-1.29-.74-.01,0-.03-.01-.04-.02,0-.02,0-.03,0-.05.01-.02.04-.03.06-.05.07-.05.14-.1.2-.17.04-.05.1-.09.14-.15.19-.26.34-.54.46-.83.13-.29.23-.59.3-.91.05-.25.09-.5.09-.75,0-.05,0-.1,0-.16.08-.11.13-.23.18-.36.03.01.03.05.05.07.01.04.03.07.05.11.11.27.25.52.41.77.25.4.55.76.88,1.1.05.05.04.06.09,0,.16-.24.29-.5.37-.78.04-.13.08-.26.11-.39.01-.06.02-.13.04-.19.02-.08.04-.15.04-.23,0-.01,0-.02,0-.03.02-.03.02-.06.02-.09.01-.12.02-.23.03-.35.02-.26.01-.53,0-.79,0-.01-.01-.03,0-.04,0,0,.01,0,.01,0,.5.24.98.51,1.43.83.15.11.29.22.41.36.26.29.44.63.56,1,.07.21.12.42.14.64Z"/>
    <path class="cls-4" d="m2.82,16.79c-.13-.1-.23-.22-.31-.36,0-.75,0-1.51,0-2.26,0-.02,0-.04-.02-.05v-.04s.04-.04.01-.07c.01-.1.03-.21.06-.3.06-.16.14-.31.25-.45.18-.23.41-.42.66-.57.54-.33,1.09-.64,1.64-.95.08-.04.16-.08.24-.13.02-.02.06-.02.09-.04.11-.06.22-.12.33-.18.05-.03.11-.07.16-.09.02,0,.01.03.03.04,0,0,0,.02.01.01h0s0,.07.01.1c0,.03.02.05.01.08,0,0-.01,0-.02,0-.33.17-.66.33-.98.5-.33.17-.65.34-.98.52-.21.12-.4.25-.58.41-.13.12-.27.25-.37.4-.11.16-.21.32-.25.52-.02.11-.04.22-.04.33,0,.21,0,.42.01.63.01.39,0,.78.02,1.17,0,.18,0,.35,0,.53,0,.03,0,.06,0,.09,0,.05.02.11-.01.16Z"/>
    <path class="cls-8" d="m2.51,14.17c0,.75,0,1.51,0,2.26,0,0-.01,0-.02,0,0-.75,0-1.51,0-2.26,0,0,.01,0,.02,0Z"/>
    <path class="cls-6" d="m10.74,19.22h-.5s0,0,0-.01c.17,0,.34,0,.5,0,0,0,0,0,0,.01Z"/>
    <path class="cls-8" d="m16.2,2.78s0,0,0,.01c0,0-.02,0-.03,0-.1,0-.2,0-.3,0,0,0,0,0-.01,0,0,0,0,0,0-.01h.34Z"/>
    <path class="cls-6" d="m19.49,13.12c0-.1,0-.2,0-.31,0-.01,0-.02.01-.03v.34s0,0-.01,0Z"/>
    <path class="cls-8" d="m19.49,13.12s0,0,.01,0v.28h0s0,0,0,0c0-.09,0-.19,0-.28Z"/>
    <path class="cls-8" d="m10.74,19.22s0,0,0-.01c.05,0,.11,0,.16,0,0,0,0,0,0,.01h-.16Z"/>
    <path class="cls-10" d="m2.51,14.02s.02.05-.01.07v-.07s0,0,.01,0Z"/>
    <path class="cls-8" d="m10.23,19.21s0,0,0,.01h-.12s0,0,0-.01c.04,0,.08,0,.12,0Z"/>
    <path class="cls-10" d="m2.51,14.17s-.01,0-.02,0c0-.02,0-.04,0-.05.02.01.01.03.02.05Z"/>
    <path class="cls-4" d="m6.95,17.41c-.1.01-.2.02-.3.03-.03,0-.06,0-.08.01-.02,0-.04,0-.05,0-.03,0-.07,0-.1.01-.02,0-.04,0-.05,0-.04,0-.07,0-.11.01-.02,0-.04,0-.05,0-.05,0-.09,0-.14.01-.03,0-.05,0-.08,0-.06,0-.12-.01-.18.01-.03,0-.06,0-.09,0-.21,0-.42,0-.64,0-.03,0-.05,0-.08,0-.06-.02-.12-.01-.18-.01-.56-.05-1.1-.17-1.6-.43-.04-.02-.08-.04-.11-.07,0-.03,0-.06,0-.09,0-.9,0-1.79,0-2.69,0-.06,0-.12.02-.17.09-.42.32-.76.68-1,.18-.13.38-.22.57-.33.14-.08.28-.16.43-.23.21-.12.42-.23.63-.35.13-.07.27-.14.4-.22.07-.04.13-.07.19-.11.04.04.04.1.07.14,0,.02.01.05.04.04,0,0,0,0,0,0,0,0,0,0,0,.01,0,.03,0,.05.02.07.03.06.05.12.08.18,0,0,0,.02.01.03h0c.01.08.05.15.09.22.1.23.22.45.35.67.26.43.57.82.92,1.17.07.07.06.07.11,0,.23-.34.37-.71.47-1.11.06-.26.1-.52.13-.78.03-.28.03-.56.02-.84,0-.05,0-.1,0-.15.01,0,.03,0,.04,0,.52.25,1.02.54,1.49.88.29.22.52.49.69.81.02.03.03.07.05.1-.1.06-.2.11-.31.17-.01,0-.03,0-.04.02-.07.06-.16.09-.24.13-.06.03-.11.06-.17.09-.09.05-.18.1-.27.16-.18.1-.36.2-.53.31-.23.14-.47.27-.69.43-.13.1-.26.19-.36.33-.07.1-.15.19-.21.3-.11.2-.17.41-.17.64,0,.38,0,.76,0,1.14,0,.12,0,.24,0,.36-.04,0-.07,0-.11.01-.02,0-.04,0-.06.01,0,0-.02,0-.03,0-.02,0-.05,0-.07.01-.04,0-.09.01-.13.02-.02,0-.04,0-.06,0-.05,0-.1.01-.15.02-.02,0-.05,0-.07.01Z"/>
    <path class="cls-11" d="m14.67,10.08c0,.05,0,.1,0,.16,0,.25-.03.5-.09.75-.07.31-.17.62-.3.91-.13.29-.27.57-.46.83-.04.06-.1.1-.14.15-.06.07-.13.12-.2.17-.02.01-.05.02-.06.05-.04,0-.07,0-.09.04-.04.01-.08.02-.12.04-.09.03-.18.05-.27.06-.13.01-.26,0-.39-.03-.16-.04-.31-.09-.45-.15-.15-.06-.29-.13-.43-.22-.2-.12-.39-.25-.55-.42-.01-.01-.02-.03-.05-.03-.05-.06-.09-.13-.15-.18,0-.01,0-.03-.03-.03,0,0-.01,0-.02,0,0,0,0,0,0,0,0,0,0,0,0-.01,0-.03,0-.04-.02-.06-.02-.02-.03-.04-.04-.06-.06-.14-.11-.28-.17-.42,0-.01,0-.03,0-.04-.05-.14-.06-.28-.08-.42,0-.09-.02-.17-.01-.26,0-.09.02-.17.03-.26.02-.05.05-.11.07-.16.03-.03.05-.06.08-.09.04-.02.09-.04.13-.05.07,0,.15.01.23.03-.05-.13-.07-.25-.08-.38-.02-.16-.02-.32.03-.48,0-.02.02-.05.01-.07.05-.07.09-.14.14-.2.02-.01.03-.02.04-.04.05-.01.07-.06.11-.08.04-.01.07-.03.09-.06.04,0,.08-.02.12-.04.03,0,.07-.01.1-.03.05,0,.09,0,.14-.03.02,0,.04,0,.07,0,.06,0,.12.01.17-.01.26-.14.54-.25.84-.3.02,0,.04,0,.06-.01,0,0,0,0,.01,0,.04,0,.07,0,.11-.01,0,0,0,0,.01,0,.1,0,.21,0,.31,0,0,0,.02,0,.03,0,.03.02.05.01.08.01.44.08.77.33.98.73.11.21.16.43.18.66,0,.02,0,.03,0,.04,0,0,0,.02,0,.03Z"/>
    <path class="cls-11" d="m5.99,10.66c-.04-.07-.09-.13-.15-.18,0-.01,0-.03-.03-.02,0,0,0,0,0,0,.01-.03,0-.04-.02-.06-.05-.08-.09-.17-.13-.25-.05-.11-.08-.23-.12-.35-.02-.09-.04-.19-.06-.28,0-.12-.03-.23-.02-.35.01-.09.02-.18.04-.27.02-.04.04-.08.05-.12.03-.03.05-.06.08-.09.08-.04.16-.06.25-.05.02,0,.05.02.07.02.03,0,.04,0,.03-.04-.03-.12-.06-.24-.08-.37-.02-.19,0-.36.06-.54.04-.06.08-.12.12-.19.03-.02.05-.03.07-.06.04-.03.07-.05.11-.08.03,0,.05-.03.07-.04.03,0,.06-.01.08-.03.05-.01.09-.03.14-.04.03,0,.05,0,.08-.02.05,0,.09-.02.14-.01.05,0,.11.01.16-.01.03-.02.06-.04.1-.05.17-.08.33-.15.51-.19.01,0,.02,0,.03,0,.09-.02.18-.04.27-.06.04,0,.07,0,.11-.01,0,0,.02,0,.03,0,.09,0,.19,0,.28,0,.01,0,.03,0,.04,0,.03.01.05.01.08.01.15.03.29.07.42.15.35.2.58.5.68.89.03.12.05.24.07.36,0,.01,0,.02,0,.03,0,0,0,.02,0,.02,0,.04,0,.08,0,.12,0,.31-.04.61-.12.91-.03.11-.07.23-.11.34-.08.26-.19.5-.31.73-.1.2-.21.39-.35.56-.12.15-.25.27-.43.35-.01,0-.02.02-.03.03-.03,0-.06.02-.08.03-.11.04-.22.06-.33.07-.19.01-.38-.03-.56-.09-.22-.07-.42-.16-.61-.28-.22-.13-.43-.28-.61-.46-.01-.01-.02-.03-.04-.03Z"/>
    <path class="cls-6" d="m5.99,10.66s.03.01.04.03c.18.18.39.33.61.46.19.11.4.21.61.28.18.06.37.1.56.09.11,0,.22-.03.33-.07.03-.01.05-.02.08-.03,0,.18,0,.35-.02.53-.02.19-.04.39-.07.58-.07.42-.17.82-.38,1.2-.04.07-.08.14-.13.21-.05-.03-.09-.07-.13-.11-.2-.21-.39-.44-.56-.68-.1-.14-.19-.28-.29-.42-.06-.09-.11-.18-.16-.27-.07-.12-.13-.26-.2-.39-.02-.04-.05-.08-.07-.12-.03-.07-.06-.14-.08-.2-.03-.06-.06-.13-.09-.19-.02-.05-.03-.11-.05-.16,0,0,0-.02-.02-.03,0,0,0,0,0,0,0,0,0-.02,0-.03,0-.02,0-.04-.02-.05,0-.15.01-.31.02-.46,0-.05,0-.11,0-.16Z"/>
    <path class="cls-6" d="m11.09,12.37s.03.01.05.03c.16.17.35.3.55.42.14.08.28.15.43.22.15.06.3.12.45.15.13.03.26.04.39.03.09,0,.18-.03.27-.06.04-.01.08-.02.12-.04,0,.02,0,.04,0,.07,0,.15-.01.29-.02.44-.01.18-.03.35-.06.52-.06.37-.14.74-.3,1.09-.06.13-.12.26-.2.37-.02.03-.04.04-.07,0-.03-.04-.07-.08-.1-.11-.02-.02-.04-.03-.06-.05-.11-.13-.23-.27-.34-.41-.28-.38-.54-.77-.75-1.19-.13-.25-.24-.51-.34-.77,0-.04-.02-.07-.04-.11.01-.2.02-.41.03-.61Z"/>
    <path class="cls-10" d="m6.04,11.8c-.06.04-.13.07-.19.11-.13.07-.27.14-.4.22-.21.12-.42.23-.63.35-.14.08-.29.15-.43.23-.19.11-.39.21-.57.33-.36.25-.59.58-.68,1-.01.06-.02.11-.02.17,0,.9,0,1.79,0,2.69,0,.03,0,.06,0,.09-.11-.06-.21-.12-.3-.21.03-.05.02-.1.01-.16,0-.03,0-.06,0-.09,0-.18,0-.35,0-.53-.02-.39,0-.78-.02-1.17,0-.21,0-.42-.01-.63,0-.11.01-.22.04-.33.04-.19.14-.36.25-.52.11-.15.24-.28.37-.4.17-.16.37-.29.58-.41.32-.18.65-.35.98-.52.33-.17.66-.33.98-.5,0,0,.01,0,.02,0,.01.03.03.07.02.1,0,.01-.02.02,0,.03,0,0,0,0,0,0,0,.04.02.07.01.11Z"/>
    <path class="cls-13" d="m14.7,3.36c.09-.16.23-.27.39-.35.02,0,.04,0,.05.03.07.12.14.24.21.35.15.25.29.5.43.75.02.04.04.07.07.11.02.03.04.04.07.02.05-.03.09-.06.14-.09.05-.02.09-.05.14-.07.03,0,.06-.03.09-.04.05-.01.1-.03.15-.05.04,0,.07-.01.11-.03.04,0,.09-.01.13-.02.02,0,.05,0,.07,0,.03,0,.05,0,.08,0,0,0,.02,0,.03,0,0,0,.02,0,.03,0,.04,0,.07,0,.11,0h0s.05.01.08.01c.04,0,.08.02.12.02.06.02.13.04.19.05.1.05.2.09.3.14.07.06.15.11.22.17.1.1.18.22.24.35.04.08.05.17.08.25.02.12.02.24.03.36,0,.08-.01.16-.03.24-.01.07-.01.15-.05.22-.01-.15-.04-.3-.08-.44-.16-.47-.47-.8-.95-.95-.05-.02-.1-.02-.15-.03-.02-.02-.05-.01-.08-.01-.01,0-.03,0-.04,0-.06-.02-.13,0-.19-.01-.03,0-.06,0-.09.01,0,0,0,0-.01,0-.04,0-.07,0-.11.01-.05.01-.09.02-.14.03-.27.05-.53.15-.77.28-.04,0-.08,0-.12,0-.03-.1-.1-.18-.15-.28-.06-.11-.13-.22-.19-.33-.09-.15-.18-.3-.27-.46-.04-.08-.1-.15-.13-.23Z"/>
    <path class="cls-13" d="m9.57,8.32c-.01-.12-.03-.25-.07-.36-.11-.39-.33-.69-.68-.89-.13-.08-.27-.12-.42-.15-.03-.02-.05-.01-.08-.01-.01,0-.03,0-.04,0-.09-.02-.19-.02-.28,0,0,0-.02,0-.03,0-.04,0-.07,0-.11.01-.09.02-.18.04-.27.06-.01,0-.02,0-.03,0-.18.05-.34.12-.51.19-.03.02-.07.04-.1.05-.04,0-.07,0-.11,0,0,0,0-.01,0-.02-.11-.18-.21-.37-.32-.55-.12-.2-.23-.39-.35-.59-.03-.05-.06-.09-.07-.14.07-.11.16-.2.27-.27.04-.03.08-.06.13-.08.03.07.08.14.11.2.12.2.24.41.36.61.09.15.18.3.26.45.02.03.03.04.06.02.06-.05.13-.07.19-.12.04-.01.08-.03.11-.05.04-.02.09-.03.14-.06.03,0,.07-.02.1-.03.09-.02.18-.04.27-.06.08,0,.16,0,.24,0,.02,0,.04,0,.06,0,0,0,.02,0,.03,0,.02.02.05.01.07.01.04.01.09.02.13.02,0,0,.01.02.02.02.06,0,.11.03.16.03.06.03.12.07.19.08,0,0,0,.01.02,0,0,0,0,0,.01,0,0,0,.02.01.03.02.1.06.2.13.28.21.03.04.07.07.1.11,0,0,0,.02,0,.02.05.07.09.14.12.22.03.07.04.14.07.2.02.14.04.27.03.41,0,0,0,.01,0,.02-.02.14-.03.27-.06.41,0,0-.01,0-.02,0Z"/>
    <path class="cls-13" d="m12.95,8.62s0,0-.01,0c-.02,0-.04,0-.06.01-.3.05-.58.16-.84.3-.04,0-.07,0-.11,0,0,0,0-.01,0-.02-.11-.18-.21-.36-.32-.54-.1-.17-.2-.33-.29-.5-.05-.08-.1-.16-.14-.25.1-.15.23-.26.38-.34.02,0,.03.02.03.04.08.14.16.28.24.41.12.2.24.41.36.61.04.06.08.13.11.19.02.03.04.03.07.02.05-.04.11-.07.16-.11.05-.02.09-.04.14-.07.04-.01.09-.03.12-.05.04,0,.07-.02.11-.04.09-.02.18-.04.27-.06.08,0,.17,0,.25,0,0,0,.02,0,.03,0,.08,0,.16.03.24.03.06.02.12.04.18.05.1.05.2.08.29.14.02.01.04.03.06.03.07.06.15.12.21.19,0,.04.04.05.06.08.09.13.15.27.19.42.03.12.04.25.04.38,0,.15-.02.31-.06.46,0,0-.01,0-.02,0-.02-.23-.07-.46-.18-.66-.21-.4-.54-.64-.98-.73-.03-.02-.05-.01-.08-.01,0,0-.02,0-.03,0-.09-.02-.17,0-.26-.01-.02,0-.04,0-.05.01,0,0,0,0-.01,0-.04,0-.07,0-.11.01Z"/>
    <path class="cls-17" d="m7.61,17.32c0-.12,0-.24,0-.36,0-.38,0-.76,0-1.14,0-.23.06-.44.17-.64.06-.11.14-.2.21-.3.1-.14.23-.23.36-.33.22-.16.46-.29.69-.43.18-.1.36-.2.53-.31.09-.05.18-.1.27-.16.05-.03.11-.06.17-.09.08-.04.17-.08.24-.13.01,0,.03-.01.04-.02.1-.05.21-.11.31-.17.08-.04.16-.08.24-.12.07-.04.13-.08.21-.09.01.02.02.04.02.06.01.03,0,.06.02.1,0,.03.03.05.03.08-.03,0-.05.01-.07.02-.05.03-.11.06-.16.09-.32.16-.64.32-.95.48-.21.11-.42.22-.63.33-.14.07-.27.15-.4.24-.13.09-.25.19-.37.29-.11.09-.2.19-.29.3-.1.12-.19.26-.25.41-.06.14-.1.28-.1.44,0,.32,0,.64.01.96.02.31,0,.63.01.94.02.25,0,.5.02.75-.13-.08-.22-.2-.3-.33-.02-.03-.02-.06-.02-.1,0-.23,0-.46,0-.69,0-.02,0-.05,0-.07Z"/>
    <path class="cls-8" d="m13.34,4.32c.04-.19.13-.36.26-.51.05-.06.11-.12.18-.16.11.2.23.39.34.59.15.26.31.52.46.78.01.02.02.05.05.05,0,.02-.01.04-.02.06-.04.08-.07.16-.07.25,0,.19,0,.38.05.56.01.05.04.09.03.14h0s-.04,0-.06,0c-.06,0-.11-.03-.17,0,0-.02-.01-.04-.02-.05-.05-.09-.1-.17-.15-.26-.12-.2-.24-.41-.35-.61-.15-.26-.3-.51-.45-.77-.01-.02-.03-.04-.06-.05Z"/>
    <path class="cls-8" d="m11.08,9.42s0,.05-.01.07c-.05.16-.05.32-.03.48.01.13.04.25.08.38-.08-.02-.15-.03-.23-.03,0-.05-.04-.09-.06-.13-.15-.26-.31-.52-.46-.78-.15-.26-.31-.52-.46-.78-.02-.03-.03-.06-.07-.07.04-.17.12-.32.23-.46.03-.04.07-.09.11-.12.01-.01.02-.03.04-.03,0,.02.02.04.03.06.04.07.08.13.12.2.09.15.18.31.27.46.07.12.14.24.21.35.08.13.15.27.24.39Z"/>
    <path class="cls-8" d="m5.99,7.7c-.06.18-.08.35-.06.54.02.13.04.25.08.37,0,.03,0,.04-.03.04-.02,0-.05-.02-.07-.02,0-.04-.03-.08-.05-.12-.05-.09-.11-.18-.16-.27-.09-.15-.18-.3-.26-.45-.11-.19-.22-.37-.33-.56-.1-.17-.2-.35-.31-.52.07-.19.18-.35.34-.47,0,.02.01.04.03.06.04.06.07.11.1.17.09.15.17.3.26.45.07.12.14.24.21.36.08.14.17.28.25.42Z"/>
    <path class="cls-5" d="m4.8,6.71c.1.17.2.35.31.52.11.19.22.37.33.56.09.15.18.3.26.45.05.09.1.18.16.27.02.04.05.07.05.12-.09,0-.17.02-.25.05-.02,0-.02-.02-.03-.03-.02-.04-.04-.08-.07-.12-.11-.19-.22-.37-.33-.56-.16-.27-.32-.54-.47-.81-.01-.02-.03-.04-.06-.04.02-.14.04-.27.11-.39Z"/>
    <path class="cls-4" d="m13.31,5.48c-.03-.17-.05-.35-.04-.53.04,0,.05.02.07.05.1.17.2.34.3.51.1.17.2.34.3.5.06.1.12.21.18.31-.02.12-.03.23-.03.35,0,0,0,.02,0,.03-.03,0-.04-.02-.05-.04-.14-.23-.27-.47-.41-.7-.09-.15-.18-.3-.27-.45-.01-.02-.02-.04-.05-.03Z"/>
    <path class="cls-2" d="m7.48,6.73c-.06.05-.13.08-.19.12-.03.02-.05,0-.06-.02-.09-.15-.17-.3-.26-.45-.12-.2-.24-.4-.36-.61-.04-.07-.08-.13-.11-.2.07-.05.15-.07.23-.1.02.01.03.04.04.06.09.15.17.3.26.45.12.21.24.41.36.62.03.05.05.1.09.14Z"/>
    <path class="cls-2" d="m12.55,8.44c-.05.04-.11.07-.16.11-.03.02-.05.02-.07-.02-.04-.06-.08-.13-.11-.19-.12-.2-.24-.41-.36-.61-.08-.14-.16-.27-.24-.41,0-.02-.02-.03-.03-.04.07-.06.16-.08.24-.11,0,.01,0,.02.01.03.1.16.19.33.29.49.13.22.26.44.39.66.02.03.05.06.04.1Z"/>
    <path class="cls-5" d="m11.08,9.42c-.09-.13-.16-.26-.24-.39-.07-.12-.14-.24-.21-.35-.09-.15-.18-.31-.27-.46-.04-.07-.08-.13-.12-.2-.01-.02-.02-.04-.03-.06.05-.05.11-.09.18-.12.06.13.14.25.21.37.09.15.18.31.27.46.07.12.14.24.21.35.04.07.08.14.13.2-.05.07-.09.14-.14.2Z"/>
    <path class="cls-9" d="m13.5,6.44c-.03-.07-.05-.15-.06-.22-.01-.07-.04-.15-.05-.22.05,0,.06.04.08.08.04.07.08.14.12.22.1.17.2.34.3.51.07.11.13.23.2.34.01.02.02.05.06.05.02.02,0,.05.01.08.04.12.08.24.13.36-.05,0-.05,0-.03.05.02.04.05.08.07.12.13.22.26.44.39.67.05.09.1.18.16.27.01.02.02.05.06.05.02.07.03.13.02.2-.03,0-.04-.02-.05-.04-.05-.08-.1-.17-.15-.25-.12-.2-.24-.41-.36-.61-.1-.16-.19-.33-.29-.49-.01-.02-.02-.04-.02-.07.02,0,.04.03.06.02,0-.02,0-.04-.02-.05-.04-.06-.07-.13-.11-.19-.07-.11-.13-.22-.2-.33-.09-.16-.19-.32-.28-.48-.01-.02-.02-.03-.05-.03Z"/>
    <path class="cls-2" d="m16.07,4.17s-.09.06-.14.09c-.03.02-.06.01-.07-.02-.02-.04-.04-.07-.07-.11-.14-.25-.29-.5-.43-.75-.07-.12-.14-.24-.21-.35-.01-.02-.03-.03-.05-.03,0,0,0,0,0,0,.05-.04.12-.07.18-.09.04,0,.07,0,.1.05.1.17.19.34.29.51.1.17.2.33.3.5.04.07.09.13.11.21Z"/>
    <path class="cls-5" d="m5.99,7.7c-.08-.14-.17-.28-.25-.42-.07-.12-.14-.24-.21-.36-.09-.15-.17-.3-.26-.45-.03-.06-.07-.12-.1-.17-.01-.02-.02-.04-.03-.06.05-.05.11-.09.18-.12,0,.04.02.07.04.1.07.11.13.22.2.33.09.15.18.31.27.46.1.17.2.34.3.51-.04.06-.08.12-.12.19Z"/>
    <path class="cls-4" d="m13.19,8.23c-.09.02-.18.04-.27.06,0-.02,0-.03-.01-.05-.11-.18-.21-.36-.32-.55-.1-.16-.2-.33-.29-.49-.02-.04-.06-.07-.05-.12,0,0,0,0,.01-.01.02,0,.04,0,.05,0,.07,0,.14,0,.2,0,0,.03.02.06.04.09.04.07.08.13.12.2.09.15.18.31.27.46.07.13.15.25.22.38.01.02.02.04.04.05Z"/>
    <path class="cls-4" d="m8.09,6.53c-.09.02-.18.04-.27.06,0-.04-.02-.06-.04-.09-.1-.16-.19-.33-.29-.49-.09-.15-.18-.31-.27-.46-.03-.05-.08-.1-.08-.16,0,0,.02,0,.03-.01.01,0,.03,0,.04,0,.07,0,.14,0,.2,0,0,.03.01.05.03.07.04.06.07.11.1.17.09.15.17.3.26.45.09.15.18.29.26.45,0,.01.02.02.03.02Z"/>
    <path class="cls-5" d="m9.84,8.56s.05.04.07.07c.15.26.31.52.46.78.15.26.3.52.46.78.02.04.06.08.06.13-.04.02-.09.04-.13.05-.02,0-.03-.02-.03-.04-.14-.25-.29-.49-.43-.74-.15-.25-.3-.5-.44-.75-.01-.02-.02-.05-.05-.06,0-.08.03-.16.05-.23Z"/>
    <path class="cls-9" d="m6.25,12.25c-.03-.06-.05-.12-.08-.18-.01-.02-.02-.05-.02-.07,0,0,0,0,.01,0,.04.09.09.17.13.26.08.17.19.32.28.48.05.08.11.16.16.25.04.06.09.12.14.18.22.29.45.57.71.83.02.02.03.03.05.05.44-.77.66-1.59.65-2.48,0,0,0,0,.01,0,0,.16.02.32,0,.48-.01.15-.03.29-.05.43-.03.21-.08.41-.14.61-.05.16-.1.31-.16.46-.08.21-.17.42-.27.62,0,0-.01.02-.02.03-.03-.01-.04-.03-.06-.05-.3-.3-.57-.63-.81-.98-.16-.23-.31-.47-.44-.72-.03-.07-.06-.14-.11-.2,0,0,0,0,0,0,0,0,0-.02-.01-.03Z"/>
    <path class="cls-15" d="m14.7,9.17c-.04-.15-.1-.29-.19-.42-.02-.03-.05-.04-.06-.08.02-.01,0-.03,0-.05-.04-.08-.09-.16-.13-.23-.06-.11-.13-.22-.19-.33-.09-.15-.17-.3-.26-.45-.05-.08-.1-.16-.14-.24-.01-.02-.01-.03,0-.05.04,0,.07.02.11.03.02.01.05.02.07.03,0,0,0,0,0,0,0,0,0,0,0,0-.02.02-.02.04,0,.07.04.05.07.11.1.17.14.24.29.48.43.72.16.27.31.53.47.8.01.02.02.04.04.04,0,.08-.01.16-.03.24-.03,0-.05-.02-.06-.04-.04-.07-.08-.13-.11-.2-.01-.02-.03-.03-.05-.03Z"/>
    <path class="cls-14" d="m14.24,8.49s-.04-.02-.06-.03c-.09-.06-.19-.09-.29-.14.03-.03,0-.05-.01-.06-.06-.11-.13-.23-.2-.34-.13-.22-.26-.44-.39-.66-.01-.02-.03-.05-.03-.08.05,0,.1.02.15.04.05.02.1.02.15.04.01,0,.03,0,.04.02-.04,0-.03.03-.01.05.08.14.17.28.25.42.12.2.24.4.35.6.03.05.07.09.06.15Z"/>
    <path class="cls-5" d="m13.34,4.32s.05.02.06.05c.15.26.3.51.45.77.12.2.24.41.35.61.05.09.1.17.15.26.01.02.02.03.02.05-.05,0-.09.04-.14.06-.02-.04-.04-.07-.06-.11-.11-.19-.23-.39-.34-.58-.12-.2-.24-.4-.35-.6-.05-.08-.1-.17-.15-.25-.01-.02-.02-.05-.06-.05,0-.07.02-.15.05-.22Z"/>
    <path class="cls-4" d="m9.41,7.04s-.07-.07-.1-.11c-.08-.08-.18-.15-.28-.21,0,0-.02-.01-.03-.02,0-.04-.02-.07-.04-.1-.06-.11-.13-.22-.2-.33-.09-.16-.18-.31-.27-.47-.05-.08-.09-.16-.14-.24-.01-.02-.02-.04.02-.05.1.03.19.06.28.11-.03,0-.03.02-.02.04.04.07.08.14.12.21.06.11.13.22.2.33.1.17.2.35.31.52.05.09.1.17.15.26,0,.01.02.03,0,.05Z"/>
    <path class="cls-4" d="m5.52,8.89c-.02.09-.03.18-.04.27-.03,0-.05-.02-.06-.05-.05-.1-.11-.19-.16-.29-.12-.2-.23-.4-.35-.6-.05-.09-.11-.18-.16-.27-.01-.02-.02-.04-.06-.04-.02-.13-.03-.27-.02-.41.03,0,.04.04.06.06.1.17.2.34.3.51.15.25.3.5.44.75.01.02.02.05.05.05Z"/>
    <path class="cls-15" d="m14.17,3.46c.07-.02.15-.05.23-.04-.03.02-.03.04-.01.07.04.07.08.14.12.2.09.16.19.31.28.47.1.17.2.34.3.51.01.02.02.05.05.05-.06.02-.12.04-.18.07-.05-.01-.05-.06-.07-.09-.1-.16-.19-.33-.29-.49-.1-.18-.21-.35-.31-.53-.04-.07-.09-.14-.12-.22Z"/>
    <path class="cls-5" d="m13.71,8.26c-.08,0-.16-.03-.24-.03,0-.04-.02-.07-.03-.1-.05-.09-.11-.18-.16-.28-.12-.2-.24-.4-.35-.6-.03-.05-.08-.1-.07-.17.1,0,.19.02.29.05-.03,0-.03.02-.02.05.05.09.11.18.16.27.1.17.2.34.3.52.05.08.1.17.15.25.01.02.02.04-.02.05Z"/>
    <path class="cls-16" d="m9.86,7.31c.01.08,0,.16,0,.24-.03,0-.04-.02-.06-.04-.05-.08-.09-.15-.14-.23-.09-.15-.17-.3-.26-.45-.1-.16-.19-.33-.29-.49-.11-.18-.21-.36-.32-.54-.02-.04-.06-.08-.06-.13,0,0,0,0,.01,0,0,0,0,0,.01.01.07.02.14.07.2.11,0,.04.02.07.04.11.09.17.19.33.29.49.12.2.24.41.36.61.05.09.11.18.16.27.01.02.02.04.05.04Z"/>
    <path class="cls-5" d="m8.41,6.52s-.02,0-.03,0c0-.03-.01-.06-.03-.08-.06-.11-.13-.22-.19-.32-.13-.22-.26-.44-.39-.66-.01-.02-.03-.05-.03-.08.1,0,.19.02.29.05-.04,0-.03.03-.01.05.07.11.13.22.2.33.09.15.17.3.26.45.05.08.1.17.15.25.01.02.02.04-.02.05-.04,0-.09,0-.13-.02-.02-.02-.05-.01-.07-.01Z"/>
    <path class="cls-2" d="m6.09,5.92c.01.05.05.1.07.14.11.2.23.39.35.59.11.18.21.37.32.55,0,0,0,.01,0,.02-.02,0-.04,0-.05.01-.05,0-.09.02-.14.01,0-.01,0-.02-.01-.03-.1-.16-.19-.32-.29-.49-.13-.23-.26-.45-.4-.68-.01-.02-.03-.04-.03-.07.03,0,.07,0,.1,0,.01,0,.03,0,.03-.02l.04-.05Z"/>
    <path class="cls-4" d="m10.6,10.64c-.01.09-.03.17-.03.26-.03,0-.04-.02-.05-.04-.11-.19-.22-.38-.33-.57-.12-.2-.24-.41-.36-.61-.01-.02-.02-.04-.05-.04-.02-.12-.02-.23-.02-.35.02,0,.03,0,.04.03.07.13.15.25.22.38.09.15.18.3.26.45.07.12.14.24.21.35.03.05.05.11.1.14Z"/>
    <path class="cls-14" d="m10.6,10.64c-.06-.03-.07-.09-.1-.14-.07-.12-.14-.24-.21-.35-.09-.15-.18-.3-.26-.45-.07-.13-.15-.25-.22-.38-.01-.02-.02-.03-.04-.03-.01-.02,0-.05,0-.07,0-.06,0-.12.01-.19.06,0,.07.05.09.08.09.15.17.3.26.45.15.26.31.52.46.78.03.05.05.1.09.14-.02.05-.05.11-.07.16Z"/>
    <path class="cls-15" d="m4.68,7.92s.04.02.06.04c.05.09.11.18.16.27.12.2.23.4.35.6.06.09.11.19.16.29.01.02.03.05.06.05,0,.12.01.23.02.35-.04-.01-.05-.05-.07-.08-.09-.15-.18-.3-.26-.45-.07-.12-.14-.24-.21-.35-.05-.09-.11-.18-.16-.27-.01-.02-.02-.04-.05-.04-.03-.04-.02-.09-.02-.14-.01-.08-.02-.17-.03-.25Z"/>
    <path class="cls-16" d="m10.59,11.15c.03.14.04.28.08.42,0,.01,0,.03,0,.04-.04,0-.04-.03-.06-.06-.06-.1-.12-.21-.18-.31-.06-.11-.12-.21-.19-.32-.09-.16-.19-.32-.28-.48-.01-.02-.02-.03-.05-.03-.03-.1-.05-.21-.07-.32,0-.04-.02-.08-.02-.13.05,0,.06.05.07.08.07.12.14.24.22.37.07.12.14.24.21.35.07.12.14.23.21.35.01.02.03.04.05.04Z"/>
    <path class="cls-9" d="m9.86,7.31s-.04-.01-.05-.04c-.05-.09-.11-.18-.16-.27-.12-.2-.24-.41-.36-.61-.1-.16-.19-.33-.29-.49-.02-.03-.04-.06-.04-.11.07.05.15.09.22.14.02.02.05.03.06.05,0,.02,0,.04.01.06.05.08.09.16.14.24.12.21.24.41.36.61.01.02.02.05.05.06.04.11.04.23.05.35Z"/>
    <path class="cls-14" d="m11.36,9.1s-.06.07-.11.08c-.04-.07-.08-.14-.12-.21-.07-.11-.13-.22-.2-.34-.09-.15-.17-.3-.26-.45-.07-.13-.15-.25-.22-.38.05-.03.1-.05.15-.06,0,.03,0,.05.02.08.08.14.17.28.25.43.13.23.27.45.4.68.03.06.08.11.09.17Z"/>
    <path class="cls-10" d="m10.67,10.47s-.07-.09-.09-.14c-.15-.26-.3-.52-.46-.78-.09-.15-.17-.3-.26-.45-.02-.04-.03-.09-.09-.08,0-.08.01-.15.03-.23.03,0,.04.03.05.06.15.25.3.5.44.75.14.25.29.49.43.74,0,.02.02.03.03.04-.03.03-.05.06-.08.09Z"/>
    <path class="cls-2" d="m14.7,3.36c.03.08.09.16.13.23.09.15.18.31.27.46.06.11.13.22.19.33.05.09.12.18.15.28,0,0,0,0,0,0-.01,0-.03,0-.04,0-.01,0-.03,0-.04,0-.03,0-.05,0-.08,0,0-.02-.01-.04-.03-.06-.05-.09-.11-.18-.16-.27-.09-.15-.18-.31-.27-.46-.07-.12-.14-.24-.21-.35-.02-.04-.05-.07-.06-.12.02,0,.05,0,.07,0,.02,0,.03,0,.03-.03,0-.01.02-.02.03-.03Z"/>
    <path class="cls-14" d="m6.29,7.38s-.07.05-.11.08c-.04,0-.05-.05-.07-.07-.09-.15-.17-.3-.26-.45-.14-.24-.29-.48-.43-.72-.02-.04-.05-.07-.06-.12.04-.02.08-.05.13-.05,0,.02.01.04.02.06.09.16.19.31.28.47.14.25.29.5.43.74.01.02.02.05.06.05Z"/>
    <path class="cls-14" d="m14.12,6.34c-.06-.1-.12-.21-.18-.31-.1-.17-.2-.34-.3-.5-.1-.17-.2-.34-.3-.51-.02-.03-.03-.06-.07-.05,0-.09,0-.17.01-.26.03,0,.04.03.05.05.12.2.24.4.36.6.15.25.29.5.44.75.02.03.03.07.07.09-.02.05-.05.1-.07.15Z"/>
    <path class="cls-14" d="m5.52,8.89s-.04-.03-.05-.05c-.15-.25-.3-.5-.44-.75-.1-.17-.2-.34-.3-.51-.01-.02-.02-.05-.06-.06,0-.07,0-.14,0-.22.03,0,.04.02.06.04.07.12.14.23.21.35.09.15.17.3.26.45.07.12.14.24.21.35.06.1.11.19.17.29-.02.04-.04.08-.05.12Z"/>
    <path class="cls-2" d="m11.19,7.62c.03.09.09.17.14.25.09.17.2.33.29.5.11.18.21.36.32.54,0,0,0,.01,0,.02-.02,0-.05,0-.07.01-.02,0-.04,0-.07,0-.02,0-.03-.02-.04-.04-.1-.17-.2-.34-.3-.51-.11-.18-.21-.36-.32-.54-.03-.06-.07-.11-.09-.17.02,0,.04,0,.07,0,.02,0,.03,0,.03-.03.01-.01.02-.02.03-.04Z"/>
    <path class="cls-2" d="m5.74,10.42c-.09-.06-.18-.13-.25-.21-.22-.26-.37-.55-.49-.86-.04-.12-.09-.23-.11-.36,0-.02.02-.02.04,0,.02.02.03.04.04.07.09.15.18.3.26.45.07.11.13.22.2.34.09.16.18.32.28.47.02.03.04.07.03.11Z"/>
    <path class="cls-15" d="m16.45,4.01s-.1.04-.15.05c0-.02,0-.03-.01-.04-.07-.13-.15-.25-.22-.38-.15-.26-.3-.51-.45-.77-.01-.02-.03-.04-.06-.04.06-.02.13-.03.2-.03.01.04.03.08.05.12.07.11.13.22.2.34.09.15.18.3.26.45.06.1.12.2.17.3Z"/>
    <path class="cls-9" d="m12.55,8.44s-.03-.07-.04-.1c-.13-.22-.26-.44-.39-.66-.1-.16-.19-.33-.29-.49,0,0,0-.02-.01-.03.04-.02.08-.03.13-.04.02,0,.02.02.03.04.1.16.19.33.29.49.12.2.23.39.35.59.02.04.06.08.07.13-.04.03-.09.05-.14.07Z"/>
    <path class="cls-9" d="m16.07,4.17c-.02-.08-.07-.14-.11-.21-.1-.17-.2-.33-.3-.5-.1-.17-.2-.34-.29-.51-.02-.04-.06-.05-.1-.05.06-.03.11-.05.17-.05.02,0,.03,0,.04.02.02.03.03.06.05.09.09.15.18.3.26.45.07.11.13.22.2.34.07.12.13.23.21.35-.05.02-.09.05-.14.07Z"/>
    <path class="cls-10" d="m5.57,8.77c-.06-.1-.12-.19-.17-.29-.07-.12-.14-.24-.21-.35-.09-.15-.17-.3-.26-.45-.07-.12-.14-.23-.21-.35-.01-.02-.03-.04-.06-.04,0-.06,0-.13.02-.19.03,0,.04.02.06.04.16.27.31.54.47.81.11.19.22.37.33.56.02.04.05.08.07.12,0,.01.02.03.03.03-.03.03-.05.06-.08.09Z"/>
    <path class="cls-15" d="m8.73,5.67c0,.05.04.09.06.13.1.18.21.36.32.54.1.16.19.33.29.49.09.15.17.3.26.45.05.08.09.15.14.23.01.02.02.05.06.04,0,.07,0,.14-.04.2-.02,0-.03-.01-.04-.03-.03-.06-.07-.12-.1-.18-.01-.02-.02-.05-.06-.06-.03-.07-.04-.14-.07-.2-.03-.08-.07-.15-.12-.22,0,0,0-.02,0-.02.02-.02,0-.03,0-.05-.04-.09-.1-.17-.15-.26-.1-.17-.2-.35-.31-.52-.06-.11-.13-.22-.2-.33-.04-.07-.08-.14-.12-.21-.01-.02-.01-.04.02-.04.02.02.06.01.08.04Z"/>
    <path class="cls-15" d="m12.24,7.08s.03.08.05.12c.09.17.19.33.29.49.11.18.21.36.32.55,0,.02.01.03.01.05-.03.02-.07.03-.11.04-.02-.01-.03-.03-.05-.05-.08-.15-.17-.3-.26-.44-.14-.23-.27-.46-.41-.7-.01-.02-.02-.03-.04-.04.04,0,.08-.02.11-.02.02,0,.05,0,.07,0Z"/>
    <path class="cls-15" d="m10.59,11.15s-.04-.02-.05-.04c-.07-.12-.14-.23-.21-.35-.07-.12-.14-.24-.21-.35-.07-.12-.14-.24-.22-.37-.02-.03-.03-.07-.07-.08-.03-.11-.04-.22-.04-.33.03,0,.04.02.05.04.12.2.24.41.36.61.11.19.22.38.33.57.01.02.02.04.05.04,0,.09.01.17.01.26Z"/>
    <path class="cls-9" d="m5.74,10.42s-.01-.08-.03-.11c-.1-.15-.19-.31-.28-.47-.07-.11-.13-.22-.2-.34-.09-.15-.18-.3-.26-.45-.01-.02-.03-.05-.04-.07-.01-.02-.03-.01-.04,0-.04-.13-.08-.26-.1-.4.04,0,.05.03.06.05.07.12.15.25.22.37.14.25.29.49.43.74.01.02.03.04.05.05.04.12.07.24.12.35.04.09.08.17.13.25.01.02.03.03.02.06-.03,0-.05-.02-.07-.04Z"/>
    <path class="cls-10" d="m14.19,6.19s-.05-.06-.07-.09c-.15-.25-.29-.5-.44-.75-.12-.2-.24-.4-.36-.6-.01-.02-.02-.05-.05-.05,0-.06.01-.11.02-.16.04,0,.05.02.06.05.05.08.1.17.15.25.12.2.24.4.35.6.11.19.23.39.34.58.02.03.04.07.06.11-.02.03-.04.05-.07.07Z"/>
    <path class="cls-10" d="m7.75,5.38s.01.06.03.08c.13.22.26.44.39.66.06.11.13.22.19.32.01.02.03.05.03.08-.02,0-.04,0-.06,0-.02-.02-.04-.01-.06,0-.04,0-.06-.01-.07-.05-.01-.02-.02-.05-.04-.07-.09-.14-.17-.29-.26-.43-.1-.17-.2-.34-.3-.51-.02-.03-.03-.05-.03-.09,0,0,.02,0,.03,0,0,0,.02,0,.03,0,.03.02.07.01.11.01,0,0,0,0,.01,0Z"/>
    <path class="cls-5" d="m14.63,5.06s-.04-.03-.05-.05c-.15-.26-.3-.52-.46-.78-.12-.19-.23-.39-.34-.59.03-.03.07-.06.11-.07,0,.02,0,.03.01.05.09.16.19.32.28.48.13.22.26.44.39.67.04.07.07.14.13.2-.02.03-.04.07-.07.1Z"/>
    <path class="cls-15" d="m7.14,5.37c0,.07.05.11.08.16.09.16.18.31.27.46.1.16.19.33.29.49.02.03.04.06.04.09-.03.02-.06.03-.1.03-.04,0-.05-.05-.07-.07-.09-.15-.17-.3-.26-.45-.12-.2-.24-.41-.36-.61-.02-.03-.03-.08-.07-.09.01-.01.03,0,.04-.01.02,0,.05,0,.07-.01,0,0,.02,0,.03,0,.01,0,.03,0,.04,0Z"/>
    <path class="cls-9" d="m7.48,6.73s-.07-.09-.09-.14c-.12-.21-.24-.41-.36-.62-.09-.15-.17-.3-.26-.45-.01-.02-.02-.04-.04-.06.04-.02.09-.04.14-.04.02.06.06.11.09.17.13.22.26.44.39.67.08.14.17.28.25.42-.03.03-.07.04-.11.05Z"/>
    <path class="cls-10" d="m12.85,7.08c0,.07.04.12.07.17.11.2.23.4.35.6.05.09.11.18.16.28.02.03.04.06.03.1,0,0-.02,0-.03,0,0,0,0,0-.01,0-.09.02-.13-.04-.17-.11-.06-.11-.13-.22-.19-.33-.09-.15-.18-.3-.26-.45-.05-.09-.1-.17-.15-.26,0,0,.02,0,.03,0,.01,0,.03,0,.04,0,.03.02.06.01.1.01,0,0,.02,0,.03,0Z"/>
    <path class="cls-9" d="m9.91,10.41s.04,0,.05.03c.09.16.19.32.28.48.06.11.12.21.19.32.06.1.12.21.18.31.01.02.02.06.06.06.06.14.11.28.17.42,0,.02.02.04.04.06.02.02.03.03.02.06,0,0-.01,0-.02,0-.03-.02-.07-.04-.1-.06,0-.03,0-.05-.02-.08-.09-.16-.19-.32-.28-.48-.15-.25-.29-.5-.44-.75-.01-.02-.03-.04-.05-.04-.03-.11-.06-.22-.08-.34Z"/>
    <path class="cls-10" d="m14.7,4.97c-.06-.06-.09-.13-.13-.2-.13-.22-.26-.44-.39-.67-.09-.16-.19-.32-.28-.48,0-.01,0-.03-.01-.05.03-.02.05-.05.1-.05,0,.03.02.06.04.09.05.08.1.16.15.24.09.15.18.3.26.45.07.12.14.24.21.35.05.08.09.16.14.23-.02.03-.05.06-.08.08Z"/>
    <path class="cls-16" d="m7.58,6.67c-.08-.14-.17-.28-.25-.42-.13-.22-.26-.44-.39-.67-.03-.05-.07-.11-.09-.17.03-.01.07-.02.11-.02.05.01.05.06.07.09.12.2.24.4.36.61.09.15.17.3.26.45.02.03.03.07.07.07-.04.03-.09.03-.14.06Z"/>
    <path class="cls-2" d="m9.99,10.74s.04.02.05.04c.15.25.29.5.44.75.09.16.19.32.28.48.01.02.02.05.02.08-.04-.03-.09-.07-.13-.1-.05-.04-.09-.1-.13-.15-.05-.06-.1-.13-.14-.2-.06-.08-.1-.17-.14-.26-.06-.11-.11-.23-.15-.35-.03-.1-.06-.2-.09-.3Z"/>
    <path class="cls-14" d="m8.37,5.52s-.03.03-.02.05c.05.08.09.16.14.24.09.16.18.31.27.47.06.11.13.22.2.33.02.03.04.06.04.1,0,0,0,0-.01,0,0,0-.01,0-.02,0-.07-.02-.13-.05-.19-.08.03,0,.03-.02.02-.04-.03-.04-.05-.08-.08-.13-.09-.15-.18-.3-.26-.45-.09-.15-.18-.31-.27-.46-.01-.02-.02-.04,0-.06.06.02.12.02.18.05Z"/>
    <path class="cls-16" d="m6.57,7.27s-.09.03-.14.04c-.01-.02-.02-.05-.04-.07-.11-.19-.22-.37-.33-.56-.1-.18-.21-.35-.31-.53-.03-.05-.07-.09-.06-.15.03-.02.06-.01.09-.02,0,0,.02,0,.03,0,0,.02,0,.04.01.06.07.13.15.25.22.38.15.26.3.52.46.78.02.03.03.06.07.07Z"/>
    <path class="cls-15" d="m11.58,9s-.08.04-.12.04c0-.03-.02-.06-.04-.09-.1-.16-.19-.33-.29-.49-.12-.21-.25-.42-.37-.63-.02-.04-.05-.07-.05-.12.04,0,.07-.02.11-.02,0,.01,0,.03.01.04.08.14.16.27.24.41.12.2.23.4.35.6.05.09.1.18.16.26Z"/>
    <path class="cls-16" d="m16.2,4.1c-.08-.11-.14-.23-.21-.35-.07-.11-.13-.22-.2-.34-.09-.15-.18-.3-.26-.45-.02-.03-.03-.06-.05-.09,0-.02-.02-.02-.04-.02.03-.02.07-.03.11-.03.03,0,.04.01.06.04.15.26.3.51.45.77.07.13.15.25.22.38,0,.01.01.03.01.04-.03.02-.06.03-.09.04Z"/>
    <path class="cls-16" d="m12.06,7.1s.03.02.04.04c.14.23.27.46.41.7.09.15.17.29.26.44.01.02.02.04.05.05-.04.03-.08.04-.12.05-.01-.05-.05-.09-.07-.13-.11-.2-.23-.39-.35-.59-.1-.16-.19-.33-.29-.49,0-.01-.01-.03-.03-.04.03-.02.07-.02.11-.03Z"/>
    <path class="cls-4" d="m6.29,7.38s-.04-.03-.06-.05c-.15-.25-.29-.5-.43-.74-.09-.16-.18-.31-.28-.47-.01-.02-.02-.04-.02-.06.03-.02.07-.03.11-.03,0,.05.03.09.06.13.1.17.2.35.3.52.11.19.22.37.33.56.02.04.06.07.05.12-.02.02-.04.04-.07.04Z"/>
    <path class="cls-10" d="m8.2,5.47s-.02.04,0,.06c.09.15.18.31.27.46.09.15.18.3.26.45.02.04.05.08.08.13.01.02,0,.03-.02.04-.06,0-.11-.04-.16-.03,0,0-.01-.01-.02-.02.04,0,.03-.03.02-.05-.05-.08-.1-.17-.15-.25-.09-.15-.17-.3-.26-.45-.06-.11-.13-.22-.2-.33-.02-.03-.03-.04.01-.05.06,0,.11.02.16.04Z"/>
    <path class="cls-4" d="m10.71,7.72s.03.08.05.12c.12.21.25.42.37.63.1.16.19.33.29.49.02.03.03.05.04.09-.03.02-.06.05-.09.06-.01-.07-.06-.12-.09-.17-.13-.23-.26-.45-.4-.68-.08-.14-.17-.28-.25-.43-.01-.02-.02-.05-.02-.08.04-.01.07-.03.11-.03Z"/>
    <path class="cls-14" d="m14.78,4.89c-.06-.07-.1-.16-.14-.23-.07-.12-.14-.24-.21-.35-.09-.15-.18-.3-.26-.45-.05-.08-.1-.16-.15-.24-.02-.03-.03-.05-.04-.09.03-.02.07-.04.11-.04,0,.02,0,.04.01.06.05.07.09.15.13.23.1.16.19.33.29.49.1.17.2.34.3.51.01.02.02.05.05.05-.03.03-.06.05-.1.07Z"/>
    <path class="cls-16" d="m5.55,9.8s-.04-.02-.05-.05c-.14-.25-.29-.49-.43-.74-.07-.12-.15-.25-.22-.37-.01-.02-.02-.05-.06-.05-.02-.09-.04-.19-.05-.29.03,0,.04.02.05.04.05.09.11.18.16.27.07.12.14.24.21.35.09.15.18.3.26.45.02.03.03.07.07.08.02.09.04.19.06.28Z"/>
    <path class="cls-10" d="m13.71,8.26s.03-.03.02-.05c-.05-.08-.1-.17-.15-.25-.1-.17-.2-.34-.3-.52-.05-.09-.1-.18-.16-.27-.02-.03-.01-.04.02-.05.05.01.1,0,.13.04,0,.03.01.06.03.08.13.22.26.44.39.66.07.11.13.22.2.34.01.02.04.04.01.06-.06-.01-.12-.03-.18-.05Z"/>
    <path class="cls-15" d="m13.31,5.48s.04.01.05.03c.09.15.18.3.27.45.14.23.27.47.41.7.01.02.03.04.05.04,0,.08.01.15.02.23-.03,0-.04-.02-.05-.04-.05-.08-.1-.17-.15-.25-.12-.2-.24-.4-.36-.61-.05-.08-.09-.16-.14-.24-.01-.02-.02-.06-.06-.05-.02-.09-.03-.18-.04-.27Z"/>
    <path class="cls-16" d="m15.14,4.71s-.04-.03-.05-.05c-.1-.17-.2-.34-.3-.51-.09-.16-.19-.31-.28-.47-.04-.07-.08-.14-.12-.2-.02-.03-.02-.05.01-.07,0,0,0,0,.01,0,.02,0,.05,0,.07,0,0,.01,0,.03,0,.04.05.08.1.17.14.25.13.22.26.45.4.67.05.09.11.18.16.27.02.03.03.04.06.04-.04.02-.08.02-.12.03Z"/>
    <path class="cls-4" d="m16.45,4.01c-.05-.1-.12-.2-.17-.3-.09-.15-.18-.3-.26-.45-.07-.11-.13-.22-.2-.34-.02-.04-.04-.07-.05-.12,0,0,0,0,0,0,.03,0,.06.01.08,0,0,0,.02,0,.03,0,0,0,0,0,.01,0,0,.05.04.09.07.14.06.11.13.22.2.34.09.15.18.3.26.45.05.09.11.17.15.26-.03.02-.07.02-.11.03Z"/>
    <path class="cls-4" d="m14.24,8.49c0-.06-.03-.1-.06-.15-.12-.2-.23-.4-.35-.6-.08-.14-.17-.28-.25-.42-.02-.03-.03-.04.01-.05.03.02.08.02.11.04.01,0,.02.01.02.03-.02.01-.02.03,0,.05.05.08.1.16.14.24.09.15.17.3.26.45.06.11.13.22.19.33.05.08.09.15.13.23,0,.01.02.03,0,.05-.07-.07-.14-.13-.21-.19Z"/>
    <path class="cls-4" d="m14.88,4.82s-.04-.03-.05-.05c-.1-.17-.2-.34-.3-.51-.1-.16-.19-.33-.29-.49-.04-.08-.09-.15-.13-.23-.01-.02-.01-.04-.01-.06.03-.01.05-.03.08-.03.03.08.08.15.12.22.1.18.21.35.31.53.1.16.19.33.29.49.02.03.02.08.07.09-.02.02-.05.03-.08.04Z"/>
    <path class="cls-2" d="m13.5,6.44s.03.01.05.03c.09.16.19.32.28.48.06.11.13.22.2.33.04.06.08.13.11.19,0,.01.02.03.02.05-.03,0-.04-.03-.06-.02-.06-.04-.12-.07-.17-.11h0s0,0,0,0c0-.02-.02-.04-.03-.05-.1-.16-.18-.34-.25-.52-.05-.13-.1-.26-.13-.39Z"/>
    <path class="cls-16" d="m13.35,5.75s.05.03.06.05c.05.08.1.16.14.24.12.2.24.4.36.61.05.08.1.17.15.25.01.02.02.04.05.04.02.08.03.16.05.24-.04,0-.04-.03-.06-.05-.07-.11-.13-.22-.2-.34-.1-.17-.2-.34-.3-.51-.04-.07-.08-.15-.12-.22-.02-.03-.03-.08-.08-.08-.02-.08-.03-.16-.04-.24Z"/>
    <path class="cls-15" d="m6.35,7.34s-.03-.08-.05-.12c-.11-.19-.22-.37-.33-.56-.1-.17-.2-.34-.3-.52-.02-.04-.06-.08-.06-.13.03,0,.05-.02.08-.01,0,.06.04.1.06.15.1.18.21.36.31.53.11.19.22.37.33.56.01.02.03.05.04.07-.02.02-.05.03-.08.03Z"/>
    <path class="cls-2" d="m9.82,6.96s-.04-.03-.05-.06c-.12-.2-.24-.41-.36-.61-.05-.08-.09-.16-.14-.24-.01-.02-.01-.04-.01-.06.27.21.46.47.54.81.01.05.02.11.03.16Z"/>
    <path class="cls-10" d="m10.45,7.8c.07.13.15.25.22.38.09.15.17.3.26.45.07.11.13.22.2.34.04.07.08.14.12.21,0,.02-.02.03-.04.04-.05-.06-.09-.13-.13-.2-.07-.12-.14-.24-.21-.35-.09-.15-.18-.31-.27-.46-.07-.12-.15-.24-.21-.37.02-.01.03-.02.05-.03Z"/>
    <path class="cls-10" d="m5.37,6.09s.03.08.06.12c.14.24.28.48.43.72.09.15.17.3.26.45.02.03.03.07.07.07-.02.02-.04.04-.07.06-.1-.17-.2-.34-.3-.51-.09-.15-.18-.31-.27-.46-.06-.11-.13-.22-.2-.33-.02-.03-.04-.06-.04-.1.02-.01.03-.02.05-.03Z"/>
    <path class="cls-16" d="m11.58,9c-.06-.08-.1-.17-.16-.26-.12-.2-.24-.4-.35-.6-.08-.14-.16-.27-.24-.41,0-.01,0-.03-.01-.04.02-.02.05,0,.07-.02,0,0,0,0,0,0,.03.09.09.16.13.24.11.2.23.4.35.6.08.14.16.27.24.41.02.03.04.04.07.04-.03.02-.06.02-.1.03Z"/>
    <path class="cls-4" d="m9.61,7.48s.04.04.06.06c.04.06.07.12.1.18,0,.02.02.03.04.03,0,.02,0,.04,0,.06-.02.06-.03.13-.06.18-.03,0-.04-.02-.05-.04-.01-.02-.03-.04-.06-.05,0,0,0-.01,0-.02,0-.14,0-.28-.03-.41Z"/>
    <path class="cls-10" d="m9.65,7.91s.04.03.06.05c.01.02.02.04.05.04-.04.12-.09.24-.17.34,0,0,0-.01,0-.02.03-.13.04-.27.06-.41Z"/>
    <path class="cls-15" d="m6.04,11.8s-.02-.07-.01-.11c.01,0,.02,0,.02.01.03.1.07.19.1.29-.03,0-.03-.02-.04-.04-.02-.05-.03-.1-.07-.14Z"/>
    <path class="cls-8" d="m6.26,12.27c.04.06.07.13.11.2,0,0,0,0-.01.01-.04-.07-.08-.14-.09-.22Z"/>
    <path class="cls-8" d="m7.6,5.36s-.02,0-.03,0c-.05,0-.11,0-.16,0-.07,0-.14,0-.2,0,0-.01.02-.01.04-.01.11,0,.21,0,.32,0,.01,0,.03,0,.04.01Z"/>
    <path class="cls-5" d="m12.69,7.06s-.02,0-.03,0c-.05,0-.1,0-.15,0-.07,0-.14,0-.2,0,.01,0,.02-.01.04-.01.1,0,.2,0,.31,0,.01,0,.03,0,.04.01Z"/>
    <path class="cls-5" d="m5.81,5.99s-.02,0-.03,0c.03-.02.06-.01.09-.01.06,0,.12,0,.18,0,0,.02-.02.02-.03.02-.03,0-.07,0-.1,0-.04,0-.07,0-.11,0Z"/>
    <path class="cls-5" d="m14.48,3.41s-.05,0-.07,0c.06-.02.12,0,.19-.01.02,0,.05,0,.07-.01,0,.02-.01.03-.03.03-.02,0-.05,0-.07,0-.03,0-.05,0-.08,0Z"/>
    <path class="cls-8" d="m11.07,13.08s-.01-.04-.02-.06c0-.02,0-.03,0-.05.03.03.03.07.04.11,0,0-.02,0-.03,0Z"/>
    <path class="cls-10" d="m11.16,7.66s0,.03-.03.03c-.02,0-.04,0-.07,0-.05,0-.09,0-.14,0,0,0,0,0,0,0,.06,0,.11,0,.17,0,.02,0,.04,0,.06-.01Z"/>
    <path class="cls-8" d="m8.31,11.58s0,0-.01,0c-.02-.04-.01-.09,0-.13,0,.05.03.09.02.14Z"/>
    <path class="cls-8" d="m5.96,11.29s.02.03.02.05c0,0,0,.01-.01.01-.02,0,0-.03-.03-.04,0-.01,0-.02.01-.03Z"/>
    <path class="cls-8" d="m7.73,5.37s-.07.01-.11-.01c.04,0,.07-.01.11.01Z"/>
    <path class="cls-8" d="m12.82,7.08s-.07.01-.1-.01c.03,0,.07,0,.1.01Z"/>
    <path class="cls-8" d="m12.24,7.08s-.05,0-.07,0c.03-.02.05-.01.08-.01,0,0,0,0-.01.01Z"/>
    <path class="cls-14" d="m15.84,2.79s-.05.01-.08,0c.03-.02.05-.01.08,0Z"/>
    <path class="cls-8" d="m7.14,5.37s-.03,0-.04,0c.02-.02.05-.01.07-.01,0,0-.02,0-.03.01Z"/>
    <path class="cls-5" d="m7.07,5.37s-.04.01-.07.01c.02-.02.04-.01.07-.01Z"/>
    <path class="cls-15" d="m9.58,8.32s0,.01,0,.02c0,0,0,0,0,.01,0,0-.01,0-.02,0,0-.01-.01-.02,0-.03,0,0,.01,0,.02,0Z"/>
    <path class="cls-8" d="m10.93,7.68s0,0,0,0c-.01,0-.03,0-.04,0,0,0,0,0,0,0,.01-.01.03-.01.04,0Z"/>
    <path class="cls-16" d="m10.91,12.16s.02.01.03.03c0,0-.02,0-.03-.01,0,0,0-.01,0-.02Z"/>
    <path class="cls-5" d="m8.37,11.45s-.03,0-.04,0c.01-.03.03-.01.04,0Z"/>
    <path class="cls-10" d="m9.57,8.35s.01,0,.02,0c0,.01,0,.02-.01.03,0,0,0-.02,0-.02Z"/>
    <path class="cls-15" d="m6.03,11.69s0-.02,0-.03c0,.01,0,.02,0,.03Z"/>
    <path class="cls-9" d="m5.81,10.46s.02,0,.03.02c-.01,0-.02,0-.03-.02Z"/>
    <path class="cls-15" d="m8.76,5.68s0,0-.01-.01c0,0,.01,0,.01.01Z"/>
    <path class="cls-15" d="m6.16,12s0,0-.01,0c0,0,0,0,0-.01,0,0,.01,0,0,.02Z"/>
    <path class="cls-16" d="m10.89,12.16s.01,0,.02,0c0,0,0,0,0,.01,0,0,0,0-.01,0Z"/>
    <path class="cls-9" d="m10.91,12.16s0,.01,0,.02c0,0-.01,0-.01-.01,0,0,0,0,.02,0Z"/>
    <path class="cls-17" d="m10.23,19.21s-.08,0-.12,0c-.1,0-.21-.02-.31-.03-.1,0-.2-.02-.3-.04-.21-.03-.41-.08-.61-.14-.24-.07-.46-.17-.68-.29,0,0,0,0-.01-.01.02-.02.01-.06.01-.08,0-.9,0-1.79,0-2.69,0-.03,0-.06,0-.09.03-.17.08-.34.16-.49.1-.18.22-.34.38-.48.11-.1.24-.18.37-.25.13-.07.25-.14.38-.21.18-.1.36-.2.55-.31.12-.07.25-.13.37-.2.23-.13.46-.25.69-.38.02-.01.04-.02.05-.04.02.08.06.16.1.23.07.14.14.29.22.43.07.13.15.25.23.37.06.1.13.18.19.28.11.16.23.3.35.44.08.09.16.19.24.28.07.08.15.15.22.23.03.03.04.03.05-.01.02-.05.05-.09.08-.14.09-.18.17-.36.24-.54.09-.23.15-.47.21-.71.02-.06.02-.13.03-.19.02-.1.03-.2.05-.31.02-.17.03-.34.03-.51,0,0,0,0,.01,0,0,.03,0,.05,0,.08,0,.12,0,.23,0,.35-.01.15-.03.3-.05.45-.02.13-.05.26-.08.39-.02.1-.05.2-.08.3-.05.16-.1.31-.16.46-.04.1-.08.2-.12.29-.04.1-.09.19-.14.28-.02,0-.03-.02-.04-.03-.32-.33-.62-.68-.88-1.06-.14-.2-.26-.41-.38-.63-.02-.04-.04-.07-.05-.11-.02-.04-.03-.09-.07-.12,0,0,0-.01,0-.02,0,0,0,0,0,0,0,0,0,.01.01.01,0,.05.02.08.04.12.02.04.03.09.06.12.07.16.15.32.24.47.21.38.46.73.75,1.05.1.12.2.24.33.34,0,0,0-.01.01-.02.15-.22.27-.46.36-.7.04-.1.07-.21.09-.32.02-.09.04-.18.07-.27.03-.09.03-.18.05-.27.02-.06.02-.13.03-.19.02-.19.04-.38.04-.57.01-.12,0-.23,0-.35,0-.09,0-.17,0-.26.01,0,.03,0,.04.02.44.22.88.46,1.29.74.2.14.39.28.56.47.11.13.21.27.3.42.01.02.02.04.04.06,0,.04.02.08.04.11.09.16.15.33.2.51.02.08.05.16.06.25.03.13.04.27.04.4,0,.55,0,1.1-.01,1.65,0,.03-.01.06-.03.09-.05.09-.11.17-.19.24-.19.18-.42.31-.66.41-.22.09-.45.15-.67.2-.15.04-.3.07-.44.1-.15.03-.3.07-.45.09-.1.02-.2.04-.31.06-.21.03-.41.07-.62.1-.27.04-.55.08-.82.1-.25.03-.5.05-.75.06-.05,0-.1,0-.15.01-.05,0-.11,0-.16,0-.17,0-.34,0-.5,0Z"/>
    <path class="cls-1" d="m13.43,13.14c0,.09,0,.17,0,.26,0,0-.01,0-.02,0,0-.03,0-.05,0-.08.01-.05-.02-.09-.02-.14,0,.05-.02.09,0,.14,0,.17,0,.34-.03.51-.01.1-.02.2-.05.31-.01.06-.02.13-.03.19-.06.24-.12.48-.21.71-.07.18-.15.37-.24.54-.02.05-.06.09-.08.14-.01.04-.03.04-.05.01-.08-.07-.15-.15-.22-.23-.08-.09-.16-.18-.24-.28-.12-.14-.24-.29-.35-.44-.06-.09-.13-.18-.19-.28-.08-.12-.16-.25-.23-.37-.08-.14-.14-.29-.22-.43-.04-.07-.08-.15-.1-.23,0-.08-.03-.15-.05-.22,0-.03-.02-.05-.03-.08,0-.03,0-.06-.02-.1,0,0,.02,0,.03,0,.1.26.21.52.34.77.21.42.46.82.75,1.19.11.14.22.28.34.41.02.02.04.03.06.05.04.04.07.07.1.11.02.03.04.03.07,0,.08-.12.15-.24.2-.37.15-.35.24-.71.3-1.09.03-.17.05-.35.06-.52.01-.15.02-.29.02-.44,0-.02,0-.04,0-.07.02-.03.05-.04.09-.04,0,.02,0,.03,0,.05Z"/>
    <path class="cls-14" d="m14.68,10.01c.04-.15.05-.3.06-.46.04,0,.05.03.07.05.02.02.03.06.07.05,0,0,0,.02,0,.03,0,.01-.01.02-.02.03-.05.13-.1.25-.18.36,0,0,0-.02,0-.03,0-.01.02-.03.01-.04Z"/>
    <path class="cls-8" d="m14.97,9.9s-.01,0-.02,0c-.02-.03-.03-.07-.05-.11,0,0,0-.01.01-.02.02.04.04.08.06.12Z"/>
    <path class="cls-11" d="m14.91,9.78s0,.01-.01.02c-.02-.02-.02-.06-.05-.07,0-.01.01-.02.02-.03.01.03.03.06.04.09Z"/>
    <path class="cls-5" d="m15.83,14.8s-.03.01-.05,0c.02-.01.03-.01.05,0Z"/>
    <path class="cls-5" d="m15.73,14.82s-.03.01-.05,0c.02-.01.03-.01.05,0Z"/>
    <path class="cls-8" d="m15.93,14.79s-.03.01-.05,0c.02-.01.03-.01.05,0Z"/>
    <path class="cls-5" d="m16.54,14.69s-.02.01-.04,0c.01-.01.02-.01.04,0Z"/>
    <path class="cls-5" d="m16.38,14.72s-.02.01-.04,0c.01-.01.02-.01.04,0Z"/>
    <path class="cls-5" d="m16.46,14.71s-.02.01-.04,0c.01-.01.02-.01.04,0Z"/>
    <path class="cls-5" d="m16.2,14.75s-.02.01-.04,0c.01-.01.02-.01.04,0Z"/>
    <path class="cls-11" d="m14.15,7.18c-.02-.08-.03-.16-.05-.24,0-.08-.01-.15-.02-.23,0,0,0-.02,0-.03,0-.12,0-.24.03-.35.02-.05.05-.1.07-.15.03-.02.05-.04.07-.07.04-.02.08-.05.14-.06.06-.02.11,0,.17,0,.02,0,.04,0,.06,0,0,0,0,0,0,0,0,0,0,0,0,0,0-.05-.02-.1-.03-.14-.05-.19-.06-.38-.05-.56,0-.09.04-.17.07-.25,0-.02.02-.04.02-.06.03-.03.05-.06.07-.1.03-.02.06-.05.08-.08.03-.02.07-.04.1-.07.03,0,.06-.02.08-.04.06-.02.12-.04.18-.07.04,0,.08-.01.12-.03,0,0,.02,0,.03,0,.03,0,.06,0,.08-.01.01,0,.03,0,.04,0,.01,0,.03,0,.04,0,.04,0,.08.01.12-.01.24-.13.5-.23.77-.28.05,0,.09-.02.14-.03.04,0,.07,0,.11-.01,0,0,0,0,.01,0,.1,0,.19,0,.29,0,.01,0,.03,0,.04,0,.03.01.05.01.08.01.05.01.1.02.15.03.48.15.79.47.95.95.05.14.07.29.08.44,0,.01,0,.03,0,.04.02.16,0,.33-.01.49,0,.06-.01.12-.02.18-.03.13-.06.26-.09.39-.1.42-.27.8-.47,1.18-.08.15-.16.29-.27.42-.12.15-.26.27-.43.36-.01,0-.03.01-.04.03-.01,0-.02,0-.03,0-.1.04-.2.07-.3.08-.13.02-.25.01-.37,0-.14-.03-.28-.06-.41-.12-.3-.12-.58-.27-.83-.46-.02-.02-.04-.04-.07-.04-.02-.05-.04-.09-.07-.14-.08-.14-.17-.27-.3-.38-.06-.05-.13-.1-.17-.17-.04-.12-.08-.24-.13-.36,0-.03,0-.05-.01-.08Z"/>
    <path class="cls-6" d="m14.84,8.31s.05.02.07.04c.25.2.53.34.83.46.13.05.27.09.41.12.12.02.25.03.37,0,.11-.01.21-.04.3-.08,0,0,.02,0,.03,0,0,.18-.01.35-.03.53-.03.3-.07.61-.14.91-.05.23-.12.45-.21.66-.07.15-.14.3-.24.43-.07-.07-.14-.14-.21-.21-.06-.06-.11-.12-.17-.19-.08-.1-.16-.2-.24-.3-.09-.12-.18-.25-.27-.38-.09-.15-.18-.29-.27-.44-.05-.08-.08-.17-.13-.25-.02-.03-.01-.06-.04-.08,0-.03.01-.05.01-.08.02-.08.03-.16.03-.24,0-.08.02-.15,0-.23,0-.07,0-.14-.02-.2,0-.06,0-.12-.03-.18-.03-.09-.04-.19-.07-.28Z"/>
    <path class="cls-15" d="m18.22,4.94c-.03-.08-.05-.17-.08-.25-.06-.13-.14-.25-.24-.35.02-.01.01-.03,0-.04-.02-.03-.03-.06-.05-.09-.06-.11-.13-.22-.19-.33-.1-.17-.2-.35-.31-.52-.05-.09-.1-.17-.15-.26-.01-.02-.04-.04,0-.07.07.02.14.05.2.09,0,.03.01.06.03.08.1.16.19.33.29.49.12.2.24.41.36.61.11.19.22.38.33.57.01.02.02.05.06.05,0,.09-.01.18-.04.27-.02,0-.03-.02-.04-.04-.04-.06-.08-.12-.11-.19-.01-.02-.03-.04-.05-.03Z"/>
    <path class="cls-7" d="m14.91,9.78s-.03-.06-.04-.09c0,0,0-.02,0-.03,0,0,0,0,0,0,.05.07.08.15.12.22.06.09.11.18.16.27.13.21.28.41.42.6.09.12.19.24.3.36.1.11.2.22.31.33.01.01.02.02.03.03.02.01.03,0,.04,0,.02-.04.05-.07.07-.11.03-.08.08-.15.12-.23.06-.13.12-.26.17-.4.1-.26.17-.53.22-.81.05-.28.08-.56.07-.85,0-.03,0-.06,0-.09,0,0,0,0,0,0,.01.13.02.27.02.4,0,.2-.02.39-.06.58-.04.22-.1.45-.17.67-.11.35-.24.68-.4,1,0,0-.01.02-.02.03-.02,0-.03-.02-.04-.03-.19-.19-.37-.39-.54-.6-.14-.17-.27-.35-.4-.54-.09-.14-.19-.29-.27-.44-.02-.05-.05-.09-.07-.13-.02-.04-.04-.08-.06-.12Z"/>
    <path class="cls-5" d="m17.2,3.98s-.08,0-.12-.02c-.03-.02-.05-.01-.08-.01,0,0,0,0,0,0-.01-.04-.03-.08-.06-.11-.05-.09-.1-.17-.15-.26-.1-.18-.21-.35-.31-.53-.05-.08-.1-.15-.13-.24.1,0,.2.02.3.05-.04.01-.04.01-.03.04.11.19.22.38.33.57.09.15.18.31.27.46.02.03.02.04-.03.05Z"/>
    <path class="cls-14" d="m17.69,4.17c-.1-.05-.2-.09-.3-.14.02-.02.01-.04,0-.05-.03-.06-.07-.12-.1-.17-.1-.18-.21-.35-.31-.53-.07-.11-.13-.22-.2-.34-.02-.03-.02-.03.03-.04.04,0,.07.02.11.03.05.02.1.03.15.05-.05.01-.05.01-.03.05.05.09.1.18.16.27.09.15.17.3.26.45.08.13.16.27.24.4,0,.01,0,.02,0,.03Z"/>
    <path class="cls-16" d="m18.47,4.93s-.05-.03-.06-.05c-.11-.19-.22-.38-.33-.57-.12-.2-.24-.41-.36-.61-.1-.16-.19-.33-.29-.49-.01-.02-.03-.05-.03-.08.08.03.15.07.22.12,0,.02,0,.04.01.06.12.21.25.42.37.63.1.17.2.34.3.52.03.06.06.11.1.17.01.02.02.06.06.05,0,.08,0,.16,0,.24Z"/>
    <path class="cls-10" d="m16.35,2.81c.03.09.09.16.13.24.1.18.21.35.31.53.05.09.1.17.15.26.02.04.04.07.06.11-.04,0-.07,0-.11,0,0-.01-.02-.01-.03,0,0,0-.02,0-.03,0,0-.03-.02-.06-.04-.08-.07-.11-.13-.22-.2-.33-.1-.17-.21-.35-.31-.52-.04-.07-.09-.14-.12-.22,0,0,.02,0,.03,0,.05,0,.1,0,.15.02Z"/>
    <path class="cls-4" d="m17.69,4.17s.01-.02,0-.03c-.08-.13-.16-.27-.24-.4-.09-.15-.17-.3-.26-.45-.05-.09-.1-.18-.16-.27-.02-.04-.02-.04.03-.05.05.01.09.03.14.05-.03.03,0,.05,0,.07.05.09.1.17.15.26.1.17.2.35.31.52.06.11.13.22.19.33.02.03.03.06.05.09,0,.02.01.03,0,.04-.07-.06-.14-.12-.22-.17Z"/>
    <path class="cls-9" d="m18.47,4.68s-.05-.03-.06-.05c-.03-.06-.07-.11-.1-.17-.1-.17-.2-.34-.3-.52-.12-.21-.25-.42-.37-.63-.01-.02-.01-.04-.01-.06,0,0,0,0,.01,0,0,0,0,0,0,0,.03.03.07.05.1.07.03.02.06.04.09.07-.02.02,0,.05,0,.07.04.07.08.13.12.2.07.12.14.24.21.35.07.12.14.23.21.35.01.02.03.05.06.05.03.09.03.18.03.27Z"/>
    <path class="cls-10" d="m16.81,2.9s-.04.01-.03.04c.07.11.13.22.2.34.1.18.21.35.31.53.03.06.07.11.1.17,0,.02.02.04,0,.05-.06-.02-.13-.04-.19-.05.05-.01.05-.01.03-.05-.09-.15-.18-.31-.27-.46-.11-.19-.22-.38-.33-.57-.02-.03-.02-.03.03-.04.06,0,.11.02.16.04Z"/>
    <path class="cls-2" d="m18.44,4.41s-.05-.02-.06-.05c-.07-.12-.14-.23-.21-.35-.07-.12-.14-.24-.21-.35-.04-.07-.08-.13-.12-.2-.01-.02-.03-.04,0-.07.04.02.07.06.1.09.05.04.1.08.15.13.04.05.09.1.12.16.08.13.15.27.18.42.01.05.02.11.04.17,0,.01,0,.03,0,.05Z"/>
    <path class="cls-4" d="m14.88,9.65s0,0,0,0c-.04,0-.05-.03-.07-.05-.02-.02-.02-.06-.07-.05,0-.13-.01-.25-.04-.38.02,0,.04,0,.05.03.04.07.08.13.11.2.01.03.03.05.06.04,0,.03-.02.05-.01.08-.02.04-.03.08-.04.13Z"/>
    <path class="cls-4" d="m18.22,4.94s.04.01.05.03c.04.06.08.12.11.19.01.02.02.04.04.04,0,.08-.03.15-.07.22-.04,0-.05-.03-.06-.06-.01-.02-.01-.05-.05-.05-.01-.12-.01-.24-.03-.36Z"/>
    <path class="cls-10" d="m18.26,5.31s.03.03.05.05c.01.03.03.06.06.06,0,0,0,.02,0,.03-.04.13-.1.26-.19.37,0-.01,0-.03,0-.04.04-.07.04-.14.05-.22.01-.08.02-.16.03-.24Z"/>
    <path class="cls-8" d="m16.92,8.96s0,0,0,0t-.01-.1s.03.07.02.1Z"/>
    <path class="cls-16" d="m17.65,3.26s0,0,0,0c0,0,0,0,0,0Z"/>
    <path class="cls-3" d="m11.11,13.26c.02.07.05.14.05.22-.01.02-.03.03-.05.04-.23.13-.46.25-.69.38-.12.07-.25.13-.37.2-.18.1-.36.2-.55.31-.13.07-.25.14-.38.21-.13.07-.25.15-.37.25-.16.13-.28.29-.38.48-.08.15-.13.32-.16.49,0,.03,0,.06,0,.09,0,.9,0,1.79,0,2.69,0,.03.01.06-.01.08-.1-.05-.19-.11-.27-.19-.02-.25,0-.5-.02-.75-.02-.32,0-.63-.01-.94-.02-.32,0-.64-.01-.96,0-.15.04-.3.1-.44.06-.15.15-.29.25-.41.09-.11.18-.21.29-.3.12-.1.24-.2.37-.29.13-.08.26-.16.4-.24.21-.11.42-.22.63-.33.31-.17.64-.32.95-.48.05-.03.11-.06.16-.09.02-.01.04-.03.07-.02Z"/>
    <path class="cls-8" d="m5.08,17.51c.21,0,.42,0,.64,0-.01.01-.03.01-.05.01-.18,0-.36,0-.53,0-.02,0-.04,0-.05-.01Z"/>
    <path class="cls-8" d="m4.82,17.49c.06,0,.12,0,.18.01-.06,0-.12.01-.18-.01Z"/>
    <path class="cls-5" d="m5.81,17.5c.06-.02.12,0,.18-.01-.06.02-.12.01-.18.01Z"/>
    <path class="cls-8" d="m6.07,17.49s.09-.01.14-.01c-.04.02-.09.01-.14.01Z"/>
    <path class="cls-8" d="m6.26,17.48s.07-.01.11-.01c-.03.02-.07.01-.11.01Z"/>
    <path class="cls-8" d="m6.42,17.46s.06-.01.1-.01c-.03.02-.06.01-.1.01Z"/>
    <path class="cls-8" d="m6.57,17.45s.05-.01.08-.01c-.03.02-.05.01-.08.01Z"/>
    <path class="cls-8" d="m6.95,17.41s.05-.01.07-.01c-.02.02-.05.01-.07.01Z"/>
    <path class="cls-8" d="m7.35,17.35s.04-.01.07-.01c-.02.02-.04.01-.07.01Z"/>
    <path class="cls-5" d="m7.16,17.38s.04-.01.06,0c-.02.01-.04.01-.06,0Z"/>
    <path class="cls-8" d="m7.45,17.34s.04-.01.06-.01c-.02.02-.04.01-.06.01Z"/>
    <path class="cls-1" d="m5.97,11.35s0,0,.01-.01c0,0,0,.02,0,.03-.01,0-.01,0-.01-.01Z"/>
    <path class="cls-14" d="m16.17,2.79c.03.08.08.15.12.22.1.18.2.35.31.52.06.11.13.22.2.33.02.03.03.05.04.08-.03,0-.05,0-.08,0-.02,0-.05,0-.07,0-.04,0-.09.01-.13.02-.04-.09-.1-.18-.15-.26-.09-.15-.18-.3-.26-.45-.07-.11-.13-.22-.2-.34-.03-.04-.06-.08-.07-.14.1,0,.2,0,.3,0Z"/>
    <path class="cls-8" d="m6.25,12.25s0,.02.01.03c0,0-.01-.02-.01-.03Z"/>
    <path class="cls-9" d="m10.88,7.69s.03,0,.04,0c.05,0,.09,0,.14,0,.01.07.06.12.09.17.1.18.21.36.32.54.1.17.2.34.3.51.01.02.02.04.04.04-.04.02-.09.02-.14.03-.03,0-.05-.01-.07-.04-.08-.14-.16-.27-.24-.41-.12-.2-.24-.4-.35-.6-.04-.08-.1-.15-.13-.24Z"/>
    <path class="cls-15" d="m13.08,8.61s.03-.01.05-.01c.09,0,.17-.01.26.01-.1,0-.21,0-.31,0Z"/>
    <path class="cls-14" d="m11.87,8.94s.05,0,.07-.01c.04,0,.07,0,.11,0-.06.02-.12,0-.17.01Z"/>
    <path class="cls-16" d="m12.95,8.62s.07-.01.11-.01c-.03.02-.07.01-.11.01Z"/>
    <path class="cls-15" d="m13.42,8.61s.06,0,.08.01c-.03,0-.06,0-.08-.01Z"/>
    <path class="cls-9" d="m14.68,10.01s0,.03-.01.04c-.01-.01-.01-.03,0-.04,0,0,.01,0,.02,0Z"/>
    <path class="cls-16" d="m12.89,8.63s.04-.01.06-.01c-.02.01-.04.01-.06.01Z"/>
    <path class="cls-9" d="m5.81,5.99s.07,0,.11,0c0,.03.02.05.03.07.13.23.26.45.4.68.1.16.19.32.29.49,0,0,.01.02.01.03-.03,0-.05.02-.08.02-.04,0-.05-.04-.07-.07-.15-.26-.31-.52-.46-.78-.07-.13-.15-.25-.22-.38-.01-.02-.01-.04-.01-.06Z"/>
    <path class="cls-15" d="m7.99,6.9c.09-.02.19-.02.28,0-.09,0-.19,0-.28,0Z"/>
    <path class="cls-14" d="m6.79,7.24s.04,0,.05-.01c.04,0,.07,0,.11,0-.05.02-.11,0-.16.01Z"/>
    <path class="cls-16" d="m7.85,6.92s.07-.01.11-.01c-.03.02-.07.01-.11.01Z"/>
    <path class="cls-16" d="m8.31,6.9s.06,0,.08.01c-.03,0-.06,0-.08-.01Z"/>
    <path class="cls-2" d="m7.56,6.98s.02-.01.03,0c0,0-.02.01-.03,0Z"/>
    <path class="cls-16" d="m16.88,4.33c-.1,0-.19,0-.29,0,.03-.02.06-.01.09-.01.06,0,.13-.01.19.01Z"/>
    <path class="cls-4" d="m15.56,4.66s-.08.01-.12.01c0,0,0,0,0,0,0,0,0,0,0,0,.04,0,.08,0,.12,0Z"/>
    <path class="cls-16" d="m16.58,4.33s-.07.01-.11.01c.03-.02.07-.01.11-.01Z"/>
    <path class="cls-9" d="m17,4.34s-.06,0-.08-.01c.03,0,.06,0,.08.01Z"/>
    <path class="cls-16" d="m17,3.95s.06,0,.08.01c-.03,0-.06,0-.08-.01Z"/>
    <path class="cls-9" d="m16.69,3.96s.05-.01.07,0c-.02.02-.05.01-.07,0Z"/>
    <path class="cls-14" d="m16.87,3.95s.02,0,.03,0c0,0-.02,0-.03,0Z"/>
    <path class="cls-14" d="m7.41,5.36c.05,0,.11,0,.16,0,0,.03.02.06.03.09.1.17.2.34.3.51.09.14.17.29.26.43.01.02.03.05.04.07.01.03.03.05.07.05.02,0,.04,0,.06,0-.08,0-.16,0-.24,0-.01,0-.02,0-.03-.02-.08-.15-.17-.3-.26-.45-.09-.15-.17-.3-.26-.45-.03-.06-.07-.12-.1-.17-.01-.02-.03-.05-.03-.07Z"/>
    <path class="cls-16" d="m8.41,6.52s.05,0,.07.01c-.02,0-.05,0-.07-.01Z"/>
    <path class="cls-4" d="m8.98,6.69s.01,0,.02,0c0,0-.01,0-.02,0Z"/>
    <path class="cls-14" d="m12.51,7.07s.1,0,.15,0c.05.09.1.17.15.26.09.15.18.3.26.45.06.11.13.22.19.33.04.07.08.12.17.11,0,0,0,0,.01,0-.08,0-.17,0-.25,0-.02,0-.03-.03-.04-.05-.07-.13-.15-.25-.22-.38-.09-.15-.18-.31-.27-.46-.04-.07-.08-.13-.12-.2-.02-.03-.03-.05-.04-.09Z"/>
    <path class="cls-16" d="m14.96,8.97c.01.08,0,.15,0,.23-.02,0-.03-.02-.04-.04-.16-.27-.31-.54-.47-.8-.14-.24-.29-.48-.43-.72-.03-.06-.06-.11-.1-.17-.02-.02-.02-.05,0-.07.06.04.12.07.17.11,0,.03,0,.05.02.07.1.16.19.33.29.49.12.2.24.4.36.61.05.08.1.17.15.25.01.02.02.04.05.04Z"/>
    <path class="cls-2" d="m14.84,8.31c.03.09.04.19.07.28.02.06.03.12.03.18-.03,0-.04-.03-.06-.05-.05-.09-.1-.18-.16-.27-.13-.22-.26-.44-.39-.67-.02-.04-.05-.08-.07-.12-.02-.04-.02-.04.03-.05.05.07.11.12.17.17.13.1.22.23.3.38.03.04.05.09.07.14Z"/>
    <path class="cls-9" d="m15.28,4.68s-.02,0-.03,0c-.03,0-.05-.01-.06-.04-.05-.09-.11-.18-.16-.27-.13-.22-.26-.45-.4-.67-.05-.08-.1-.17-.14-.25,0-.01,0-.03,0-.04.03,0,.05,0,.08,0,0,.05.04.08.06.12.07.12.14.24.21.35.09.15.18.31.27.46.05.09.1.18.16.27.01.02.02.04.03.06,0,0,0,0,0,0Z"/>
    <path class="cls-4" d="m15.28,4.68s0,0,0,0c.03,0,.05,0,.08,0-.02.02-.05.01-.08.01Z"/>
    <path class="cls-9" d="m15.45,4.66s0,0,0,0c-.01,0-.03,0-.04,0,.01-.01.03-.01.04,0Z"/>
    <path class="cls-1" d="m11.48,14.21c.12.22.24.43.38.63.26.38.55.73.88,1.06.01.01.02.03.04.03.05-.09.09-.19.14-.28.04-.1.08-.19.12-.29.06-.15.11-.31.16-.46.03-.1.06-.2.08-.3.03-.13.06-.26.08-.39.03-.15.04-.3.05-.45,0,0,.01,0,.02,0,0,.19-.02.38-.04.57,0,.06-.01.13-.03.19-.03.09-.02.18-.05.27-.03.09-.05.18-.07.27-.03.11-.05.21-.09.32-.09.25-.21.49-.36.7,0,0,0,.01-.01.02-.13-.1-.23-.23-.33-.34-.29-.32-.54-.68-.75-1.05-.09-.15-.17-.31-.24-.47,0,0,.01,0,.02-.01Z"/>
    <path class="cls-8" d="m13.44,13.75s-.01,0-.02,0c0-.12,0-.23,0-.35,0,0,.01,0,.02,0,0,.12,0,.23,0,.35Z"/>
    <path class="cls-8" d="m11.48,14.21s-.01.01-.02.01c-.03-.04-.04-.08-.06-.12,0,0,.02,0,.02,0,.02.04.04.07.05.11Z"/>
    <path class="cls-11" d="m13.4,13.32s0-.09,0-.14c0,.05.03.09.02.14,0,0,0,0-.01,0Z"/>
    <path class="cls-11" d="m11.42,14.1s-.02,0-.02,0c-.02-.04-.04-.08-.04-.12h0s.04.08.07.12Z"/>
    <path class="cls-11" d="m11.36,13.97s-.01,0-.01-.01c0,0,0,0,0,0,0,0,0,.01,0,.02,0,0,0,0,0,0Z"/>
    <path class="cls-8" d="m14.62,6.08s0,0,0,0c0,0,0,0,0,0,0,0,0,0,0,0Z"/>
  </g>
</svg>