<?xml version="1.0" encoding="UTF-8"?>
<svg id="Capa_1" data-name="Capa 1" xmlns="http://www.w3.org/2000/svg" viewBox="0 0 7.95 5">
  <defs>
    <style>
      .cls-1 {
        fill: #fff;
      }

      .cls-2 {
        fill: #3b3939;
      }

      .cls-3 {
        fill: #f9b911;
      }

      .cls-4 {
        fill: none;
      }

      .cls-5 {
        fill: #00a03a;
      }
    </style>
  </defs>
  <g>
    <path class="cls-1" d="m4.02,3.73c.06.03.12.04.18.07.14.09.21.27.16.44,0,.03,0,.05.03.06.09.03.17,0,.23-.06.09-.1.09-.26,0-.36-.13-.14-.26-.28-.39-.42-.03-.03-.05-.06-.07-.09-.03-.04-.02-.09.03-.13.04-.03.06-.03.11.02.11.11.21.23.32.34.09.1.18.2.27.29.13.14.33.1.39-.08.03-.1.02-.2-.05-.28-.05-.06-.1-.11-.16-.17-.12-.13-.24-.26-.36-.39-.04-.04-.03-.09.01-.13.04-.04.08-.04.12,0,.13.14.25.28.38.41.08.09.16.17.24.26.1.11.27.11.37,0,.06-.07.06-.12,0-.19,0,0-.01-.01-.02-.02-.34-.35-.68-.71-1.02-1.06-.22-.23-.44-.46-.65-.69-.02-.02-.04-.03-.07-.01-.3.15-.6.3-.9.45-.09.04-.18.09-.28.11-.15.04-.28,0-.38-.13-.13-.18-.07-.45.12-.58.31-.21.61-.41.92-.62.03-.02.05-.04.08-.06-.08-.06-.17-.06-.27-.05-.11.01-.2.06-.3.11-.11.06-.22.12-.34.16-.15.06-.3.08-.45,0-.07-.03-.13-.08-.19-.11,0,0,0,.01-.01.02-.06.16-.12.32-.18.48-.14.35-.28.7-.42,1.04-.01.02,0,.04.01.06.1.1.19.2.29.31.07.07.13.14.2.21.12-.11.25-.16.4-.1.15.06.22.18.25.33.02-.02.03-.03.05-.04.07-.06.14-.12.21-.19.07-.06.14-.09.23-.1.17,0,.34.13.37.32,0,.02,0,.04.01.06.14-.08.27-.1.4,0,.16.12.2.28.15.46Zm1.71-2.75c-.03-.07-.03-.07-.1-.04-.03.02-.06.04-.09.05-.03.01-.07.01-.11.01-.1,0-.18-.03-.26-.08-.13-.08-.26-.16-.39-.23-.21-.12-.43-.15-.66-.05-.16.07-.31.15-.45.23-.33.19-.65.41-.95.64-.05.04-.1.08-.13.14-.03.09-.04.18.02.26.06.08.14.09.23.07.08-.02.15-.05.22-.09.32-.16.64-.32.96-.48.06-.03.11-.03.16.02.05.05.11.1.16.15.29.3.58.6.86.91.22.23.44.46.65.69.02.02.04.03.06,0,.1-.09.2-.17.3-.26.13-.12.24-.25.33-.41.02-.03.02-.05,0-.07-.02-.03-.03-.05-.05-.08-.25-.45-.49-.9-.74-1.35m-1.86,2.58c0-.11-.05-.2-.14-.24-.09-.04-.17-.02-.25.05-.16.14-.33.28-.49.42-.06.05-.09.11-.1.18-.02.1.03.21.12.26.09.05.19.04.27-.04.16-.14.33-.29.49-.43.06-.06.1-.12.1-.2Zm-.58-.33c0-.09-.04-.17-.14-.21-.09-.04-.18-.02-.26.04-.13.11-.26.22-.39.34-.08.07-.11.16-.09.26.03.18.24.25.37.14.13-.11.27-.23.4-.35.06-.05.09-.12.09-.22Zm.91.86c0-.11-.06-.2-.15-.23-.1-.04-.18,0-.25.06-.06.06-.13.12-.19.19-.03.03-.06.06-.07.1-.05.11-.01.25.08.31.1.07.21.05.31-.04.06-.07.13-.13.2-.19.06-.05.08-.12.08-.2Zm-1.78-.89c0-.17-.14-.29-.29-.24-.05.02-.1.06-.15.09-.1.07-.13.16-.12.28.02.17.21.25.35.16.04-.03.08-.06.12-.09.06-.05.09-.12.09-.2Z"/>
    <path class="cls-2" d="m1.42.37c.06.02.12.05.18.07.09.03.18.07.27.1.08.03.11.1.08.17-.05.14-.11.27-.16.41-.08.21-.17.43-.25.64-.08.21-.17.42-.25.63-.03.09-.1.12-.19.08-.13-.05-.25-.1-.38-.14-.06-.02-.11-.06-.13-.12,0-.01,0-.02,0-.04,0,0,0-.01.01-.02.06-.15.12-.31.18-.46.16-.4.31-.79.47-1.19.02-.06.06-.12.12-.14.01,0,.02,0,.04,0Z"/>
    <path class="cls-2" d="m7.33,2.16c-.03.08-.1.11-.16.14-.1.05-.2.11-.29.16-.08.04-.15.03-.2-.05-.14-.25-.27-.49-.41-.74-.15-.27-.3-.54-.44-.81-.02-.03-.03-.06-.03-.09,0-.06.02-.1.07-.13.13-.07.25-.14.38-.21.09-.05.16-.03.21.06.13.24.26.48.39.71.15.28.31.57.46.85,0,.02.02.04.03.05v.04Z"/>
    <path class="cls-3" d="m4.02,3.73c.04-.18,0-.35-.15-.46-.13-.09-.27-.08-.4,0,0-.02,0-.04-.01-.06-.03-.19-.19-.33-.37-.32-.09,0-.16.04-.23.1-.07.06-.14.12-.21.19-.01.01-.03.02-.05.04-.03-.15-.1-.28-.25-.33-.15-.06-.28-.01-.4.1-.07-.07-.14-.14-.2-.21-.1-.1-.19-.2-.29-.31-.02-.02-.02-.03-.01-.06.14-.35.28-.7.42-1.04.06-.16.12-.32.18-.48,0-.01,0-.02.01-.02.06.04.13.08.19.11.15.07.31.06.45,0,.12-.05.23-.11.34-.16.1-.05.19-.1.3-.11.09-.01.18-.01.27.05-.03.02-.05.04-.08.06-.31.21-.61.41-.92.62-.19.13-.25.4-.12.58.09.13.23.16.38.13.1-.02.19-.07.28-.11.3-.15.6-.3.9-.45.03-.02.05,0,.07.01.22.23.43.46.65.69.34.35.68.71,1.02,1.06,0,0,.01.01.02.02.06.06.06.12,0,.19-.1.11-.26.11-.37,0-.08-.09-.16-.17-.24-.26-.13-.14-.25-.28-.38-.41-.04-.04-.08-.05-.12,0-.04.04-.05.09-.01.13.12.13.24.26.36.39.05.06.11.11.16.17.07.08.09.18.05.28-.06.18-.26.21-.39.08-.09-.1-.18-.19-.27-.29-.11-.11-.21-.23-.32-.34-.04-.04-.07-.05-.11-.02-.04.03-.05.09-.03.13.02.03.05.06.07.09.13.14.26.28.39.42.09.1.1.26,0,.36-.06.07-.15.09-.23.06-.03-.01-.04-.03-.03-.06.05-.17-.02-.35-.16-.44-.05-.03-.11-.05-.18-.07Z"/>
    <path class="cls-5" d="m5.75,1.03c.25.45.49.9.74,1.35.01.03.03.06.05.08.02.03.02.05,0,.07-.09.15-.2.29-.33.41-.1.09-.2.17-.3.26-.03.02-.04.02-.06,0-.22-.23-.43-.46-.65-.69-.29-.3-.58-.61-.86-.91-.05-.05-.1-.1-.16-.15-.05-.05-.1-.05-.16-.02-.32.16-.64.32-.96.48-.07.03-.15.07-.22.09-.09.02-.17.01-.23-.07-.06-.08-.05-.17-.02-.26.02-.06.08-.1.13-.14.3-.23.62-.45.95-.64.15-.09.3-.17.45-.23.23-.1.45-.06.66.05.13.07.26.16.39.23.08.05.17.09.26.08.04,0,.08,0,.11-.01.03-.01.06-.04.09-.05.07-.04.07-.04.1.04l.03.05Z"/>
    <path class="cls-5" d="m3.9,3.61c0,.08-.03.15-.1.2-.16.14-.33.29-.49.43-.08.07-.18.09-.27.04-.08-.05-.13-.16-.12-.26.01-.07.05-.13.1-.18.16-.14.33-.28.49-.42.07-.06.16-.09.25-.05.09.04.14.12.14.24Z"/>
    <path class="cls-5" d="m3.32,3.27c0,.09-.03.16-.09.22-.13.12-.27.23-.4.35-.14.12-.34.04-.37-.14-.02-.1,0-.19.09-.26.13-.11.26-.22.39-.34.08-.07.16-.09.26-.04.09.04.13.13.14.21Z"/>
    <path class="cls-5" d="m4.23,4.14c0,.08-.03.14-.08.2-.07.06-.13.13-.2.19-.1.1-.21.11-.31.04-.1-.07-.13-.2-.08-.31.02-.04.04-.07.07-.1.06-.07.13-.13.19-.19.07-.07.15-.1.25-.06.09.03.15.13.15.23Z"/>
    <path class="cls-5" d="m2.45,3.25c0,.08-.03.15-.09.2-.04.03-.08.06-.12.09-.14.09-.33,0-.35-.16-.02-.12.02-.21.12-.28.05-.03.1-.07.15-.09.15-.05.29.08.29.24Z"/>
  </g>
  <rect class="cls-4" width="7.95" height="5"/>
</svg>