<?xml version="1.0" encoding="UTF-8"?>
<svg id="Capa_1" data-name="Capa 1" xmlns="http://www.w3.org/2000/svg" viewBox="0 0 480.12 414.53">
  <defs>
    <style>
      .cls-1 {
        fill: #5bbad8;
      }

      .cls-2 {
        fill: #fdffff;
      }

      .cls-3 {
        fill: #f19001;
      }

      .cls-4 {
        fill: #c5e5f2;
      }

      .cls-5 {
        fill: #d8d8d9;
      }

      .cls-6 {
        fill: #149939;
      }

      .cls-7 {
        fill: #1d1e1c;
      }
    </style>
  </defs>
  <g>
    <path class="cls-2" d="m159.94,414.4c35.64,0,71.29-.11,106.93.13,4.61.03,5.27-1.34,5.26-5.49-.15-49.8-.02-99.59-.22-149.39-.02-4.57,1.28-5.31,5.47-5.28,28.48.19,56.96.23,85.44-.03,4.57-.04,5.29,1.28,5.28,5.47-.15,49.96-.04,99.93-.2,149.89-.01,4.04,1.16,4.83,4.93,4.79,18.15-.2,36.31-.23,54.46.02,4.08.06,4.77-1.22,4.77-4.95-.12-54.13-.08-108.25-.08-162.38,0-5.37-2.6-8.27-7.81-8.7-.49-.04-1-.02-1.48-.12-13.65-2.77-25.94-8.17-35.72-18.44-1.99-2.09-3.79-1.89-5.97-.02-10.53,9.03-22.12,15.55-36.23,17.82-13.79,2.21-26.3-.51-38.51-6.39-6.08-2.93-11.04-7.46-16.33-11.51-1.46-1.11-2.54-2.03-4.25-.48-1.81,1.64-3.77,3.12-5.66,4.67-10.09,8.24-21.7,13.25-34.58,14.37-19.37,1.69-36.22-4.5-50.14-18.19-2.23-2.19-4-2.24-6.32-.18-10.32,9.17-21.99,15.3-35.87,17.67-14.12,2.41-26.95-.37-39.36-6.77-5.44-2.81-10.43-6.2-14.54-10.79-1.65-1.85-3.45-2.43-5.54-.66-2.12,1.79-4.2,3.64-6.4,5.34-10.19,7.9-21.72,12.73-34.58,13.51-4.17.25-4.66,1.54-4.65,5.1.1,55.29.14,110.59-.07,165.88-.02,4.68,1.45,5.24,5.53,5.22,35.48-.16,70.95-.09,106.43-.09v-.02ZM86.76,94.54h-33.45c-1.8,0-3.55-.13-4.93,1.62-7.43,9.47-15,18.85-22.44,28.28-7.66,9.71-15.08,19.67-22.56,29.56-2.28,3.02-3.66,6.48-3.33,10.58.36,4.47.05,8.98.15,13.47.29,12.45,5.86,22.97,14.47,31.05,9.46,8.88,20.8,14.36,34.83,13.54,19.24-1.12,32.52-10.57,41.42-26.86,5.14-9.4,5.4-19.92,5.12-30.36-.13-4.57.78-8.68,2.78-12.86,8.39-17.48,16.51-35.09,24.67-52.69,2.31-4.97,2.05-5.32-3.3-5.34-11.15-.04-22.3-.01-33.45-.01l.02.02Zm305.4,0c-11.32,0-22.64-.03-33.96.04-1.34,0-3.19-.87-3.97.91-.67,1.52.55,2.91,1.37,4.03,2.95,4,5.18,8.61,6.95,12.98,3.9,9.59,8.49,18.81,12.94,28.12,5,10.46,10.07,20.77,8.62,33.02-.75,6.37.55,12.47,3.04,18.73,6.58,16.52,26.67,31.38,45.33,30.33,19.83-1.12,33.29-10.54,42.6-27.42,3.14-5.69,4.06-11.91,4.59-17.99.81-9.3,1.24-18.46-5.75-26.74-14.63-17.33-28.53-35.29-42.35-53.27-1.76-2.29-3.14-2.73-5.46-2.73-11.32.02-22.64.01-33.96.01v-.02Zm-152.15,0c-11.16,0-22.32.19-33.47-.11-3.67-.1-4.98,1.3-5.45,4.54-1.67,11.65-2.9,23.4-5.25,34.91-2.76,13.5-3.87,27.01-3.84,40.76.03,15.93,6.92,28.13,18.89,37.97,10.93,8.98,23.9,12.54,37.2,9.49,25.28-5.8,38.29-22.48,39.97-47.1,1.02-14.9-2.45-29.35-4.46-43.93-1.5-10.87-4-21.6-5.23-32.49-.45-3.96-1.88-4.1-4.86-4.08-11.16.1-22.32.04-33.48.04h-.02Zm48.03,245.27c0,24.49.05,47.78-.06,71.07-.01,2.81.74,3.6,3.57,3.58,18.98-.12,37.96-.12,56.93,0,2.79.02,3.6-.69,3.6-3.55-.09-45.61-.08-91.22,0-136.83,0-2.67-.48-3.71-3.46-3.69-18.98.14-37.96.17-56.93-.02-3.32-.03-3.71,1.13-3.69,3.98.12,16.81.06,33.62.06,50.44v5.14c5.48-10.04,11.69-12.91,20.89-10.48,5.96,1.58,11.19,8.67,11.09,15.07-.1,6.97-6.06,14.25-12.96,15.86-7.58,1.76-14.16-1.61-19.03-10.57h-.01Z"/>
    <path class="cls-5" d="m159.94,414.4c-35.48,0-70.96-.07-106.43.09-4.07.02-5.55-.54-5.53-5.22.21-55.29.16-110.59.07-165.88,0-3.55.48-4.85,4.65-5.1,12.86-.78,24.38-5.61,34.58-13.51,2.19-1.7,4.28-3.54,6.4-5.34,2.1-1.77,3.89-1.19,5.54.66,4.11,4.6,9.1,7.99,14.54,10.79,12.41,6.4,25.24,9.18,39.36,6.77,13.88-2.37,25.55-8.5,35.87-17.67,2.32-2.06,4.09-2.02,6.32.18,13.92,13.69,30.78,19.88,50.14,18.19,12.88-1.13,24.49-6.13,34.58-14.37,1.89-1.55,3.85-3.02,5.66-4.67,1.7-1.55,2.79-.63,4.25.48,5.29,4.05,10.25,8.58,16.33,11.51,12.21,5.89,24.72,8.61,38.51,6.39,14.11-2.27,25.69-8.79,36.23-17.82,2.17-1.86,3.98-2.06,5.97.02,9.78,10.27,22.07,15.67,35.72,18.44.48.1.99.08,1.48.12,5.21.43,7.81,3.33,7.81,8.7,0,54.13-.04,108.25.08,162.38,0,3.73-.69,5.01-4.77,4.95-18.15-.25-36.31-.22-54.46-.02-3.77.04-4.94-.75-4.93-4.79.16-49.96.05-99.93.2-149.89.01-4.19-.71-5.51-5.28-5.47-28.48.26-56.96.22-85.44.03-4.19-.03-5.49.71-5.47,5.28.2,49.8.07,99.59.22,149.39.01,4.15-.65,5.52-5.26,5.49-35.64-.24-71.29-.13-106.93-.13v.02Zm.63-143.94c-20.15,0-40.31.08-60.46-.08-3.24-.02-4.13.79-4.11,4.08.15,23.98.14,47.97,0,71.95-.02,3.25.81,4.11,4.08,4.1,39.98-.12,79.95-.12,119.93,0,3.24,0,4.13-.79,4.1-4.07-.15-23.98-.14-47.97,0-71.95.02-3.25-.81-4.12-4.08-4.1-19.82.16-39.64.08-59.46.08h0Z"/>
    <path class="cls-3" d="m86.76,94.54c11.15,0,22.3-.03,33.45.01,5.35.02,5.6.37,3.3,5.34-8.16,17.59-16.28,35.21-24.67,52.69-2.01,4.18-2.91,8.29-2.78,12.86.29,10.44.02,20.96-5.12,30.36-8.91,16.29-22.19,25.74-41.42,26.86-14.03.82-25.38-4.66-34.83-13.54C6.07,201.03.5,190.51.21,178.06c-.1-4.49.21-9.01-.15-13.47-.33-4.09,1.05-7.56,3.33-10.58,7.47-9.89,14.89-19.85,22.56-29.56,7.45-9.44,15.01-18.82,22.44-28.28,1.38-1.76,3.12-1.62,4.93-1.62h33.45,0Z"/>
    <path class="cls-3" d="m392.16,94.54c11.32,0,22.64.01,33.96-.01,2.32,0,3.7.44,5.46,2.73,13.82,17.99,27.72,35.94,42.35,53.27,7,8.29,6.56,17.45,5.75,26.74-.53,6.09-1.45,12.3-4.59,17.99-9.31,16.88-22.77,26.3-42.6,27.42-18.66,1.05-38.75-13.81-45.33-30.33-2.49-6.26-3.8-12.36-3.04-18.73,1.45-12.25-3.62-22.56-8.62-33.02-4.45-9.31-9.04-18.52-12.94-28.12-1.78-4.37-4-8.98-6.95-12.98-.82-1.12-2.04-2.5-1.37-4.03.78-1.78,2.63-.9,3.97-.91,11.32-.08,22.64-.04,33.96-.04v.02Z"/>
    <path class="cls-7" d="m240,94.54c11.16,0,22.32.06,33.48-.04,2.98-.03,4.41.12,4.86,4.08,1.23,10.89,3.73,21.63,5.23,32.49,2.02,14.58,5.48,29.03,4.46,43.93-1.68,24.63-14.69,41.31-39.97,47.1-13.3,3.05-26.27-.51-37.2-9.49-11.97-9.84-18.86-22.03-18.89-37.97-.02-13.74,1.08-27.26,3.84-40.76,2.36-11.51,3.58-23.26,5.25-34.91.46-3.25,1.78-4.64,5.45-4.54,11.15.29,22.32.11,33.47.11h.02Z"/>
    <path class="cls-5" d="m288.04,339.81c4.87,8.96,11.44,12.33,19.03,10.57,6.9-1.6,12.85-8.89,12.96-15.86.09-6.4-5.13-13.49-11.09-15.07-9.2-2.43-15.41.44-20.89,10.48v-5.14c0-16.81.06-33.63-.06-50.44-.02-2.85.38-4.01,3.69-3.98,18.98.18,37.96.16,56.93.02,2.99-.02,3.47,1.02,3.46,3.69-.07,45.61-.08,91.22,0,136.83,0,2.85-.81,3.57-3.6,3.55-18.98-.12-37.96-.12-56.93,0-2.83.02-3.58-.77-3.57-3.58.11-23.29.06-46.58.06-71.07h.01Z"/>
    <path class="cls-1" d="m160.59,270.46c19.82,0,39.64.08,59.46-.08,3.27-.03,4.1.85,4.08,4.1-.14,23.98-.14,47.97,0,71.95.02,3.28-.87,4.08-4.1,4.07-39.98-.11-79.95-.12-119.93,0-3.27,0-4.1-.85-4.08-4.1.14-23.98.14-47.97,0-71.95-.02-3.28.87-4.1,4.11-4.08,20.15.15,40.31.08,60.46.08h0Z"/>
  </g>
  <path class="cls-6" d="m135.66,95.22h53.45l-9.87,68.43s3.74,55.15-28.26,57.19c-32,2.04-47.32-24.17-41.19-51.4s25.87-74.21,25.87-74.21h0Z"/>
  <path class="cls-6" d="m344.35,95.22h-53.45l9.87,68.43s-3.74,55.15,28.26,57.19c32,2.04,47.32-24.17,41.19-51.4s-25.87-74.21-25.87-74.21h0Z"/>
  <polygon class="cls-4" points="221.11 282.11 115.58 288.58 116.6 335.9 220.77 316.83 221.11 282.11"/>
  <path class="cls-2" d="m76.01,0c-9.22,0-15.43,6.73-15.46,16.64-.02,8.83.25,48.24-.11,57.05-.18,4.31,1.09,5.06,4.87,5.05,58.11-.14,116.22-.1,174.33-.1h0s0-.08,0-.08h120.58c18.54,0,37.08-.1,55.62.06,3.12.03,3.86-.95,3.79-4.14-.21-8.49.22-47.57-.14-56.05C418.99,6.73,413.63.03,402.25.03l-326.24-.03Z"/>
  <g>
    <path class="cls-6" d="m178.97,58.44c-3.33,0-6.48-1.68-9.44-5.02l-3.65,4.14c1.56,2,3.57,3.6,5.88,4.68,2.32,1.12,4.87,1.71,7.45,1.71,3.65.1,7.16-1.28,9.76-3.85,2.54-2.46,3.94-5.88,3.85-9.41.03-2.55-.77-5.03-2.29-7.09-1.55-2.07-4.48-4.23-8.81-6.46-3.53-1.82-5.86-3.4-6.97-4.75-1.04-1.15-1.63-2.64-1.66-4.19,0-1.68.74-3.27,2.01-4.36,1.3-1.23,3.03-1.9,4.81-1.87,2.98,0,6.01,1.5,9.1,4.52l3.73-3.85c-4.22-4.07-8.39-6.1-12.53-6.1-3.3-.1-6.49,1.12-8.87,3.4-2.32,2.22-3.6,5.32-3.52,8.53-.04,2.51.73,4.97,2.2,7,1.47,2.04,4.24,4.13,8.31,6.21,3.79,1.93,6.23,3.53,7.31,4.81,1.05,1.24,1.62,2.81,1.6,4.45,0,2.03-.9,3.95-2.45,5.27-1.62,1.49-3.75,2.29-5.95,2.23"/>
    <rect class="cls-6" x="197.96" y="17.69" width="5.8" height="45.1"/>
    <rect class="cls-6" x="210.18" y="17.69" width="5.8" height="45.1"/>
    <rect class="cls-7" x="296.57" y="17.69" width="5.8" height="45.1"/>
    <path class="cls-3" d="m200.85,12.93c2.64,0,4.78-2.11,4.81-4.75,0-2.65-2.16-4.81-4.81-4.81-1.25,0-2.46.5-3.34,1.4-.92.89-1.43,2.13-1.4,3.4.03,2.61,2.14,4.73,4.75,4.75"/>
    <path class="cls-7" d="m213.07,12.93c2.64,0,4.78-2.11,4.81-4.75,0-2.65-2.16-4.81-4.81-4.81-1.25,0-2.46.5-3.34,1.4-.92.89-1.43,2.13-1.4,3.4,0,1.27.5,2.48,1.4,3.35.86.92,2.07,1.43,3.34,1.4"/>
    <path class="cls-6" d="m302.83,4.73c-1.82-1.87-4.81-1.9-6.68-.07-.03.03-.04.04-.07.07-.92.89-1.41,2.13-1.4,3.4.12,2.63,2.35,4.67,4.97,4.55,2.46-.12,4.43-2.09,4.55-4.55.01-1.28-.5-2.51-1.4-3.4"/>
    <polygon class="cls-3" points="230.79 17.69 230.79 23.49 240.74 23.49 221.3 42.93 225.4 47.03 244.92 27.5 244.92 37.61 250.73 37.61 250.73 25.97 250.73 17.69 230.79 17.69"/>
    <path class="cls-7" d="m285.05,23.45c-4.27-4.51-10.25-7.02-16.47-6.93-3.47-.04-6.9.76-9.99,2.36-3.15,1.72-5.85,4.16-7.91,7.09v11.64h-5.78v39.19h5.78v-21.78c2.2,2.79,4.99,5.06,8.15,6.68,8.85,4.24,19.41,2.35,26.24-4.7,4.45-4.48,6.88-10.57,6.75-16.89.1-6.26-2.36-12.28-6.83-16.66m-1.69,25.83c-1.52,2.77-3.75,5.08-6.46,6.68-2.63,1.56-5.62,2.39-8.68,2.39s-6.2-.82-8.91-2.38c-2.73-1.49-4.97-3.7-6.49-6.4-1.53-2.79-2.3-5.94-2.26-9.12-.13-4.81,1.71-9.48,5.09-12.91,3.27-3.41,7.8-5.29,12.53-5.18,6.34-.06,12.19,3.38,15.24,8.94,3.19,5.56,3.19,12.41,0,17.97"/>
  </g>
</svg>