<?xml version="1.0" encoding="UTF-8"?>
<svg id="Capa_1" data-name="Capa 1" xmlns="http://www.w3.org/2000/svg" viewBox="0 0 138.32 73.49">
  <defs>
    <style>
      .cls-1 {
        fill: #f19001;
      }

      .cls-2 {
        fill: #149939;
      }

      .cls-3 {
        fill: #1d1e1c;
      }
    </style>
  </defs>
  <path class="cls-2" d="m13.09,55.13c-3.33,0-6.48-1.68-9.44-5.02l-3.65,4.14c1.56,2,3.57,3.6,5.88,4.68,2.32,1.12,4.87,1.71,7.45,1.71,3.65.1,7.16-1.28,9.76-3.85,2.54-2.46,3.94-5.88,3.85-9.41.03-2.55-.77-5.03-2.29-7.09-1.55-2.07-4.48-4.23-8.81-6.46-3.53-1.82-5.86-3.4-6.97-4.75-1.04-1.15-1.63-2.64-1.66-4.19,0-1.68.74-3.27,2.01-4.36,1.3-1.23,3.03-1.9,4.81-1.87,2.98,0,6.01,1.5,9.1,4.52l3.73-3.85c-4.22-4.07-8.39-6.1-12.53-6.1-3.3-.1-6.49,1.12-8.87,3.4-2.32,2.22-3.6,5.32-3.52,8.53-.04,2.51.73,4.97,2.2,7,1.47,2.04,4.24,4.13,8.31,6.21,3.79,1.93,6.23,3.53,7.31,4.81,1.05,1.24,1.62,2.81,1.6,4.45,0,2.03-.9,3.95-2.45,5.27-1.62,1.49-3.75,2.29-5.95,2.23"/>
  <rect class="cls-2" x="32.08" y="14.38" width="5.8" height="45.1"/>
  <rect class="cls-2" x="44.3" y="14.38" width="5.8" height="45.1"/>
  <rect class="cls-3" x="130.69" y="14.38" width="5.8" height="45.1"/>
  <path class="cls-3" d="m34.97,9.62c2.64,0,4.78-2.11,4.81-4.75,0-2.65-2.16-4.81-4.81-4.81-1.25,0-2.46.5-3.34,1.4-.92.89-1.43,2.13-1.4,3.4.03,2.61,2.14,4.73,4.75,4.75"/>
  <path class="cls-1" d="m47.19,9.62c2.64,0,4.78-2.11,4.81-4.75,0-2.65-2.16-4.81-4.81-4.81-1.25,0-2.46.5-3.34,1.4-.92.89-1.43,2.13-1.4,3.4,0,1.27.5,2.48,1.4,3.35.86.92,2.07,1.43,3.34,1.4"/>
  <path class="cls-2" d="m136.95,1.42c-1.82-1.87-4.81-1.9-6.68-.07-.03.03-.04.04-.07.07-.92.89-1.41,2.13-1.4,3.4.12,2.63,2.35,4.67,4.97,4.55,2.46-.12,4.43-2.09,4.55-4.55.01-1.28-.5-2.51-1.4-3.4"/>
  <polygon class="cls-1" points="64.91 14.38 64.91 20.18 74.86 20.18 55.42 39.62 59.52 43.72 79.04 24.19 79.04 34.3 84.85 34.3 84.85 22.66 84.85 14.38 64.91 14.38"/>
  <path class="cls-3" d="m119.17,20.14c-4.27-4.51-10.25-7.02-16.47-6.93-3.47-.04-6.9.76-9.99,2.36-3.15,1.72-5.85,4.16-7.91,7.09v11.64h-5.78v39.19h5.78v-21.78c2.2,2.79,4.99,5.06,8.15,6.68,8.85,4.24,19.41,2.35,26.24-4.7,4.45-4.48,6.88-10.57,6.75-16.89.1-6.26-2.36-12.28-6.83-16.66m-1.69,25.83c-1.52,2.77-3.75,5.08-6.46,6.68-2.63,1.56-5.62,2.39-8.68,2.39s-6.2-.82-8.91-2.38c-2.73-1.49-4.97-3.7-6.49-6.4-1.53-2.79-2.3-5.94-2.26-9.12-.13-4.81,1.71-9.48,5.09-12.91,3.27-3.41,7.8-5.29,12.53-5.18,6.34-.06,12.19,3.38,15.24,8.94,3.19,5.56,3.19,12.41,0,17.97"/>
</svg>