<?xml version="1.0" encoding="UTF-8"?>
<svg xmlns="http://www.w3.org/2000/svg" viewBox="0 0 243.62 245.95">
  <defs>
    <style>
      .cls-1 {
        fill: #b68a78;
      }

      .cls-2 {
        fill: #fff;
      }

      .cls-3 {
        fill: #159a34;
      }

      .cls-4 {
        fill: #aa392d;
      }

      .cls-5 {
        isolation: isolate;
      }

      .cls-6 {
        fill: #e9b097;
      }

      .cls-7 {
        fill: #f29100;
      }

      .cls-8 {
        fill: #2d2d2e;
      }

      .cls-9 {
        fill: #120a00;
        mix-blend-mode: multiply;
      }
    </style>
  </defs>
  <g class="cls-5">
    <g id="Capa_1" data-name="Capa 1">
      <path class="cls-2" d="m76.34,200.17c1.53-.42,3.1-.71,4.66-1.05.5.22.7.7.93,1.15,2.46,4.89,5.82,9.08,9.94,12.67,3.7,3.22,7.77,5.87,12.29,7.8,7.31,3.12,14.91,4.09,22.8,3.06,4.52-.59,8.82-1.87,12.97-3.71l.08-.05c.2-.09.39-.18.59-.28.65-.27,1.31-.53,1.96-.8.18.17.32.16.41-.07.55-.06,1.11-.08,1.64-.2,4.32-1.04,8.34-2.88,11.98-5.34,4.89-3.3,10.13-6.36,12.55-12.24,3.76.75,7.28,2.29,10.91,3.47,3.33,1.08,6.56,2.48,9.77,3.89,4.46,1.97,8.73,4.34,13.04,6.63,25.02-22.31,40.79-54.78,40.79-90.95,0-67.27-54.54-121.81-121.81-121.81C54.54,2.34,0,56.87,0,124.15c0,35.88,15.52,68.13,40.2,90.42,2.74-1.45,5.6-2.74,8.38-4.12,8.89-4.41,18.22-7.63,27.76-10.28Z"/>
      <g>
        <path class="cls-4" d="m142.93,218.89s.02,0,.02,0c0,0,0-.01,0-.02l-.03.02Z"/>
        <path class="cls-8" d="m121.77.13c-.13,0-.25,0-.38,0,.12-.17.25-.18.38,0Z"/>
        <path class="cls-8" d="m125.55.14c-.13,0-.25,0-.38,0,.13-.17.26-.16.38,0Z"/>
        <path class="cls-6" d="m93.86,187.86c-.04-.81-.7-1.16-1.21-1.6-6.77-5.84-12.12-12.81-16.76-20.42-2.93-4.81-5.01-9.96-6.97-15.18-.42-1.12-.81-1.58-1.99-.96-2.56,1.36-4.89.53-6.95-1.08-2.41-1.87-3.84-4.33-5.24-7.15-1.53-3.08-2.02-5.97-1.78-9.09.28-3.7,1.56-7.05,4.77-9.39.96-.7,2.1-.71,3.08-1.24.64-.02,1.29-.05,1.93-.07.97-1.97.23-4.04.37-6.06-.03-11.37,3.39-21.86,8.02-32.3.99,1.04,1.8,1.9,2.62,2.76-.08.58.32.92.63,1.31,4.8,5.93,10.62,10.76,16.98,14.83,15.73,10.08,32.98,14.22,51.61,12.31,12.14-1.24,23.42-5.06,33.8-11.48.53-.33,1.01-.83,1.67-.27.38,3.52,1.27,6.98,1.23,10.55.13,7.48.02,14.94-1.55,22.32-.96,4.49-2.38,8.84-3.56,13.27-2.56,6.43-5.39,12.71-9.06,18.61-4.63,7.43-10.34,13.9-16.93,19.63-4.29,3.21-8.76,6.09-13.79,8.04-6.91,2.69-13.97,3.24-21.25,1.92-6.78-1.23-12.54-4.54-18.03-8.45-.51-.36-.95-.84-1.65-.78Z"/>
        <path class="cls-8" d="m73.75,86.06c-.82-.86-1.63-1.72-2.62-2.76-4.63,10.44-8.05,20.94-8.02,32.3-.69,1.99.08,4.06-.37,6.06-.64.02-1.29.05-1.93.07-1.34-.98-1.17-2.63-1.36-3.9-.83-5.47-2.11-10.85-2.81-16.34-1.54-12.04,2.76-22.17,10.12-31.13,3.32-4.05,7.63-7.18,12.63-9.35,3.48-1.51,6.56-3.94,9.84-5.94,7.4-4.51,15.48-7.19,23.89-9.06,2.45-.55,4.96-.89,7.4-1.29,1.78-.29,3.89-.29,5.85-.23,6.66.19,13.3.37,19.87,1.8,7.02,1.52,13.2,4.65,18.69,9.12,8.42,6.86,14.21,15.73,18.25,25.69,2.34,5.78,3.84,11.87,3.26,18.18-.4,4.3-1.29,8.55-2.03,12.81-.56,3.23-1.23,6.44-1.86,9.66-2.5-.01-2.43-.02-2.51-2.5-.07-1.98.42-4-.37-5.94.04-3.57-.84-7.03-1.23-10.55-.59-2.76-1.31-5.47-2.13-8.17-.42-1.37-.73-1.66-2.02-.72-5.13,3.71-10.73,6.57-16.62,8.84-7.85,3.01-16.01,4.68-24.39,5.26-6.67.46-13.33,0-19.86-1.21-4.53-.83-8.95-2.4-13.3-4.04-7.19-2.72-13.64-6.69-19.91-11.03-2.37-1.64-3.97-4.13-6.45-5.61Z"/>
        <path class="cls-1" d="m93.86,187.86c.7-.06,1.14.42,1.65.78,5.49,3.91,11.25,7.22,18.03,8.45,7.29,1.33,14.34.77,21.25-1.92,5.02-1.96,9.5-4.83,13.79-8.04.78,2.65,1.59,5.3,2.33,7.97.33,1.17.99,1.7,2.22,1.91,2.85.48,5.71.98,8.47,1.88-.17.53-.27,1.1-.53,1.59-2.5,4.63-5.71,8.7-9.6,12.25-2.61,2.38-5.63,4.19-8.53,6.16,0,0,.03-.02.03-.02-.14.03-.28.06-.42.09-.65.27-1.31.53-1.96.79-.26-.03-.48,0-.59.28,0,0-.08.05-.08.05-2.07-.01-4.15-.01-6.22-.03-2.5-.03-5,.02-7.47-.62-9.24-2.43-16.87-7.58-23.74-13.99-3.78-3.53-6.78-7.73-9.82-11.88.39-1.9,1.16-3.73,1.21-5.7Z"/>
        <path class="cls-6" d="m92.66,193.56c3.05,4.15,6.04,8.35,9.82,11.88,6.88,6.41,14.5,11.56,23.74,13.99,2.47.65,4.97.6,7.47.62,2.07.02,4.15.02,6.22.03-4.15,1.85-8.44,3.12-12.97,3.72-7.89,1.03-15.49.06-22.8-3.06-4.52-1.93-8.58-4.58-12.29-7.8-4.13-3.59-7.48-7.78-9.94-12.67-.22-.45-.42-.92-.93-1.15,2.25-.91,4.62-1.54,7-1.64,2.77-.12,4.14-1.38,4.66-3.92Z"/>
        <path class="cls-1" d="m179.68,113.31c.79,1.93.3,3.96.37,5.94.08,2.49.01,2.49,2.51,2.5,4.87,2.08,7.25,6,7.37,11.34.1,4.34-.58,8.42-3.47,11.73-1.75,2-3.34,4.18-6.24,5.13-2.35.77-3.86-.25-5.65-1.05,1.18-4.43,2.6-8.77,3.56-13.27,1.57-7.38,1.68-14.83,1.55-22.32Z"/>
        <path class="cls-8" d="m142.93,218.89c2.9-1.97,5.92-3.78,8.53-6.16,3.89-3.55,7.1-7.63,9.6-12.25.26-.48.36-1.06.53-1.59,2.52.68,5.23.74,7.52,2.22-2.42,5.88-7.66,8.94-12.55,12.24-3.64,2.46-7.66,4.3-11.98,5.34-.54.13-1.11.14-1.66.21Z"/>
        <path class="cls-6" d="m140,220.03c.11-.27.33-.31.59-.28-.2.09-.39.19-.59.28Z"/>
        <path class="cls-8" d="m142.54,218.96c.14-.03.28-.06.42-.09-.09.26-.23.27-.42.09Z"/>
        <path class="cls-6" d="m73.75,86.06c2.48,1.49,4.08,3.97,6.45,5.61,6.27,4.34,12.73,8.31,19.91,11.03,4.36,1.65,8.78,3.21,13.3,4.04,6.53,1.2,13.19,1.68,19.86,1.21,8.38-.58,16.54-2.25,24.39-5.26,5.89-2.26,11.5-5.13,16.62-8.84,1.3-.94,1.61-.65,2.02.72.82,2.7,1.54,5.42,2.13,8.17-.66-.56-1.14-.06-1.67.27-10.38,6.42-21.67,10.24-33.8,11.48-18.63,1.91-35.88-2.23-51.61-12.31-6.36-4.07-12.18-8.9-16.98-14.83-.32-.39-.71-.73-.63-1.31Z"/>
        <path class="cls-1" d="m62.75,121.66c.45-2-.32-4.08.37-6.06-.14,2.02.6,4.09-.37,6.06Z"/>
      </g>
      <path d="m202.83,215.09c-4.31-2.29-8.57-4.66-13.04-6.63-3.21-1.41-6.44-2.81-9.77-3.89-3.63-1.18-7.15-2.72-10.91-3.47-2.42,5.88-7.66,8.94-12.55,12.24-3.64,2.46-7.66,4.3-11.98,5.34-.53.13-1.09.14-1.64.2-.09.24-.23.25-.41.07-.65.27-1.31.53-1.96.8-.2.09-.39.18-.59.28l-.08.05c-4.15,1.85-8.44,3.12-12.97,3.71-7.89,1.03-15.49.06-22.8-3.06-4.52-1.93-8.58-4.58-12.29-7.8-4.13-3.59-7.48-7.78-9.94-12.67-.22-.45-.42-.92-.93-1.15-1.55.35-3.13.63-4.66,1.05-9.54,2.64-18.88,5.87-27.76,10.28-2.78,1.38-5.63,2.67-8.38,4.12,21.6,19.5,50.22,31.38,81.61,31.38s59.49-11.67,81.02-30.86Z"/>
      <path class="cls-7" d="m57.9,74.41s1.76-62.93,65.03-62.93c63.27,0,65.03,62.93,65.03,62.93"/>
      <path class="cls-3" d="m122.93,66.69c-41.32,0-65.03,7.71-65.03,7.71l-9.24,16.87s-4.45,14.38,10.85,12.16c15.3-2.22,48.77-3.79,63.42-3.79,14.65,0,48.12,1.57,63.42,3.79,15.3,2.22,10.85-12.16,10.85-12.16l-9.24-16.87s-23.71-7.71-65.03-7.71"/>
      <g>
        <g>
          <path class="cls-3" d="m98.29,55.3c-1.54,0-3-.77-4.37-2.32l-1.69,1.92c.72.92,1.63,1.64,2.72,2.17,1.09.53,2.25.79,3.45.79,1.81,0,3.31-.6,4.52-1.79,1.2-1.19,1.81-2.64,1.81-4.36,0-1.21-.35-2.31-1.06-3.28-.72-.96-2.08-1.96-4.08-2.99-1.64-.84-2.72-1.58-3.23-2.21-.51-.61-.77-1.26-.77-1.94,0-.77.31-1.44.93-2.02.62-.58,1.37-.86,2.24-.86,1.37,0,2.78.7,4.21,2.09l1.73-1.78c-1.95-1.88-3.88-2.82-5.81-2.82-1.65,0-3.02.52-4.1,1.57-1.08,1.05-1.63,2.37-1.63,3.95,0,1.22.34,2.3,1.02,3.24.68.95,1.96,1.91,3.85,2.88,1.76.9,2.88,1.64,3.39,2.23.5.6.75,1.29.75,2.05,0,.93-.38,1.75-1.13,2.44-.76.69-1.67,1.04-2.75,1.04Z"/>
          <rect class="cls-3" x="107.1" y="36.44" width="2.69" height="20.89"/>
          <rect class="cls-3" x="112.76" y="36.44" width="2.69" height="20.89"/>
          <rect class="cls-9" x="152.76" y="36.44" width="2.69" height="20.89"/>
          <path class="cls-2" d="m108.44,34.23c.61,0,1.13-.22,1.57-.65.43-.43.65-.95.65-1.55s-.22-1.14-.65-1.57c-.43-.43-.96-.65-1.57-.65s-1.12.22-1.55.65c-.43.43-.65.96-.65,1.57s.22,1.12.65,1.55c.43.44.95.65,1.55.65Z"/>
          <path class="cls-9" d="m114.1,34.23c.61,0,1.14-.22,1.57-.65.43-.43.65-.95.65-1.55s-.22-1.14-.65-1.57c-.43-.43-.95-.65-1.57-.65s-1.11.22-1.55.65c-.43.43-.65.96-.65,1.57s.22,1.12.65,1.55c.43.44.95.65,1.55.65Z"/>
          <path class="cls-3" d="m155.66,30.45c-.43-.43-.96-.65-1.57-.65s-1.12.22-1.55.65c-.43.44-.65.96-.65,1.57s.22,1.12.65,1.55c.43.44.95.65,1.55.65s1.14-.22,1.57-.65c.43-.43.65-.95.65-1.55s-.22-1.14-.65-1.57Z"/>
          <polygon class="cls-2" points="122.3 36.44 122.3 39.12 126.91 39.12 117.9 48.13 119.8 50.02 128.85 40.98 128.85 45.67 131.53 45.67 131.53 40.27 131.53 36.44 122.3 36.44"/>
        </g>
        <path class="cls-9" d="m147.43,39.1c-2.11-2.14-4.65-3.21-7.61-3.21-1.7,0-3.24.36-4.62,1.09-1.38.73-2.6,1.82-3.66,3.28v5.39h-2.69s0,18.15,0,18.15h2.69s0-10.08,0-10.08c1.12,1.37,2.38,2.4,3.78,3.09,1.39.69,2.92,1.04,4.58,1.04,2.95,0,5.47-1.07,7.57-3.22,2.09-2.14,3.13-4.75,3.13-7.82s-1.05-5.58-3.16-7.72Zm-.79,11.97c-.74,1.32-1.74,2.35-3,3.09-1.25.74-2.59,1.11-4.02,1.11s-2.82-.37-4.13-1.1c-1.3-.73-2.31-1.72-3.01-2.97-.7-1.25-1.05-2.66-1.05-4.22,0-2.38.78-4.37,2.35-5.98,1.57-1.6,3.5-2.4,5.79-2.4,1.47,0,2.84.36,4.08,1.09,1.25.72,2.24,1.74,2.98,3.05.74,1.31,1.1,2.7,1.1,4.16s-.37,2.84-1.11,4.16Z"/>
      </g>
    </g>
  </g>
</svg>